<svg xmlns="http://www.w3.org/2000/svg" viewBox="0 0 24 24" fill="none"><path fill="#ebebeb" d="M5.927 13H4.53a2.5 2.5 0 0 1-2.5-2.5v-6a2.5 2.5 0 0 1 2.5-2.5h11.907a2.5 2.5 0 0 1 2.5 2.5v6a2.5 2.5 0 0 1-2.5 2.5h-4.431l-1.8 1.998q-.593.658-1.24.658-.648 0-1.24-.658z" xmlns="http://www.w3.org/2000/svg" /><path fill="#9b9b9b" d="M14.646 5.261c.374 0 .677.323.677.72 0 .398-.303.721-.677.721H5.788c-.373 0-.676-.323-.676-.72 0-.398.303-.72.676-.72zM11.315 8.298c.373 0 .676.323.676.72 0 .398-.303.72-.676.72H5.788c-.373 0-.676-.322-.676-.72s.303-.72.676-.72z" xmlns="http://www.w3.org/2000/svg" /><path fill="#45d8bf" d="M16.697 16.215q1.52 0 2.847.675a6.4 6.4 0 0 1 2.244 1.834 6.2 6.2 0 0 1 1.194 2.63q.12.591-.206.929-.325.337-.94.337h-10.29q-.615 0-.941-.337t-.205-.93q.29-1.459 1.194-2.629a6.4 6.4 0 0 1 2.232-1.834 6.3 6.3 0 0 1 2.87-.675M16.684 7.904a3.65 3.65 0 0 1 1.907.518q.881.507 1.387 1.387a3.65 3.65 0 0 1 .518 1.907q0 1.036-.518 1.918a3.8 3.8 0 0 1-1.387 1.387 3.7 3.7 0 0 1-1.907.507 3.8 3.8 0 0 1-1.918-.507 3.95 3.95 0 0 1-1.387-1.388 3.8 3.8 0 0 1-.507-1.917q0-1.038.507-1.907a3.8 3.8 0 0 1 1.388-1.387 3.7 3.7 0 0 1 1.917-.518" xmlns="http://www.w3.org/2000/svg" /></svg>