<svg xmlns="http://www.w3.org/2000/svg" viewBox="0 0 20 20"><path d="M1.704 8.973c.366.016.65.326.634.693a7.65 7.65 0 0 0 2.24 5.756.665.665 0 0 1-.94.94A8.98 8.98 0 0 1 1.01 9.608a.666.666 0 0 1 .694-.635M16.92 13.31a.665.665 0 0 1 1.199.575 9 9 0 0 1-1.756 2.477.665.665 0 0 1-.94-.94 7.7 7.7 0 0 0 1.496-2.112M5.847 5.847a.666.666 0 0 1 .94.941 4.543 4.543 0 0 0 0 6.425.665.665 0 0 1-.94.94 5.874 5.874 0 0 1 0-8.306M13.212 5.847c.26-.26.681-.26.94 0a5.874 5.874 0 0 1 0 8.306.665.665 0 0 1-.94-.94 4.543 4.543 0 0 0 0-6.425.666.666 0 0 1 0-.941" xmlns="http://www.w3.org/2000/svg" /><path fill-rule="evenodd" d="M10 7.252a2.749 2.749 0 1 1 0 5.498 2.749 2.749 0 0 1 0-5.498m0 1.33a1.418 1.418 0 1 0 0 2.837 1.418 1.418 0 0 0 0-2.837" clip-rule="evenodd" xmlns="http://www.w3.org/2000/svg" /><path d="M15.422 3.637c.26-.26.681-.26.94 0a8.98 8.98 0 0 1 2.628 6.755.665.665 0 0 1-1.33-.058 7.65 7.65 0 0 0-2.238-5.756.667.667 0 0 1 0-.941M3.637 3.637a.666.666 0 0 1 .94.941A7.7 7.7 0 0 0 3.08 6.689a.665.665 0 0 1-1.2-.574 9 9 0 0 1 1.757-2.478" xmlns="http://www.w3.org/2000/svg" /></svg>