<svg xmlns="http://www.w3.org/2000/svg" viewBox="0 0 16 16"><path fill-rule="evenodd" d="m7.753 5.423.159.08 6.442 3.85c.74.443.76 1.508.037 1.977l-.87.565.668 1.046c.344.539.19 1.255-.347 1.603l-1.848 1.2c-.54.351-1.261.198-1.612-.342l-.67-1.032-.785.508a1.164 1.164 0 0 1-1.789-.823l-.98-7.399c-.12-.905.792-1.566 1.595-1.233m.669 8.199 1.123-.73c.308-.2.72-.112.92.196l.942 1.452 1.573-1.021-.934-1.465-.061-.119a.666.666 0 0 1 .259-.795l1.201-.78-5.924-3.54z" clip-rule="evenodd" xmlns="http://www.w3.org/2000/svg" /><path d="M8.225.198a5.92 5.92 0 0 1 4.667 5.312.665.665 0 1 1-1.325.105 4.585 4.585 0 1 0-6.768 4.395.665.665 0 1 1-.635 1.168A5.915 5.915 0 0 1 8.225.198" xmlns="http://www.w3.org/2000/svg" /></svg>