<svg xmlns="http://www.w3.org/2000/svg" viewBox="0 0 21 21"><path d="M9.397 2.516a.665.665 0 0 1 1.33 0v1.337q.087.042.17.096l.57.382c.856.57 1.86.874 2.888.874h2.975a.665.665 0 0 1 0 1.33h-.622l1.814 5.589a.67.67 0 0 1-.135.646c-.734.828-1.63 1.312-2.595 1.312-.964 0-1.86-.484-2.594-1.312a.67.67 0 0 1-.135-.646l1.814-5.589h-.522a6.54 6.54 0 0 1-3.625-1.098l-.003-.002v10.67h2.69a.665.665 0 0 1 0 1.33H6.708a.665.665 0 0 1 0-1.33h2.69V5.435l-.003.003A6.54 6.54 0 0 1 5.77 6.534h-.522l1.814 5.589a.67.67 0 0 1-.135.646c-.733.828-1.63 1.312-2.594 1.312-.965 0-1.861-.484-2.595-1.312a.67.67 0 0 1-.134-.646l1.813-5.589h-.622a.665.665 0 0 1 0-1.33H5.77a5.2 5.2 0 0 0 2.886-.874l.573-.382q.081-.054.168-.096zM2.993 12.15c.466.428.927.602 1.34.602s.874-.174 1.339-.602l-1.34-4.127zm11.46 0c.465.428.926.602 1.339.602s.874-.174 1.339-.602l-1.339-4.127z" xmlns="http://www.w3.org/2000/svg" /></svg>