<svg xmlns="http://www.w3.org/2000/svg" viewBox="0 0 20 20"><path d="M2 14.167V5.834a2.33 2.33 0 0 1 2.332-2.332h.833l.134.013a.665.665 0 0 1 0 1.303l-.134.014h-.833c-.553 0-1.002.448-1.002 1.002v8.333c0 .553.449 1.002 1.002 1.002h.833l.134.013a.665.665 0 0 1 0 1.303l-.134.014h-.833A2.33 2.33 0 0 1 2 14.167m14.67.013V5.847c0-.553-.449-1.002-1.002-1.002h-.833a.665.665 0 1 1 0-1.33h.833A2.33 2.33 0 0 1 18 5.847v8.333a2.33 2.33 0 0 1-2.332 2.332h-.833a.665.665 0 0 1 0-1.33h.833c.553 0 1.002-.449 1.002-1.002M6.613 7.655a.665.665 0 0 1 .836-.085l.105.085L9.429 9.53c.26.26.26.68 0 .94l-1.875 1.875a.665.665 0 0 1-.94-.94L8.017 10 6.613 8.595l-.085-.104a.665.665 0 0 1 .085-.836m6.304 3.555.134.013a.666.666 0 0 1 0 1.303l-.134.014h-1.875a.665.665 0 0 1 0-1.33z" xmlns="http://www.w3.org/2000/svg" /></svg>