<svg xmlns="http://www.w3.org/2000/svg" viewBox="0 0 24 24" fill="none"><path fill="#dfdfdf" d="M13 2.594q.4 0 .813.224.412.226.924.726l4.95 4.9q.813.812.813 1.65v7.45q0 1.088-.537 2.013a4 4 0 0 1-1.463 1.449 3.87 3.87 0 0 1-2 .538h-9q-1.087 0-2.013-.538a4.03 4.03 0 0 1-1.45-1.45 3.94 3.94 0 0 1-.537-2.012V6.594q0-1.088.537-2a4 4 0 0 1 1.45-1.463A3.94 3.94 0 0 1 7.5 2.594z" xmlns="http://www.w3.org/2000/svg" /><path fill="#9b9b9b" d="M14.696 16.734c.374 0 .677.323.677.72 0 .398-.303.72-.677.72H7.304c-.374 0-.677-.322-.677-.72s.303-.72.677-.72zM16.696 13.73c.374 0 .677.323.677.72 0 .398-.303.72-.677.72H7.304c-.374 0-.677-.322-.677-.72s.303-.72.677-.72z" xmlns="http://www.w3.org/2000/svg" /><path fill="#ebebeb" d="M13 2.594q.4 0 .813.225t.925.725l4.95 4.9q.812.812.812 1.65h-4.787q-1.25 0-1.988-.725Q13 8.632 13 7.38z" xmlns="http://www.w3.org/2000/svg" /></svg>