<svg xmlns="http://www.w3.org/2000/svg" viewBox="0 0 20 20"><path d="M3.502 12.666V7.333c0-.689 0-1.246.036-1.696.037-.458.117-.864.308-1.24l.123-.219c.304-.496.74-.9 1.261-1.165l.143-.066c.336-.145.697-.21 1.097-.243.45-.036 1.008-.036 1.697-.036h1l.134.014a.665.665 0 0 1 0 1.303l-.134.013h-1c-.711 0-1.205.001-1.588.033-.282.023-.472.06-.615.11l-.13.058a1.84 1.84 0 0 0-.732.675L5.032 5c-.08.158-.137.37-.168.745-.031.384-.032.877-.032 1.588v5.333c0 .711 0 1.205.032 1.588.03.376.088.587.168.745l.07.127c.177.288.43.522.732.676l.13.056c.143.051.333.089.615.112.383.031.877.031 1.588.031h1l.134.014a.665.665 0 0 1 0 1.303l-.134.013h-1c-.69 0-1.246.001-1.697-.036-.4-.033-.76-.098-1.097-.242l-.143-.066a3.17 3.17 0 0 1-1.261-1.165l-.123-.218c-.192-.377-.27-.783-.308-1.241-.037-.45-.036-1.008-.036-1.697m10.302 1.138a.666.666 0 0 1-.941-.941zm-.941-7.607a.665.665 0 0 1 .836-.085l.104.085 3.334 3.333c.26.26.26.68 0 .94l-3.334 3.334-.47-.47-.47-.471 2.197-2.198H9.167a.665.665 0 0 1 0-1.33h5.894l-2.198-2.198-.085-.104a.665.665 0 0 1 .085-.836" xmlns="http://www.w3.org/2000/svg" /></svg>