<svg xmlns="http://www.w3.org/2000/svg" viewBox="0 0 24 24" fill="none"><path fill="var(--zip-icon-main-fill, #bbbbbb)" d="M13 2.226q.4 0 .813.225t.924.726l4.95 4.899q.813.813.813 1.65v7.45q0 1.088-.537 2.013a4 4 0 0 1-1.463 1.45 3.87 3.87 0 0 1-2 .538h-9q-1.087 0-2.013-.539a4.03 4.03 0 0 1-1.45-1.449 3.94 3.94 0 0 1-.537-2.012V6.227q0-1.088.537-2a4 4 0 0 1 1.45-1.464A3.94 3.94 0 0 1 7.5 2.226z" xmlns="http://www.w3.org/2000/svg" /><path fill="var(--zip-icon-text-fill, #fff)" d="M13.15 14.406h1.669q.36 0 .625.137a1 1 0 0 1 .419.403q.148.26.148.626 0 .365-.148.63a1 1 0 0 1-.419.403 1.34 1.34 0 0 1-.625.138h-.954v1.373h-.716zm1.59 1.7q.27 0 .413-.142a.54.54 0 0 0 .143-.392.52.52 0 0 0-.143-.387q-.143-.144-.414-.143h-.874v1.065zM11.566 14.406h.715v3.71h-.715zM7.989 17.506l2.056-2.464H8.042v-.636h2.835v.61L8.821 17.48h2.11v.636H7.988z" xmlns="http://www.w3.org/2000/svg" /><rect width="4" height="1" x="10" y="3.253" fill="var(--zip-icon-zipper-fill, #818181)" rx=".5" xmlns="http://www.w3.org/2000/svg" /><rect width="4" height="1" x="10" y="5.239" fill="var(--zip-icon-zipper-fill, #818181)" rx=".5" xmlns="http://www.w3.org/2000/svg" /><rect width="4" height="1" x="10" y="7.226" fill="var(--zip-icon-zipper-fill, #818181)" rx=".5" xmlns="http://www.w3.org/2000/svg" /><path fill="var(--zip-icon-zipper-fill, #818181)" d="M13.992 9.665c0 1.17-.883 2.085-1.972 2.085-1.13 0-2.012-.915-2.012-2.085 0-1.128.883-2.042 2.013-2.042 1.088 0 1.971.914 1.971 2.042" xmlns="http://www.w3.org/2000/svg" /><path fill="var(--zip-icon-zipper-center-fill, #d7d7d7)" d="M13.057 9.64c0 .62-.469 1.106-1.046 1.106-.6 0-1.068-.485-1.068-1.106a1.07 1.07 0 0 1 1.068-1.083c.577 0 1.046.485 1.046 1.083" xmlns="http://www.w3.org/2000/svg" /><path fill="var(--zip-icon-corner-fill, #dbdbdb)" d="M13 2.226q.4 0 .813.225t.925.725l4.95 4.9q.812.813.812 1.65h-4.787q-1.25 0-1.988-.725Q13 8.264 13 7.014z" xmlns="http://www.w3.org/2000/svg" /></svg>