<svg xmlns="http://www.w3.org/2000/svg" viewBox="0 0 21 20"><path d="M16.71 3.415h-.773c-.708 0-1.387.281-1.887.781l-2.246 2.246a.67.67 0 0 1-.692.158L5.255 4.532a1 1 0 0 0-1.041.237l-.334.333 4.637 3.565a.665.665 0 0 1 .064.998l-1.61 1.61a.67.67 0 0 1-.471.196H5.164L4.075 12.56l1.546.579c.63.236 1.129.734 1.365 1.365l.579 1.545 1.09-1.089v-1.335c0-.176.07-.346.195-.47l1.61-1.611.054-.048a.664.664 0 0 1 .944.112l3.565 4.636.334-.333c.272-.272.364-.677.236-1.04l-2.068-5.858a.67.67 0 0 1 .158-.692l2.246-2.246c.5-.5.781-1.179.781-1.887zm1.33.773a4 4 0 0 1-1.17 2.828l-1.951 1.949 1.928 5.462c.299.846.085 1.79-.55 2.425l-.868.869a.666.666 0 0 1-.997-.066l-3.567-4.635-.88.88v1.336c0 .176-.07.345-.195.47l-2.015 2.015a.665.665 0 0 1-1.092-.238l-.943-2.512a1 1 0 0 0-.586-.586l-2.512-.943a.667.667 0 0 1-.238-1.092l2.015-2.015.1-.083a.67.67 0 0 1 .37-.111h1.335l.88-.882L2.47 5.693a.665.665 0 0 1-.066-.997l.87-.868a2.33 2.33 0 0 1 2.424-.55l5.461 1.927 1.95-1.95a4 4 0 0 1 2.828-1.17h1.438c.367 0 .665.298.665.665z" xmlns="http://www.w3.org/2000/svg" /></svg>