<svg xmlns="http://www.w3.org/2000/svg" viewBox="0 0 20 20"><path fill-rule="evenodd" d="M14.584 10.585a2.33 2.33 0 0 1 2.331 2.332v.705c.73.27 1.25.971 1.25 1.795v1.666a1.915 1.915 0 0 1-1.915 1.915h-3.333a1.915 1.915 0 0 1-1.915-1.915v-1.666c0-.824.52-1.524 1.25-1.795v-.705a2.33 2.33 0 0 1 2.332-2.332m-1.667 4.247a.585.585 0 0 0-.585.585v1.666c0 .323.262.585.585.585h3.333a.585.585 0 0 0 .585-.585v-1.666a.585.585 0 0 0-.585-.585zm1.667-2.917c-.553 0-1.002.449-1.002 1.002v.585h2.003v-.585c0-.553-.448-1.002-1.001-1.002" clip-rule="evenodd" xmlns="http://www.w3.org/2000/svg" /><path d="M9.451 11.356a.665.665 0 0 1 .098 1.326c-2.913.215-5.134 2.476-5.134 5.151a.665.665 0 0 1-1.33 0c0-3.453 2.843-6.217 6.366-6.477" xmlns="http://www.w3.org/2000/svg" /><path fill-rule="evenodd" d="M10 1.835a4 4 0 1 1 0 7.998 4 4 0 0 1 0-7.998m0 1.33a2.668 2.668 0 1 0 0 5.337 2.668 2.668 0 0 0 0-5.337" clip-rule="evenodd" xmlns="http://www.w3.org/2000/svg" /></svg>