<svg xmlns="http://www.w3.org/2000/svg" viewBox="0 0 21 20"><path d="M10.125 8.335c.775 0 1.607.41 2.327.94a9 9 0 0 1 2.02 2.113c.556.814.984 1.75 1.078 2.676.096.953-.165 1.907-.994 2.628-.605.526-1.252.657-1.881.477-.554-.159-1.03-.544-1.394-.86l-.012-.013c-.245-.224-.666-.373-1.131-.373-.472 0-.84.151-1.019.34l-.022.024-.025.022c-.38.331-.878.708-1.455.863-.635.17-1.307.056-1.923-.48-.829-.721-1.09-1.675-.994-2.628.094-.927.522-1.862 1.077-2.676a9 9 0 0 1 2.02-2.113c.721-.53 1.553-.94 2.328-.94m0 1.33c-.35 0-.9.211-1.538.682a7.6 7.6 0 0 0-1.711 1.79c-.481.706-.789 1.43-.853 2.06-.06.604.097 1.103.544 1.493.28.243.494.254.705.198.268-.072.573-.276.923-.581.513-.51 1.264-.714 1.943-.714.697 0 1.465.213 2.016.712.37.321.647.517.887.586.164.047.351.051.642-.201.447-.39.605-.89.544-1.493-.064-.63-.372-1.354-.853-2.06a7.6 7.6 0 0 0-1.71-1.79c-.64-.47-1.188-.682-1.539-.682M3.298 6.102c.567-.125 1.12.06 1.545.367.428.31.774.776.958 1.324L5.86 8c.12.483.1.976-.07 1.404-.2.498-.608.91-1.191 1.038-.568.125-1.12-.058-1.545-.366a2.7 2.7 0 0 1-.958-1.324c-.183-.547-.185-1.122.01-1.611.199-.498.608-.91 1.19-1.038m12.11.367c.424-.308.977-.492 1.544-.367.583.128.992.54 1.19 1.038.196.49.195 1.064.011 1.611a2.7 2.7 0 0 1-.958 1.324c-.425.308-.977.491-1.545.367-.583-.129-.992-.54-1.19-1.039-.195-.489-.194-1.063-.01-1.61l.075-.201c.195-.46.507-.852.882-1.123M3.581 7.4c-.091.02-.18.083-.24.232-.062.158-.082.404.015.696.098.292.28.526.477.67.201.145.373.167.48.144.092-.02.18-.082.24-.232a1 1 0 0 0 .016-.589l-.03-.107a1.37 1.37 0 0 0-.477-.669c-.202-.145-.374-.168-.48-.145m13.086 0c-.107-.023-.28 0-.48.145a1.35 1.35 0 0 0-.437.562l-.04.107c-.098.292-.078.538-.015.696.06.15.148.212.24.232.107.023.279 0 .48-.145.198-.143.38-.377.477-.669s.077-.538.014-.696c-.06-.15-.148-.211-.239-.232M7.64 2.755c.613.022 1.12.37 1.46.808a2.9 2.9 0 0 1 .584 1.636c.028.616-.13 1.205-.453 1.655-.328.454-.845.78-1.473.758-.613-.021-1.122-.368-1.461-.806a2.9 2.9 0 0 1-.584-1.638c-.029-.615.13-1.205.454-1.654.328-.455.845-.781 1.473-.759m4.97 0c.628-.022 1.145.304 1.473.759.324.449.483 1.039.454 1.654a2.9 2.9 0 0 1-.584 1.638c-.34.438-.848.785-1.46.806-.629.023-1.146-.304-1.473-.758-.324-.45-.482-1.04-.454-1.655a2.9 2.9 0 0 1 .584-1.636c.34-.438.847-.786 1.46-.808m-5.017 1.33c-.102-.005-.227.04-.348.207-.124.172-.22.455-.203.814.017.357.141.67.307.884.168.218.34.29.456.293.101.004.226-.04.346-.208.125-.172.221-.454.204-.813a1.6 1.6 0 0 0-.306-.885c-.168-.217-.34-.289-.456-.293m5.064 0c-.116.003-.287.075-.456.292-.165.214-.29.527-.306.885-.017.359.08.641.204.813.12.167.245.212.346.208.117-.004.288-.075.456-.293.166-.213.29-.527.307-.884.017-.36-.079-.642-.203-.814-.12-.167-.246-.212-.348-.208" xmlns="http://www.w3.org/2000/svg" /></svg>