<svg xmlns="http://www.w3.org/2000/svg" viewBox="0 0 20 20"><path d="M3.383 10.172c-1.835-.857-1.682-3.516.239-4.156l11.435-3.811c1.692-.564 3.302 1.046 2.738 2.738l-3.81 11.435c-.641 1.92-3.3 2.074-4.157.239l-1.91-4.094a.9.9 0 0 0-.44-.44zM17 3.4c-.272.34-1.185 1.725-1.953 2.493l-5.973 5.973q.026.046.049.094l1.91 4.095c.348.745 1.428.683 1.688-.098l3.813-11.434c.056-.172.423-.987.466-1.123M4.043 7.279c-.78.26-.843 1.34-.098 1.688l4.095 1.91.093.05 5.974-5.975c.767-.767 2.153-1.63 2.493-1.902-.136.043-.952.36-1.123.416z" xmlns="http://www.w3.org/2000/svg" /></svg>