<svg xmlns="http://www.w3.org/2000/svg" viewBox="0 0 18 18"><path d="M2.25 5.25a3 3 0 0 1 3-3 .75.75 0 0 1 0 1.5 1.5 1.5 0 0 0-1.5 1.5c0 .816.083 1.651-.106 2.453a2.66 2.66 0 0 1-.703 1.302l.076.08c.323.358.504.77.606 1.186.199.808.127 1.655.127 2.479a1.5 1.5 0 0 0 1.5 1.5.75.75 0 0 1 0 1.5 3 3 0 0 1-3-3c0-.697.084-1.439-.083-2.121a1.2 1.2 0 0 0-.264-.539c-.119-.131-.309-.268-.64-.378a.75.75 0 0 1 0-1.424c.346-.115.541-.256.661-.39.12-.133.205-.302.26-.538.16-.678.066-1.416.066-2.11M12 3a.75.75 0 0 1 .75-.75 3 3 0 0 1 3 3c0 .696-.099 1.441.06 2.122.053.23.136.395.255.525.12.132.318.274.672.391a.75.75 0 0 1 0 1.424c-.354.117-.552.26-.672.39-.119.131-.202.296-.255.526-.159.68-.06 1.426-.06 2.122a3 3 0 0 1-3 3 .75.75 0 0 1 0-1.5 1.5 1.5 0 0 0 1.5-1.5c0-.819-.089-1.658.099-2.462A2.6 2.6 0 0 1 15.045 9q-.046-.044-.088-.092a2.6 2.6 0 0 1-.608-1.196c-.188-.804-.099-1.643-.099-2.462a1.5 1.5 0 0 0-1.5-1.5A.75.75 0 0 1 12 3" xmlns="http://www.w3.org/2000/svg" /><path d="M6 6a.75.75 0 0 1 .75-.75h4.5a.75.75 0 0 1 0 1.5h-4.5A.75.75 0 0 1 6 6m0 3a.75.75 0 0 1 .75-.75h4.5a.75.75 0 0 1 0 1.5h-4.5A.75.75 0 0 1 6 9m0 3a.75.75 0 0 1 .75-.75h4.5a.75.75 0 0 1 0 1.5h-4.5A.75.75 0 0 1 6 12" xmlns="http://www.w3.org/2000/svg" /></svg>