<svg xmlns="http://www.w3.org/2000/svg" viewBox="0 0 20 20"><path d="M8.077 11.717c1.237-.518 2.376-.55 3.6-.098l.247.098.118.064a.666.666 0 0 1-.503 1.201l-.129-.039-.183-.072c-.913-.34-1.707-.316-2.636.072a.666.666 0 0 1-.514-1.226M7.083 7.083a1.25 1.25 0 1 1 0 2.5 1.25 1.25 0 0 1 0-2.5M12.917 7.083a1.25 1.25 0 1 1-.001 2.501 1.25 1.25 0 0 1 .001-2.501" xmlns="http://www.w3.org/2000/svg" /><path fill-rule="evenodd" d="M10 1.835c.367 0 .665.298.665.665v.585h2.419c.689 0 1.246 0 1.696.036.458.038.864.117 1.24.309l.218.122c.496.304.9.74 1.165 1.261l.068.143c.144.336.208.697.24 1.098.028.333.033.725.035 1.186.495.245.836.754.836 1.343v1.25c0 .592-.344 1.102-.843 1.346a19 19 0 0 1-.05 1.195c-.052.644-.154 1.193-.368 1.692l-.1.211a4.83 4.83 0 0 1-1.942 2.02l-.169.092c-.554.282-1.166.407-1.902.467-.728.06-1.635.059-2.791.059h-.833c-1.156 0-2.063 0-2.791-.059-.644-.052-1.193-.155-1.692-.369l-.211-.098a4.83 4.83 0 0 1-2.112-2.112c-.282-.555-.407-1.167-.467-1.903-.03-.354-.044-.75-.051-1.195a1.5 1.5 0 0 1-.842-1.346v-1.25c0-.59.341-1.098.836-1.343.002-.46.007-.853.034-1.186.038-.458.117-.864.309-1.24A3.17 3.17 0 0 1 3.98 3.43c.377-.192.783-.272 1.24-.309.45-.037 1.008-.036 1.697-.036h2.418V2.5c0-.367.298-.665.665-.665m-3.083 2.58c-.71 0-1.204.001-1.588.032-.375.03-.587.088-.745.168a1.84 1.84 0 0 0-.802.802c-.08.158-.137.37-.168.745-.031.384-.032.877-.032 1.588v1.833c0 1.178 0 2.021.055 2.683.053.653.156 1.07.327 1.407a3.5 3.5 0 0 0 1.53 1.53l.13.062c.314.135.706.219 1.277.265.662.054 1.506.055 2.683.055h.833c1.178 0 2.021 0 2.683-.055.653-.053 1.07-.156 1.407-.327l.241-.135c.548-.336.995-.819 1.29-1.395l.06-.13c.135-.314.22-.705.266-1.277.054-.662.055-1.505.055-2.683V7.75c0-.711 0-1.204-.032-1.588a2.4 2.4 0 0 0-.113-.615l-.055-.13a1.84 1.84 0 0 0-.676-.731l-.126-.07c-.158-.081-.37-.138-.745-.169-.383-.031-.877-.032-1.588-.032z" clip-rule="evenodd" xmlns="http://www.w3.org/2000/svg" /></svg>