<svg xmlns="http://www.w3.org/2000/svg" viewBox="0 0 20 20"><path d="M11.384 8.694a.666.666 0 0 1 .922.922l-.085.105L10.94 11l1.28 1.28.085.104a.666.666 0 0 1-.922.922l-.105-.085L10 11.94l-1.28 1.28a.666.666 0 0 1-.94-.942L9.058 11l-1.28-1.28-.085-.104a.666.666 0 0 1 .922-.922l.105.085L10 10.06l1.28-1.28z" xmlns="http://www.w3.org/2000/svg" /><path d="M10.63 1.335c1.403 0 2.64.925 3.036 2.271l.215.729H17l.134.014a.665.665 0 0 1 0 1.302L17 5.665h-.347l-.796 9.326a3.164 3.164 0 0 1-3.153 2.896H7.296a3.164 3.164 0 0 1-3.153-2.896l-.796-9.326H3a.665.665 0 0 1 0-1.33h3.12l.214-.729.084-.248A3.17 3.17 0 0 1 9.37 1.335zm-5.95 4.33.788 9.213c.08.95.875 1.68 1.828 1.68h5.408c.953 0 1.747-.73 1.828-1.68l.787-9.213zm4.69-3c-.763 0-1.44.471-1.71 1.173l-.05.143-.104.354h4.988l-.103-.354a1.84 1.84 0 0 0-1.761-1.316z" xmlns="http://www.w3.org/2000/svg" /></svg>