<svg xmlns="http://www.w3.org/2000/svg" viewBox="0 0 20 20"><path d="M7.546 3.452a5.7 5.7 0 0 1 3.897.577 5.06 5.06 0 0 1 2.142 2.248c.352-.025.708 0 1.054.077a3.47 3.47 0 0 1 1.607.837c.448.416.768.947.912 1.537.08.328.1.663.067.994a3.9 3.9 0 0 1 1.403 1.33c.477.77.648 1.678.47 2.561a3.7 3.7 0 0 1-1.417 2.211 4.24 4.24 0 0 1-2.556.842H5.512c-1.217 0-2.398-.438-3.28-1.239-.83-.753-1.333-1.775-1.393-2.867l-.006-.22c0-.93.324-1.828.91-2.566A4.6 4.6 0 0 1 3.398 8.48a4.63 4.63 0 0 1 .877-2.946c.766-1.07 1.945-1.807 3.272-2.081m-5.043 9.015c.034.634.327 1.252.85 1.726.56.509 1.335.807 2.159.807h9.614c.576 0 1.124-.183 1.55-.505.425-.32.695-.754.788-1.212a1.85 1.85 0 0 0-.252-1.351c-.261-.42-.687-.76-1.22-.943l-.818-.282.312-.807c.098-.252.115-.52.052-.777a1.44 1.44 0 0 0-.427-.712 1.8 1.8 0 0 0-.835-.431 2 2 0 0 0-.988.032l-.805.239-.232-.807c-.229-.797-.797-1.505-1.613-1.956a4.04 4.04 0 0 0-2.754-.404c-.946.196-1.75.714-2.255 1.42a2.94 2.94 0 0 0-.506 2.343l.16.752-.736.221a3 3 0 0 0-1.499.992A2.45 2.45 0 0 0 2.5 12.34z" xmlns="http://www.w3.org/2000/svg" /></svg>