<svg xmlns="http://www.w3.org/2000/svg" viewBox="0 0 24 24" fill="none"><path fill="#43d0fb" d="M10.84 19.23c-4.63 0-8.39-3.76-8.39-8.39s3.76-8.39 8.39-8.39 8.39 3.76 8.39 8.39-3.76 8.39-8.39 8.39m10.3 1.92c-.4.39-1.03.4-1.42 0l-3.99-4 1.41-1.41 4 3.99c.4.39.39 1.02 0 1.42" xmlns="http://www.w3.org/2000/svg" /><path fill="#cdf3ff" d="M17.23 10.84c0 3.53-2.86 6.39-6.39 6.39s-6.39-2.86-6.39-6.39 2.86-6.39 6.39-6.39 6.39 2.86 6.39 6.39" xmlns="http://www.w3.org/2000/svg" /><path fill="#1ba5cf" d="m21.35 19.58-3.77-3.77c-.5.67-1.09 1.27-1.77 1.77l3.77 3.77c.49.49 1.28.49 1.77 0s.49-1.28 0-1.77" xmlns="http://www.w3.org/2000/svg" /></svg>