<svg xmlns="http://www.w3.org/2000/svg" viewBox="0 0 20 20"><path d="M13.918 6.25c0-.594 0-1-.026-1.314a2 2 0 0 0-.087-.484l-.041-.096c-.12-.233-.3-.429-.523-.565l-.097-.055c-.114-.058-.274-.103-.58-.128-.314-.026-.72-.026-1.314-.026h-2.5c-.594 0-1 0-1.314.026a2 2 0 0 0-.485.087l-.095.041c-.234.119-.429.3-.565.522l-.055.098c-.057.114-.103.274-.128.58-.026.314-.027.72-.027 1.314v7.5c0 .594 0 1 .027 1.314.025.306.07.467.128.58l.055.098c.136.222.331.402.565.521l.095.041c.108.039.255.07.485.088.314.026.72.027 1.314.027h2.5c.594 0 1-.001 1.314-.027.306-.025.466-.07.58-.129l.097-.054c.222-.137.404-.331.523-.565l.04-.095c.04-.108.069-.255.088-.485.025-.314.026-.72.026-1.314zM1.643 5.752a.665.665 0 0 1 .972.897l-.826 1.1a.39.39 0 0 0-.021.432l.56.935.058.103c.25.49.25 1.071 0 1.56l-.058.104-.6 1a.39.39 0 0 0 0 .4l.925 1.542.058.121a.666.666 0 0 1-1.118.67l-.08-.107-.925-1.542a1.72 1.72 0 0 1 0-1.767l.6-1 .042-.098a.4.4 0 0 0 0-.205L1.188 9.8l-.56-.934a1.72 1.72 0 0 1 .098-1.914l.825-1.1zm15.931-.073a.666.666 0 0 1 .832.12l.08.109.886 1.476.064.115c.27.54.237 1.184-.088 1.693l-.074.106-.4.535a.39.39 0 0 0-.023.431l.56.936.058.103c.25.49.25 1.071 0 1.56l-.058.104-.925 1.541a.665.665 0 0 1-1.14-.683l.926-1.542.04-.097a.4.4 0 0 0 0-.205l-.04-.098-.562-.934a1.72 1.72 0 0 1 .099-1.914l.401-.534.031-.05a.39.39 0 0 0 .017-.33l-.026-.052-.886-1.477-.057-.122a.665.665 0 0 1 .285-.79m-6.74-.733a.665.665 0 0 1 0 1.33H9.165a.666.666 0 0 1 0-1.33zm4.414 8.804c0 .572.001 1.042-.03 1.422-.028.34-.084.654-.211.95l-.059.126c-.23.452-.58.83-1.011 1.094l-.19.107c-.332.169-.687.237-1.075.268-.38.032-.85.032-1.422.032h-2.5c-.572 0-1.042 0-1.423-.032-.34-.027-.653-.083-.949-.21l-.126-.058a2.75 2.75 0 0 1-1.095-1.012l-.106-.19c-.17-.332-.237-.686-.269-1.075-.03-.38-.03-.85-.03-1.422v-7.5c0-.572 0-1.042.03-1.422.032-.389.1-.743.269-1.075l.106-.19c.264-.43.643-.781 1.095-1.012l.126-.058c.296-.127.61-.183.95-.211.38-.031.85-.03 1.422-.03h2.5c.572 0 1.041-.001 1.422.03.388.032.743.1 1.075.27l.19.105c.43.264.78.643 1.011 1.096l.059.125c.127.295.183.61.21.95.032.38.031.85.031 1.422z" xmlns="http://www.w3.org/2000/svg" /></svg>