<svg xmlns="http://www.w3.org/2000/svg" viewBox="0 0 24 24" fill="none"><path fill="var(--pdf-icon-main-fill, #f75858)" d="M13 2.594q.4 0 .813.224.412.226.924.726l4.95 4.9q.813.812.813 1.65v7.45q0 1.088-.537 2.013a4 4 0 0 1-1.463 1.449 3.87 3.87 0 0 1-2 .538h-9q-1.087 0-2.013-.538a4.03 4.03 0 0 1-1.45-1.45 3.94 3.94 0 0 1-.537-2.012V6.594q0-1.088.537-2a4 4 0 0 1 1.45-1.463A3.94 3.94 0 0 1 7.5 2.594z" xmlns="http://www.w3.org/2000/svg" /><path fill="var(--pdf-icon-corner-fill, #ff928c)" d="M13 2.594q.4 0 .813.225.411.224.925.725l4.95 4.9q.812.812.812 1.65h-4.787q-1.25 0-1.988-.725Q13 8.632 13 7.38z" xmlns="http://www.w3.org/2000/svg" /><path fill="#fff" d="M14.314 17.96v-3.687H17v.632h-1.975v.948h1.712v.632h-1.712v1.474zm-3.844 0v-3.687h1.263c1.106 0 1.87.632 1.87 1.843s-.737 1.843-1.843 1.843h-1.29Zm1.21-.633c.712 0 1.212-.29 1.212-1.211 0-.922-.5-1.211-1.211-1.211h-.5v2.422zM7 17.96v-3.687h1.659c.711 0 1.185.421 1.185 1.158 0 .738-.474 1.164-1.185 1.164h-.948v1.364zm1.58-1.997c.369 0 .553-.216.553-.532s-.184-.526-.553-.526h-.869v1.058z" xmlns="http://www.w3.org/2000/svg" /></svg>