<svg xmlns="http://www.w3.org/2000/svg" viewBox="0 0 20 20"><path d="M17.665 10a1.44 1.44 0 0 1-1.116 1.395l-.127.024c-1.712.247-2.81.711-3.545 1.443-.736.732-1.203 1.822-1.453 3.527a1.484 1.484 0 0 1-1.46 1.276 1.47 1.47 0 0 1-1.428-1.143c-.412-1.776-.874-2.903-1.579-3.657-.644-.688-1.563-1.138-3.07-1.396l-.31-.05A1.444 1.444 0 0 1 2.335 10c0-.734.554-1.319 1.242-1.42l.31-.049c1.507-.258 2.426-.708 3.07-1.396.705-.754 1.167-1.88 1.58-3.656l.032-.122a1.47 1.47 0 0 1 1.396-1.022c.753 0 1.355.568 1.459 1.276l.104.612c.267 1.36.705 2.275 1.349 2.915.736.732 1.833 1.196 3.545 1.443.69.1 1.243.686 1.243 1.419" xmlns="http://www.w3.org/2000/svg" /></svg>