<svg xmlns="http://www.w3.org/2000/svg" viewBox="0 0 20 20" fill="none"><path fill="currentColor" d="M7.946 14.028a1.974 1.974 0 1 0-3.947 0 1.974 1.974 0 0 0 3.947 0m0-8.056a1.974 1.974 0 1 0-3.948 0 1.974 1.974 0 0 0 3.948 0m8.055 0a1.974 1.974 0 1 0-3.947 0 1.974 1.974 0 0 0 3.947 0m-6.725 8.056a3.304 3.304 0 1 1-6.608 0 3.304 3.304 0 0 1 6.608 0m0-8.056a3.304 3.304 0 1 1-6.608 0 3.304 3.304 0 0 1 6.608 0m8.055 0a3.304 3.304 0 1 1-6.607 0 3.304 3.304 0 0 1 6.607 0" xmlns="http://www.w3.org/2000/svg" /><path stroke="currentColor" stroke-width="1.33" d="m8 12 4-4" xmlns="http://www.w3.org/2000/svg" /><path stroke="currentColor" stroke-linecap="round" stroke-linejoin="round" stroke-width="1.33" d="M11.667 13.75h2.708m2.708 0h-2.708m0 0v-2.708m0 2.708v2.708" xmlns="http://www.w3.org/2000/svg" /></svg>