<svg xmlns="http://www.w3.org/2000/svg" viewBox="0 0 20 20"><path d="M10 12.668c1.733 0 3.331.501 4.512 1.345 1.179.842 1.987 2.066 1.987 3.487a.666.666 0 0 1-1.33 0c0-.88-.5-1.74-1.43-2.405-.931-.665-2.251-1.097-3.739-1.097s-2.808.432-3.738 1.097c-.932.665-1.43 1.525-1.43 2.405a.666.666 0 0 1-1.33 0c0-1.42.808-2.645 1.987-3.487 1.18-.844 2.778-1.345 4.511-1.345M7.917 5a1.25 1.25 0 1 1 0 2.5 1.25 1.25 0 0 1 0-2.5M12.083 5a1.25 1.25 0 1 1 0 2.5 1.25 1.25 0 0 1 0-2.5" xmlns="http://www.w3.org/2000/svg" /><path fill-rule="evenodd" d="M10 1.002c.367 0 .665.298.665.665v.585h2.446c.443 0 .814 0 1.116.023.31.025.606.079.887.217.46.227.834.6 1.06 1.06.14.282.193.577.218.887.024.303.023.674.023 1.117 0 .896 0 1.608-.045 2.181-.046.58-.143 1.076-.367 1.532a4 4 0 0 1-1.818 1.817c-.455.224-.951.321-1.532.367-.573.046-1.284.046-2.18.046h-.946c-.896 0-1.607 0-2.18-.046-.58-.046-1.077-.143-1.533-.367a4 4 0 0 1-1.817-1.817c-.224-.456-.321-.951-.367-1.532-.046-.573-.045-1.285-.045-2.181 0-.443 0-.814.023-1.117.025-.31.079-.605.217-.886.227-.46.6-.834 1.06-1.06.282-.14.577-.193.887-.218.303-.024.674-.023 1.117-.023h2.446v-.585c0-.367.298-.665.665-.665m-3.111 2.58c-.464 0-.774 0-1.012.02-.23.018-.336.05-.403.084a1 1 0 0 0-.455.455c-.034.067-.066.173-.084.403-.02.238-.02.548-.02 1.012 0 .917 0 1.568.041 2.076.04.5.115.807.234 1.049.26.526.687.953 1.213 1.213.242.119.549.194 1.05.234.507.04 1.157.04 2.074.04h.946c.917 0 1.567 0 2.075-.04.5-.04.807-.115 1.049-.234A2.67 2.67 0 0 0 14.81 8.68c.119-.242.194-.549.234-1.05.04-.507.041-1.158.041-2.075 0-.464 0-.774-.02-1.012-.018-.23-.05-.336-.084-.403a1 1 0 0 0-.455-.455c-.067-.034-.173-.066-.403-.084-.238-.02-.547-.02-1.012-.02z" clip-rule="evenodd" xmlns="http://www.w3.org/2000/svg" /></svg>