<svg xmlns="http://www.w3.org/2000/svg" viewBox="0 0 20 20"><path d="M5.145 8.207c-.326.097-.615.362-.778.74-.205.475-.143.965.172 1.28l5.234 5.234.126.107c.311.22.739.244 1.154.065.378-.163.643-.452.74-.78l.994.996a2.74 2.74 0 0 1-1.207 1.006c-.793.341-1.818.34-2.595-.314l-.152-.14-2.148-2.147-3.715 3.717a.667.667 0 0 1-.941-.942l3.716-3.715-2.147-2.147c-.791-.791-.817-1.901-.453-2.747.203-.47.55-.912 1.006-1.208zM17.136 16.197a.665.665 0 0 1-.94.94zM2.862 2.863a.67.67 0 0 1 .837-.085l.104.084 13.333 13.334-.47.47-.47.47L2.862 3.805l-.085-.105a.67.67 0 0 1 .085-.836M10.937 2.707a2.34 2.34 0 0 1 3.477-.186l3.065 3.065.093.098a2.34 2.34 0 0 1-.28 3.379l-.107.08-2.905 2.075-.953-.953 3.085-2.203.09-.073a1.01 1.01 0 0 0 .114-1.376l-.077-.086-3.066-3.066a1.01 1.01 0 0 0-1.463.037l-.072.09-2.203 3.084-.954-.953 2.075-2.904z" xmlns="http://www.w3.org/2000/svg" /></svg>