<svg xmlns="http://www.w3.org/2000/svg" viewBox="0 0 20 20"><path d="M10.001 11.418c.985 0 1.937.316 2.887.895l.406.264.102.087a.666.666 0 0 1-.738 1.073l-.118-.064-.345-.225c-.794-.484-1.51-.7-2.194-.7s-1.401.216-2.195.7l-.345.225a.665.665 0 0 1-.754-1.096l.407-.264c.95-.58 1.902-.895 2.887-.895" xmlns="http://www.w3.org/2000/svg" /><path fill-rule="evenodd" d="M10 2.085a7.915 7.915 0 1 1 0 15.83 7.915 7.915 0 0 1 0-15.83m0 1.33a6.585 6.585 0 1 0 0 13.17 6.585 6.585 0 0 0 0-13.17" clip-rule="evenodd" xmlns="http://www.w3.org/2000/svg" /></svg>