<svg xmlns="http://www.w3.org/2000/svg" viewBox="0 0 20 20"><path d="M10 2.085a7.916 7.916 0 1 1-7.896 8.46.665.665 0 1 1 1.326-.09A6.586 6.586 0 0 0 16.586 10 6.586 6.586 0 0 0 10 3.415a.665.665 0 0 1 0-1.33M10 8.5a1.5 1.5 0 0 1 0 3c-1.5 0-5-1-5-1.5s3.5-1.5 5-1.5M12.085.005a.665.665 0 0 1 0 1.33H7.917a.665.665 0 0 1 0-1.33z" xmlns="http://www.w3.org/2000/svg" /><path d="M16.585 10a6.585 6.585 0 1 0-13.17 0 6.585 6.585 0 0 0 13.17 0m1.33 0a7.915 7.915 0 1 1-15.83 0 7.915 7.915 0 0 1 15.83 0" opacity=".2" xmlns="http://www.w3.org/2000/svg" /></svg>