<svg xmlns="http://www.w3.org/2000/svg" viewBox="0 0 20 20"><path d="M12.083 3.333A4.583 4.583 0 0 0 7.851 9.68c.13.312.06.671-.18.91l-3.957 3.958a1.229 1.229 0 1 0 1.738 1.738l3.958-3.958a.83.83 0 0 1 .91-.18 4.583 4.583 0 0 0 6.346-4.303l-1.077 1.078a3.19 3.19 0 1 1-4.512-4.512l1.077-1.077zm-6.25 4.584a6.25 6.25 0 0 1 8.308-5.904.833.833 0 0 1 .315 1.377l-2.2 2.2a1.524 1.524 0 0 0 2.155 2.154l2.2-2.2a.833.833 0 0 1 1.375.315 6.25 6.25 0 0 1-7.773 8.022l-3.582 3.583a2.896 2.896 0 1 1-4.095-4.095l3.582-3.582a6.3 6.3 0 0 1-.285-1.87" xmlns="http://www.w3.org/2000/svg" /></svg>