<svg xmlns="http://www.w3.org/2000/svg" viewBox="0 0 20 20" fill-rule="evenodd" clip-rule="evenodd"><path d="M10 6.75a3.665 3.665 0 1 1 0 7.33 3.665 3.665 0 0 1 0-7.33m0 1.33a2.335 2.335 0 1 0 0 4.67 2.335 2.335 0 0 0 0-4.67" xmlns="http://www.w3.org/2000/svg" /><path d="M10 2c1.338 0 2.521.66 3.246 1.667h.084c.69 0 1.246 0 1.696.036.458.038.865.117 1.242.309l.217.122c.496.304.9.74 1.165 1.26l.067.143c.144.337.21.698.242 1.099.037.45.036 1.007.036 1.696v4.5c0 .689 0 1.246-.036 1.696-.033.4-.098.762-.242 1.098l-.067.143a3.17 3.17 0 0 1-1.382 1.382c-.377.192-.784.271-1.242.309-.45.037-1.007.037-1.696.037H6.66c-.689 0-1.246 0-1.696-.037-.4-.033-.762-.097-1.098-.241l-.142-.068a3.17 3.17 0 0 1-1.262-1.165l-.122-.217c-.192-.377-.271-.783-.309-1.24-.037-.45-.036-1.008-.036-1.697v-4.5c0-.689 0-1.246.036-1.696.038-.458.117-.865.309-1.241a3.17 3.17 0 0 1 1.384-1.383l.142-.067c.336-.144.697-.21 1.098-.242.45-.037 1.007-.036 1.696-.036h.094A4 4 0 0 1 10 2m0 1.33c-.987 0-1.85.536-2.312 1.335a.67.67 0 0 1-.575.332H6.66c-.71 0-1.204 0-1.588.031-.282.023-.471.061-.615.113l-.13.055A1.84 1.84 0 0 0 3.525 6c-.08.158-.137.37-.168.745-.03.384-.032.877-.032 1.588v4.5c0 .71.001 1.204.032 1.588.031.375.088.587.168.745l.07.126c.177.287.43.522.732.676l.13.056c.144.05.333.089.615.112.384.031.877.032 1.588.032h6.67c.71 0 1.204 0 1.588-.032.375-.03.587-.088.745-.168.345-.176.626-.457.802-.802l.056-.13c.052-.145.09-.334.113-.615.031-.383.031-.877.031-1.588v-4.5c0-.71 0-1.204-.031-1.588a2.4 2.4 0 0 0-.113-.615l-.056-.13a1.84 1.84 0 0 0-.675-.731l-.127-.072c-.158-.08-.37-.137-.745-.168-.383-.031-.877-.03-1.588-.03h-.442a.67.67 0 0 1-.576-.333A2.67 2.67 0 0 0 10 3.33" xmlns="http://www.w3.org/2000/svg" /></svg>