<svg xmlns="http://www.w3.org/2000/svg" viewBox="0 0 20 20"><path d="M5.655 11.43a2.333 2.333 0 0 1 2.094 2.32.666.666 0 0 1-1.33 0c0-.518-.395-.946-.9-.997l-.102-.005-.134-.014a.665.665 0 0 1 .134-1.316zM5.709 8.093a5.665 5.665 0 0 1 5.373 5.657.665.665 0 0 1-1.33 0A4.335 4.335 0 0 0 5.64 9.42l-.223-.005-.134-.014a.665.665 0 0 1 .134-1.316z" xmlns="http://www.w3.org/2000/svg" /><path fill-rule="evenodd" d="M13.5 2.668c.69 0 1.246 0 1.696.036.458.038.864.117 1.24.309l.22.122c.495.304.899.74 1.164 1.261l.067.143c.144.336.21.697.242 1.098.037.45.036 1.007.036 1.696v5.333c0 .689 0 1.246-.036 1.696-.033.401-.098.762-.242 1.099l-.067.143c-.265.52-.67.956-1.165 1.26l-.219.122c-.376.192-.782.271-1.24.309-.45.037-1.007.036-1.696.036h-7c-.69 0-1.246 0-1.696-.036-.401-.033-.762-.098-1.098-.242l-.143-.067a3.17 3.17 0 0 1-1.261-1.165l-.122-.217c-.192-.377-.271-.784-.309-1.242-.037-.45-.036-1.007-.036-1.696V7.333c0-.689 0-1.246.036-1.696.038-.458.117-.864.309-1.24a3.17 3.17 0 0 1 1.383-1.384c.377-.192.783-.271 1.24-.309.45-.037 1.008-.036 1.697-.036zm-7 1.33c-.711 0-1.204 0-1.588.032-.375.031-.587.088-.745.168A1.84 1.84 0 0 0 3.365 5c-.08.158-.137.37-.168.745-.031.384-.032.877-.032 1.588v5.333c0 .71.001 1.204.032 1.588.03.375.088.587.168.745l.07.127c.177.287.43.522.732.676l.13.055c.144.052.333.09.615.113C5.296 16 5.79 16 6.5 16h7c.711 0 1.204 0 1.588-.031.375-.031.587-.088.745-.168l.126-.072c.288-.176.522-.429.676-.731l.056-.13c.052-.144.089-.334.112-.615.031-.383.032-.877.032-1.588V7.333c0-.71 0-1.204-.032-1.588a2.4 2.4 0 0 0-.112-.615L16.635 5a1.84 1.84 0 0 0-.676-.731l-.126-.07c-.158-.081-.37-.138-.745-.169-.384-.031-.877-.032-1.588-.032z" clip-rule="evenodd" xmlns="http://www.w3.org/2000/svg" /></svg>