<svg xmlns="http://www.w3.org/2000/svg" viewBox="0 0 21 21"><path d="M6.127 15.5a1.21 1.21 0 1 0-2.42 0 1.21 1.21 0 0 0 2.42 0m10.833-10a1.21 1.21 0 1 0-2.42 0 1.21 1.21 0 0 0 2.42 0m-9.503 10a2.54 2.54 0 1 1-3.205-2.45V7.167a2.33 2.33 0 0 1 2.332-2.332h2.144l-.532-.532-.085-.104a.666.666 0 0 1 .922-.92l.105.084 1.666 1.666c.26.26.26.682 0 .941L9.138 7.636l-.105.085a.666.666 0 0 1-.837-1.025l.532-.531H6.584c-.553 0-1.002.449-1.002 1.002v5.884A2.54 2.54 0 0 1 7.457 15.5m10.833-10a2.54 2.54 0 0 1-1.875 2.448v5.885a2.33 2.33 0 0 1-2.331 2.332H11.94l.53.531.086.104a.665.665 0 0 1-.921.921l-.105-.084-1.667-1.667a.666.666 0 0 1 0-.94l1.667-1.667a.665.665 0 1 1 .94.94l-.53.532h2.144c.553 0 1.001-.45 1.001-1.002V7.948a2.538 2.538 0 0 1 .665-4.988 2.54 2.54 0 0 1 2.54 2.54" xmlns="http://www.w3.org/2000/svg" /></svg>