<svg xmlns="http://www.w3.org/2000/svg" viewBox="0 0 20 20"><path d="M6.517 4.643a1.875 1.875 0 1 0 0 3.75 1.875 1.875 0 0 0 0-3.75M2.976 6.518a3.542 3.542 0 1 1 7.083 0 3.542 3.542 0 0 1-7.083 0m10.893-1.101a1.488 1.488 0 1 0 0 2.976 1.488 1.488 0 0 0 0-2.976m-3.155 1.488a3.155 3.155 0 1 1 6.31 0 3.155 3.155 0 0 1-6.31 0M3.879 13.33c-.684.608-1.171 1.538-1.171 2.86a.833.833 0 1 1-1.667 0c0-1.774.673-3.166 1.73-4.106 1.042-.926 2.408-1.37 3.746-1.37s2.704.444 3.746 1.37c1.057.94 1.73 2.332 1.73 4.105a.833.833 0 1 1-1.666 0c0-1.321-.487-2.251-1.171-2.859-.7-.622-1.656-.95-2.639-.95s-1.939.329-2.638.95M16 12.867c-.765-.484-1.776-.613-2.68-.358a.833.833 0 1 1-.453-1.604c1.328-.375 2.832-.2 4.023.553 1.223.772 2.067 2.125 2.067 3.959a.833.833 0 1 1-1.667 0c0-1.269-.556-2.086-1.29-2.55" xmlns="http://www.w3.org/2000/svg" /></svg>