<svg xmlns="http://www.w3.org/2000/svg" viewBox="0 0 20 20"><path d="m8.51 16.263.125.049.277.134c.268.124.505.217.697.282.142.048.243.075.307.09l.084.017.134.014a.665.665 0 0 1 0 1.303l-.134.013-.18-.013a3.7 3.7 0 0 1-.636-.164 8 8 0 0 1-.831-.335l-.318-.154-.114-.073a.665.665 0 0 1 .588-1.163m7.486-2.09a.666.666 0 0 1 1.117.708l-.105.194a3.1 3.1 0 0 1-1.117 1.105l-.123.054a.665.665 0 0 1-.53-1.213l.105-.065c.24-.163.448-.403.581-.67zm-4.606-.176a.666.666 0 0 1 .832-.123l.107.08.204.18a7 7 0 0 0 .665.506.665.665 0 0 1-.733 1.11c-.288-.19-.557-.4-.8-.607l-.232-.206-.09-.1a.665.665 0 0 1 .047-.84m-7.497-1.212a.665.665 0 0 1 .837.069l.088.102.278.386q.29.383.626.75l.347.362.085.105a.665.665 0 0 1-.921.922l-.105-.086-.388-.405q-.377-.413-.704-.844l-.314-.436-.065-.118a.665.665 0 0 1 .236-.807m11.606-2.859a.665.665 0 0 1 .91.24q.369.633.617 1.255a.665.665 0 0 1-1.237.491 8 8 0 0 0-.53-1.077.665.665 0 0 1 .24-.909M2.687 7.669c.366.02.648.332.63.698-.025.47.017.974.127 1.497a.665.665 0 0 1-1.302.273 7.2 7.2 0 0 1-.153-1.838.665.665 0 0 1 .698-.63m2.218-3.637A.665.665 0 0 1 5.3 5.294l-.274.133q-.401.217-.726.54l-.104.085a.665.665 0 0 1-.836-1.025l.157-.15c.375-.341.8-.608 1.259-.805zm3.567-.223.45.107.452.134.123.055a.665.665 0 0 1-.403 1.239l-.132-.03-.385-.114-.379-.09-.128-.04a.666.666 0 0 1 .267-1.276zM11.002 10.412c0-.78-.634-1.414-1.415-1.414-.454 0-.711.121-.872.261-.171.149-.306.382-.4.725-.148.545-.154 1.19-.148 1.848.658.007 1.304.001 1.849-.147.342-.094.576-.23.725-.4.14-.162.26-.418.26-.873m1.33 0c0 .711-.199 1.297-.587 1.745-.38.437-.884.676-1.38.811-.95.26-2.125.19-2.857.19a.666.666 0 0 1-.665-.665c0-.733-.07-1.908.19-2.859.134-.495.373-1 .81-1.379.447-.388 1.033-.587 1.744-.587a2.745 2.745 0 0 1 2.745 2.744" xmlns="http://www.w3.org/2000/svg" /><path d="M15.57 2.184a1.71 1.71 0 0 1 1.864.381l.092.1c.411.481.54 1.16.29 1.764l-.06.128c-1.267 2.445-2.953 4.347-5.29 5.987l-.118.066a.665.665 0 0 1-.647-1.154l.4-.288c1.961-1.455 3.383-3.117 4.474-5.222l.022-.052a.38.38 0 0 0-.06-.338l-.043-.05a.38.38 0 0 0-.44-.082c-2.245 1.164-3.987 2.704-5.51 4.874a.664.664 0 1 1-1.088-.763c1.64-2.337 3.541-4.024 5.986-5.291z" xmlns="http://www.w3.org/2000/svg" /></svg>