<svg xmlns="http://www.w3.org/2000/svg" viewBox="0 0 20 20"><path d="M6.196 7.862a.67.67 0 0 1 .837-.085l.105.085L8.804 9.53c.26.26.26.681 0 .94l-1.666 1.668a.666.666 0 0 1-.942-.94l1.197-1.198-1.197-1.195-.085-.105a.666.666 0 0 1 .085-.837M13.467 11.016a.665.665 0 0 1 0 1.302l-.134.014h-2.5a.666.666 0 0 1 0-1.33h2.5z" xmlns="http://www.w3.org/2000/svg" /><path fill-rule="evenodd" d="M12.66 2.665c.69 0 1.246 0 1.696.036.458.038.864.117 1.24.309.596.303 1.081.788 1.384 1.384.192.376.272.782.31 1.24.036.45.035 1.007.035 1.696v5.33c0 .69 0 1.246-.036 1.696-.037.458-.117.864-.309 1.24a3.17 3.17 0 0 1-1.383 1.384c-.377.192-.783.272-1.24.31-.45.036-1.008.035-1.697.035H7.33c-.689 0-1.246 0-1.696-.036-.458-.037-.864-.117-1.24-.309a3.17 3.17 0 0 1-1.384-1.383c-.192-.377-.271-.783-.309-1.24-.037-.45-.036-1.008-.036-1.697V7.33c0-.689 0-1.246.036-1.696.038-.458.117-.864.309-1.24A3.17 3.17 0 0 1 4.394 3.01c.376-.192.782-.271 1.24-.309.45-.037 1.007-.036 1.696-.036zm-5.33 1.33c-.71 0-1.204.001-1.588.032-.375.031-.587.088-.745.168a1.84 1.84 0 0 0-.802.802c-.08.158-.137.37-.168.745-.031.384-.032.877-.032 1.588v5.33c0 .711.001 1.205.032 1.588.031.376.088.587.168.745.176.345.457.626.802.802.158.08.37.137.745.168.384.031.877.032 1.588.032h5.33c.711 0 1.205 0 1.588-.032.376-.03.587-.088.745-.168.345-.176.626-.457.802-.802.08-.158.137-.37.168-.745.031-.383.032-.877.032-1.588V7.33c0-.71 0-1.204-.032-1.588-.03-.375-.088-.587-.168-.745a1.84 1.84 0 0 0-.802-.802c-.158-.08-.37-.137-.745-.168-.383-.031-.877-.032-1.588-.032z" clip-rule="evenodd" xmlns="http://www.w3.org/2000/svg" /></svg>