<svg xmlns="http://www.w3.org/2000/svg" viewBox="0 0 16 16" fill="none"><path stroke="currentColor" stroke-width="1.2" d="M7.333 1.822c.413-.238.921-.238 1.334 0l4.35 2.511c.413.239.667.679.667 1.155v5.024c0 .476-.254.917-.666 1.155l-4.351 2.512c-.413.238-.921.238-1.334 0l-4.35-2.512a1.33 1.33 0 0 1-.667-1.155V5.488c0-.476.254-.916.666-1.155z" xmlns="http://www.w3.org/2000/svg" /><path fill="currentColor" d="M8.415 5.371a.418.418 0 0 0-.83 0c-.152 1.318-.896 2.062-2.215 2.214a.418.418 0 0 0 .001.83c1.3.148 2.095.885 2.213 2.204a.418.418 0 0 0 .833-.001c.112-1.3.9-2.089 2.2-2.201a.418.418 0 0 0 .002-.833c-1.32-.118-2.056-.913-2.204-2.213" xmlns="http://www.w3.org/2000/svg" /></svg>