<svg xmlns="http://www.w3.org/2000/svg" viewBox="0 0 20 20"><path fill-rule="evenodd" d="M13.75 8.085a2.75 2.75 0 0 1 2.749 2.748v1.099a2.33 2.33 0 0 1 1.666 2.235v1.666a2.33 2.33 0 0 1-2.332 2.332h-4.166a2.33 2.33 0 0 1-2.332-2.332v-1.666c0-1.057.703-1.949 1.667-2.235v-1.099a2.75 2.75 0 0 1 2.748-2.748m-2.083 5.08c-.553 0-1.002.449-1.002 1.002v1.666c0 .553.449 1.002 1.002 1.002h4.166c.553 0 1.002-.449 1.002-1.002v-1.666c0-.553-.449-1.002-1.002-1.002zm2.083-3.75c-.783 0-1.418.635-1.418 1.418v1.002h2.837v-1.002c0-.783-.636-1.418-1.419-1.418" clip-rule="evenodd" xmlns="http://www.w3.org/2000/svg" /><path d="M11.398 2.252c2.124 0 3.966 1.2 4.888 2.957l.172.36.042.127a.666.666 0 0 1-1.195.52l-.066-.116-.13-.274A4.188 4.188 0 0 0 7.21 7.77c0 .423.062.832.179 1.216a.67.67 0 0 1-.166.663l-3.887 3.887a.59.59 0 0 0-.171.413v2.053h2.053a.59.59 0 0 0 .413-.17L6 15.46v-1.293a.665.665 0 0 1 1.331 0v1.568c0 .177-.07.346-.195.471l-.566.566c-.359.358-.846.56-1.353.56H2.5a.665.665 0 0 1-.665-.665v-2.718c0-.507.202-.994.56-1.353l3.617-3.617a5.518 5.518 0 0 1 5.386-6.727" xmlns="http://www.w3.org/2000/svg" /></svg>