<svg xmlns="http://www.w3.org/2000/svg" viewBox="0 0 20 20"><path d="M17.46 16.19c0-1.367-.506-2.344-1.228-2.985-.733-.652-1.73-.992-2.75-.992-1.019 0-2.017.34-2.75.992-.722.641-1.228 1.618-1.228 2.985a.665.665 0 0 1-1.33 0c0-1.728.655-3.073 1.675-3.98 1.007-.894 2.331-1.327 3.633-1.327s2.627.433 3.634 1.328c1.02.906 1.674 2.251 1.674 3.98a.665.665 0 1 1-1.33 0m-16.25-.773c0-1.777.815-3.075 1.988-3.816 1.149-.726 2.603-.897 3.887-.535a.666.666 0 0 1-.36 1.28c-.947-.266-2.008-.132-2.817.379-.783.495-1.368 1.367-1.368 2.692a.665.665 0 0 1-1.33 0m6.577-8.512a1.657 1.657 0 1 0-3.314 0 1.657 1.657 0 0 0 3.314 0m7.738-.388a2.043 2.043 0 1 0-4.086.001 2.043 2.043 0 0 0 4.086 0m-6.408.388a2.987 2.987 0 1 1-5.973 0 2.987 2.987 0 0 1 5.973 0m7.738-.388a3.374 3.374 0 1 1-6.747 0 3.374 3.374 0 0 1 6.747 0" xmlns="http://www.w3.org/2000/svg" /></svg>