<svg xmlns="http://www.w3.org/2000/svg" viewBox="0 0 20 20" fill-rule="evenodd" clip-rule="evenodd"><path d="M6.966 2.552c-.071-.924 1.009-1.474 1.714-.873l3.229 2.75 3.92-1.618c.856-.353 1.713.504 1.36 1.36l-1.617 3.92 2.749 3.229c.6.705.05 1.785-.874 1.713l-4.227-.326-2.221 3.612c-.485.79-1.682.6-1.9-.3l-.805-3.332-4.47 4.47a.694.694 0 1 1-.982-.982l4.47-4.47-3.33-.804c-.901-.218-1.09-1.415-.301-1.9L7.293 6.78zm1.45.726.278 3.606c.03.39-.16.763-.493.968L5.119 9.747l3.516.85c.38.09.677.387.768.767l.85 3.516 1.895-3.081c.204-.333.578-.523.967-.493l3.607.278-2.345-2.754a1.04 1.04 0 0 1-.17-1.072l1.38-3.345-3.345 1.38a1.04 1.04 0 0 1-1.073-.17z" xmlns="http://www.w3.org/2000/svg" /></svg>