<svg xmlns="http://www.w3.org/2000/svg" viewBox="0 0 20 20"><path d="M12.137 15.887a.667.667 0 0 1-.941-.94zM16.72 14.947a.665.665 0 0 1-.94.94zM4.676 10.185a.71.71 0 0 1 1.195-.32l.927.946c.02.021.05.032.079.03l1.322-.083a.71.71 0 0 1 .674 1.039l-.614 1.172a.1.1 0 0 0-.004.085l.487 1.232a.71.71 0 0 1-.778.962l-1.307-.221a.1.1 0 0 0-.081.021l-1.02.844A.71.71 0 0 1 4.4 15.45l-.193-1.31a.1.1 0 0 0-.047-.071l-1.117-.71a.71.71 0 0 1 .064-1.235l1.186-.59a.1.1 0 0 0 .053-.066z" xmlns="http://www.w3.org/2000/svg" /><path d="M15.885 10.278a.666.666 0 0 1 .835 1.026l-1.82 1.82 1.82 1.823-.47.47-.47.47-1.822-1.821-1.82 1.821-.471-.47-.471-.47 1.821-1.822-1.821-1.82-.085-.105a.666.666 0 0 1 .922-.922l.104.085 1.82 1.821 1.823-1.821zM8.641 3.052c.527-.02 1.062.189 1.48.65.552-.29 1.127-.303 1.614-.104.554.227.974.72 1.109 1.334.276 1.267-.658 2.823-3.455 3.769a.3.3 0 0 1-.289-.052C6.796 6.804 6.45 5.023 7.144 3.927c.336-.53.9-.85 1.497-.875" xmlns="http://www.w3.org/2000/svg" /></svg>