<svg xmlns="http://www.w3.org/2000/svg" viewBox="0 0 20 20" fill="none"><path fill="currentColor" fill-rule="evenodd" d="M7.643 2.251c.281 0 .533.178.627.443a1.836 1.836 0 0 0 3.46 0 .67.67 0 0 1 .627-.443h2.226a2.33 2.33 0 0 1 2.332 2.332v10.833a2.33 2.33 0 0 1-2.332 2.332h-2.226a.665.665 0 0 1-.626-.443 1.836 1.836 0 0 0-3.461 0 .665.665 0 0 1-.627.443H5.417a2.33 2.33 0 0 1-2.332-2.332V4.583a2.33 2.33 0 0 1 2.332-2.332zm-2.226 1.33c-.553 0-1.002.449-1.002 1.002v10.833c0 .553.449 1.002 1.002 1.002h1.795a3.164 3.164 0 0 1 5.576 0h1.795c.553 0 1.002-.449 1.002-1.002V4.583c0-.553-.449-1.002-1.002-1.002h-1.795a3.164 3.164 0 0 1-5.576 0z" clip-rule="evenodd" xmlns="http://www.w3.org/2000/svg" /><path stroke="currentColor" stroke-linecap="round" stroke-linejoin="round" stroke-width="1.33" d="M4 11.66h12" xmlns="http://www.w3.org/2000/svg" /></svg>