<svg xmlns="http://www.w3.org/2000/svg" viewBox="0 0 20 20"><path d="M5 6.667a5 5 0 0 1 10 0v.125c.236.052.462.127.68.238.627.32 1.137.83 1.457 1.457.206.404.288.835.326 1.303.037.451.037 1.005.037 1.676v2.068c0 .671 0 1.225-.037 1.676-.038.468-.12.899-.326 1.303a3.33 3.33 0 0 1-1.457 1.457c-.405.206-.835.288-1.303.327-.452.036-1.005.036-1.676.036H7.3c-.67 0-1.225 0-1.676-.036-.468-.039-.899-.12-1.303-.327a3.33 3.33 0 0 1-1.457-1.457c-.206-.404-.288-.835-.326-1.303-.037-.451-.037-1.005-.037-1.676v-2.068c0-.671 0-1.225.037-1.676.038-.468.12-.899.326-1.303.32-.628.83-1.137 1.457-1.457.218-.111.444-.186.68-.238zm1.667.001.632-.001H12.7l.632.001v-.001a3.333 3.333 0 1 0-6.666 0zm-.908 1.697c-.365.03-.552.084-.682.15-.314.16-.569.415-.729.728-.066.13-.12.318-.15.683-.03.375-.031.86-.031 1.574v2c0 .714 0 1.2.031 1.574.03.366.084.552.15.683.16.313.415.568.729.728.13.066.317.12.682.15.375.031.86.032 1.574.032h5.334c.713 0 1.199-.001 1.574-.032.365-.03.552-.084.682-.15.314-.16.569-.415.729-.728.066-.13.12-.317.15-.683.03-.375.031-.86.031-1.574v-2c0-.714 0-1.2-.031-1.574-.03-.365-.084-.552-.15-.683a1.67 1.67 0 0 0-.729-.728c-.13-.066-.317-.12-.682-.15-.375-.031-.86-.032-1.574-.032H7.333c-.713 0-1.199.001-1.574.032" xmlns="http://www.w3.org/2000/svg" /><path d="M8.333 11.667a1.667 1.667 0 1 1 2.5 1.443v1.057a.833.833 0 0 1-1.666 0V13.11a1.67 1.67 0 0 1-.834-1.443" xmlns="http://www.w3.org/2000/svg" /></svg>