<svg xmlns="http://www.w3.org/2000/svg" viewBox="0 0 20 20"><path d="M17.669 9c0-.711-.001-1.204-.033-1.588a2.4 2.4 0 0 0-.112-.615l-.056-.13a1.84 1.84 0 0 0-.675-.731l-.127-.07c-.157-.081-.37-.138-.745-.169-.383-.031-.877-.032-1.587-.032H5.667c-.712 0-1.205 0-1.588.032-.376.031-.587.088-.745.168a1.83 1.83 0 0 0-.802.802c-.08.158-.138.37-.168.745-.032.384-.032.877-.032 1.588v2c0 .711 0 1.204.032 1.588.03.376.087.587.168.745l.07.126c.176.288.43.522.732.676l.13.056c.143.052.333.089.615.112.383.031.876.032 1.588.032h8.667c.71 0 1.204 0 1.587-.032.376-.031.588-.088.745-.168l.127-.07c.287-.177.521-.43.675-.732l.056-.13c.051-.144.09-.333.112-.615.032-.384.033-.877.033-1.588zm1.33 2c0 .69 0 1.246-.038 1.696-.032.4-.097.762-.24 1.098l-.068.143c-.266.52-.67.957-1.165 1.261l-.218.122c-.377.192-.782.271-1.24.309-.45.037-1.008.036-1.697.036H5.667c-.689 0-1.246 0-1.696-.036-.4-.033-.761-.098-1.097-.242l-.143-.067a3.17 3.17 0 0 1-1.262-1.165l-.122-.218c-.192-.377-.271-.783-.308-1.24C1 12.245 1 11.688 1 11V9c0-.69 0-1.246.037-1.696.037-.458.116-.864.308-1.24A3.17 3.17 0 0 1 2.73 4.68c.377-.192.782-.271 1.24-.309.45-.037 1.007-.036 1.697-.036h8.667c.688 0 1.246 0 1.696.036.458.038.863.117 1.24.309l.218.122c.496.304.9.74 1.165 1.261l.067.143c.144.336.209.697.241 1.098C18.998 7.754 19 8.31 19 9z" xmlns="http://www.w3.org/2000/svg" /></svg>