<svg xmlns="http://www.w3.org/2000/svg" viewBox="0 0 20 20"><path d="M16.397 5.011a.17.17 0 0 0-.104-.157l-.058-.01c-2.304.074-3.673.477-5.57 1.503v10.025c.72-.373 1.404-.66 2.121-.87 1.043-.306 2.125-.439 3.454-.459l.058-.012a.17.17 0 0 0 .099-.155zM3.544 14.877c0 .095.077.165.156.166l.495.013c1.745.069 3.064.364 4.463.992-.604-.877-1.512-1.612-2.48-1.937v-.001a1.49 1.49 0 0 1-1.011-1.411v-7.71a10 10 0 0 0-.886-.114l-.554-.03a.173.173 0 0 0-.183.167zm14.182-.002c0 .756-.566 1.4-1.315 1.488l-.152.01c-1.248.02-2.205.143-3.1.405-.897.262-1.763.673-2.823 1.296a.67.67 0 0 1-.674 0c-1.948-1.146-3.343-1.605-5.533-1.689l-.448-.011a1.495 1.495 0 0 1-1.467-1.497V5.012c0-.858.718-1.525 1.557-1.497l.626.034c.282.023.525.055.77.093V2.51c0-1.06 1.122-1.864 2.143-1.353v-.001c1.476.74 2.755 2.174 3.224 3.759 1.825-.926 3.334-1.327 5.657-1.402l.159.004a1.497 1.497 0 0 1 1.376 1.494zM6.498 12.7c0 .073.046.13.105.15l.36.137c.89.373 1.718.999 2.372 1.764V5.582c-.247-1.204-1.199-2.425-2.377-3.106l-.242-.13c-.038-.02-.082-.021-.133.012a.18.18 0 0 0-.085.152z" xmlns="http://www.w3.org/2000/svg" /></svg>