<svg xmlns="http://www.w3.org/2000/svg" viewBox="0 0 21 20" fill-rule="evenodd" clip-rule="evenodd"><path d="M10.125 2.835c.185 0 .362.078.488.214q.92.994 1.576 2.02 1.075-.812 2.47-1.419l.129-.04a.666.666 0 0 1 .757.407q.659 1.681.903 3.22a11.4 11.4 0 0 1 1.693-.06c.351.012.631.296.641.646.082 3.005-.515 5.375-1.993 6.99-1.487 1.624-3.741 2.352-6.664 2.352s-5.177-.727-6.664-2.351c-1.479-1.616-2.075-3.986-1.993-6.99.01-.351.29-.635.64-.647a11.4 11.4 0 0 1 1.693.06q.245-1.539.904-3.22l.061-.12a.67.67 0 0 1 .824-.247q1.395.608 2.47 1.418.655-1.024 1.576-2.02a.67.67 0 0 1 .489-.213m0 1.67A11.7 11.7 0 0 0 8.82 6.394a8.6 8.6 0 0 0-.643 1.48 6.961 6.961 0 0 0-.309 1.465c-.108 1.093.193 2.374.787 3.662a154 154 0 0 0 1.386 2.833l.083.002.082-.002A155 155 0 0 0 11.593 13c.595-1.288.897-2.57.788-3.662a7 7 0 0 0-.31-1.465 9.016 9.016 0 0 0-.643-1.48q0-.004-.003-.007a11.7 11.7 0 0 0-1.3-1.88M2.79 8.504c.021 2.5.593 4.258 1.65 5.413.93 1.016 2.32 1.652 4.285 1.85-1.347-1.93-2.273-4.18-2.204-6.184-.624-.448-1.38-.763-2.276-.935a9 9 0 0 0-1.455-.144m14.667 0a9 9 0 0 0-1.454.144c-.897.172-1.652.487-2.277.935.07 2.005-.857 4.253-2.205 6.185 1.966-.199 3.355-.834 4.286-1.851 1.058-1.155 1.628-2.914 1.65-5.413M5.698 5.17a13.4 13.4 0 0 0-.59 2.314 7 7 0 0 1 1.618.658l.014-.053q.048-.198.105-.395l.024-.08q.057-.19.125-.38l.026-.079q.063-.172.133-.343l.058-.142a10 10 0 0 1 .14-.312l.052-.115A10 10 0 0 0 5.698 5.17m8.853 0a10 10 0 0 0-1.706 1.072q.452.94.677 1.899a7 7 0 0 1 1.62-.657q-.17-1.093-.591-2.314" xmlns="http://www.w3.org/2000/svg" /></svg>