<svg xmlns="http://www.w3.org/2000/svg" viewBox="0 0 20 20"><path d="M12.669 5.833c0-.613-.004-.923-.03-1.129l-.033-.179a1.84 1.84 0 0 0-1.18-1.262l-.118-.035c-.212-.057-.49-.063-1.308-.063H8.055c-1.01 0-1.43.01-1.725.097l-.12.042c-.26.107-.49.272-.676.482l-.077.092c-.152.197-.254.453-.423 1.039l-.196.705-.381 1.396c-.209.764-.354 1.3-.434 1.721-.08.418-.08.653-.042.825l.055.194c.15.442.464.812.882 1.032l.133.058c.15.053.357.095.674.12.427.033.983.034 1.775.034a.665.665 0 0 1 .654.784l-.019.076-.79 2.57a1.833 1.833 0 0 0 1.466 2.35l2.698-4.721.074-.12a2.1 2.1 0 0 1 1.086-.832zm4.663 2.5c0 .64.004 1.101-.07 1.49l-.039.162a3.17 3.17 0 0 1-2.036 2.177l-.2.062c-.425.113-.921.108-1.653.108a.77.77 0 0 0-.614.303l-.056.085-2.92 5.11a.67.67 0 0 1-.66.33l-.378-.048a3.165 3.165 0 0 1-2.632-4.071l.526-1.714a15 15 0 0 1-.98-.033c-.432-.034-.82-.1-1.173-.255l-.148-.072a3.16 3.16 0 0 1-1.574-1.947l-.042-.167c-.095-.431-.06-.875.034-1.363.092-.484.254-1.079.457-1.822l.38-1.396.192-.692c.183-.638.356-1.123.658-1.515l.133-.16c.32-.361.717-.646 1.165-.83l.234-.083c.559-.166 1.215-.157 2.12-.157h4.61c.69 0 1.247 0 1.697.036.458.038.864.117 1.24.309l.218.122c.496.304.9.74 1.166 1.262l.067.142c.144.336.209.697.242 1.098.036.45.036 1.007.036 1.696zm-3.334 2.663c.334-.006.503-.019.643-.056l.117-.037a1.84 1.84 0 0 0 1.181-1.261l.033-.18c.026-.205.03-.515.03-1.129V6.5c0-.711-.001-1.204-.032-1.588a2.4 2.4 0 0 0-.113-.615l-.055-.13a1.84 1.84 0 0 0-.676-.731L15 3.366c-.158-.081-.37-.138-.745-.169a12 12 0 0 0-.843-.029c.215.302.38.643.478 1.013l.037.163c.054.278.068.592.07.982z" xmlns="http://www.w3.org/2000/svg" /></svg>