<svg xmlns="http://www.w3.org/2000/svg" viewBox="0 0 20 20"><path fill-rule="evenodd" d="M12.402 9.875c1.778 0 2.871 1.392 2.871 3.667s-1.084 3.696-2.87 3.696c-1.788 0-2.877-1.41-2.877-3.691 0-2.276 1.099-3.672 2.876-3.672m0 1.182c-.859 0-1.377.888-1.377 2.49 0 1.616.508 2.51 1.377 2.51.87 0 1.372-.894 1.372-2.51 0-1.607-.507-2.49-1.372-2.49" clip-rule="evenodd" xmlns="http://www.w3.org/2000/svg" /><path d="M7.197 9.929c.523 0 .835.317.835.825v5.693c0 .445-.293.738-.727.738-.435 0-.733-.293-.733-.738v-5.044h-.029l-1.03.718a.6.6 0 0 1-.39.132.503.503 0 0 1-.519-.527c0-.225.088-.391.318-.552l1.396-.967c.342-.234.577-.278.88-.278M10.001 2.75a7.33 7.33 0 0 1 6.692 4.333l.107.249.037.13a.666.666 0 0 1-1.207.488l-.064-.119-.087-.204a6.004 6.004 0 0 0-10.578-.71h1.766l.135.014a.666.666 0 0 1 0 1.302l-.135.014H3.334a.666.666 0 0 1-.666-.665V4.248a.666.666 0 0 1 1.331 0v1.623a7.32 7.32 0 0 1 6.002-3.121" xmlns="http://www.w3.org/2000/svg" /></svg>