<svg xmlns="http://www.w3.org/2000/svg" viewBox="0 0 20 20"><path d="M15.585 6.5c0-.711 0-1.204-.032-1.588a2.4 2.4 0 0 0-.112-.615l-.056-.13a1.84 1.84 0 0 0-.675-.731l-.127-.07c-.158-.081-.37-.138-.745-.169-.384-.031-.877-.032-1.588-.032h-4.5c-.711 0-1.205 0-1.588.032-.281.023-.47.06-.614.112l-.131.056a1.83 1.83 0 0 0-.73.676l-.072.126c-.08.158-.137.37-.168.745-.023.287-.028.635-.03 1.09h.167a.665.665 0 0 1 0 1.33h-.17v2.003h.17l.134.014a.665.665 0 0 1 0 1.302l-.134.014h-.17v2.003h.17a.666.666 0 0 1 0 1.33h-.166c.001.455.006.803.029 1.09.03.376.088.587.168.745l.071.126c.177.287.429.522.73.676l.132.056c.143.052.333.089.614.112.383.031.877.032 1.588.032h4.5c.71 0 1.204 0 1.588-.032.375-.031.587-.088.745-.168l.127-.07c.287-.177.522-.43.675-.732l.056-.13c.052-.144.09-.333.112-.615.032-.384.032-.877.032-1.588zM10.5 9.085a.665.665 0 0 1 0 1.33H8a.665.665 0 0 1 0-1.33zM12 6.002l.133.014a.665.665 0 0 1 0 1.302L12 7.332H8a.666.666 0 0 1 0-1.33zm4.915 7.498c0 .69 0 1.246-.036 1.696-.033.401-.098.762-.242 1.098l-.067.142c-.265.522-.67.958-1.165 1.262l-.218.122c-.377.192-.783.271-1.241.309-.45.037-1.007.036-1.696.036h-4.5c-.69 0-1.246 0-1.697-.036-.4-.033-.76-.098-1.097-.242l-.143-.067a3.17 3.17 0 0 1-1.26-1.165l-.123-.219c-.191-.376-.27-.782-.308-1.24a16 16 0 0 1-.034-1.198h-.171a.665.665 0 1 1 0-1.33h.168v-2.003h-.168a.665.665 0 1 1 0-1.33h.168V7.332h-.168a.665.665 0 0 1 0-1.33h.17c.002-.466.007-.862.035-1.198.037-.458.117-.864.308-1.24l.122-.22c.305-.495.74-.899 1.261-1.164l.143-.067c.336-.144.697-.21 1.097-.242.45-.037 1.008-.036 1.697-.036h4.5c.689 0 1.246 0 1.696.036.458.038.864.117 1.241.309l.218.122c.496.304.9.74 1.165 1.261l.067.143c.144.336.209.697.242 1.098.036.45.036 1.007.036 1.696z" xmlns="http://www.w3.org/2000/svg" /></svg>