<svg xmlns="http://www.w3.org/2000/svg" viewBox="0 0 20 20"><path d="M9.388 8.534a1.25 1.25 0 1 1 .347 2.477 1.25 1.25 0 0 1-.347-2.477" xmlns="http://www.w3.org/2000/svg" /><path fill-rule="evenodd" d="M10.389 5.587c.459-.019.872.01 1.27.155l.23.095c.53.241.983.625 1.31 1.11l.084.133c.184.316.293.667.374 1.06.091.443.158.996.242 1.68l.346 2.812.11.93q.047.42.06.757c.017.402-.003.769-.105 1.12l-.05.15c-.2.549-.547 1.031-1.002 1.393l-.201.148c-.35.236-.745.365-1.195.458q-.33.067-.749.124l-.93.118-2.812.346c-.684.084-1.236.152-1.688.17-.401.017-.768-.004-1.12-.106l-.149-.049a3.17 3.17 0 0 1-1.394-1.003l-.147-.2c-.236-.351-.365-.745-.458-1.195q-.067-.33-.124-.75l-.118-.929-.346-2.812c-.084-.684-.152-1.237-.17-1.688-.02-.459.01-.872.154-1.27l.095-.23a3.17 3.17 0 0 1 1.11-1.31l.133-.084c.316-.185.667-.293 1.06-.374.443-.092.996-.159 1.68-.243L8.7 5.758l.93-.11q.42-.046.758-.061m-3.632 7.472a1.84 1.84 0 0 0-1.094.093c-.16.065-.334.183-.594.43-.265.255-.577.605-1.028 1.111l-.393.44q.034.214.07.391c.076.369.158.572.257.719l.086.117c.21.264.49.465.808.581l.136.04c.149.034.342.048.624.036.384-.015.874-.075 1.58-.162l2.812-.344.91-.117.247-.037-2.563-2.05c-.53-.424-.897-.716-1.201-.922a2.4 2.4 0 0 0-.525-.287zm3.686-6.143c-.192.008-.411.027-.67.055l-.91.107-2.812.345c-.706.086-1.196.147-1.573.225-.276.057-.46.118-.596.187l-.122.071c-.281.19-.504.453-.644.76l-.055.134c-.06.166-.091.383-.076.76.016.384.076.874.162 1.58l.276 2.25.221-.247q.273-.297.505-.521c.319-.305.634-.547 1.011-.701l.227-.083a3.17 3.17 0 0 1 1.659-.076l.147.037c.339.098.647.268.966.484.358.243.773.575 1.286.985l3.152 2.52c.182-.185.324-.407.414-.654l.04-.136c.033-.149.047-.342.036-.624a10 10 0 0 0-.055-.67l-.107-.91-.345-2.813c-.087-.705-.148-1.195-.226-1.572a2.4 2.4 0 0 0-.186-.597l-.071-.122a1.84 1.84 0 0 0-.76-.643l-.134-.055c-.167-.06-.383-.091-.76-.076" clip-rule="evenodd" xmlns="http://www.w3.org/2000/svg" /><path d="M9.728 1.59c.452.018 1.004.087 1.688.17l2.812.346.93.118q.419.058.75.124c.45.093.843.222 1.194.458l.2.148c.456.362.803.844 1.004 1.394l.048.149c.103.351.123.718.107 1.12q-.016.338-.062.757l-.11.93-.345 2.813c-.084.684-.15 1.236-.242 1.679-.081.394-.19.744-.374 1.06l-.084.134a3.2 3.2 0 0 1-.518.593l-.109.079a.666.666 0 0 1-.776-1.072l.16-.162q.076-.087.14-.182l.072-.122c.068-.136.13-.32.186-.597.078-.377.14-.866.226-1.572l.345-2.813.107-.91c.028-.258.047-.477.055-.67a2.4 2.4 0 0 0-.036-.624l-.04-.135a1.84 1.84 0 0 0-.582-.808l-.117-.086c-.147-.1-.35-.182-.718-.258a10 10 0 0 0-.663-.11l-.91-.115-2.812-.345c-.706-.087-1.196-.147-1.58-.162a2.4 2.4 0 0 0-.624.036l-.136.04a1.84 1.84 0 0 0-.809.581l-.085.117c-.067.1-.127.227-.182.412l-.051.125a.666.666 0 0 1-1.225-.503l.069-.207a2.6 2.6 0 0 1 .287-.57l.147-.202A3.17 3.17 0 0 1 8.46 1.745l.15-.049c.35-.102.718-.123 1.12-.106" xmlns="http://www.w3.org/2000/svg" /></svg>