<svg xmlns="http://www.w3.org/2000/svg" viewBox="0 0 20 20"><path d="M8.471 1.44c.743-1.13 2.447-1.092 3.126.113l1.946 3.453.021.029a.17.17 0 0 0 .09.052l3.886.784c1.356.273 1.918 1.881 1.073 2.937l-.086.1-2.682 2.918a.17.17 0 0 0-.043.132l.455 3.937.011.132c.063 1.351-1.338 2.32-2.596 1.745l-3.603-1.648a.17.17 0 0 0-.105-.012l-.034.012-3.603 1.648c-1.299.594-2.748-.458-2.584-1.877l.455-3.937v-.036a.2.2 0 0 0-.022-.067l-.021-.03L1.473 8.91C.507 7.858 1.06 6.153 2.46 5.87l3.885-.784.034-.011a.17.17 0 0 0 .079-.07l1.946-3.453zm1.674.932a.167.167 0 0 0-.263-.037l-.027.037-1.946 3.452a1.83 1.83 0 0 1-1.042.847l-.193.05-3.884.784a.167.167 0 0 0-.09.276l2.682 2.917.126.153c.235.318.36.704.358 1.1l-.013.198-.455 3.938a.167.167 0 0 0 .235.17l3.604-1.649.184-.073c.438-.146.918-.121 1.342.073l3.604 1.648a.166.166 0 0 0 .233-.123l.001-.046-.455-3.938a1.83 1.83 0 0 1 .472-1.451L17.3 7.78l.027-.038a.167.167 0 0 0-.117-.238l-3.884-.785a1.83 1.83 0 0 1-1.128-.73l-.107-.166z" xmlns="http://www.w3.org/2000/svg" /></svg>