<svg xmlns="http://www.w3.org/2000/svg" viewBox="0 0 20 20"><path d="M15.78 10.196a.665.665 0 0 1 .449.827l-.08.25a6.5 6.5 0 0 1-5.485 4.357l.001 1.205h1.418l.134.014a.665.665 0 0 1 0 1.302l-.134.014H7.916a.665.665 0 0 1 0-1.33h1.42l-.002-1.205a6.5 6.5 0 0 1-5.484-4.357l-.08-.25-.026-.132a.665.665 0 0 1 1.25-.371l.051.124.064.198a5.17 5.17 0 0 0 9.844-.198l.052-.124a.664.664 0 0 1 .776-.324m-3.529-4.779a2.252 2.252 0 1 0-4.503 0v3.75a2.252 2.252 0 0 0 4.503 0zm1.33 3.75a3.581 3.581 0 0 1-7.163 0v-3.75a3.582 3.582 0 0 1 7.163 0z" xmlns="http://www.w3.org/2000/svg" /></svg>