<svg xmlns="http://www.w3.org/2000/svg" viewBox="0 0 20 20"><path d="M10 3.165c-.613 0-.923.003-1.13.028l-.178.035a1.84 1.84 0 0 0-1.262 1.18l-.036.117c-.038.14-.052.31-.058.643h5.328a5 5 0 0 0-.024-.464l-.034-.179a1.84 1.84 0 0 0-1.18-1.262l-.118-.035c-.212-.057-.49-.063-1.308-.063m7.956 9.502c0 .689.001 1.246-.036 1.696-.033.4-.098.762-.242 1.098l-.066.143c-.266.52-.67.956-1.165 1.26l-.218.122c-.377.192-.783.271-1.241.309-.45.037-1.008.037-1.697.037H6.708c-.689 0-1.246 0-1.696-.037-.4-.033-.761-.097-1.098-.241l-.142-.068a3.17 3.17 0 0 1-1.262-1.165l-.122-.217c-.192-.377-.271-.783-.309-1.24-.036-.45-.036-1.008-.036-1.697V9.833c0-.689 0-1.246.036-1.696.038-.458.117-.864.31-1.24l.121-.218c.304-.496.74-.9 1.262-1.165l.142-.068c.337-.144.698-.208 1.098-.24.286-.024.615-.032.993-.035.007-.394.03-.708.105-.99l.061-.202a3.17 3.17 0 0 1 2.177-2.037l.162-.037c.39-.075.85-.07 1.49-.07.732 0 1.229-.006 1.653.107l.202.062A3.17 3.17 0 0 1 13.89 4.18l.037.163c.046.24.06.507.065.827.38.003.708.01.995.034.458.037.864.117 1.24.309l.219.122c.495.304.9.74 1.165 1.26l.066.143c.144.336.21.697.242 1.098.037.45.036 1.007.036 1.696z" xmlns="http://www.w3.org/2000/svg" /></svg>