<svg xmlns="http://www.w3.org/2000/svg" viewBox="0 0 24 24" fill="none"><path fill="var(--code-icon-c0, #4d4d4d)" d="M7 20.453q-1.163 0-2.075-.5A3.66 3.66 0 0 1 3.5 18.528q-.5-.912-.5-2.075v-10q0-1.163.5-2.075a3.58 3.58 0 0 1 1.425-1.413Q5.837 2.453 7 2.453h10q1.163 0 2.075.512.913.5 1.413 1.413Q21 5.29 21 6.453v10q0 1.163-.512 2.075a3.6 3.6 0 0 1-1.413 1.425q-.912.5-2.075.5z" xmlns="http://www.w3.org/2000/svg" /><g fill-rule="evenodd" clip-rule="evenodd" xmlns="http://www.w3.org/2000/svg"><path fill="var(--code-icon-c1, white)" d="M7.96 8.773a.8.8 0 0 1 1.28.96l-1.44 1.92 1.44 1.919a.8.8 0 0 1-1.28.96l-1.8-2.4a.8.8 0 0 1 0-.96z" /><path fill="var(--code-icon-c2, white)" d="M12.685 8.895a.8.8 0 0 1 1.432.716l-2.4 4.798a.8.8 0 0 1-1.433-.715z" /><path fill="var(--code-icon-c3, white)" d="M15.321 8.613a.8.8 0 0 1 1.12.16l1.8 2.399a.8.8 0 0 1 0 .96l-1.8 2.4a.8.8 0 0 1-1.28-.96l1.44-1.92-1.44-1.92a.8.8 0 0 1 .16-1.12" /></g></svg>