<svg xmlns="http://www.w3.org/2000/svg" viewBox="0 0 20 20"><path d="M13.494 10.188c.356.088.573.45.485.806-.51 2.04-2.512 3.004-3.979 3.004a.665.665 0 1 1 0-1.33c1.033 0 2.365-.703 2.688-1.996a.665.665 0 0 1 .806-.485M8.597 6.325a.665.665 0 0 1 1.14.684L7.994 9.914a.17.17 0 0 0 .145.255h1.028l.134.014a.666.666 0 0 1 0 1.302l-.134.014H8.139a1.498 1.498 0 0 1-1.285-2.27z" xmlns="http://www.w3.org/2000/svg" /><path d="M10 2.085a7.915 7.915 0 1 1 0 15.83 7.915 7.915 0 0 1 0-15.83m0 1.33a6.585 6.585 0 1 0 0 13.17 6.585 6.585 0 0 0 0-13.17" xmlns="http://www.w3.org/2000/svg" /></svg>