<svg xmlns="http://www.w3.org/2000/svg" viewBox="0 0 20 20"><path d="M15.57 2.184a1.71 1.71 0 0 1 1.865.381l.092.1c.41.481.54 1.161.289 1.764l-.06.128a16 16 0 0 1-2.66 3.745c1.064 1.301 1.858 2.642 2.186 3.892.345 1.319.18 2.617-.822 3.559l-.21.183c-.946.756-2.01.661-2.882.301-.853-.352-1.617-.988-2.149-1.501a.664.664 0 0 1 .924-.956c.489.472 1.11.97 1.732 1.228.604.249 1.106.24 1.543-.11l.118-.101c.561-.521.723-1.261.46-2.266-.256-.975-.902-2.116-1.86-3.304q-.775.689-1.67 1.318l-.138-.197v.001l.137.196a.7.7 0 0 1-.141.072c-.035.62-.228 1.136-.578 1.54-.38.437-.885.676-1.38.811-.95.26-2.125.189-2.858.189a.665.665 0 0 1-.665-.665c0-.733-.07-1.907.189-2.858.135-.495.374-1 .811-1.38q.608-.526 1.54-.579a.7.7 0 0 1 .073-.14q.553-.788 1.152-1.482C8.187 4.657 5.777 4.656 4.436 5.84l-.135.127c-.857.858-1.178 2.193-.886 3.755.293 1.559 1.19 3.27 2.654 4.733l.327.312c.77.702 1.57 1.208 2.24 1.546.383.193.717.33.973.415.142.048.243.074.307.09l.084.018.134.012a.666.666 0 0 1 0 1.304l-.134.014-.18-.015a3.7 3.7 0 0 1-.635-.163 9 9 0 0 1-1.148-.488 11.5 11.5 0 0 1-2.538-1.75l-.37-.355C3.5 13.767 2.454 11.822 2.107 9.967c-.347-1.85-.005-3.682 1.253-4.94l.198-.187c2.01-1.783 5.244-1.453 7.978.22a16 16 0 0 1 3.906-2.816zM9.588 9c-.454 0-.71.12-.872.26-.171.148-.307.382-.4.725-.149.545-.154 1.19-.148 1.849.659.006 1.304 0 1.85-.148.342-.093.576-.229.725-.4.14-.161.26-.418.26-.872 0-.781-.634-1.414-1.415-1.414m6.908-5.493a.39.39 0 0 0-.39-.102l-.05.02c-2.124 1.1-3.797 2.538-5.26 4.527.544.267.985.71 1.253 1.254 1.989-1.464 3.427-3.135 4.528-5.259l.021-.052a.38.38 0 0 0-.06-.338z" xmlns="http://www.w3.org/2000/svg" /></svg>