<svg xmlns="http://www.w3.org/2000/svg" viewBox="0 0 20 20"><path d="m16.607 10.157.138.122c.615.648.173 1.784-.78 1.784H13.07l.968 1.936.076.174c.31.82 0 1.75-.74 2.22l-.165.094-1.043.521c-.859.43-1.891.13-2.394-.663l-.094-.166-1.037-2.074-1.84 1.842c-.67.668-1.812.194-1.812-.751v-1.867l1.33-.708v1.926l1.645-1.645.1-.09a1.06 1.06 0 0 1 1.533.25l.068.115 1.203 2.407.056.09c.15.192.42.258.647.145l1.043-.522.09-.056a.53.53 0 0 0 .182-.547l-.038-.1-1.163-2.325a1.062 1.062 0 0 1 .95-1.536h2.532l-2.18-1.654 1.294-.688zM14.975 5.212a.666.666 0 0 1 .5 1.226l-12.68 6.736-.125.051a.665.665 0 0 1-.499-1.226l12.68-6.735zM4.988 4.277c0-1.205 1.378-1.889 2.338-1.161l3.74 2.838-1.293.687-3.251-2.466a.127.127 0 0 0-.204.102v4.2l-1.33.707z" xmlns="http://www.w3.org/2000/svg" /></svg>