<svg xmlns="http://www.w3.org/2000/svg" viewBox="0 0 20 20"><path d="M16.417 7.333c0-.71 0-1.204-.032-1.588a2.4 2.4 0 0 0-.113-.615L16.218 5a1.84 1.84 0 0 0-.676-.731l-.126-.07c-.158-.08-.37-.138-.745-.168-.383-.032-.877-.033-1.588-.033H6.915c-.711 0-1.204.001-1.588.033-.282.023-.471.06-.615.11l-.13.058a1.84 1.84 0 0 0-.731.675L3.78 5c-.081.158-.138.37-.169.745-.031.384-.032.877-.032 1.588v4.928c0 .643.004.863.04 1.031l.031.132c.187.65.72 1.15 1.39 1.29l.14.02c.164.016.407.017.89.017.197 0 .333 0 .467.011l.18.02c.419.058.823.2 1.187.418l.176.115q.091.063.21.148l1.32.943.293.203c.058.035.067.033.053.03l.041.005a.2.2 0 0 0 .042-.005l.052-.03c.065-.04.148-.099.295-.203l1.32-.943.208-.148q.091-.064.177-.114l.158-.09a3.2 3.2 0 0 1 1.209-.349l.21-.009.257-.002c.642 0 .862-.002 1.031-.038l.132-.033a1.84 1.84 0 0 0 1.289-1.388l.02-.142a11 11 0 0 0 .019-.889zm-6.247 2.835a.665.665 0 0 1 0 1.33H7.33a.665.665 0 0 1 0-1.33zm2.5-3.333.134.014a.665.665 0 0 1 0 1.303l-.134.013H7.33a.665.665 0 0 1 0-1.33zm5.077 5.426c0 .432.002.76-.027 1.038l-.04.265a3.17 3.17 0 0 1-2.224 2.394l-.227.057c-.337.07-.728.066-1.303.066l-.359.007c-.21.017-.415.07-.606.156l-.187.098-.295.203-1.319.943c-.204.145-.427.314-.682.406l-.112.034a1.5 1.5 0 0 1-.553.035l-.182-.035c-.227-.058-.43-.183-.614-.312l-.18-.128-1.32-.943-.294-.203a1.8 1.8 0 0 0-.585-.226l-.208-.028a5 5 0 0 0-.36-.007c-.432 0-.759.003-1.038-.026l-.264-.04a3.17 3.17 0 0 1-2.395-2.224l-.056-.227c-.07-.337-.067-.727-.067-1.303V7.333c0-.689 0-1.246.036-1.696.038-.458.117-.864.309-1.24l.122-.219c.304-.496.74-.9 1.262-1.165l.142-.066c.336-.145.697-.21 1.098-.243.45-.036 1.007-.036 1.696-.036h6.167c.689 0 1.246 0 1.696.036.458.038.864.117 1.24.309l.218.122c.496.304.9.74 1.165 1.262l.068.142c.144.337.208.697.241 1.098.037.45.037 1.007.037 1.696z" xmlns="http://www.w3.org/2000/svg" /></svg>