<svg xmlns="http://www.w3.org/2000/svg" viewBox="0 0 21 20"><path d="M17.794 7.667a.335.335 0 0 0-.335-.335h-.5a.335.335 0 0 0-.335.335v4.667l.007.067a.335.335 0 0 0 .328.268h.5c.184 0 .334-.15.335-.335zM2.457 12.334c0 .185.15.335.335.335h.5a.335.335 0 0 0 .328-.268l.007-.067V7.667a.335.335 0 0 0-.335-.335h-.5a.335.335 0 0 0-.335.335zM6.96 5.167a.335.335 0 0 0-.335-.335H5.292a.335.335 0 0 0-.335.335v9.667c0 .185.15.335.335.335h1.333c.185 0 .334-.15.335-.335zm8.334 0a.335.335 0 0 0-.335-.335h-1.334a.335.335 0 0 0-.335.335v9.667c0 .184.15.335.335.335h1.334c.184 0 .334-.15.335-.335zm1.33.868q.162-.033.335-.033h.5c.919 0 1.665.745 1.665 1.665v4.667c0 .919-.746 1.665-1.665 1.665h-.5q-.173 0-.335-.034v.869c0 .919-.746 1.665-1.665 1.665h-1.334c-.92 0-1.665-.746-1.665-1.665v-4.17H8.29v4.17c0 .92-.746 1.665-1.665 1.665H5.292c-.92 0-1.665-.746-1.665-1.665v-.87Q3.464 14 3.292 14h-.5c-.92 0-1.665-.746-1.665-1.665V7.667c0-.92.745-1.665 1.665-1.665h.5q.171 0 .335.033v-.868c0-.92.745-1.665 1.665-1.665h1.333c.92 0 1.665.745 1.665 1.665v4.168h3.67V5.167c0-.92.745-1.665 1.665-1.665h1.334c.919 0 1.665.745 1.665 1.665z" xmlns="http://www.w3.org/2000/svg" /></svg>