<svg xmlns="http://www.w3.org/2000/svg" viewBox="0 0 20 20"><path d="M8.901 11.417a.664.664 0 1 1 .198 1.314c-2.69.404-4.684 2.566-4.684 5.102a.665.665 0 0 1-1.33 0c0-3.271 2.554-5.926 5.816-6.416M16.137 12.803a.75.75 0 0 1 1.06 1.06l-1.553 1.553 1.553 1.554.051.056a.75.75 0 0 1-1.055 1.055l-.056-.05-1.554-1.554-1.553 1.553a.75.75 0 0 1-1.06-1.06l1.553-1.554-1.553-1.553-.052-.056a.75.75 0 0 1 1.056-1.056l.056.052 1.553 1.552z" xmlns="http://www.w3.org/2000/svg" /><path fill-rule="evenodd" d="M10 1.75a4.084 4.084 0 1 1 0 8.168 4.084 4.084 0 0 1 0-8.168m0 1.5a2.583 2.583 0 1 0 0 5.167 2.583 2.583 0 0 0 0-5.167" clip-rule="evenodd" xmlns="http://www.w3.org/2000/svg" /></svg>