<svg xmlns="http://www.w3.org/2000/svg" viewBox="0 0 20 20"><path d="M7.231 7.231c.26-.26.681-.259.94 0L10 9.06l1.828-1.829.104-.085a.666.666 0 0 1 .922.922l-.085.104L10.94 10l1.829 1.828a.665.665 0 0 1-.94.94L10 10.94 8.172 12.77a.665.665 0 0 1-.94-.94L9.06 10 7.23 8.172a.665.665 0 0 1 0-.94" xmlns="http://www.w3.org/2000/svg" /><path fill-rule="evenodd" d="M10 2.085a7.915 7.915 0 1 1 0 15.83 7.915 7.915 0 0 1 0-15.83m0 1.33a6.585 6.585 0 1 0 0 13.17 6.585 6.585 0 0 0 0-13.17" clip-rule="evenodd" xmlns="http://www.w3.org/2000/svg" /></svg>