<svg xmlns="http://www.w3.org/2000/svg" viewBox="0 0 20 20" fill-rule="evenodd" clip-rule="evenodd"><path d="M12.571 3.232c.738 0 1.448.278 1.99.779l3.175 2.93.16.163c.693.788.717 1.97.055 2.786l-.152.169-6.817 6.816a1.39 1.39 0 0 1-1.965 0l-6.816-6.816a2.163 2.163 0 0 1 .063-3.119l3.174-2.93.211-.177c.51-.388 1.134-.6 1.78-.6zm-5.07 2.601a.35.35 0 0 0-.347.309C7.027 7.24 6.407 7.86 5.308 7.987a.349.349 0 0 0 .001.693c1.083.122 1.746.736 1.844 1.836a.348.348 0 0 0 .694-.001c.094-1.084.75-1.74 1.834-1.834a.349.349 0 0 0 .001-.695c-1.099-.097-1.713-.76-1.835-1.843a.35.35 0 0 0-.346-.31" xmlns="http://www.w3.org/2000/svg" /></svg>