<svg xmlns="http://www.w3.org/2000/svg" viewBox="0 0 20 20"><path d="M16.002 14.166a1.835 1.835 0 1 0-3.67.001 1.835 1.835 0 0 0 3.67 0M12.736 2.668c1.151 0 2.13.84 2.305 1.978l.593 3.856c.616.198 1.207.43 1.762.698l.418.214.112.076a.665.665 0 0 1-.615 1.148l-.125-.052-.373-.19C14.91 9.474 12.47 8.998 10 8.998c-2.636 0-5.235.542-7.186 1.588a.665.665 0 0 1-.628-1.172 13 13 0 0 1 2.18-.912l.593-3.856.042-.21a2.33 2.33 0 0 1 2.263-1.768zm-5.472 1.33c-.464 0-.863.317-.973.76l-.018.09-.504 3.274A19.5 19.5 0 0 1 10 7.668c1.43 0 2.871.15 4.23.454l-.503-3.274a1 1 0 0 0-.99-.85zM3.998 14.166a1.835 1.835 0 1 0 3.67 0 1.835 1.835 0 0 0-3.67 0m13.334 0a3.165 3.165 0 0 1-6.316.3c-.262-.24-.59-.468-1.016-.468s-.755.228-1.017.467a3.165 3.165 0 1 1-.212-1.478c.333-.18.744-.319 1.229-.319s.896.14 1.229.319a3.167 3.167 0 0 1 6.103 1.18" xmlns="http://www.w3.org/2000/svg" /></svg>