<svg xmlns="http://www.w3.org/2000/svg" viewBox="0 0 20 20"><path d="M4.502 8.726a.666.666 0 0 1 .995.883l-.788.887a3.4 3.4 0 0 0 .136 4.66l.121.115a3.4 3.4 0 0 0 4.538.021l.887-.789.11-.078a.666.666 0 0 1 .774 1.072l-.888.79a4.73 4.73 0 0 1-6.313-.03l-.17-.161a4.73 4.73 0 0 1-.19-6.483zM3.529 3.53a.666.666 0 0 1 .837-.085l.104.084 12 12 .085.105a.666.666 0 0 1-.922.922l-.104-.085-12-12-.085-.105a.67.67 0 0 1 .085-.837" xmlns="http://www.w3.org/2000/svg" /><path d="M9.176 11.764 7.97 12.97a.666.666 0 0 1-.94-.94l1.206-1.208zM9.79 3.564a4.73 4.73 0 0 1 6.305.341l.161.17a4.73 4.73 0 0 1 .18 6.135l-.15.178-.79.888-.098.09a.666.666 0 0 1-.896-.974l.79-.887.108-.128a3.4 3.4 0 0 0-.13-4.41l-.115-.121a3.4 3.4 0 0 0-4.531-.245l-.128.108-.888.788a.666.666 0 0 1-.883-.994l.887-.788z" xmlns="http://www.w3.org/2000/svg" /><path d="M12.03 7.03a.665.665 0 0 1 .94.94l-1.206 1.206-.94-.94z" xmlns="http://www.w3.org/2000/svg" /></svg>