<svg xmlns="http://www.w3.org/2000/svg" viewBox="0 0 20 20"><path d="M16.002 7.333c0-.71 0-1.204-.032-1.588a2.4 2.4 0 0 0-.112-.615L15.802 5a1.84 1.84 0 0 0-.675-.731l-.128-.07c-.158-.08-.369-.138-.745-.168-.383-.032-.877-.033-1.588-.033H7.333c-.71 0-1.204.001-1.587.033-.376.03-.588.087-.746.168A1.83 1.83 0 0 0 4.2 5c-.08.158-.138.37-.168.745-.032.384-.032.877-.032 1.588v5.333c0 .711 0 1.205.032 1.588.03.376.087.587.168.745l.07.127c.176.288.43.522.731.676l.13.056c.144.051.334.089.616.112.383.031.876.031 1.587.031h5.333c.711 0 1.205 0 1.588-.03.376-.032.588-.088.745-.169.346-.176.627-.457.803-.803l.056-.13c.051-.143.09-.333.112-.615.031-.383.031-.877.031-1.588zm1.33 5.333c0 .69 0 1.246-.037 1.697-.032.4-.097.762-.242 1.098l-.066.143a3.17 3.17 0 0 1-1.383 1.383c-.377.192-.783.27-1.241.308-.45.037-1.008.036-1.697.036H7.333c-.689 0-1.246.001-1.696-.036-.4-.033-.761-.098-1.097-.242l-.143-.066a3.17 3.17 0 0 1-1.262-1.165l-.122-.218c-.192-.377-.271-.783-.308-1.241-.037-.45-.037-1.008-.037-1.697V7.333c0-.689 0-1.246.037-1.696.037-.458.116-.864.308-1.24a3.17 3.17 0 0 1 1.384-1.384c.377-.192.782-.271 1.24-.309.45-.036 1.007-.036 1.697-.036h5.333c.688 0 1.246 0 1.696.036.458.038.864.117 1.241.309l.218.122c.496.304.9.74 1.165 1.262l.066.142c.145.337.21.697.242 1.098.037.45.036 1.007.036 1.696z" xmlns="http://www.w3.org/2000/svg" /></svg>