<svg xmlns="http://www.w3.org/2000/svg" viewBox="0 0 20 20" fill="none"><path stroke="currentColor" stroke-linecap="round" stroke-linejoin="round" stroke-width="1.33" d="m6.25 17.5 2.5-5 2.5 5M5.11 9.1l-2.664 1.187a1.25 1.25 0 0 0-.634 1.65l.34.761c.28.631 1.019.915 1.65.634l2.664-1.186" xmlns="http://www.w3.org/2000/svg" /><path stroke="currentColor" stroke-linecap="round" stroke-linejoin="round" stroke-width="1.33" d="M9.717 6.136 6.291 7.66a1.667 1.667 0 0 0-.844 2.2l.678 1.523c.374.84 1.36 1.22 2.2.845l2.825-1.258" xmlns="http://www.w3.org/2000/svg" /><path stroke="currentColor" stroke-linecap="round" stroke-linejoin="round" stroke-width="1.33" d="M13.422 10.872a1.875 1.875 0 0 1-2.475-.95L9.845 7.447a2.083 2.083 0 0 1 1.056-2.75l4.948-2.203 1.007 2.261" xmlns="http://www.w3.org/2000/svg" /><path fill="#f5f5f5" stroke="currentColor" stroke-linecap="round" stroke-linejoin="round" stroke-width="1.33" d="M8.75 14.25a1.75 1.75 0 1 0 0-3.5 1.75 1.75 0 0 0 0 3.5" xmlns="http://www.w3.org/2000/svg" /><path fill="currentColor" d="M4.253 2.397a.323.323 0 0 0-.642 0c-.117 1.018-.692 1.593-1.71 1.71a.323.323 0 0 0 0 .642c1.004.114 1.619.683 1.71 1.703a.323.323 0 0 0 .643-.001c.087-1.005.696-1.614 1.7-1.7a.323.323 0 0 0 .002-.645c-1.02-.09-1.59-.705-1.703-1.709M17.347 6.946a.36.36 0 0 0-.715 0c-.13 1.134-.771 1.774-1.906 1.905a.36.36 0 0 0 .001.715c1.119.127 1.803.761 1.904 1.897a.36.36 0 0 0 .717-.001c.097-1.12.776-1.798 1.895-1.895a.36.36 0 0 0 0-.717c-1.135-.1-1.769-.785-1.896-1.904" xmlns="http://www.w3.org/2000/svg" /></svg>