<svg xmlns="http://www.w3.org/2000/svg" viewBox="0 0 20 20"><path fill-rule="evenodd" d="M5.28 5.507a1.5 1.5 0 0 1 2.414-.42l7.219 7.219.136.155a1.5 1.5 0 0 1-.556 2.26l-.192.074L3.8 18.077c-1.154.36-2.238-.724-1.877-1.878L5.204 5.7zm-2.088 11.09c-.04.129.082.25.211.21L9.09 15.03l-4.12-4.12zm3.562-10.57a.17.17 0 0 0-.261.028l-.02.04-1.06 3.388q.03.022.057.046l5 5 .044.055 3.39-1.059.041-.018a.17.17 0 0 0 .055-.225l-.027-.036z" clip-rule="evenodd" xmlns="http://www.w3.org/2000/svg" /><path d="M17.083 8.75a1.25 1.25 0 1 1 0 2.5 1.25 1.25 0 0 1 0-2.5M17.5 2.668c.367 0 .665.298.665.665a4.83 4.83 0 0 1-4.832 4.832.666.666 0 0 1 0-1.33 3.5 3.5 0 0 0 3.502-3.502c0-.367.298-.665.665-.665" xmlns="http://www.w3.org/2000/svg" /><path fill-rule="evenodd" d="M11.667 1.002a2.332 2.332 0 1 1-.001 4.663 2.332 2.332 0 0 1 0-4.663m0 1.33a1.002 1.002 0 1 0 0 2.005 1.002 1.002 0 0 0 0-2.005" clip-rule="evenodd" xmlns="http://www.w3.org/2000/svg" /></svg>