<svg xmlns="http://www.w3.org/2000/svg" viewBox="0 0 20 20"><path d="m15.215 18.123.029.132a.666.666 0 0 1-1.236.412l-.055-.123-.834-2.5.63-.21.632-.211zM4.503 8.725a.666.666 0 0 1 .994.883l-.788.888a3.397 3.397 0 0 0 .136 4.659l.122.115a3.4 3.4 0 0 0 4.538.022l.886-.79.11-.078a.665.665 0 0 1 .774 1.073l-.888.789a4.727 4.727 0 0 1-6.313-.03l-.169-.16a4.73 4.73 0 0 1-.19-6.484zm9.037 6.478a.665.665 0 0 1 .84.42l-1.261.42a.665.665 0 0 1 .42-.84m1.663-1.663a.665.665 0 0 1 .84-.421l2.5.834.124.055a.666.666 0 0 1-.412 1.236l-.132-.03-2.5-.834a.665.665 0 0 1-.42-.84M9.79 3.563a4.73 4.73 0 0 1 6.305.342l.16.169a4.73 4.73 0 0 1 .18 6.136l-.15.177-.79.888-.098.09a.665.665 0 0 1-.895-.974l.789-.886.108-.128a3.4 3.4 0 0 0-.13-4.41l-.115-.122a3.397 3.397 0 0 0-4.531-.245l-.128.109-.888.788a.665.665 0 1 1-.883-.994l.887-.788zM1.746 4.757l.13.029 2.5.833.124.055a.665.665 0 0 1-.412 1.237l-.131-.03-2.5-.833-.123-.056a.665.665 0 0 1 .412-1.235m3.46-3.721c.306-.102.631.03.786.298l.056.123.833 2.5.03.13a.666.666 0 0 1-1.236.413l-.056-.123-.833-2.5-.03-.131a.665.665 0 0 1 .45-.71" xmlns="http://www.w3.org/2000/svg" /></svg>