<svg xmlns="http://www.w3.org/2000/svg" viewBox="0 0 20 20"><path d="M10 2.085a7.915 7.915 0 1 1-4.367 1.313.665.665 0 1 1 .734 1.109A6.585 6.585 0 1 0 10 3.415a.665.665 0 0 1 0-1.33M7.5 5.67c.433-.25 3.049 2.281 3.799 3.58a1.5 1.5 0 1 1-2.598 1.5C7.951 9.451 7.067 5.92 7.5 5.67M12.084.005a.666.666 0 0 1 0 1.33H7.917a.665.665 0 0 1 0-1.33z" xmlns="http://www.w3.org/2000/svg" /><path d="M16.585 10a6.585 6.585 0 1 0-13.17 0 6.585 6.585 0 0 0 13.17 0m1.33 0a7.915 7.915 0 1 1-15.83 0 7.915 7.915 0 0 1 15.83 0" opacity=".2" xmlns="http://www.w3.org/2000/svg" /></svg>