<svg xmlns="http://www.w3.org/2000/svg" viewBox="0 0 20 20"><path d="M3.026 1.853a.833.833 0 0 0-1.172 1.172l.057.063 2.229 2.23a7.47 7.47 0 0 0-1.582 3.744.834.834 0 0 0 1.654.207 5.8 5.8 0 0 1 1.116-2.764l8.165 8.165A5.8 5.8 0 0 1 10 15.832a5.96 5.96 0 0 1-4.127-1.666H7.5l.086-.004a.834.834 0 0 0 0-1.659L7.5 12.5H4.167a.833.833 0 0 0-.834.833v3.334a.834.834 0 0 0 1.667 0v-1.038a7.62 7.62 0 0 0 5 1.871c1.77 0 3.397-.616 4.68-1.642l2.23 2.231.064.057a.833.833 0 0 0 1.172-1.172l-.057-.063-2.711-2.712a.8.8 0 0 0-.15-.15L3.089 1.91zM16.218 12.55a.834.834 0 0 0 1.023-.587q.1-.375.164-.766l.037-.261a.834.834 0 0 0-1.639-.29l-.015.083a6 6 0 0 1-.156.799.834.834 0 0 0 .586 1.022M16.677 3.332a.834.834 0 0 0-1.667 0v1.045A7.63 7.63 0 0 0 10 2.5c-.673 0-1.327.089-1.949.256a.834.834 0 0 0 .432 1.61c.483-.13.991-.2 1.517-.2 1.592 0 3.061.64 4.128 1.667H12.51a.833.833 0 0 0 0 1.667h3.337l.028-.001a.833.833 0 0 0 .802-.832z" xmlns="http://www.w3.org/2000/svg" /></svg>