<svg xmlns="http://www.w3.org/2000/svg" viewBox="0 0 20 20"><path d="M11.398 3.333A4.02 4.02 0 0 0 7.55 8.52c.09.295.01.614-.208.831l-3.887 3.887a.42.42 0 0 0-.122.294v1.884h1.885c.11 0 .216-.043.294-.122l.321-.32V13.75a.833.833 0 0 1 1.667 0v1.569a.83.83 0 0 1-.244.589l-.565.565c-.391.39-.92.61-1.473.61H2.5a.833.833 0 0 1-.833-.833v-2.718c0-.552.22-1.082.61-1.473l3.552-3.552a5.686 5.686 0 0 1 10.784-3.424.833.833 0 1 1-1.528.666 4.02 4.02 0 0 0-3.687-2.416m2.352 5.833c.69 0 1.25.56 1.25 1.25v.834h-2.5v-.834c0-.69.56-1.25 1.25-1.25m2.917 2.226v-.976a2.917 2.917 0 1 0-5.834 0v.976a2.5 2.5 0 0 0-1.666 2.358v1.666a2.5 2.5 0 0 0 2.5 2.5h4.166a2.5 2.5 0 0 0 2.5-2.5V13.75a2.5 2.5 0 0 0-1.666-2.358m-5 1.524h4.166c.46 0 .834.374.834.834v1.666c0 .46-.373.834-.834.834h-4.166a.833.833 0 0 1-.834-.834V13.75c0-.46.373-.834.834-.834" xmlns="http://www.w3.org/2000/svg" /></svg>