<svg xmlns="http://www.w3.org/2000/svg" viewBox="0 0 20 20"><path d="M4.218 10.196c.308-.091.63.05.776.324l.052.124.063.198a5.17 5.17 0 0 0 6.41 3.264l1.034 1.035a6.5 6.5 0 0 1-1.888.489v1.205h1.419l.133.014a.665.665 0 0 1 0 1.302l-.133.014H7.917a.665.665 0 0 1 0-1.33h1.419l-.001-1.205a6.5 6.5 0 0 1-5.485-4.357l-.08-.25-.025-.132a.665.665 0 0 1 .473-.695M2.529 2.53a.666.666 0 0 1 .837-.086l.104.085 14 14 .085.105a.666.666 0 0 1-.921.922l-.105-.085-14-14-.085-.105a.67.67 0 0 1 .085-.837M15.006 10.52a.665.665 0 0 1 1.223.503l-.08.25a6.5 6.5 0 0 1-.762 1.526l-.963-.963c.224-.37.404-.77.53-1.192z" xmlns="http://www.w3.org/2000/svg" /><path d="M10.156 12.743q-.077.004-.155.005a3.58 3.58 0 0 1-3.582-3.581v-.161zM10 1.835a3.58 3.58 0 0 1 3.582 3.582v3.75c0 .535-.12 1.041-.33 1.497l-1.046-1.047a2.3 2.3 0 0 0 .046-.45v-3.75a2.252 2.252 0 0 0-4.49-.244L6.674 4.086A3.58 3.58 0 0 1 10 1.835" xmlns="http://www.w3.org/2000/svg" /></svg>