<svg xmlns="http://www.w3.org/2000/svg" viewBox="0 0 20 20"><path d="M14.527 12.03c.26-.26.68-.26.94 0l.857.857c.357.356.589.82.66 1.319l.463 3.244-3.244-.463a2.33 2.33 0 0 1-1.32-.66l-.856-.856a.665.665 0 1 1 .94-.94l.857.856c.153.153.353.253.567.284l1.489.212-.212-1.489a1 1 0 0 0-.285-.567l-.856-.856a.665.665 0 0 1 0-.94m-.487-9.167c.91-.506 1.993-.27 2.68.417s.923 1.77.417 2.68c-1.855 3.334-5.15 6.231-8.14 8.154l.002.048c0 .827-.23 1.498-.672 2.006-.432.498-1.01.774-1.59.931-1.118.305-2.501.223-3.395.223h-.665v-.665c0-.893-.082-2.276.223-3.394.158-.58.435-1.158.933-1.59.508-.441 1.178-.671 2.006-.671h.046c1.923-2.99 4.82-6.283 8.155-8.139m-8.201 9.469c-.571 0-.912.152-1.134.345-.233.201-.405.51-.522.936-.192.707-.19 1.55-.181 2.384.835.01 1.678.012 2.385-.18.427-.117.734-.289.936-.521.193-.222.346-.563.346-1.134 0-1.01-.82-1.83-1.83-1.83m9.94-8.111c-.316-.317-.762-.38-1.093-.196-2.94 1.637-5.585 4.543-7.432 7.314.607.305 1.1.799 1.406 1.406 2.771-1.847 5.679-4.491 7.315-7.432.184-.33.122-.776-.195-1.092M3.278 3.28c.95-.95 2.49-.95 3.44 0l1.25 1.25a.665.665 0 0 1-.94.94l-1.25-1.25a1.103 1.103 0 0 0-1.56 1.56l1.25 1.25a.665.665 0 0 1-.94.94l-1.25-1.25c-.95-.95-.95-2.49 0-3.44" xmlns="http://www.w3.org/2000/svg" /></svg>