<svg xmlns="http://www.w3.org/2000/svg" viewBox="0 0 20 20"><path d="M3.333 12.668c.367 0 .665.298.665.665v.833c0 1.013.822 1.835 1.835 1.835h.833l.135.014a.666.666 0 0 1 0 1.302l-.135.014h-.833a3.165 3.165 0 0 1-3.165-3.165v-.833c0-.367.298-.665.665-.665M16.666 12.668c.367 0 .665.298.665.665v.833a3.165 3.165 0 0 1-3.165 3.165h-.833a.665.665 0 0 1 0-1.33h.833a1.835 1.835 0 0 0 1.835-1.835v-.833c0-.367.298-.665.665-.665" xmlns="http://www.w3.org/2000/svg" /><path fill-rule="evenodd" d="M10 6.835a3.165 3.165 0 1 1 0 6.33 3.165 3.165 0 0 1 0-6.33m0 1.33a1.835 1.835 0 1 0 0 3.67 1.835 1.835 0 0 0 0-3.67" clip-rule="evenodd" xmlns="http://www.w3.org/2000/svg" /><path d="M6.8 2.682a.665.665 0 0 1 0 1.302l-.134.014h-.833a1.835 1.835 0 0 0-1.835 1.835v.833a.665.665 0 0 1-1.33 0v-.833a3.166 3.166 0 0 1 3.165-3.165h.833zM14.166 2.668a3.165 3.165 0 0 1 3.165 3.165v.833a.665.665 0 0 1-1.33 0v-.833a1.835 1.835 0 0 0-1.835-1.835h-.833a.665.665 0 0 1 0-1.33z" xmlns="http://www.w3.org/2000/svg" /></svg>