<svg xmlns="http://www.w3.org/2000/svg" viewBox="0 0 20 20"><path d="M12.084.005a.665.665 0 0 1 0 1.33H7.917a.665.665 0 0 1 0-1.33zM10 2.085c1.385 0 2.746.363 3.946 1.054a.665.665 0 0 1-.663 1.153A6.6 6.6 0 0 0 10 3.415a.665.665 0 0 1 0-1.33M11.3 10.75A1.5 1.5 0 1 1 8.7 9.25c.75-1.299 3.366-3.83 3.8-3.58.432.25-.452 3.781-1.202 5.08" xmlns="http://www.w3.org/2000/svg" /><path d="M16.585 10a6.585 6.585 0 1 0-13.17 0 6.585 6.585 0 0 0 13.17 0m1.33 0a7.915 7.915 0 1 1-15.83 0 7.915 7.915 0 0 1 15.83 0" opacity=".2" xmlns="http://www.w3.org/2000/svg" /></svg>