<svg xmlns="http://www.w3.org/2000/svg" viewBox="0 0 20 20"><path d="M10 13.918a2.124 2.124 0 1 1-.002 4.248A2.124 2.124 0 0 1 10 13.918m0 1.33a.794.794 0 1 0 .001 1.589.794.794 0 0 0 0-1.589M3.705 11.182a2.124 2.124 0 1 1 2.124 3.68 2.124 2.124 0 0 1-2.124-3.68m1.75 1.442a.794.794 0 1 0-1.375.795.794.794 0 0 0 1.374-.795M13.393 11.959a2.124 2.124 0 1 1 3.679 2.125 2.124 2.124 0 0 1-3.68-2.125m2.236.375a.794.794 0 1 0-.794 1.374.794.794 0 0 0 .794-1.374M10 7.185a2.816 2.816 0 1 1-.002 5.63A2.816 2.816 0 0 1 10 7.186m0 1.33a1.485 1.485 0 1 0 0 2.969 1.485 1.485 0 0 0 0-2.97M2.929 5.918a2.123 2.123 0 1 1 3.678 2.123 2.123 2.123 0 0 1-3.678-2.123m2.235.374a.794.794 0 1 0-.793 1.375.794.794 0 0 0 .793-1.375M14.17 5.14a2.123 2.123 0 1 1 2.123 3.678 2.123 2.123 0 0 1-2.123-3.677m1.75 1.443a.794.794 0 1 0-1.376.794.794.794 0 0 0 1.375-.794M10 1.835a2.124 2.124 0 1 1 0 4.247 2.124 2.124 0 0 1 0-4.247m0 1.33a.794.794 0 1 0 0 1.588.794.794 0 0 0 0-1.588" xmlns="http://www.w3.org/2000/svg" /></svg>