<svg xmlns="http://www.w3.org/2000/svg" viewBox="0 0 20 20"><path d="M10.423 11.014q.42.024.825.093l.401.08.127.044a.666.666 0 0 1-.292 1.27l-.133-.017-.328-.065a6 6 0 0 0-.675-.077l-.348-.01c-3.128 0-5.585 2.356-5.585 5.168a.665.665 0 0 1-1.33 0c0-3.631 3.14-6.498 6.915-6.498zM15 11.835c.367 0 .665.298.665.665v1.835H17.5l.134.014a.665.665 0 0 1 0 1.302l-.134.014h-1.835V17.5a.665.665 0 1 1-1.33 0v-1.835H12.5a.665.665 0 1 1 0-1.33h1.835V12.5c0-.367.298-.665.665-.665" xmlns="http://www.w3.org/2000/svg" /><path fill-rule="evenodd" d="M10 1.835a3.998 3.998 0 1 1 0 7.996 3.998 3.998 0 0 1 0-7.996m0 1.33a2.668 2.668 0 1 0 0 5.336 2.668 2.668 0 0 0 0-5.336" clip-rule="evenodd" xmlns="http://www.w3.org/2000/svg" /></svg>