<svg xmlns="http://www.w3.org/2000/svg" viewBox="0 0 20 20" stroke="currentColor" fill="none"><path stroke-linejoin="round" stroke-width="1.33" d="M7.15 17.456c2.623 0 4.75-1.949 4.75-4.353S9.773 8.75 7.15 8.75c-2.622 0-4.748 1.949-4.748 4.353 0 .867.276 1.675.753 2.354-.078.69-.278 1.348-.53 2a9 9 0 0 0 2.395-.462c.64.295 1.365.461 2.13.461Z" xmlns="http://www.w3.org/2000/svg" /><path stroke-linecap="round" stroke-linejoin="round" stroke-width="1.33" d="M11 3.914C10.211 3.05 9.026 2.5 7.7 2.5c-2.373 0-4.298 1.764-4.298 3.94q0 .401.084.78M14.337 14.489a5 5 0 0 0 .643-.244c.762.258 1.548.41 2.395.462-.252-.652-.452-1.31-.53-2a4.08 4.08 0 0 0 .753-2.354C17.598 7.95 15.472 6 12.85 6c-.98 0-1.892.273-2.648.74" xmlns="http://www.w3.org/2000/svg" /></svg>