<svg xmlns="http://www.w3.org/2000/svg" viewBox="0 0 20 20" fill-rule="evenodd" clip-rule="evenodd"><path d="M3.747 9.429a.664.664 0 0 0 .839-.424 5.72 5.72 0 0 1 3.043-3.403 2.652 2.652 0 0 0 5.028-1.181 2.652 2.652 0 0 0-5.302-.147A7.05 7.05 0 0 0 3.323 8.59a.664.664 0 0 0 .424.839m7.58-5.008a1.324 1.324 0 1 0-2.648 0 1.324 1.324 0 0 0 2.648 0M14.462 7.234a5.67 5.67 0 0 1 1.217 4.088 2.654 2.654 0 1 0 1.288.432q.065-.476.066-.968c0-1.656-.573-3.18-1.531-4.38l-.196-.236-.099-.093a.665.665 0 0 0-.982.856l.078.11zm1.71 5.588a1.324 1.324 0 1 0-1.322 2.295 1.324 1.324 0 0 0 1.323-2.295M6.787 12.643a2.654 2.654 0 1 0-4.597 2.653 2.65 2.65 0 0 0 3.497 1.037 7 7 0 0 0 5.633 1.36.665.665 0 0 0-.248-1.306q-.519.099-1.069.1A5.67 5.67 0 0 1 6.7 15.432a2.65 2.65 0 0 0 .087-2.79m-1.151.664a1.324 1.324 0 1 0-2.294 1.324 1.324 1.324 0 0 0 2.294-1.324" xmlns="http://www.w3.org/2000/svg" /></svg>