<svg xmlns="http://www.w3.org/2000/svg" viewBox="0 0 25 25"><path d="M11.154 2.277v-.75zM14.83 3.8l-.53.53.306.306.418-.112zm1.347-.177v-.75zm5.2 5.2h.75zm-.178 1.345-.724-.194-.112.418.306.306zm1.524 3.678h.75zm-3.855 5.022-.193-.724-.42.112-.111.419zm-5.022 3.855v.75zM10.169 21.2l.53-.53-.306-.306-.418.112zm-1.346.177v.75zm-5.2-5.2h-.75zM3.8 14.83l.724.194.112-.418-.306-.306zm-1.523-3.676h-.75zM6.13 6.131l.194.724.418-.112.112-.418zm5.024-3.854v.75c1.229 0 2.34.498 3.146 1.303l.53-.53.53-.53a5.93 5.93 0 0 0-4.206-1.743zM14.83 3.8l.194.724a4.5 4.5 0 0 1 1.153-.15V2.872c-.533 0-1.05.07-1.54.202zm1.347-.177v.75a4.45 4.45 0 0 1 4.45 4.45h1.5a5.95 5.95 0 0 0-5.95-5.95zm5.2 5.2h-.75c0 .397-.054.783-.152 1.151l.724.194.725.194c.13-.49.203-1.005.203-1.539zm-.178 1.345-.53.53a4.43 4.43 0 0 1 1.304 3.148h1.5a5.93 5.93 0 0 0-1.744-4.208zm1.524 3.678h-.75a4.45 4.45 0 0 1-3.298 4.298l.193.724.194.725a5.95 5.95 0 0 0 4.41-5.747zm-3.855 5.022-.724-.193a4.45 4.45 0 0 1-4.298 3.298v1.5a5.95 5.95 0 0 0 5.747-4.411zm-5.022 3.855v-.75a4.43 4.43 0 0 1-3.147-1.303l-.53.53-.53.53a5.93 5.93 0 0 0 4.207 1.743zM10.169 21.2l-.194-.724a4.5 4.5 0 0 1-1.152.151v1.5a6 6 0 0 0 1.54-.202zm-1.346.177v-.75a4.45 4.45 0 0 1-4.45-4.45h-1.5a5.95 5.95 0 0 0 5.95 5.95zm-5.2-5.2h.75q.002-.601.151-1.153L3.8 14.83l-.725-.194a6 6 0 0 0-.202 1.54zM3.8 14.83l.53-.53a4.43 4.43 0 0 1-1.303-3.146h-1.5c0 1.643.667 3.13 1.742 4.206zm-1.523-3.676h.75a4.45 4.45 0 0 1 3.297-4.299l-.194-.724-.194-.725a5.95 5.95 0 0 0-4.409 5.748zM6.13 6.131l.724.194a4.45 4.45 0 0 1 4.3-3.298v-1.5a5.95 5.95 0 0 0-5.749 4.41zM14.731 9.349a.72.72 0 0 1 .485-.003c.38.133.573.565.435.943l-2.263 6.197a.73.73 0 0 1-.92.447.72.72 0 0 1-.46-.496l-.622-2.317a.72.72 0 0 0-.509-.508l-2.315-.627a.72.72 0 0 1-.494-.461.73.73 0 0 1 .448-.92z" xmlns="http://www.w3.org/2000/svg" /></svg>