<svg xmlns="http://www.w3.org/2000/svg" viewBox="0 0 20 20"><path fill-rule="evenodd" d="M14.484 10.008a2.139 2.139 0 0 1 3.008 3.008l-.146.163-3.809 3.808a3.17 3.17 0 0 1-1.718.884l-1.708.284a.664.664 0 0 1-.765-.764l.284-1.71a3.17 3.17 0 0 1 .884-1.72l3.807-3.807zm1.921 1.087a.81.81 0 0 0-1.082-.056l-.06.056-3.809 3.807c-.27.27-.45.62-.513.997l-.131.791.79-.131.141-.029c.323-.08.62-.248.856-.484l3.808-3.809.056-.06a.81.81 0 0 0-.056-1.082" clip-rule="evenodd" xmlns="http://www.w3.org/2000/svg" /><path d="M14.75 2.252A1.75 1.75 0 0 1 16.499 4v3.084a.666.666 0 0 1-1.33 0V4a.42.42 0 0 0-.419-.418H8.998v8.084a.665.665 0 1 1-1.33 0V3.582H6.667a1.835 1.835 0 0 0-1.835 1.835v9.167l.01.188c.088.863.774 1.55 1.637 1.637l.188.01.134.014a.666.666 0 0 1 0 1.302l-.134.014-.163-.005a3.165 3.165 0 0 1-2.998-2.998l-.004-.162V5.417a3.165 3.165 0 0 1 3.165-3.165z" xmlns="http://www.w3.org/2000/svg" /></svg>