<svg xmlns="http://www.w3.org/2000/svg" viewBox="0 0 21 20"><path d="M15.294 12.083c0-1.416-.676-2.7-1.769-3.578a5.4 5.4 0 0 0-3.4-1.173 5.4 5.4 0 0 0-3.4 1.173c-1.093.879-1.768 2.162-1.768 3.578 0 2.579 2.266 4.752 5.168 4.752 2.901 0 5.169-2.173 5.169-4.752m-.834-6.25c0-.629-.383-1.28-1.168-1.804-.782-.52-1.9-.864-3.167-.864-1.268 0-2.385.344-3.166.864-.786.524-1.17 1.175-1.17 1.804 0 .44.188.885.567 1.295a6.8 6.8 0 0 1 3.769-1.126c1.4 0 2.703.415 3.768 1.126.38-.41.567-.856.567-1.295m1.33 0c0 .818-.338 1.548-.871 2.146 1.052 1.076 1.705 2.514 1.705 4.104 0 3.404-2.958 6.082-6.5 6.082-3.54 0-6.497-2.678-6.497-6.082 0-1.59.652-3.028 1.704-4.104-.533-.598-.871-1.328-.871-2.146 0-1.212.737-2.228 1.76-2.91 1.029-.686 2.411-1.088 3.905-1.088s2.876.402 3.904 1.088c1.024.682 1.76 1.698 1.76 2.91" xmlns="http://www.w3.org/2000/svg" /></svg>