<svg xmlns="http://www.w3.org/2000/svg" viewBox="0 0 24 24" fill="none"><path fill="#febd08" d="M19.58 4.39c-1.53-1.52-3.9-1.5-5.4 0l-8.91 8.94c-1.01 1.01-1.42 1.59-1.67 2.93l-.53 3.3c-.18.91.44 1.53 1.37 1.37l3.31-.54c1.32-.21 1.9-.63 2.91-1.64l8.92-8.92c1.52-1.52 1.54-3.89 0-5.42z" xmlns="http://www.w3.org/2000/svg" /><path fill="#ff928c" d="M19.58 9.82c1.52-1.52 1.54-3.89 0-5.42-1.53-1.52-3.9-1.5-5.4 0l-.41.41 5.41 5.41z" xmlns="http://www.w3.org/2000/svg" /><path fill="#d9d9d9" d="m13.77 4.813-1.415 1.414 5.41 5.41 1.414-1.415z" xmlns="http://www.w3.org/2000/svg" /><path fill="#fff" d="m12.36 6.23-7.09 7.11c-1.01 1.01-1.42 1.59-1.67 2.93l-.53 3.3c-.09.45.02.83.26 1.08L15.05 8.93z" opacity=".5" xmlns="http://www.w3.org/2000/svg" /><path fill="#ffddbc" d="M4.6 14.05c-.54.64-.81 1.22-1 2.21l-.09.55 3.67 3.67.57-.09c.99-.16 1.56-.43 2.2-.98z" xmlns="http://www.w3.org/2000/svg" /><path fill="#4d4d4d" d="m3.51 16.81-.44 2.75c-.18.91.44 1.53 1.37 1.37l2.74-.45z" xmlns="http://www.w3.org/2000/svg" /></svg>