<svg xmlns="http://www.w3.org/2000/svg" viewBox="0 0 24 24" fill="none"><path fill="#ebebeb" d="M6 20.573q-1.163 0-2.075-.5A3.66 3.66 0 0 1 2.5 18.648q-.5-.912-.5-2.075v-10q0-1.162.5-2.075a3.58 3.58 0 0 1 1.425-1.412Q4.837 2.573 6 2.573h12q1.163 0 2.075.513.913.5 1.413 1.412.512.913.512 2.075v10q0 1.163-.512 2.075a3.57 3.57 0 0 1-1.413 1.425q-.912.5-2.075.5z" xmlns="http://www.w3.org/2000/svg" /><path fill="#777" d="M14.874 11.583q.498-.084.996.236l7.182 4.527q.497.32.628.842.142.51-.119.972-.26.45-.817.616l-1.517.45.785 1.232q.225.416.225.842 0 .414-.225.782a1.66 1.66 0 0 1-.627.605l-1.304.746a1.65 1.65 0 0 1-.83.261 1.4 1.4 0 0 1-.794-.213 1.77 1.77 0 0 1-.593-.652l-.785-1.209L16 22.687a1.24 1.24 0 0 1-.925.355q-.545 0-.948-.367-.39-.368-.39-.983v-8.735q0-.522.32-.9a1.3 1.3 0 0 1 .817-.475" xmlns="http://www.w3.org/2000/svg" /><path fill="#68c4ff" d="M18 2.573q1.163 0 2.075.513a3.5 3.5 0 0 1 1.412 1.412Q22 5.41 22 6.573v2H2v-2q0-1.163.5-2.075a3.58 3.58 0 0 1 1.425-1.412Q4.837 2.573 6 2.573z" xmlns="http://www.w3.org/2000/svg" /><path fill="#2e9eff" d="M8.288 6.286q.3.287.712.287a.95.95 0 0 0 .7-.287q.3-.3.3-.713 0-.412-.3-.7a.93.93 0 0 0-.7-.3q-.412 0-.713.3a.95.95 0 0 0-.287.7q0 .413.287.713M11.288 6.286q.3.287.712.287a.95.95 0 0 0 .7-.287q.3-.3.3-.713 0-.412-.3-.7a.93.93 0 0 0-.7-.3q-.412 0-.713.3a.95.95 0 0 0-.287.7q0 .413.287.713M5.288 6.286q.3.287.712.287a.95.95 0 0 0 .7-.287q.3-.3.3-.713 0-.412-.3-.7a.93.93 0 0 0-.7-.3q-.413 0-.713.3a.95.95 0 0 0-.287.7q0 .413.287.713" xmlns="http://www.w3.org/2000/svg" /></svg>