<svg xmlns="http://www.w3.org/2000/svg" viewBox="0 0 20 20"><path d="M16.8 15.182a.665.665 0 0 1 0 1.303l-.134.014H3.333a.666.666 0 0 1 0-1.33h13.333zM16.8 11.015a.665.665 0 0 1 0 1.303l-.134.014H3.333a.665.665 0 0 1 0-1.33h13.333zM4.853 3.246a.646.646 0 0 1 1.126 0l.592 1.05q.021.036.063.044l1.18.239c.494.1.689.7.348 1.07l-.815.888a.1.1 0 0 0-.024.073l.139 1.196a.647.647 0 0 1-.911.662l-1.096-.502a.1.1 0 0 0-.077 0l-1.095.502a.647.647 0 0 1-.911-.662L3.51 6.61a.1.1 0 0 0-.024-.073l-.815-.888a.646.646 0 0 1 .347-1.07L4.2 4.34a.1.1 0 0 0 .062-.045z" xmlns="http://www.w3.org/2000/svg" /></svg>