<svg xmlns="http://www.w3.org/2000/svg" viewBox="0 0 20 20"><path d="M12.03 4.113a3.612 3.612 0 0 1 5.108 5.108l-6.292 6.29c-.324.324-.56.561-.791.752l-.235.176q-.308.21-.65.36l-.229.093c-.181.066-.369.115-.586.16l-.764.134-2.394.4c-.142.024-.294.05-.423.06-.098.007-.232.01-.378-.026l-.149-.05a1.08 1.08 0 0 1-.521-.474l-.046-.093a1.1 1.1 0 0 1-.075-.527c.01-.129.035-.28.06-.422l.398-2.394c.1-.602.162-.987.295-1.35l.093-.23q.15-.342.36-.65l.176-.235c.19-.232.428-.467.751-.79zM6.68 11.345c-.35.35-.534.535-.66.688l-.11.147a2.7 2.7 0 0 0-.24.433l-.062.154c-.08.22-.124.462-.232 1.112l-.398 2.394-.001.001h.003l2.393-.399.717-.126c.169-.034.284-.065.394-.106l.154-.062a2.7 2.7 0 0 0 .433-.24l.147-.11c.153-.126.339-.31.688-.66l4.988-4.988-3.227-3.226zm9.517-6.291a2.28 2.28 0 0 0-3.225 0l-.364.362 3.226 3.227.363-.364c.89-.89.89-2.334 0-3.225M5.135 6.681 5 6.67H2.5a.665.665 0 0 0 0 1.33H5l.135-.014a.665.665 0 0 0 0-1.304M8.468 3.348l-.135-.013H2.5a.665.665 0 0 0 0 1.33h5.833l.135-.014a.665.665 0 0 0 0-1.303" xmlns="http://www.w3.org/2000/svg" /></svg>