<svg xmlns="http://www.w3.org/2000/svg" viewBox="0 0 20 20" fill-rule="evenodd" clip-rule="evenodd"><path d="M15.968 1.849c.303.062.531.33.531.651v11.667a.7.7 0 0 1-.052.257c-.414.99-.414 1.828 0 2.82a.666.666 0 0 1-.613.921h-10a2.33 2.33 0 0 1-2.332-2.332V4.167a2.33 2.33 0 0 1 2.332-2.332h10zM5.834 14.832c-.518 0-.946.394-.997.898l-.005.103.005.102c.051.506.478.9.997.9h9.088a4.4 4.4 0 0 1-.001-2.003zm0-11.667c-.553 0-1.002.449-1.002 1.002v9.563a2.3 2.3 0 0 1 1.002-.228h9.335V3.165z" xmlns="http://www.w3.org/2000/svg" /></svg>