<svg xmlns="http://www.w3.org/2000/svg" viewBox="0 0 20 20"><path d="M16.001 14.44c0-.49-.15-.966-.428-1.366l-.127-.166-.434-.52c-1.15.503-2.097.724-2.95.768-.915.047-1.682-.109-2.397-.27-.723-.164-1.383-.33-2.192-.371-.773-.04-1.697.035-2.904.374l-.016.02a2.394 2.394 0 0 0 1.84 3.926h7.215A2.394 2.394 0 0 0 16 14.44M11.835 3.165h-3.67v4.564c0 .478-.146.942-.417 1.332l-.124.162-1.69 2.027a9 9 0 0 1 1.606-.063c.947.048 1.73.245 2.418.4.698.159 1.314.278 2.034.241.587-.03 1.27-.169 2.13-.51l-1.747-2.095a2.33 2.33 0 0 1-.54-1.494zm1.33 4.564c0 .235.082.462.232.642l3.071 3.686.197.258a3.724 3.724 0 0 1-3.057 5.85H6.393a3.725 3.725 0 0 1-2.862-6.108L6.603 8.37l.053-.07c.116-.167.18-.366.18-.572V3.165h-.17a.665.665 0 0 1 0-1.33h6.667l.134.014a.665.665 0 0 1 0 1.302l-.134.014h-.168z" xmlns="http://www.w3.org/2000/svg" /></svg>