<svg xmlns="http://www.w3.org/2000/svg" viewBox="0 0 20 20"><path d="M9.335 7.5V3.958a.793.793 0 0 0-1.586 0v4.375a.665.665 0 0 1-1.33 0V5.625l-.004-.081a.794.794 0 0 0-1.583.081v6.042a5.168 5.168 0 0 0 10.337 0v-3.89c0-.246-.2-.445-.447-.445-.86 0-1.557.697-1.557 1.557v1.528c0 .286-.183.54-.454.63l-.524.175a2.23 2.23 0 0 0-1.522 2.111.665.665 0 0 1-1.33 0c0-1.53.98-2.89 2.431-3.373l.069-.023V8.889c0-.546.154-1.054.417-1.49V4.792a.794.794 0 1 0-1.587 0V7.5a.665.665 0 0 1-1.33 0m4.247-1.264c.35-.15.735-.234 1.14-.234.981 0 1.776.795 1.777 1.775v3.89a6.499 6.499 0 0 1-12.997 0V5.625a2.123 2.123 0 0 1 2.938-1.96 2.122 2.122 0 0 1 3.969-.719 2.124 2.124 0 0 1 3.173 1.846z" xmlns="http://www.w3.org/2000/svg" /></svg>