<svg xmlns="http://www.w3.org/2000/svg" viewBox="0 0 20 20"><path d="m10.915 1.84.38.048.18.027a3.165 3.165 0 0 1 2.5 3.867l-.049.177-.527 1.713c.372.004.697.012.98.034.495.039.932.122 1.322.327l.152.085a3.17 3.17 0 0 1 1.464 2.03l.03.162c.056.38.018.773-.064 1.2q-.07.361-.187.813l-.27 1.01-.38 1.395c-.238.872-.402 1.508-.71 2.002l-.141.205a3.2 3.2 0 0 1-1.108.906l-.189.085c-.61.251-1.32.24-2.353.24H7.333c-.689 0-1.246 0-1.696-.037-.4-.033-.761-.098-1.098-.242l-.142-.067a3.17 3.17 0 0 1-1.262-1.165l-.122-.218c-.192-.377-.271-.783-.309-1.24-.036-.45-.036-1.008-.036-1.697v-1.833c0-.732-.006-1.23.108-1.653l.061-.201a3.17 3.17 0 0 1 2.177-2.037l.163-.037c.389-.075.849-.071 1.49-.071a.77.77 0 0 0 .67-.388l2.92-5.11.055-.082a.67.67 0 0 1 .603-.248M7.331 14.167c0 .817.006 1.096.063 1.308l.036.117a1.84 1.84 0 0 0 1.262 1.18l.178.035c.207.025.517.028 1.13.028h1.945c1.154 0 1.539-.012 1.845-.139l.11-.05c.25-.123.472-.302.643-.524l.073-.105c.16-.262.28-.665.546-1.639l.381-1.396.265-.99c.072-.282.129-.52.169-.731.06-.313.075-.523.062-.682l-.021-.143a1.84 1.84 0 0 0-.764-1.123l-.173-.103c-.156-.082-.383-.145-.806-.178-.427-.033-.983-.034-1.775-.034a.665.665 0 0 1-.635-.86l.79-2.57.05-.205a1.833 1.833 0 0 0-1.517-2.145L8.49 7.939a2.1 2.1 0 0 1-1.16.95zM3.998 13.5c0 .711.001 1.204.033 1.588.03.376.087.587.168.745l.07.126c.176.288.43.522.731.676l.13.055c.144.052.333.09.615.113.233.019.505.025.842.028a3.2 3.2 0 0 1-.416-.81l-.061-.202C5.996 15.396 6 14.9 6 14.167V9.003c-.207.004-.35.01-.464.024l-.178.034a1.84 1.84 0 0 0-1.263 1.18l-.035.117c-.057.212-.063.491-.063 1.309z" xmlns="http://www.w3.org/2000/svg" /></svg>