<svg xmlns="http://www.w3.org/2000/svg" viewBox="0 0 24 24" fill="none"><path fill="#3c5cd8" d="M13 10.5h4.5q1.062 0 1.85.425.8.425 1.225 1.225Q21 12.938 21 14v2h-2v-2q0-.7-.4-1.1t-1.1-.4H13V16h-2v-3.5H6.5q-.687 0-1.1.4-.4.4-.4 1.1v2H3v-2q0-1.062.425-1.85a2.9 2.9 0 0 1 1.213-1.225q.8-.425 1.862-.425H11V8h2z" xmlns="http://www.w3.org/2000/svg" /><path fill="#6582f1" d="M9.013 2.513Q8.5 3.025 8.5 4v2.5q0 .975.512 1.487.513.513 1.488.513h3q.975 0 1.488-.513.512-.512.512-1.487V4q0-.975-.512-1.487Q14.475 2 13.5 2h-3q-.975 0-1.488.513M9.023 16.013q-.512.512-.512 1.487V20q0 .975.512 1.488.513.512 1.488.512h3q.975 0 1.487-.512.513-.513.513-1.488v-2.5q0-.975-.513-1.488-.512-.512-1.487-.512h-3q-.975 0-1.488.512M17.023 16.013q-.512.512-.512 1.487V20q0 .975.512 1.488.513.512 1.488.512h3q.975 0 1.487-.512.513-.513.513-1.488v-2.5q0-.975-.513-1.488-.512-.512-1.487-.512h-3q-.975 0-1.488.512M1.023 16.013q-.512.512-.512 1.487V20q0 .975.512 1.488.513.512 1.488.512h3q.975 0 1.487-.512.513-.513.513-1.488v-2.5q0-.975-.513-1.488-.512-.512-1.487-.512h-3q-.975 0-1.488.512" xmlns="http://www.w3.org/2000/svg" /></svg>