<svg xmlns="http://www.w3.org/2000/svg" viewBox="0 0 20 20"><path d="m3.577 9.14.467.474a.665.665 0 0 0 0-.948zm1.576-4.033.094.658a.665.665 0 0 0 .57-.662zm0-.029h-.666v.004zm9.695 0 .664.004v-.004zm0 .029-.666-.004a.665.665 0 0 0 .57.662zm1.574 4.033-.466-.474a.665.665 0 0 0 0 .948zm-.977 5.49-.236-.622a.67.67 0 0 0-.416.493zm-10.89 0 .652-.129a.67.67 0 0 0-.416-.492zM3.087 8.72a.665.665 0 0 0 .931.95zm2.44.334a.665.665 0 1 0 0-1.33zm4.008 1.277a.665.665 0 1 0 .93.95zm2.438.334a.665.665 0 1 0 0-1.33zm5.94 1.35a.665.665 0 1 0-1.33 0zm-4.408 1.947a.665.665 0 1 0-.57 1.2zm-5.636-2.418a.665.665 0 0 0-.571 1.202zm2.416 1.202a.665.665 0 1 0-.57-1.202zm-2.184-6.57a.665.665 0 0 0 .57 1.202zm1.494.995a.665.665 0 0 0 0-1.33zm5.904-2.004a.665.665 0 1 0-1.33 0zM13.19 6.74a.665.665 0 1 0 .586 1.194zM5.152 5.078l-.665.004v.029l.666-.004.665-.004v-.029zm9.695.029.665.004v-.03l-.665-.003-.665-.004v.029zM10 5.143h-.665v9.701h1.33V5.143zM4.555 14.63l-.652.129c.352 1.785 1.738 2.973 3.224 3.137a2.99 2.99 0 0 0 2.172-.599c.649-.5 1.122-1.279 1.35-2.31L10 14.845l-.65-.144c-.174.789-.508 1.27-.863 1.544a1.66 1.66 0 0 1-1.215.33c-.885-.098-1.82-.835-2.065-2.073zm5.445.214-.65.144c.229 1.03.702 1.81 1.35 2.31.65.5 1.424.68 2.173.598 1.486-.164 2.872-1.352 3.224-3.137l-.652-.129-.652-.129c-.245 1.238-1.18 1.975-2.065 2.073a1.66 1.66 0 0 1-1.215-.33c-.355-.274-.69-.755-.864-1.544zM3.577 9.14l-.466-.474c-.927.913-1.163 2.355-.955 3.59.208 1.231.905 2.517 2.163 2.996l.236-.622.236-.622c-.647-.246-1.159-.996-1.324-1.974-.164-.975.064-1.915.577-2.42zm1.576-4.033-.095-.659c-1.325.19-2.358.918-2.776 1.951-.427 1.057-.14 2.26.829 3.215l.466-.474.467-.474c-.651-.64-.722-1.29-.529-1.768.203-.503.768-.995 1.732-1.133zm11.27 4.033.466.474c.97-.954 1.256-2.158.829-3.215-.418-1.033-1.45-1.76-2.776-1.95l-.095.658-.094.658c.964.138 1.529.63 1.732 1.133.194.479.122 1.127-.529 1.768zm-.978 5.49.236.622c1.258-.479 1.956-1.765 2.163-2.996.208-1.235-.027-2.677-.955-3.59l-.466.474-.467.474c.513.505.741 1.445.577 2.42-.165.978-.677 1.728-1.325 1.974zm-.598-9.552h.665c0-.971-.383-1.744-.99-2.262-.594-.507-1.363-.739-2.105-.73-.743.007-1.509.255-2.098.773-.603.529-.984 1.308-.984 2.284h1.33c0-.605.225-1.016.531-1.285.32-.28.766-.438 1.235-.443s.912.144 1.228.413c.3.257.523.654.523 1.25zM10 5.143h.665c0-.976-.381-1.755-.984-2.284-.59-.518-1.355-.766-2.098-.774s-1.511.224-2.105.73c-.607.52-.99 1.292-.99 2.263h1.329c0-.596.223-.993.525-1.25.315-.27.758-.418 1.227-.413s.915.163 1.235.443c.306.27.531.68.531 1.285zM3.553 9.194l.465.475c.39-.381.92-.615 1.508-.615v-1.33c-.95 0-1.81.38-2.439.995zM10 10.806l.465.475c.39-.382.92-.616 1.508-.616v-1.33c-.949 0-1.81.38-2.438.996zm7.247 1.208h-.665c0 1.19-.964 2.155-2.154 2.155v1.33a3.484 3.484 0 0 0 3.484-3.485zm-2.82 2.82v-.665c-.33 0-.643-.075-.922-.207l-.286.6-.285.6c.454.216.96.337 1.494.337zm-5.635-2.418v-.665c-.332 0-.644-.074-.923-.207l-.286.601-.285.6c.453.216.96.337 1.494.337zm1.208-.27-.285-.602a2.14 2.14 0 0 1-.923.207v1.33c.533 0 1.04-.12 1.493-.335zM8.386 6.777l.286.6c.278-.132.59-.207.923-.207v-1.33c-.534 0-1.04.12-1.494.336zm6.448-1.611h-.665c0 .69-.398 1.287-.98 1.573l.293.597.293.597A3.08 3.08 0 0 0 15.5 5.167z" xmlns="http://www.w3.org/2000/svg" /></svg>