<svg xmlns="http://www.w3.org/2000/svg" viewBox="0 0 20 20"><path d="M1.835 14.583c0-.925.678-1.633 1.474-2.123.824-.507 1.95-.895 3.231-1.143l.135-.012a.665.665 0 0 1 .118 1.318l-.435.09c-.988.226-1.79.535-2.352.88-.67.411-.84.77-.841.99 0 .154.077.373.374.646.298.274.765.551 1.398.797 1.263.491 3.053.809 5.063.809s3.8-.318 5.063-.809c.633-.246 1.1-.523 1.398-.796.297-.274.374-.493.374-.647 0-.22-.172-.579-.84-.99-.562-.345-1.365-.654-2.353-.88l-.435-.09-.129-.039a.665.665 0 0 1 .247-1.28l.135.013.473.099c1.085.247 2.037.6 2.758 1.044.797.49 1.474 1.197 1.474 2.123 0 .652-.343 1.2-.805 1.625-.461.424-1.092.776-1.816 1.058-1.452.564-3.412.9-5.544.9s-4.092-.336-5.544-.9c-.724-.282-1.355-.634-1.816-1.058s-.805-.973-.805-1.625m7.5-.416V8.092A3.14 3.14 0 0 1 7.88 7.35l-.118-.113a3.166 3.166 0 0 1 0-4.476l.118-.113a3.166 3.166 0 0 1 4.47 4.471l-.113.118a3.15 3.15 0 0 1-1.572.854v6.075a.665.665 0 0 1-1.33 0m1.962-10.465a1.835 1.835 0 0 0-2.455-.126l-.14.126a1.836 1.836 0 0 0 0 2.596l.14.126c.72.587 1.783.546 2.456-.126l.126-.14a1.836 1.836 0 0 0-.127-2.456" xmlns="http://www.w3.org/2000/svg" /></svg>