<svg xmlns="http://www.w3.org/2000/svg" viewBox="0 0 20 20"><path d="M6.581 2.874a3 3 0 0 1 1.817.757c.072.064.142.135.243.237.112.113.15.15.186.183.292.26.663.415 1.053.44.049.002.103.002.262.002h2.718c.56 0 1.015 0 1.385.027.378.027.714.086 1.034.226.608.267 1.111.727 1.43 1.31.168.307.256.637.317 1.01q.043.27.077.609h.37a1.915 1.915 0 0 1 1.832 2.475l-1.645 5.367a2.33 2.33 0 0 1-2.228 1.648H4.752c-.61 0-1.152-.23-1.56-.6a3 3 0 0 1-.847-.933c-.19-.33-.287-.687-.35-1.093-.063-.398-.1-.89-.147-1.499L1.43 7.605c-.053-.683-.096-1.235-.094-1.681.002-.453.05-.858.214-1.237a3 3 0 0 1 1.365-1.475c.366-.192.767-.27 1.218-.308.445-.036.997-.036 1.683-.036h.426c.144 0 .242 0 .34.006m-.659 6.13a.59.59 0 0 0-.56.415L3.793 14.54a1 1 0 0 0 .588 1.224c.11.03.244.055.423.071h10.628c.44 0 .828-.288.957-.708l1.644-5.366a.585.585 0 0 0-.56-.756zm-.106-4.872c-.707 0-1.199 0-1.58.032-.374.03-.582.087-.734.167a1.74 1.74 0 0 0-.791.855c-.068.157-.11.369-.111.745-.002.382.035.873.09 1.578l.374 4.87 1.027-3.35a1.92 1.92 0 0 1 1.831-1.354h9.908a8 8 0 0 0-.052-.406c-.049-.304-.106-.476-.177-.606a1.75 1.75 0 0 0-.83-.76c-.135-.059-.312-.1-.618-.123a20 20 0 0 0-1.293-.023h-2.718c-.144 0-.243 0-.34-.006a3 3 0 0 1-1.816-.757c-.072-.065-.141-.135-.243-.237a4 4 0 0 0-.186-.183 1.75 1.75 0 0 0-1.053-.44c-.049-.002-.103-.002-.262-.002z" xmlns="http://www.w3.org/2000/svg" /></svg>