<svg xmlns="http://www.w3.org/2000/svg" viewBox="0 0 20 20"><path d="M8.215 2.083h3.571c.904 0 1.632 0 2.222.048.607.05 1.14.155 1.634.406a4.17 4.17 0 0 1 1.821 1.821c.252.494.357 1.027.406 1.634.048.59.048 1.319.048 2.222v3.571c0 .903 0 1.632-.048 2.222-.05.607-.154 1.14-.406 1.634a4.17 4.17 0 0 1-1.82 1.821c-.494.252-1.028.357-1.635.406-.59.048-1.318.048-2.222.048H8.215c-.903 0-1.632 0-2.222-.048-.607-.05-1.14-.154-1.634-.406a4.17 4.17 0 0 1-1.82-1.82c-.252-.494-.357-1.028-.407-1.635-.048-.59-.048-1.319-.048-2.222V8.214c0-.903 0-1.632.048-2.222.05-.607.155-1.14.406-1.634a4.17 4.17 0 0 1 1.821-1.82c.494-.252 1.027-.357 1.634-.407.59-.048 1.319-.048 2.222-.048m-2.086 1.71c-.504.04-.794.117-1.013.23a2.5 2.5 0 0 0-1.093 1.092c-.112.22-.188.509-.23 1.013-.042.514-.042 1.175-.042 2.122v3.5c0 .947 0 1.607.042 2.121.041.504.118.794.23 1.014a2.5 2.5 0 0 0 1.093 1.092c.22.112.509.189 1.013.23.514.042 1.174.043 2.122.043h3.5c.947 0 1.607-.001 2.121-.043.504-.041.794-.118 1.014-.23a2.5 2.5 0 0 0 1.092-1.092c.112-.22.189-.51.23-1.014.042-.514.043-1.174.043-2.121v-3.5c0-.947-.001-1.608-.043-2.122-.041-.504-.118-.794-.23-1.013a2.5 2.5 0 0 0-1.092-1.093c-.22-.112-.51-.188-1.014-.23-.514-.042-1.174-.042-2.121-.042h-3.5c-.948 0-1.608 0-2.122.042m3.872 2.04c.46 0 .833.373.833.833v2.5h2.5a.833.833 0 0 1 0 1.667h-2.5v2.5a.833.833 0 0 1-1.667 0v-2.5h-2.5a.833.833 0 1 1 0-1.667h2.5v-2.5c0-.46.373-.833.834-.833" xmlns="http://www.w3.org/2000/svg" /></svg>