<svg xmlns="http://www.w3.org/2000/svg" viewBox="0 0 20 20"><path d="M9.751 4.092a.585.585 0 0 0-.907-.49l-.072.058-2.218 2.033a3.06 3.06 0 0 1-1.785.792l-.286.013c-.958 0-1.735.778-1.735 1.736v3.533c0 .958.777 1.734 1.735 1.734.766 0 1.506.288 2.071.806l2.218 2.033.072.057a.585.585 0 0 0 .907-.489zM17.248 10a7.63 7.63 0 0 0-.925-3.653l1.17-.635A8.96 8.96 0 0 1 18.577 10a8.96 8.96 0 0 1-1.037 4.197.665.665 0 0 1-1.175-.622A7.6 7.6 0 0 0 17.248 10m-3.33 0c0-.883-.291-1.696-.783-2.35l1.063-.8a5.23 5.23 0 0 1 1.05 3.15l-.014.394a5.2 5.2 0 0 1-.842 2.48l-.085.106a.665.665 0 0 1-1.027-.834l.143-.238a3.9 3.9 0 0 0 .485-1.614zm-.65-3.282c.293-.22.71-.16.93.133l-1.063.799a.666.666 0 0 1 .133-.932m3.323-1.272a.664.664 0 0 1 .901.266l-1.169.635a.665.665 0 0 1 .268-.901m-5.51 10.462c0 1.615-1.859 2.483-3.091 1.512l-.118-.1-2.216-2.033a1.74 1.74 0 0 0-1.173-.456 3.065 3.065 0 0 1-3.065-3.064V8.234a3.065 3.065 0 0 1 3.065-3.066l.162-.008c.375-.035.73-.191 1.01-.448L7.873 2.68l.117-.1c1.233-.971 3.092-.102 3.092 1.512z" xmlns="http://www.w3.org/2000/svg" /></svg>