<svg xmlns="http://www.w3.org/2000/svg" viewBox="0 0 20 20" fill-rule="evenodd" clip-rule="evenodd"><path d="M11.26 2.252c.58 0 .978-.004 1.36.088l.24.067q.355.116.675.312l.123.08c.284.197.542.46.9.82l.99.99.285.285c.263.267.461.487.615.738l.122.218c.113.22.2.455.257.697l.03.144c.061.34.058.709.058 1.216v5.177c0 .689 0 1.246-.036 1.696-.033.4-.098.762-.242 1.098l-.067.142c-.265.521-.67.957-1.165 1.261l-.218.122c-.377.192-.783.271-1.24.309-.45.037-1.008.037-1.697.037h-4.5c-.69 0-1.246 0-1.696-.037-.4-.033-.762-.097-1.098-.241l-.143-.068a3.17 3.17 0 0 1-1.261-1.165l-.122-.218c-.192-.376-.271-.782-.309-1.24-.037-.45-.036-1.007-.036-1.696V6.917c0-.689 0-1.246.036-1.696.038-.458.117-.864.309-1.24a3.17 3.17 0 0 1 1.383-1.384c.377-.192.783-.272 1.24-.309.45-.037 1.008-.036 1.697-.036zm-3.51 1.33c-.711 0-1.204 0-1.588.032-.376.03-.587.088-.745.168a1.84 1.84 0 0 0-.802.802c-.08.158-.137.37-.168.745-.031.384-.032.877-.032 1.588v6.167c0 .71 0 1.204.032 1.588.031.375.088.587.168.745l.07.126c.177.287.43.522.732.676l.13.055c.144.052.333.09.615.113.384.031.877.032 1.588.032h4.5c.711 0 1.204-.001 1.588-.032.376-.031.587-.088.745-.168l.126-.072c.287-.176.522-.428.676-.73l.056-.13a2.4 2.4 0 0 0 .112-.615c.031-.384.032-.877.032-1.588V8.558l-2.234-.248a2.33 2.33 0 0 1-2.063-2.086l-.265-2.642zm4.861 2.51c.047.47.416.843.886.895l2.08.232a3 3 0 0 0-.015-.206l-.028-.156a1.8 1.8 0 0 0-.15-.404l-.07-.126a2 2 0 0 0-.221-.282l-.485-.496-.99-.99c-.341-.342-.513-.51-.65-.617l-.128-.09a1.8 1.8 0 0 0-.392-.18l-.08-.024z" xmlns="http://www.w3.org/2000/svg" /></svg>