<svg xmlns="http://www.w3.org/2000/svg" viewBox="0 0 20 20"><path d="M10 6.335c.367 0 .665.298.665.665v2.335L13 9.349l.134.013a.665.665 0 0 1 0 1.303l-.134.014-2.335-.014V13a.665.665 0 0 1-1.33 0v-2.335L7 10.679a.665.665 0 0 1 0-1.33l2.335-.014V7c0-.367.298-.665.665-.665" xmlns="http://www.w3.org/2000/svg" /><path fill-rule="evenodd" d="M10 2.085a7.915 7.915 0 1 1 0 15.83 7.915 7.915 0 0 1 0-15.83m0 1.33a6.585 6.585 0 1 0 0 13.17 6.585 6.585 0 0 0 0-13.17" clip-rule="evenodd" xmlns="http://www.w3.org/2000/svg" /></svg>