<svg xmlns="http://www.w3.org/2000/svg" viewBox="0 0 20 20"><path d="M14.502 2.583c.367.084.717.229 1.035.429.319.2.587.47.943.825l.27.27c.229.228.43.429.58.669.15.239.26.501.322.776.063.277.063.56.063.883v2.02c0 .503 0 .882-.084 1.25a3.3 3.3 0 0 1-.428 1.034c-.201.32-.47.588-.825.943l-4.072 4.072c-.45.45-.822.822-1.149 1.102-.34.29-.682.527-1.088.67a3.33 3.33 0 0 1-2.209 0c-.406-.142-.749-.38-1.088-.67-.327-.28-.699-.652-1.15-1.102l-1.161-1.162c-.45-.45-.822-.822-1.102-1.15-.29-.339-.528-.681-.67-1.088a3.33 3.33 0 0 1 0-2.208c.142-.407.38-.75.67-1.089.28-.326.651-.698 1.102-1.149l4.072-4.071c.355-.356.623-.625.942-.825s.668-.345 1.035-.429c.367-.083.747-.083 1.25-.083h1.493c.502 0 .882 0 1.25.083m-1.37 5.75a1.25 1.25 0 1 0 0-2.5 1.25 1.25 0 0 0 0 2.5" xmlns="http://www.w3.org/2000/svg" /></svg>