<svg xmlns="http://www.w3.org/2000/svg" viewBox="0 0 20 20"><path d="M9.79 18.51a1.8 1.8 0 0 1-.99.27 1.74 1.74 0 0 1-.97-.32l-3.48-2.38a2 2 0 0 1-.64-.71 1.9 1.9 0 0 1-.23-.91V6.53q0-.49.22-.89.23-.399.66-.66l5.72-3.52q.49-.3 1.06-.29.57 0 1.05.32l3.52 2.4q.39.28.6.67.21.381.21.84v7.89q0 .5-.25.95t-.69.71zm4.59-13.85-2.96-2.02a.52.52 0 0 0-.31-.1.5.5 0 0 0-.3.08L5.5 5.89l3.27 2.22zM8.14 9.33 4.86 7.11v3.1l3.28 2.24zm0 4.71L4.86 11.8v2.66q0 .15.06.28.06.12.19.21l3.03 2.07zm7-5.15V5.81L9.52 9.26v3.09zm-.28 4.9a.6.6 0 0 0 .21-.21.6.6 0 0 0 .07-.29v-2.81l-5.62 3.46v3.13z" xmlns="http://www.w3.org/2000/svg" /></svg>