<svg xmlns="http://www.w3.org/2000/svg" viewBox="0 0 20 20"><path d="M18.502 9.833c0-.71 0-1.204-.032-1.588a2.4 2.4 0 0 0-.112-.615l-.056-.13a1.84 1.84 0 0 0-.675-.731l-.127-.07c-.159-.08-.37-.138-.746-.168-.191-.016-.41-.025-.67-.029l-.918-.004H4.834c-.712 0-1.205.001-1.588.033-.376.03-.587.087-.746.168A1.83 1.83 0 0 0 1.7 7.5c-.08.158-.138.37-.168.745-.032.384-.032.877-.032 1.588v.333c0 .711 0 1.205.032 1.588.03.376.087.587.168.745.176.346.456.627.801.803l.13.056c.144.051.334.089.616.112.383.031.876.031 1.588.031h10.333c.71 0 1.204 0 1.587-.03.376-.032.587-.088.745-.169l.128-.071c.287-.176.521-.43.675-.732l.056-.13c.051-.143.09-.333.112-.615.032-.383.032-.877.032-1.588zm1.33.333c0 .69 0 1.246-.037 1.697-.032.4-.097.762-.24 1.098l-.068.143c-.266.52-.67.957-1.165 1.26l-.218.123c-.377.192-.783.27-1.241.308-.45.037-1.008.036-1.697.036H4.834c-.69 0-1.247.001-1.697-.036-.4-.033-.761-.098-1.097-.242l-.143-.066a3.17 3.17 0 0 1-1.384-1.383c-.192-.377-.271-.783-.308-1.241-.037-.45-.037-1.008-.037-1.697v-.333c0-.689 0-1.246.037-1.696.037-.458.116-.864.308-1.24a3.17 3.17 0 0 1 1.384-1.384c.377-.192.782-.271 1.24-.309.45-.036 1.007-.036 1.697-.036h10.333l.937.004q.422.006.759.032c.458.038.864.117 1.241.309l.218.122c.496.304.9.74 1.165 1.262l.067.142c.144.337.209.698.241 1.098.037.45.036 1.007.036 1.696z" xmlns="http://www.w3.org/2000/svg" /></svg>