<svg xmlns="http://www.w3.org/2000/svg" viewBox="0 0 20 20"><path d="M13.886 2.713a2.42 2.42 0 0 1 3.253.152l.167.184c.726.891.72 2.178-.012 3.064l-.168.183-2.415 2.38.154.153.178.2c.77.957.653 2.308-.098 3.205l-.17.184a13 13 0 0 0-2.595 3.587l-.272.586c-.532 1.223-2.008 1.997-3.32 1.336l-.126-.068c-1.057-.613-1.815-1.058-2.48-1.57-.594-.458-1.101-.96-1.695-1.664l-.26-.314a.67.67 0 0 1-.056-.757l.382-.65-.62.216a.67.67 0 0 1-.702-.17l-.069-.087q-.21-.314-.415-.643l-.405-.675c-.78-1.342.005-2.897 1.268-3.445l.587-.27a13 13 0 0 0 3.591-2.594l.185-.17c.961-.803 2.445-.879 3.406.08l.153.154 2.371-2.418zm-6.988 4.89a14.3 14.3 0 0 1-2.632 1.572l-.325.146c-.7.303-.943 1.05-.649 1.556l.385.64.112.175 1.838-.64.1-.026a.667.667 0 0 1 .692.992l-1.064 1.805c.528.621.955 1.038 1.439 1.412.583.45 1.262.85 2.335 1.473l.098.05c.502.213 1.177-.043 1.462-.697l.146-.325c.437-.946.957-1.817 1.57-2.63zm9.3-3.798c-.4-.4-1.036-.423-1.463-.068l-.083.076-2.84 2.897a.665.665 0 0 1-.945.005l-.629-.628c-.405-.405-1.108-.423-1.607-.006l-.097.09a16 16 0 0 1-.608.58l5.332 5.328q.28-.309.584-.607l.089-.098c.39-.465.4-1.107.07-1.52l-.076-.083-.629-.628a.667.667 0 0 1 .004-.944l2.892-2.85.076-.083c.33-.398.332-.977.005-1.378z" xmlns="http://www.w3.org/2000/svg" /></svg>