<svg xmlns="http://www.w3.org/2000/svg" viewBox="0 0 20 20"><path d="M8.471 1.44c.743-1.13 2.447-1.092 3.126.113l1.946 3.453.021.029a.17.17 0 0 0 .09.052l3.886.784c1.356.273 1.918 1.881 1.073 2.937l-.086.1-2.682 2.918a.17.17 0 0 0-.043.132l.455 3.937.011.132c.063 1.351-1.338 2.32-2.596 1.745l-3.603-1.648a.17.17 0 0 0-.105-.012l-.034.012-3.603 1.648c-1.299.594-2.748-.458-2.584-1.877l.455-3.937v-.036a.2.2 0 0 0-.022-.067l-.021-.03L1.473 8.91C.507 7.858 1.06 6.153 2.46 5.87l3.885-.784.034-.011a.17.17 0 0 0 .079-.07l1.946-3.453z" xmlns="http://www.w3.org/2000/svg" /></svg>