<svg xmlns="http://www.w3.org/2000/svg" viewBox="0 0 20 20"><path d="M2.668 13.333a.665.665 0 0 1 1.33 0c0 .818.006 1.097.063 1.309l.035.117c.197.577.67 1.02 1.263 1.18l.178.034c.206.025.516.028 1.13.028a.665.665 0 0 1 0 1.33c-.641 0-1.101.005-1.49-.07l-.163-.037a3.17 3.17 0 0 1-2.177-2.036l-.061-.202c-.114-.424-.108-.92-.108-1.653m13.333 0a.665.665 0 0 1 1.33 0c0 .641.005 1.101-.07 1.49l-.037.163a3.17 3.17 0 0 1-2.036 2.176l-.202.062c-.318.085-.677.103-1.145.106l-.508.001-.133-.013A.665.665 0 0 1 13.333 16h.52c.433-.005.63-.02.789-.062l.117-.035a1.84 1.84 0 0 0 1.18-1.262l.034-.179c.026-.206.028-.516.028-1.13m-5.168-2.332.134.014a.665.665 0 0 1 0 1.303l-.134.013H7.5a.665.665 0 0 1 0-1.33zM12.5 7.668l.134.014a.665.665 0 0 1 0 1.303l-.134.013h-5a.665.665 0 0 1 0-1.33zM2.668 6.666c0-.732-.006-1.228.108-1.652l.061-.202a3.17 3.17 0 0 1 2.177-2.036l.163-.037c.389-.075.849-.07 1.49-.07a.665.665 0 0 1 0 1.33c-.614 0-.924.002-1.13.028l-.178.034a1.84 1.84 0 0 0-1.263 1.18l-.035.118c-.057.212-.063.49-.063 1.307a.665.665 0 0 1-1.33 0m13.333 0c0-.613-.003-.923-.028-1.129l-.034-.178a1.84 1.84 0 0 0-1.18-1.263l-.117-.035c-.16-.043-.356-.056-.79-.06l-.519-.003-.133-.013a.665.665 0 0 1 .133-1.317l.508.001c.468.004.827.022 1.145.107l.202.061a3.17 3.17 0 0 1 2.036 2.177l.037.163c.075.389.07.849.07 1.49a.665.665 0 0 1-1.33 0" xmlns="http://www.w3.org/2000/svg" /></svg>