<svg xmlns="http://www.w3.org/2000/svg" viewBox="0 0 20 20"><path d="M16.001 8.333a.17.17 0 0 0-.168-.168H4.166a.17.17 0 0 0-.168.168V10c0 .093.076.168.168.168h11.667a.17.17 0 0 0 .168-.168zM5.458 14.114l.146.76c.043.215.084.395.126.553.082.307.158.48.248.611l.076.103c.185.232.423.417.696.538l.119.044c.127.04.29.07.528.088.325.024.74.024 1.34.024h2.53c.6 0 1.013 0 1.338-.024.316-.024.5-.069.645-.132l.116-.056c.262-.139.49-.339.658-.585l.064-.107c.064-.118.123-.273.184-.503.084-.315.16-.722.271-1.31l.49-2.62H4.968zm8.877-10.116h-1.002a2.67 2.67 0 0 0-2.668 2.669v.168h1.001a2.67 2.67 0 0 0 2.67-2.668zm-8.67.169a2.67 2.67 0 0 0 2.668 2.668h1.002V5.833l-.013-.272a2.67 2.67 0 0 0-2.656-2.396h-1zm10 0c0 1.025-.386 1.96-1.021 2.668h1.19c.827 0 1.497.67 1.497 1.498V10c0 .624-.381 1.159-.924 1.384l-.557 2.98c-.107.57-.193 1.033-.293 1.406a3.4 3.4 0 0 1-.362.905l-.075.115c-.29.424-.68.77-1.134 1.01l-.199.095c-.337.15-.688.212-1.083.242-.385.029-.857.028-1.437.028h-2.53c-.581 0-1.054 0-1.44-.028a3.4 3.4 0 0 1-.956-.19l-.128-.052a3.17 3.17 0 0 1-1.2-.928l-.132-.177c-.208-.304-.335-.64-.436-1.021q-.074-.281-.144-.631l-.15-.779-.558-2.975A1.5 1.5 0 0 1 2.668 10V8.333c0-.827.671-1.498 1.498-1.498h1.19a3.98 3.98 0 0 1-1.02-2.668V2.5l.013-.134A.665.665 0 0 1 5 1.835h1.666a4 4 0 0 1 3.604 2.263 3.99 3.99 0 0 1 3.063-1.43H15l.134.014c.303.062.531.33.531.651z" xmlns="http://www.w3.org/2000/svg" /></svg>