<svg xmlns="http://www.w3.org/2000/svg" viewBox="0 0 20 20" fill="none"><circle cx="8.912" cy="10.022" r="1.25" fill="currentColor" transform="rotate(-8 8.912 10.022)" xmlns="http://www.w3.org/2000/svg" /><path stroke="currentColor" stroke-width="1.33" d="m2.432 15.02.461-.519c.888-.997 1.332-1.495 1.868-1.715a2.5 2.5 0 0 1 1.49-.126c.565.126 1.086.543 2.129 1.377l3.287 2.63" xmlns="http://www.w3.org/2000/svg" /><path stroke="currentColor" stroke-width="1.33" d="M1.837 11.47c-.17-1.39-.256-2.084-.05-2.648a2.5 2.5 0 0 1 .951-1.218c.498-.336 1.192-.421 2.582-.592l2.812-.345c1.39-.17 2.085-.256 2.649-.05a2.5 2.5 0 0 1 1.217.95c.336.498.421 1.193.592 2.583l.345 2.812c.17 1.39.256 2.085.05 2.649a2.5 2.5 0 0 1-.95 1.217c-.498.336-1.193.421-2.582.592l-2.813.345c-1.39.17-2.084.256-2.648.05a2.5 2.5 0 0 1-1.218-.95c-.335-.498-.42-1.193-.591-2.583z" xmlns="http://www.w3.org/2000/svg" /><path stroke="currentColor" stroke-linecap="round" stroke-width="1.33" d="M15.833 13.447q.072-.02.14-.044a2.5 2.5 0 0 0 1.217-.952c.336-.497.421-1.192.592-2.582l.086-.703M7.698 3.75c.069-.234.154-.426.268-.595a2.5 2.5 0 0 1 1.218-.952c.409-.149.887-.145 1.65-.066" xmlns="http://www.w3.org/2000/svg" /><path fill="currentColor" d="M16.916.871a.418.418 0 0 0-.831 0c-.152 1.318-.897 2.062-2.215 2.214a.418.418 0 0 0 .001.83c1.3.148 2.095.885 2.213 2.204a.418.418 0 0 0 .833-.001c.112-1.3.9-2.089 2.2-2.201a.418.418 0 0 0 .002-.833c-1.32-.118-2.056-.913-2.203-2.213" xmlns="http://www.w3.org/2000/svg" /></svg>