<svg xmlns="http://www.w3.org/2000/svg" viewBox="0 0 20 20"><path d="M2.254 10.833v3.333a3.165 3.165 0 0 0 3.165 3.165h4.167a3.17 3.17 0 0 0 2.94-1.992.665.665 0 0 0-1.235-.493 1.84 1.84 0 0 1-1.705 1.155H5.419a1.835 1.835 0 0 1-1.835-1.835v-3.333c0-1.013.821-1.835 1.835-1.835h5l.134-.013a.665.665 0 0 0 0-1.303l-.134-.014h-5a3.165 3.165 0 0 0-3.165 3.165" xmlns="http://www.w3.org/2000/svg" /><path d="M16.416 5.833v3.333a1.835 1.835 0 0 1-1.835 1.835h-5a.666.666 0 0 0 0 1.33h5a3.165 3.165 0 0 0 3.165-3.165V5.833a3.165 3.165 0 0 0-3.165-3.165h-4.166a3.17 3.17 0 0 0-2.846 1.779l-.094.214a.665.665 0 0 0 1.172.612l.063-.12a1.84 1.84 0 0 1 1.705-1.155h4.166c1.014 0 1.835.822 1.835 1.835" xmlns="http://www.w3.org/2000/svg" /></svg>