<svg xmlns="http://www.w3.org/2000/svg" viewBox="0 0 20 20"><path d="M3.165 10c0-3.51 3.024-6.418 6.835-6.418S16.835 6.49 16.835 10a6.14 6.14 0 0 1-1.388 3.877.67.67 0 0 0-.136.54c.095.508.23 1.003.384 1.487a13 13 0 0 1-1.823-.376l-.126-.022a.66.66 0 0 0-.369.076 7.15 7.15 0 0 1-3.377.837c-3.811 0-6.835-2.91-6.835-6.42m-1.33 0c0 4.314 3.692 7.749 8.165 7.749a8.5 8.5 0 0 0 3.766-.873c.92.242 1.865.393 2.86.455a.665.665 0 0 0 .661-.903l-.207-.565c-.162-.468-.3-.933-.402-1.402A7.45 7.45 0 0 0 18.165 10c0-4.315-3.692-7.748-8.165-7.748S1.835 5.685 1.835 10" xmlns="http://www.w3.org/2000/svg" /></svg>