<svg xmlns="http://www.w3.org/2000/svg" viewBox="0 0 20 20"><path d="M13.549 17.35c-.354.166-.7.242-1.04.242-.792 0-1.555-.423-2.36-1.047-.055-.042-.104-.084-.152-.118-.049.035-.098.076-.146.11-.805.632-1.568 1.056-2.366 1.056-.333 0-.68-.077-1.034-.243-1.186-.562-1.485-1.7-1.492-3.171v-.16a1 1 0 0 1-.132-.027c-1.429-.34-2.47-.882-2.761-2.158-.291-1.27.41-2.228 1.554-3.143.035-.028.077-.056.111-.084a2 2 0 0 1-.076-.166c-.625-1.311-.847-2.47-.028-3.497.805-1.02 1.985-1.075 3.428-.742.055.006.104.02.16.034.02-.048.048-.097.069-.145.645-1.312 1.415-2.207 2.713-2.207 1.31 0 2.074.895 2.72 2.207.027.048.048.097.076.145.055-.014.104-.028.16-.034 1.436-.327 2.601-.278 3.427.749.812 1.02.596 2.179-.028 3.49a3 3 0 0 0-.076.16q.05.05.11.09c1.139.915 1.84 1.873 1.548 3.143-.292 1.276-1.332 1.818-2.775 2.158-.035.006-.077.02-.118.027v.16c-.007 1.47-.306 2.609-1.492 3.17M9.997 3.216c-.778 0-1.124.666-1.464 1.34.485.103.978.18 1.464.18.492 0 .985-.077 1.47-.18-.34-.674-.687-1.34-1.47-1.34m4.12 3.504c.313.382.688.729 1.076 1.04.313-.686.639-1.373.146-1.983s-1.228-.472-1.977-.306c.215.437.45.868.756 1.25m-9.456-.937c-.493.604-.167 1.291.146 1.978a7 7 0 0 0 1.075-1.04c.298-.382.541-.813.756-1.25-.742-.16-1.484-.305-1.977.312m3.636 7.806c.596.284 1.158.7 1.7 1.131.54-.43 1.117-.847 1.706-1.13.625-.3 1.326-.487 1.999-.64 0-.686.02-1.394.173-2.06.146-.645.423-1.284.722-1.908-.542-.43-1.09-.895-1.513-1.43-.423-.533-.75-1.151-1.04-1.769-.674.153-1.367.285-2.047.285-.674 0-1.367-.132-2.04-.285-.292.618-.618 1.242-1.041 1.77-.423.527-.965.999-1.513 1.429.299.624.576 1.263.722 1.901.153.666.173 1.38.173 2.068.68.152 1.374.333 1.999.638m-4.933-2.054c.173.757.888.95 1.61 1.124 0-.492-.035-.992-.14-1.47a7.2 7.2 0 0 0-.5-1.367c-.575.478-1.137.957-.97 1.713m11.808-.354c-.11.486-.138.986-.145 1.478.728-.173 1.436-.367 1.61-1.124.173-.756-.39-1.235-.972-1.706-.208.437-.395.888-.492 1.352m-2.192 4.975c.694-.34.715-1.096.729-1.852-.48.118-.965.256-1.416.479-.43.208-.84.485-1.228.784.604.464 1.2.922 1.915.59m-5.96 0c.715.333 1.318-.125 1.915-.59a7 7 0 0 0-1.221-.784c-.451-.222-.937-.36-1.423-.478.014.756.035 1.512.729 1.852" xmlns="http://www.w3.org/2000/svg" /></svg>