<svg xmlns="http://www.w3.org/2000/svg" viewBox="0 0 24 24"><path d="M9.834 5a1.333 1.333 0 1 0 0 2.667 1.333 1.333 0 0 0 0-2.667M6.5 6.333a3.333 3.333 0 1 1 6.667 0 3.333 3.333 0 0 1-6.667 0m6.88 5.089c.997-1.53 3.245-1.509 4.213.04l3.093 4.948c1.249 1.998-.188 4.59-2.544 4.59H5.788c-2.548 0-3.936-2.976-2.299-4.928l2.729-3.253a2.5 2.5 0 0 1 3.62-.22l1.507 1.405a.25.25 0 0 0 .38-.046zm2.517 1.1a.5.5 0 0 0-.842-.008L13.4 15.05a2.25 2.25 0 0 1-3.42.416L8.475 14.06a.5.5 0 0 0-.724.044l-2.728 3.253A1 1 0 0 0 5.788 19h12.354a1 1 0 0 0 .848-1.53z" xmlns="http://www.w3.org/2000/svg" /></svg>