<svg xmlns="http://www.w3.org/2000/svg" viewBox="0 0 20 20" fill="#5856d6"><path d="M8.115 3.194a2.666 2.666 0 0 1 3.77 0l4.92 4.921a2.666 2.666 0 0 1 0 3.77l-4.92 4.92a2.666 2.666 0 0 1-3.77 0l-4.92-4.92a2.666 2.666 0 0 1 0-3.77zM7.965 7.5a.35.35 0 0 0-.346.308c-.127 1.099-.747 1.72-1.846 1.846a.35.35 0 0 0 .001.692c1.083.123 1.746.737 1.844 1.836a.349.349 0 0 0 .694 0c.094-1.084.751-1.74 1.835-1.835a.348.348 0 0 0 0-.694c-1.099-.098-1.713-.76-1.835-1.844a.35.35 0 0 0-.346-.31" xmlns="http://www.w3.org/2000/svg" /></svg>