<svg xmlns="http://www.w3.org/2000/svg" viewBox="0 0 16 16"><path d="M1.996 13q-.998 0-1.5-.487Q0 12.019 0 11.038V4.956q0-.975.496-1.462Q.998 3 1.996 3h12.008q.992 0 1.494.494Q16 3.98 16 4.956v6.082q0 .976-.502 1.468-.502.495-1.494.494zm.013-1.019h11.976q.47 0 .73-.253.262-.254.262-.747V5.013q0-.494-.261-.74-.26-.255-.731-.254H2.009q-.477 0-.731.253-.255.248-.255.74v5.969q0 .494.255.747t.73.253m.572-5.456q-.28 0-.28-.278v-.582q0-.285.28-.285h.585q.285 0 .286.285v.582q0 .278-.286.278zm2.047 0q-.286 0-.286-.278v-.582q0-.285.286-.285h.585q.28 0 .28.285v.582q0 .278-.28.278zm2.047 0q-.286 0-.286-.278v-.582q0-.285.286-.285h.578q.285 0 .286.285v.582q0 .278-.286.278zm2.04 0q-.28 0-.28-.278v-.582q0-.285.28-.285H9.3q.285 0 .286.285v.582q0 .278-.286.278zm2.047 0q-.285 0-.286-.278v-.582q0-.285.286-.285h.585q.28 0 .28.285v.582q0 .278-.28.278zm2.047 0q-.285 0-.286-.278v-.582q0-.285.286-.285h.578q.286 0 .286.285v.582q0 .278-.286.278zM2.58 8.563q-.28 0-.28-.285v-.575q0-.285.28-.285h.585q.285 0 .286.285v.575q0 .285-.286.285zm2.047 0q-.286 0-.286-.285v-.575q0-.285.286-.285h.585q.28 0 .28.285v.575q0 .285-.28.285zm2.047 0q-.286 0-.286-.285v-.575q0-.285.286-.285h.578q.285 0 .286.285v.575q0 .285-.286.285zm2.04 0q-.28 0-.28-.285v-.575q0-.285.28-.285H9.3q.285 0 .286.285v.575q0 .285-.286.285zm2.047 0q-.285 0-.286-.285v-.575q0-.285.286-.285h.585q.28 0 .28.285v.575q0 .285-.28.285zm2.047 0q-.285 0-.286-.285v-.575q0-.285.286-.285h.578q.286 0 .286.285v.575q0 .285-.286.285zM2.58 10.601q-.28 0-.28-.285v-.582q0-.278.28-.278h.585q.285 0 .286.278v.582q0 .285-.286.285zm2.11 0q-.35 0-.35-.348v-.456q0-.34.35-.341h6.592q.345 0 .344.341v.456q0 .348-.344.348zm8.118 0q-.285 0-.286-.285v-.582q0-.278.286-.278h.578q.286 0 .286.278v.582q0 .285-.286.285z" xmlns="http://www.w3.org/2000/svg" /></svg>