<svg xmlns="http://www.w3.org/2000/svg" viewBox="0 0 20 20"><path d="M13.333 5.208a1.46 1.46 0 1 1 0 2.919 1.46 1.46 0 0 1 0-2.919" xmlns="http://www.w3.org/2000/svg" /><path fill-rule="evenodd" d="M12.501 1.835a5.666 5.666 0 1 1-1.253 11.19l-1.193 1.195a.67.67 0 0 1-.471.195H8.582v1.002c0 .176-.07.346-.194.47l-.884.884c-.359.359-.847.56-1.355.561H3.334a.666.666 0 0 1-.666-.665v-2.815c0-.508.202-.997.561-1.356l3.746-3.745A5.665 5.665 0 0 1 12.5 1.835m0 1.33A4.335 4.335 0 0 0 8.166 7.5l.012.326q.037.485.174.933a.67.67 0 0 1-.166.662L4.17 13.437a.6.6 0 0 0-.172.415v2.15h2.15a.59.59 0 0 0 .414-.172l.689-.69v-1.39c0-.367.298-.665.665-.665h1.392l1.268-1.27.07-.06a.67.67 0 0 1 .594-.107c.398.121.821.187 1.26.187l.223-.006a4.336 4.336 0 0 0 0-8.658z" clip-rule="evenodd" xmlns="http://www.w3.org/2000/svg" /></svg>