<svg xmlns="http://www.w3.org/2000/svg" viewBox="0 0 20 20"><path d="M5.693 11.056a2.71 2.71 0 0 1 2.432 2.694l-.015.277a2.71 2.71 0 0 1-2.694 2.432l-.276-.015a2.71 2.71 0 0 1-2.418-2.417l-.014-.277a2.71 2.71 0 0 1 2.708-2.708zm-.277 1.316a1.378 1.378 0 1 0 0 2.757 1.378 1.378 0 0 0 0-2.757M16.8 13.099a.665.665 0 0 1 0 1.302l-.134.014h-5.833a.665.665 0 0 1 0-1.33h5.833zM5.693 3.556A2.71 2.71 0 0 1 8.125 6.25l-.015.277A2.71 2.71 0 0 1 5.416 8.96l-.276-.015a2.71 2.71 0 0 1-2.418-2.417l-.014-.277a2.71 2.71 0 0 1 2.708-2.708zm-.277 1.316a1.378 1.378 0 1 0 .001 2.757 1.378 1.378 0 0 0-.001-2.757M16.8 5.599a.665.665 0 0 1 0 1.302l-.134.014h-5.833a.665.665 0 0 1 0-1.33h5.833z" xmlns="http://www.w3.org/2000/svg" /></svg>