<svg xmlns="http://www.w3.org/2000/svg" viewBox="0 0 20 20"><path d="M9.165 2.332c-.711 0-1.204 0-1.588.032a2.4 2.4 0 0 0-.615.112l-.13.056a1.84 1.84 0 0 0-.731.676l-.07.125c-.081.158-.138.37-.169.746-.031.383-.032.877-.032 1.588v8.667c0 .71.001 1.204.032 1.587.031.376.088.588.168.745.176.346.457.626.802.802.158.08.37.137.745.168.384.032.877.033 1.588.033l1.67.037c.711 0 1.204-.001 1.588-.033.376-.03.587-.087.745-.168l.126-.07c.288-.176.522-.43.676-.731l.056-.13c.052-.144.089-.334.112-.616.031-.383.032-.876.032-1.587V5.704c0-.711-.001-1.205-.032-1.588-.031-.376-.088-.587-.168-.745l-.07-.126a1.84 1.84 0 0 0-.732-.676l-.13-.056a2.4 2.4 0 0 0-.615-.112c-.384-.031-.877-.032-1.588-.032zm1.67-1.293c.69 0 1.246 0 1.696.037.4.032.762.097 1.098.24l.143.068c.52.266.957.67 1.261 1.165l.122.218c.192.377.271.783.309 1.24.037.45.036 1.008.036 1.697v8.667c0 .689 0 1.246-.036 1.696-.033.4-.098.761-.242 1.098l-.067.142c-.265.521-.67.958-1.165 1.262l-.219.122c-.376.192-.782.271-1.24.309-.45.036-1.007.036-1.696.036l-1.67-.038c-.689 0-1.246.001-1.696-.036-.458-.037-.864-.116-1.24-.308a3.17 3.17 0 0 1-1.384-1.384c-.192-.377-.271-.782-.309-1.24-.037-.45-.036-1.007-.036-1.697V5.667c0-.688 0-1.246.036-1.696.038-.458.117-.863.309-1.24l.122-.218c.304-.496.74-.9 1.262-1.165l.142-.067c.336-.144.697-.209 1.098-.241C7.919 1.002 8.476 1 9.165 1z" xmlns="http://www.w3.org/2000/svg" /></svg>