<svg xmlns="http://www.w3.org/2000/svg" viewBox="0 0 21 20" fill-rule="evenodd" clip-rule="evenodd"><path d="M10.124 1.835c1.206 0 2.263.613 2.909 1.538q.183-.022.373-.022c1.8 0 3.217 1.509 3.217 3.316a.7.7 0 0 1-.021.16c.435.31.708.843.615 1.45L16.11 15.48a3.166 3.166 0 0 1-3.13 2.684H7.27a3.165 3.165 0 0 1-3.127-2.684l-1.11-7.205c-.093-.605.181-1.14.616-1.449a.7.7 0 0 1-.022-.16c0-1.807 1.417-3.316 3.217-3.316q.189 0 .373.023c.646-.925 1.703-1.539 2.908-1.539m-5.542 6.06a.168.168 0 0 0-.234.178l1.108 7.206a1.835 1.835 0 0 0 1.814 1.556h.497l-.756-7.928a1.5 1.5 0 0 1-.405-.113zm5.477-.06-1.742.747.786 8.253h2.081l.75-8.253-1.742-.746a.17.17 0 0 0-.133 0m5.608.06-2.023.899q-.196.086-.404.113l-.721 7.928h.46c.907 0 1.678-.66 1.815-1.556l1.109-7.206a.169.169 0 0 0-.236-.178m-5.543-4.73c-.85 0-1.602.497-1.987 1.253a.665.665 0 0 1-.781.336 1.8 1.8 0 0 0-.513-.074c-1.003 0-1.86.84-1.885 1.937q.083.026.164.062l2.024.9a.17.17 0 0 0 .135 0l2.254-.966a1.5 1.5 0 0 1 1.18 0l2.254.966a.17.17 0 0 0 .135 0l2.023-.9q.082-.036.163-.062c-.025-1.097-.881-1.937-1.884-1.937q-.268.001-.512.074a.665.665 0 0 1-.781-.336c-.385-.756-1.139-1.253-1.989-1.253" xmlns="http://www.w3.org/2000/svg" /></svg>