<svg xmlns="http://www.w3.org/2000/svg" viewBox="0 0 20 20"><path d="M16.001 7.333c0-.711 0-1.204-.03-1.588-.032-.375-.088-.587-.169-.745A1.84 1.84 0 0 0 15 4.198c-.158-.08-.37-.137-.745-.168-.383-.031-.877-.032-1.588-.032H7.333c-.71 0-1.204 0-1.588.032-.375.031-.587.088-.745.168A1.84 1.84 0 0 0 4.2 5c-.08.158-.138.37-.168.745-.032.384-.033.877-.033 1.588v5.333c0 .71.001 1.204.033 1.588.03.376.087.587.168.745.176.345.456.627.801.803.158.08.37.137.745.168.384.031.877.031 1.588.031h5.333c.711 0 1.205 0 1.588-.031.376-.03.587-.088.745-.168.346-.176.627-.458.803-.803.08-.158.137-.37.168-.745.031-.384.031-.877.031-1.588zm-3.5 5.335a.665.665 0 0 1 0 1.33H6.665a.665.665 0 0 1 0-1.33zm-1.668-3.333.134.014a.665.665 0 0 1 0 1.302l-.134.014H6.666a.666.666 0 0 1 0-1.33zM9.166 6.001a.665.665 0 0 1 0 1.33h-2.5a.665.665 0 0 1 0-1.33zm4.167 0a.665.665 0 0 1 0 1.33h-1.667a.665.665 0 0 1 0-1.33zm3.998 6.665c0 .689.001 1.246-.036 1.696-.037.458-.116.865-.308 1.242a3.17 3.17 0 0 1-1.383 1.382c-.377.192-.783.271-1.241.309-.45.037-1.008.036-1.697.036H7.333c-.689 0-1.246 0-1.696-.036-.458-.038-.863-.117-1.24-.309a3.17 3.17 0 0 1-1.384-1.383c-.192-.376-.271-.783-.309-1.24-.036-.45-.036-1.008-.036-1.697V7.333c0-.69 0-1.246.036-1.696.038-.458.117-.864.31-1.24a3.17 3.17 0 0 1 1.383-1.384c.376-.192.782-.271 1.24-.309.45-.037 1.007-.036 1.696-.036h5.333c.69 0 1.246 0 1.697.036.458.038.864.117 1.24.309.596.303 1.08.788 1.384 1.383.192.377.27.783.308 1.24.037.451.036 1.008.036 1.697z" xmlns="http://www.w3.org/2000/svg" /></svg>