<svg xmlns="http://www.w3.org/2000/svg" viewBox="0 0 20 20"><path d="M7.13 2.431a3.17 3.17 0 0 1 3.258-1.48l1.241.219a3.17 3.17 0 0 1 2.595 2.764l.085.754 3.072.542.13.037a.665.665 0 0 1-.226 1.283l-.134-.01-.565-.099-.73 8.55a3.165 3.165 0 0 1-3.152 2.896H7.295a3.166 3.166 0 0 1-3.113-2.593l-.04-.303-.714-8.37.002-.135a.665.665 0 0 1 1.298-.11l.024.131.715 8.37.024.176a1.836 1.836 0 0 0 1.804 1.504h5.409c.952 0 1.747-.73 1.828-1.68l.739-8.668-11.907-2.1a.666.666 0 0 1 .23-1.31l3.071.541.338-.68zm3.028-.17a1.835 1.835 0 0 0-1.889.858l-.073.133-.165.33 4.913.866-.04-.366a1.84 1.84 0 0 0-1.506-1.602z" xmlns="http://www.w3.org/2000/svg" /><path d="M9.633 8.104a.67.67 0 0 1 .837.085l2 2 .085.105a.666.666 0 0 1-.922.921l-.104-.085-.864-.864V13.5a.665.665 0 0 1-1.33 0v-3.234l-.865.864a.666.666 0 0 1-.941-.94l2-2z" xmlns="http://www.w3.org/2000/svg" /></svg>