<svg xmlns="http://www.w3.org/2000/svg" viewBox="0 0 20 20"><path d="M5.417 2.5c.46 0 .833.373.833.833v10a.833.833 0 1 1-1.667 0v-10c0-.46.374-.833.834-.833m5.834.833c.46 0 .833.373.833.834v2.916a.833.833 0 0 1-1.667 0V4.167c0-.46.373-.834.834-.834M8.334 5c.46 0 .833.373.833.833v5a.833.833 0 1 1-1.667 0v-5c0-.46.373-.833.834-.833M2.5 6.667c.46 0 .833.373.833.833v1.667a.833.833 0 0 1-1.666 0V7.5c0-.46.373-.833.833-.833M10.417 10c0-.46.373-.833.834-.833h6.667c.46 0 .833.373.833.833v1.296a.833.833 0 0 1-1.666 0v-.463h-1.667v5h.416a.833.833 0 1 1 0 1.667h-2.5a.833.833 0 1 1 0-1.667h.417v-5h-1.667v.463a.833.833 0 0 1-1.667 0z" xmlns="http://www.w3.org/2000/svg" /></svg>