<svg xmlns="http://www.w3.org/2000/svg" viewBox="0 0 20 20" fill-rule="evenodd" clip-rule="evenodd"><path d="M12.083 1.835a2.75 2.75 0 0 1 2.749 2.748c0 .52-.147 1.004-.397 1.419h.898a2.33 2.33 0 0 1 2.332 2.332v1.17c0 .558-.307 1.044-.76 1.302V15a3.165 3.165 0 0 1-3.165 3.165H6.16A3.165 3.165 0 0 1 2.995 15v-4.254a1.5 1.5 0 0 1-.66-1.242v-1.17a2.33 2.33 0 0 1 2.332-2.332h.898A2.749 2.749 0 0 1 10 2.794a2.74 2.74 0 0 1 2.083-.959m-7.758 9.167V15c0 1.013.822 1.835 1.835 1.835h3.175v-5.833zm6.34 0v5.833h3.075A1.835 1.835 0 0 0 15.575 15v-3.998zm0-1.33h5.502a.17.17 0 0 0 .168-.168v-1.17c0-.553-.449-1.002-1.002-1.002h-4.668zm-5.998-2.34c-.553 0-1.002.449-1.002 1.002v1.17c0 .093.075.168.168.168h5.502v-2.34zm3.249-4.167a1.418 1.418 0 0 0 0 2.837h1.419V4.583c0-.783-.636-1.418-1.419-1.418m4.167 0c-.783 0-1.418.635-1.418 1.418v1.419h1.418a1.42 1.42 0 0 0 0-2.837" xmlns="http://www.w3.org/2000/svg" /></svg>