<svg xmlns="http://www.w3.org/2000/svg" viewBox="0 0 20 20"><path d="M10 2.125a7.875 7.875 0 1 1 0 15.75 7.875 7.875 0 0 1 0-15.75m-2.113 8.5c.056 1.691.338 3.188.753 4.28.233.614.495 1.068.755 1.358s.465.362.605.362.346-.073.605-.362c.26-.29.522-.744.755-1.358.415-1.092.697-2.589.753-4.28zm-4.482 0a6.63 6.63 0 0 0 4.493 5.657 7 7 0 0 1-.427-.933c-.477-1.257-.777-2.91-.834-4.724zm9.958 0c-.057 1.814-.357 3.467-.834 4.724a7 7 0 0 1-.428.933 6.63 6.63 0 0 0 4.494-5.657zm-1.262-6.908c.157.285.301.6.428.934.477 1.257.777 2.91.834 4.724h3.232A6.63 6.63 0 0 0 12.1 3.717M10 3.375c-.14 0-.346.073-.605.362-.26.29-.522.744-.755 1.358-.415 1.092-.697 2.589-.753 4.28h4.226c-.056-1.691-.338-3.188-.753-4.28-.233-.614-.495-1.068-.755-1.358s-.465-.362-.605-.362m-2.102.342a6.63 6.63 0 0 0-4.493 5.658h3.232c.057-1.814.357-3.467.834-4.724q.191-.504.427-.934" xmlns="http://www.w3.org/2000/svg" /></svg>