<svg xmlns="http://www.w3.org/2000/svg" viewBox="0 0 20 20"><path d="M2.668 11V3.333a.665.665 0 0 1 1.33 0V11c0 .711.001 1.205.033 1.588.03.376.087.587.167.745l.07.126c.177.288.43.522.732.676l.13.056c.144.051.333.089.615.112.384.031.877.032 1.588.032H15l.068.007-.955-.955-.085-.104a.666.666 0 0 1 .922-.921l.104.085 2.083 2.083c.26.26.26.68 0 .94l-2.083 2.084a.666.666 0 0 1-.941-.941l.954-.954-.067.006H7.333c-.689 0-1.246 0-1.696-.037-.4-.033-.761-.097-1.098-.24l-.142-.068a3.17 3.17 0 0 1-1.262-1.165l-.122-.218c-.192-.377-.271-.783-.309-1.24-.036-.45-.036-1.008-.036-1.697m12.997 4q-.002.034-.007.067l.068-.068-.069-.067q.006.033.008.068m-3.999-6.082.135.014a.665.665 0 0 1 0 1.303l-.135.013H7.5a.665.665 0 0 1 0-1.33zm2.5-4.583.135.014a.665.665 0 0 1 0 1.303l-.135.013H7.5a.665.665 0 0 1 0-1.33z" xmlns="http://www.w3.org/2000/svg" /></svg>