<svg xmlns="http://www.w3.org/2000/svg" viewBox="0 0 20 20"><path d="M2.53 2.529a.67.67 0 0 1 .836-.085l.105.085 14 14 .085.105a.667.667 0 0 1-.922.921l-.105-.085-14-14-.085-.104a.666.666 0 0 1 .085-.837M12.728 15.315a3.3 3.3 0 0 1-.798.571c-.405.206-.835.288-1.303.327-.451.036-1.005.037-1.676.037H6.466c-.671 0-1.225 0-1.676-.037-.468-.039-.9-.12-1.304-.327A3.33 3.33 0 0 1 2.03 14.43c-.206-.404-.289-.834-.327-1.302-.037-.451-.036-1.006-.036-1.676V8.549c0-.671 0-1.225.036-1.676.038-.468.121-.899.327-1.303q.159-.31.375-.577zM17.107 5.573c.812-.69 2.06-.112 2.06.953v6.947c0 1.066-1.248 1.643-2.06.953l-.619-.526-1.41-1.41a1.3 1.3 0 0 1-.078-.433V7.942c0-.366.161-.715.44-.952zM8.951 3.75c.671 0 1.225 0 1.676.037.468.038.898.12 1.303.326.627.32 1.137.83 1.457 1.457.206.404.288.835.326 1.303.037.45.037 1.005.037 1.676v2.613L6.338 3.75z" xmlns="http://www.w3.org/2000/svg" /></svg>