<svg xmlns="http://www.w3.org/2000/svg" viewBox="0 0 20 20"><path d="M4.487 7.485c.475.026.929.217 1.325.575l.205.18q.085.07.16.115l.129.062c.138.056.309.097.534.139l.294.069c1.443.411 2.528 1.807 2.343 3.406v.001l-.207 2.5-.011.076c-.328 1.625-1.514 2.724-3.133 2.724H.833a.666.666 0 0 1 0-1.33h5.293c.895 0 1.596-.559 1.822-1.63l.204-2.45.003-.027c.112-.891-.5-1.739-1.38-1.99l-.178-.042c-.306-.057-.714-.14-1.09-.36a2.6 2.6 0 0 1-.333-.234l-.255-.223c-.186-.168-.355-.225-.503-.233a1 1 0 0 0-.547.153c-.37.21-.72.614-.93 1.073l-.08.2c-.204.579-.758 1.259-1.609 1.259H.833a.665.665 0 0 1 0-1.33h.417c.037 0 .093-.013.165-.077a.7.7 0 0 0 .19-.295l.12-.297c.31-.688.841-1.321 1.485-1.688.374-.214.812-.35 1.277-.326m11.109 0c.453-.018.878.125 1.239.34.71.423 1.283 1.181 1.56 1.972l.038.088a.7.7 0 0 0 .152.206c.072.064.128.077.165.077h.417l.134.014a.665.665 0 0 1 0 1.302l-.134.014h-.417c-.745 0-1.262-.52-1.517-1.04l-.092-.22c-.189-.537-.58-1.028-.987-1.27-.197-.118-.37-.16-.506-.155a.6.6 0 0 0-.31.106l-.116.094c-.106.1-.255.245-.436.378l-.19.125c-.272.158-.56.244-.814.298l-.241.046c-.977.169-1.713 1.001-1.707 1.862l.01.173.004.027.203 2.452c.226 1.07.928 1.628 1.823 1.628h5.293l.134.013a.666.666 0 0 1 0 1.303l-.134.014h-5.293c-1.518 0-2.656-.966-3.062-2.426l-.07-.298-.012-.076-.207-2.5c-.202-1.755 1.21-3.21 2.792-3.482l.193-.037a1.4 1.4 0 0 0 .418-.146l.08-.055c.083-.06.172-.143.304-.267l.144-.126a1.93 1.93 0 0 1 1.142-.435M5.406 3.55a.666.666 0 0 1 .84-.012l.097.094 1.071 1.277.075.112a.665.665 0 0 1-.998.836l-.096-.093-1.072-1.277-.075-.111a.666.666 0 0 1 .157-.826m8.586-.012a.666.666 0 0 1 .922.95l-1.071 1.276a.665.665 0 0 1-1.019-.855l1.072-1.277zm-3.877-1.703c.367 0 .665.298.665.665v1.667a.666.666 0 0 1-1.33 0V2.5c0-.367.298-.665.665-.665" xmlns="http://www.w3.org/2000/svg" /></svg>