<svg xmlns="http://www.w3.org/2000/svg" viewBox="0 0 20 20"><path d="M14.335 17.5v-1.835H12.5a.665.665 0 0 1 0-1.33h1.835V12.5a.665.665 0 0 1 1.33 0v1.835H17.5l.134.014a.665.665 0 0 1 0 1.303l-.134.013h-1.835V17.5a.666.666 0 0 1-1.33 0m1.666-9.167v-1c0-.71 0-1.204-.031-1.588a2.4 2.4 0 0 0-.112-.615L15.802 5a1.84 1.84 0 0 0-.676-.731L15 4.199c-.158-.08-.37-.138-.745-.168-.383-.032-.877-.033-1.588-.033H9.164a.7.7 0 0 1-.015.146l-.533-.118.533.118L8.693 6.2c-.106.473-.185.863-.354 1.193l-.077.138a2.3 2.3 0 0 1-.519.58l-.212.151c-.27.168-.58.258-.946.344l-.386.087-2.055.456-.118-.533.118.533a.7.7 0 0 1-.146.015v3.502c0 .711.001 1.205.033 1.588.03.376.087.587.167.745l.07.127c.177.288.43.522.732.676l.13.056c.144.051.333.089.615.112.384.031.877.031 1.588.031h.951a.665.665 0 0 1 0 1.33h-.95c-.69 0-1.247.001-1.697-.036-.4-.033-.761-.097-1.098-.241l-.142-.067a3.17 3.17 0 0 1-1.262-1.165l-.122-.218c-.192-.377-.271-.783-.309-1.241-.036-.45-.036-1.008-.036-1.697V9c0-1.56.921-3.137 2.094-4.294C5.933 3.552 7.508 2.667 9 2.67h3.666c.69 0 1.246-.001 1.697.035.458.038.864.117 1.24.309l.219.122c.495.304.9.74 1.165 1.262l.066.142c.144.337.21.697.242 1.098.037.45.036 1.007.036 1.696v1a.665.665 0 0 1-1.33 0M7.76 4.262c-.698.277-1.424.76-2.064 1.392-.654.644-1.158 1.383-1.442 2.108l1.657-.368.396-.09c.319-.076.43-.114.518-.17l.09-.063a1 1 0 0 0 .219-.245l.052-.104c.05-.124.102-.333.208-.81z" xmlns="http://www.w3.org/2000/svg" /></svg>