<svg xmlns="http://www.w3.org/2000/svg" viewBox="0 0 28 28" fill="none"><rect width="28" height="28" fill="#fff" rx="14" xmlns="http://www.w3.org/2000/svg" /><rect width="27" height="27" x=".5" y=".5" stroke="#0d0d0d" stroke-opacity=".1" rx="13.5" xmlns="http://www.w3.org/2000/svg" /><path fill="#dc6f54" d="M5.854 7.62A2.546 2.546 0 0 1 8.4 5.074h1.587c.53 0 .958.43.958.959s.43.958.959.958h4.192c.53 0 .959-.43.959-.958 0-.53.429-.959.958-.959H19.6a2.546 2.546 0 0 1 2.546 2.546v12.788a2.875 2.875 0 0 1-2.875 2.875H8.729a2.875 2.875 0 0 1-2.875-2.875z" xmlns="http://www.w3.org/2000/svg" /><g filter="url(#6e9bd1__a)" fill="#fff" xmlns="http://www.w3.org/2000/svg"><rect width="13.417" height="15.333" x="7.292" y="6.512" rx="1.438" /></g><path fill="#f03850" d="M12.17 13.247c1.62-.886 2.026-1.944 1.717-2.694a1.17 1.17 0 0 0-.826-.701c-.322-.07-.674 0-.982.24a1.18 1.18 0 0 0-.982-.24c-.365.08-.678.338-.827.7-.308.75.098 1.81 1.717 2.695a.19.19 0 0 0 .184 0" xmlns="http://www.w3.org/2000/svg" /><g filter="url(#6e9bd1__b)" fill="url(#6e9bd1__c)" xmlns="http://www.w3.org/2000/svg"><path d="M14 3.156c1.159 0 2.126.824 2.348 1.917h1.486V6.99c0 .53-.43.958-.96.958h-5.75a.96.96 0 0 1-.957-.958V5.073h1.485A2.4 2.4 0 0 1 14 3.156" /></g><path stroke="#bdbbbb" stroke-linecap="round" stroke-linejoin="round" stroke-width="1.438" d="M10.646 15.856h6.708M10.646 18.73h3.833" xmlns="http://www.w3.org/2000/svg" /><defs xmlns="http://www.w3.org/2000/svg"><filter id="6e9bd1__a" width="14.375" height="16.292" x="6.813" y="6.272" color-interpolation-filters="sRGB" filterUnits="userSpaceOnUse"><feFlood flood-opacity="0" result="BackgroundImageFix" /><feColorMatrix in="SourceAlpha" result="hardAlpha" values="0 0 0 0 0 0 0 0 0 0 0 0 0 0 0 0 0 0 127 0" /><feOffset dy=".24" /><feGaussianBlur stdDeviation=".24" /><feComposite in2="hardAlpha" operator="out" /><feColorMatrix values="0 0 0 0 0 0 0 0 0 0 0 0 0 0 0 0 0 0 0.3 0" /><feBlend in2="BackgroundImageFix" result="effect1_dropShadow_12285_29233" /><feBlend in="SourceGraphic" in2="effect1_dropShadow_12285_29233" result="shape" /></filter><filter id="6e9bd1__b" width="7.667" height="5.033" x="10.167" y="3.156" color-interpolation-filters="sRGB" filterUnits="userSpaceOnUse"><feFlood flood-opacity="0" result="BackgroundImageFix" /><feColorMatrix in="SourceAlpha" result="hardAlpha" values="0 0 0 0 0 0 0 0 0 0 0 0 0 0 0 0 0 0 127 0" /><feOffset dy=".24" /><feComposite in2="hardAlpha" operator="out" /><feColorMatrix values="0 0 0 0 0 0 0 0 0 0 0 0 0 0 0 0 0 0 0.5 0" /><feBlend in2="BackgroundImageFix" result="effect1_dropShadow_12285_29233" /><feBlend in="SourceGraphic" in2="effect1_dropShadow_12285_29233" result="shape" /></filter><linearGradient id="6e9bd1__c" x1="14" x2="14" y1="3.156" y2="7.948" gradientUnits="userSpaceOnUse"><stop stop-color="#d8d8d8" /><stop offset="1" stop-color="#ababab" /></linearGradient></defs></svg>