<svg xmlns="http://www.w3.org/2000/svg" viewBox="0 0 20 20"><path d="M7.945 14.028a1.974 1.974 0 1 0-3.947 0 1.974 1.974 0 0 0 3.947 0m8.056 0a1.974 1.974 0 1 0-3.947 0 1.974 1.974 0 0 0 3.947 0M7.945 5.972a1.974 1.974 0 1 0-3.947 0 1.974 1.974 0 0 0 3.947 0m8.056 0a1.974 1.974 0 1 0-3.947 0 1.974 1.974 0 0 0 3.947 0m-6.726 8.056a3.304 3.304 0 1 1-6.607 0 3.304 3.304 0 0 1 6.607 0m8.056 0a3.304 3.304 0 1 1-6.607 0 3.304 3.304 0 0 1 6.607 0M9.275 5.972a3.304 3.304 0 1 1-6.607 0 3.304 3.304 0 0 1 6.607 0m8.056 0a3.304 3.304 0 1 1-6.607 0 3.304 3.304 0 0 1 6.607 0" xmlns="http://www.w3.org/2000/svg" /></svg>