<svg xmlns="http://www.w3.org/2000/svg" viewBox="0 0 20 20"><path d="M3.502 11.833V8.166c0-.689 0-1.246.036-1.696.037-.458.117-.864.308-1.24l.123-.218c.304-.496.74-.9 1.261-1.165l.143-.067c.336-.145.697-.209 1.097-.242.45-.036 1.008-.037 1.697-.037h.167l.134.014a.666.666 0 0 1 0 1.303l-.134.013h-.167c-.711 0-1.205.001-1.588.033-.282.023-.472.06-.615.112l-.13.056a1.84 1.84 0 0 0-.732.675l-.07.126c-.08.158-.137.37-.168.745-.031.384-.032.877-.032 1.588v3.667c0 .711 0 1.205.032 1.588.03.376.087.587.168.745l.07.126c.177.288.43.522.732.676l.13.057c.143.051.333.088.615.111.383.031.877.032 1.588.032h3.667c.71 0 1.204 0 1.588-.032.375-.03.587-.087.745-.168l.126-.07c.287-.176.522-.43.676-.732l.055-.13c.052-.143.09-.333.113-.615.03-.383.032-.877.032-1.588v-.167a.665.665 0 0 1 1.33 0v.167c0 .69 0 1.246-.037 1.697-.033.4-.097.761-.241 1.097l-.068.143c-.265.521-.669.957-1.165 1.262l-.218.122c-.376.192-.782.27-1.24.308-.45.037-1.007.036-1.696.036H8.167c-.69 0-1.246.001-1.697-.036-.4-.032-.76-.098-1.097-.242l-.143-.066a3.17 3.17 0 0 1-1.261-1.165l-.123-.22c-.191-.376-.27-.782-.308-1.24-.037-.45-.036-1.007-.036-1.696m7.802-2.196a.665.665 0 0 1-.941-.94zM17.332 7.5a.665.665 0 0 1-1.33 0V4.94l-4.698 4.698-.47-.47-.471-.47 4.697-4.699H12.5a.665.665 0 0 1 0-1.33h4.167l.133.014c.304.062.532.33.532.651z" xmlns="http://www.w3.org/2000/svg" /></svg>