<svg xmlns="http://www.w3.org/2000/svg" viewBox="0 0 20 20"><path d="M6.466 3.75c-.671 0-1.225 0-1.676.037-.468.038-.899.12-1.303.326-.627.32-1.137.83-1.457 1.457-.206.404-.288.835-.326 1.303-.037.451-.037 1.005-.037 1.676v2.902c0 .67 0 1.224.037 1.675.038.469.12.9.326 1.304.32.627.83 1.137 1.457 1.457.404.206.835.288 1.303.326.451.037 1.005.037 1.676.037H8.95c.671 0 1.225 0 1.676-.037.468-.038.899-.12 1.303-.326a3.33 3.33 0 0 0 1.457-1.457c.206-.405.288-.835.326-1.303.037-.452.037-1.005.037-1.676V8.55c0-.67 0-1.225-.037-1.676-.038-.468-.12-.899-.326-1.303a3.33 3.33 0 0 0-1.457-1.457c-.404-.206-.835-.288-1.303-.326-.451-.037-1.005-.037-1.676-.037zM19.167 6.526c0-1.066-1.248-1.643-2.06-.952L15.441 6.99a1.25 1.25 0 0 0-.44.953v4.114c0 .367.16.715.44.953l1.666 1.416c.812.69 2.06.114 2.06-.952z" xmlns="http://www.w3.org/2000/svg" /></svg>