<svg xmlns="http://www.w3.org/2000/svg" viewBox="0 0 20 20"><path d="M8.931 17.968c.98.128 1.236-.97.48-1.333-1.097-.51-1.842-2.696-1.92-6h9.911a.634.634 0 0 0 .637-.627c0-4.442-3.608-8.04-8.039-8.04a8.04 8.04 0 0 0-8.04 8.04c0 4.107 3.089 7.46 6.971 7.96M6.225 9.37h-2.96A6.66 6.66 0 0 1 7.46 3.762C6.725 4.988 6.284 6.93 6.225 9.37m6.275 0H7.49C7.578 5.586 8.53 3.233 10 3.233c1.46 0 2.402 2.333 2.5 6.137m4.235 0h-2.97c-.069-2.46-.5-4.382-1.236-5.617a6.67 6.67 0 0 1 4.206 5.617m-13.47 1.265h2.96c.06 2.45.51 4.392 1.236 5.608a6.66 6.66 0 0 1-4.196-5.608m8.931 3.02 1.55 1.549-1.55 1.549a.65.65 0 0 0 0 .94.65.65 0 0 0 .941 0l1.55-1.548 1.548 1.549a.65.65 0 0 0 .942 0 .65.65 0 0 0 0-.941l-1.55-1.55 1.55-1.548a.65.65 0 0 0 0-.942.666.666 0 0 0-.942 0l-1.549 1.55-1.549-1.55a.666.666 0 0 0-.94 0 .65.65 0 0 0 0 .942" xmlns="http://www.w3.org/2000/svg" /></svg>