<svg xmlns="http://www.w3.org/2000/svg" viewBox="0 0 20 20"><path d="M16.835 5.9a.59.59 0 0 0-.315-.518l-.085-.036-3.27-1.09V14.52l2.9.967.07.02c.356.071.7-.2.7-.575zm-8.67-.421v10.265l3.67-1.224V4.256zm10 9.453a1.916 1.916 0 0 1-2.288 1.88l-.232-.062-2.96-.988a.6.6 0 0 0-.279-.022l-.09.022-4.21 1.404a1.9 1.9 0 0 1-1.063.043l-.148-.043-3.75-1.25a1.915 1.915 0 0 1-1.31-1.817V5.068c0-1.307 1.28-2.23 2.52-1.817l2.96.986.091.023a.6.6 0 0 0 .279-.023l4.21-1.402.148-.043c.35-.087.718-.072 1.063.043l3.75 1.25.143.053c.702.298 1.166.99 1.166 1.763zm-15-.833c0 .252.162.475.4.555l3.27 1.09V5.479l-2.9-.967a.585.585 0 0 0-.77.556z" xmlns="http://www.w3.org/2000/svg" /></svg>