<svg xmlns="http://www.w3.org/2000/svg" viewBox="0 0 20 20"><path d="M5.834 2.668a.666.666 0 0 1 0 1.33 1.835 1.835 0 0 0-1.835 1.835q0 .336.009.674.007.336.007.674c-.003.442-.027.903-.13 1.34-.104.444-.293.88-.633 1.257q-.109.119-.233.226a3 3 0 0 1 .209.204c.336.373.527.803.635 1.245.107.435.137.895.144 1.342.007.428-.008.938-.008 1.372 0 .95.722 1.731 1.647 1.825l.188.01.134.014a.666.666 0 0 1 0 1.302l-.134.014-.163-.005a3.164 3.164 0 0 1-3.002-3.16c0-.513.015-.919.008-1.35-.007-.413-.035-.757-.106-1.047a1.5 1.5 0 0 0-.33-.671c-.156-.172-.394-.338-.784-.468q-.018-.007-.034-.016a1 1 0 0 1-.075-.034q-.02-.011-.04-.024-.035-.022-.069-.05l-.034-.031a1 1 0 0 1-.054-.058l-.032-.046q-.02-.028-.037-.059l-.03-.065q-.007-.019-.016-.038l-.004-.016q-.008-.03-.014-.062-.008-.036-.013-.072l-.001-.008v-.104l.002-.015q.004-.025.009-.05.006-.04.017-.08l.004-.013q.009-.022.019-.043.011-.03.025-.059a1 1 0 0 1 .04-.063l.031-.044a.66.66 0 0 1 .272-.197q.016-.008.034-.015c.406-.135.65-.306.807-.48.156-.174.26-.391.327-.673.068-.29.091-.633.094-1.043a26 26 0 0 0-.007-.64 36 36 0 0 1-.009-.7 3.165 3.165 0 0 1 3.165-3.165M14.33 2.672a3.166 3.166 0 0 1 3.002 3.161c0 .245-.005.485-.01.71-.005.23-.01.443-.01.647.001.413.024.752.09 1.039.065.277.168.488.324.659.137.15.344.3.67.427l.148.054.044.02q.029.01.056.024l.023.01q.023.016.045.032l.037.026a1 1 0 0 1 .063.059l.023.023a1 1 0 0 1 .072.101l.01.02q.024.045.041.091l.007.015.007.031a1 1 0 0 1 .016.078l.006.045a.7.7 0 0 1-.014.198q-.004.026-.011.051l-.004.017q-.013.033-.029.064l-.011.028a1 1 0 0 1-.053.083l-.016.023a.7.7 0 0 1-.177.158q-.024.014-.05.027l-.065.028q-.01.006-.02.01c-.414.138-.662.31-.818.481s-.26.382-.324.66c-.066.286-.089.625-.09 1.038q.001.305.01.646c.005.226.01.466.01.711a3.165 3.165 0 0 1-3.165 3.165.665.665 0 0 1 0-1.33 1.836 1.836 0 0 0 1.835-1.835q-.001-.342-.01-.683c-.005-.225-.01-.454-.01-.677.001-.443.024-.903.125-1.338a2.74 2.74 0 0 1 .636-1.253 3 3 0 0 1 .223-.216 3 3 0 0 1-.223-.216 2.74 2.74 0 0 1-.636-1.254c-.1-.435-.124-.894-.125-1.337 0-.223.005-.452.01-.677q.009-.34.01-.683c0-.95-.722-1.731-1.647-1.825l-.188-.01-.134-.014a.665.665 0 0 1 .134-1.316zM11.523 5.184a.666.666 0 0 1 .289 1.298c-.318.071-.52.215-.666.409-.16.21-.281.516-.362.938q-.06.317-.087.673h.553l.134.014a.665.665 0 0 1 0 1.302l-.134.014h-.589q.002.578.004 1.209c0 1.206-.215 2.156-.702 2.816-.516.7-1.258.974-2.046.974a.665.665 0 0 1 0-1.33c.461 0 .761-.143.975-.433.242-.328.443-.942.443-2.027 0-.39-.004-.798-.005-1.209h-.58a.665.665 0 0 1 0-1.33h.615c.023-.322.057-.633.113-.923.101-.53.278-1.057.607-1.491.341-.45.818-.767 1.438-.904" xmlns="http://www.w3.org/2000/svg" /></svg>