<svg xmlns="http://www.w3.org/2000/svg" viewBox="0 0 20 20"><path d="M16.001 5c0-.553-.448-1.001-1-1.002H5c-.554 0-1.003.45-1.003 1.002v.976c0 .266.105.521.293.709l3.19 3.19.156.171c.34.415.528.937.528 1.478v3.642c0 .136.082.258.206.31l3 1.25c.221.092.464-.07.464-.31v-4.892c0-.618.246-1.211.683-1.649l3.19-3.19.067-.074c.146-.179.226-.403.226-.635zm1.33.976c0 .541-.187 1.063-.527 1.478l-.155.171-3.19 3.19a1 1 0 0 0-.294.709v4.892a1.665 1.665 0 0 1-2.305 1.537l-3-1.25a1.665 1.665 0 0 1-1.025-1.537v-3.642c0-.266-.106-.52-.294-.708l-3.19-3.19a2.33 2.33 0 0 1-.683-1.65V5A2.33 2.33 0 0 1 5 2.668h10A2.33 2.33 0 0 1 17.331 5z" xmlns="http://www.w3.org/2000/svg" /></svg>