<svg xmlns="http://www.w3.org/2000/svg" viewBox="0 0 20 20"><path d="M9.334 18.334v-1.667a.665.665 0 0 1 1.33 0v1.667a.665.665 0 0 1-1.33 0m-4.048-3.62.47.47-1.178 1.179a.665.665 0 0 1-.94-.94l1.178-1.18zm11.077.708a.665.665 0 0 1-.94.94zm0 0-.47.47-.47.47-1.18-1.178.471-.47.47-.47zM4.816 14.244a.665.665 0 0 1 .94.94zm9.428 0c.26-.26.68-.26.94 0l-.94.94a.665.665 0 0 1 0-.94M12.669 10A2.669 2.669 0 1 0 7.33 10 2.669 2.669 0 0 0 12.668 10m-9.336-.665.134.013a.666.666 0 0 1 0 1.303l-.134.014H1.668a.665.665 0 0 1 0-1.33zm15 0 .134.013a.666.666 0 0 1 0 1.303l-.133.014h-1.668a.665.665 0 0 1 0-1.33zM5.757 4.816a.665.665 0 0 1-.94.94zm9.428.94a.665.665 0 0 1-.94-.94zM3.637 3.637a.665.665 0 0 1 .836-.085l.105.085 1.178 1.18-.47.469-.47.47-1.179-1.178-.085-.105a.665.665 0 0 1 .085-.836m11.785 0a.665.665 0 1 1 .94.94l-1.178 1.18-.47-.471-.47-.47zm-6.088-.303V1.667a.665.665 0 0 1 1.33 0v1.667a.665.665 0 0 1-1.33 0M14 10a4 4 0 1 1-8-.001 4 4 0 0 1 8 0" xmlns="http://www.w3.org/2000/svg" /></svg>