<svg xmlns="http://www.w3.org/2000/svg" viewBox="0 0 20 20"><path d="M10.416 2.87a.83.83 0 0 0-.833 0l-5.55 3.204a.83.83 0 0 0-.417.722v6.408c0 .298.159.573.417.722l5.55 3.205a.83.83 0 0 0 .833 0l5.55-3.205a.83.83 0 0 0 .417-.722V6.796a.83.83 0 0 0-.417-.722zM8.75 1.425a2.5 2.5 0 0 1 2.5 0l5.55 3.205a2.5 2.5 0 0 1 1.25 2.165v6.408a2.5 2.5 0 0 1-1.25 2.165l-5.55 3.205a2.5 2.5 0 0 1-2.5 0L3.2 15.369a2.5 2.5 0 0 1-1.25-2.165V6.796A2.5 2.5 0 0 1 3.2 4.63z" xmlns="http://www.w3.org/2000/svg" /><path d="m7.867 9.538.407-1.22a.282.282 0 0 1 .534 0l.407 1.22a1.97 1.97 0 0 0 1.246 1.246l1.22.407a.282.282 0 0 1 0 .534l-1.22.407a1.97 1.97 0 0 0-1.246 1.247l-.407 1.22a.282.282 0 0 1-.534 0l-.407-1.22a1.97 1.97 0 0 0-1.247-1.247l-1.22-.406a.282.282 0 0 1 0-.535l1.22-.407a1.97 1.97 0 0 0 1.247-1.246M12.078 6.716l.254-.762c.054-.16.28-.16.334 0l.255.762c.122.368.41.657.779.78l.762.254c.16.053.16.28 0 .334l-.762.254a1.23 1.23 0 0 0-.78.779l-.254.763a.176.176 0 0 1-.334 0l-.254-.763a1.23 1.23 0 0 0-.779-.78l-.763-.253a.176.176 0 0 1 0-.334l.763-.255c.368-.122.657-.41.78-.779" xmlns="http://www.w3.org/2000/svg" /></svg>