<svg xmlns="http://www.w3.org/2000/svg" viewBox="0 0 20 20"><path fill-rule="evenodd" d="M13.75 6.835A3.165 3.165 0 0 1 16.915 10v.266a2.33 2.33 0 0 1 1.666 2.234v3.333a2.33 2.33 0 0 1-2.331 2.332h-5a2.33 2.33 0 0 1-2.332-2.332V12.5c0-1.056.703-1.948 1.667-2.234V10a3.165 3.165 0 0 1 3.165-3.165m-2.5 4.663c-.553 0-1.002.45-1.002 1.002v3.333c0 .553.449 1.002 1.002 1.002h5c.553 0 1.001-.449 1.001-1.002V12.5c0-.553-.448-1.002-1.001-1.002zm2.5-3.333A1.835 1.835 0 0 0 11.915 10v.168h3.67V10a1.835 1.835 0 0 0-1.835-1.835" clip-rule="evenodd" xmlns="http://www.w3.org/2000/svg" /><path d="M8.19 2.143a.665.665 0 0 1 1.122.714L8.245 4.532 9.32 6.324a.666.666 0 0 1-1.06.793l-.08-.108-.734-1.222-2.258 3.548h1.895l.134.014a.665.665 0 0 1 0 1.302l-.134.014H4.342l-.864 1.359-.083.106a.666.666 0 0 1-1.039-.82l.41-.645h-.683a.665.665 0 0 1 0-1.33h1.53l3.069-4.823-1.002-1.67-.058-.121A.666.666 0 0 1 6.74 2.05l.081.108.66 1.099z" xmlns="http://www.w3.org/2000/svg" /></svg>