<svg xmlns="http://www.w3.org/2000/svg" viewBox="0 0 23 23" fill="none"><circle cx="11.5" cy="11.5" r="9.583" fill="#36dec3" fill-opacity=".25" xmlns="http://www.w3.org/2000/svg" /><circle cx="11.5" cy="11.5" r="5.75" fill="#36dec3" fill-opacity=".25" xmlns="http://www.w3.org/2000/svg" /><path fill="#62e2cc" d="M11.5 21.083a9.4 9.4 0 0 1-4.804-1.281 9.66 9.66 0 0 1-3.498-3.498A9.4 9.4 0 0 1 1.917 11.5q0-2.6 1.281-4.804A9.57 9.57 0 0 1 6.696 3.21 9.3 9.3 0 0 1 11.5 1.917q.396 0 .67.287a.9.9 0 0 1 .288.671.93.93 0 0 1-.287.683.91.91 0 0 1-.671.275 7.5 7.5 0 0 0-3.845 1.03 7.67 7.67 0 0 0-2.791 2.792 7.5 7.5 0 0 0-1.03 3.845 7.5 7.5 0 0 0 1.03 3.845 7.67 7.67 0 0 0 2.79 2.791 7.5 7.5 0 0 0 3.846 1.03 7.5 7.5 0 0 0 3.845-1.03 7.67 7.67 0 0 0 2.791-2.79 7.5 7.5 0 0 0 1.03-3.846q0-1.318-.43-2.528a7.4 7.4 0 0 0-1.21-2.204q-.42-.54-.216-1.042.216-.504.73-.61.528-.12.899.334a9.3 9.3 0 0 1 1.581 2.804 9.4 9.4 0 0 1 .563 3.246 9.3 9.3 0 0 1-1.293 4.804 9.57 9.57 0 0 1-3.486 3.498 9.4 9.4 0 0 1-4.804 1.281" xmlns="http://www.w3.org/2000/svg" /><path fill="#45d8bf" d="M8.613 16.483q1.317.767 2.887.767a5.64 5.64 0 0 0 2.887-.767 5.77 5.77 0 0 0 2.084-2.096q.78-1.317.779-2.887 0-.91-.276-1.749a5.5 5.5 0 0 0-.766-1.557q-.288-.408-.827-.348a.93.93 0 0 0-.766.527q-.24.456.155 1.115a3.8 3.8 0 0 1 .563 2.012 3.73 3.73 0 0 1-.515 1.929 3.86 3.86 0 0 1-1.39 1.39 3.73 3.73 0 0 1-1.928.514 3.73 3.73 0 0 1-1.929-.515 3.86 3.86 0 0 1-1.39-1.39 3.73 3.73 0 0 1-.514-1.928q0-1.054.515-1.929a3.86 3.86 0 0 1 1.39-1.39 3.73 3.73 0 0 1 1.928-.514.91.91 0 0 0 .67-.276.93.93 0 0 0 .288-.683.9.9 0 0 0-.287-.67.9.9 0 0 0-.671-.288q-1.57 0-2.887.779a5.77 5.77 0 0 0-2.096 2.084A5.64 5.64 0 0 0 5.75 11.5q0 1.569.767 2.887a5.86 5.86 0 0 0 2.096 2.096" xmlns="http://www.w3.org/2000/svg" /><path fill="#00c2a2" d="M11.5.886q.396 0 .671.288a.9.9 0 0 1 .287.67v8.003l.108.066q.367.24.587.629.263.431.264.958 0 .527-.264.97-.252.432-.695.695a1.87 1.87 0 0 1-.958.252q-.527 0-.97-.252a2.1 2.1 0 0 1-.695-.694 1.93 1.93 0 0 1-.252-.971q0-.526.252-.958.264-.444.694-.695l.013-.007V1.845q0-.396.275-.671A.93.93 0 0 1 11.5.886" xmlns="http://www.w3.org/2000/svg" /></svg>