<svg xmlns="http://www.w3.org/2000/svg" viewBox="0 0 20 20"><path d="M15.47 17.137a.666.666 0 0 1-.94-.94zm-.94-5.94a.666.666 0 0 1 .836-.085l.105.085 2.5 2.5c.259.26.26.68 0 .94l-2.5 2.5-.471-.47-.47-.47 1.365-1.366h-1.308a5 5 0 0 1-.813-.056l-.144-.03a3.2 3.2 0 0 1-.697-.258l-.218-.121c-.335-.206-.614-.49-1.024-.9l-.495-.496.471-.47.47-.47.495.495c.454.454.609.602.778.706l.126.071q.193.098.404.149l.156.028c.171.02.412.022.894.022h.904l-1.365-1.364-.085-.104a.666.666 0 0 1 .085-.836m0-8.334a.666.666 0 0 1 .836-.085l.105.085 2.5 2.5.085.104a.67.67 0 0 1 0 .733l-.085.104-2.5 2.5a.666.666 0 0 1-.942-.941l1.365-1.365h-.904c-.482 0-.723.003-.894.024l-.156.027q-.21.051-.404.15l-.126.07a2 2 0 0 0-.282.222l-.496.484-6.823 6.823c-.36.359-.617.622-.9.82l-.124.08a3.2 3.2 0 0 1-.676.312l-.239.068c-.287.068-.585.083-.963.086l-.407.001-.134-.013a.665.665 0 0 1 .134-1.317l.701-.008c.16-.006.262-.02.359-.043l.138-.039q.207-.067.392-.18l.129-.091c.136-.107.308-.275.65-.616l6.822-6.823.286-.285c.268-.262.487-.461.738-.615l.218-.122q.332-.17.697-.257l.144-.03c.34-.06.709-.058 1.216-.058h.904l-1.365-1.364-.085-.104a.666.666 0 0 1 .085-.837m-3.334 9.167c.26-.26.681-.26.94 0l-.94.94a.665.665 0 0 1 0-.94M2.907 4.335c.378.003.676.018.963.087l.24.068q.356.114.675.311l.123.081c.284.198.542.46.9.82L7.138 7.03l.085.104a.665.665 0 0 1-.921.921l-.105-.085-1.328-1.328c-.341-.341-.513-.51-.65-.616l-.128-.09a1.8 1.8 0 0 0-.392-.18l-.138-.04a2 2 0 0 0-.359-.043L2.5 5.665l-.134-.013A.665.665 0 0 1 2.5 4.335z" xmlns="http://www.w3.org/2000/svg" /></svg>