<svg xmlns="http://www.w3.org/2000/svg" viewBox="0 0 20 20"><path d="M2.666 12.25V9.167a.665.665 0 0 1 1.33 0v3.083c0 .71 0 1.204.032 1.588.03.375.087.587.168.745l.07.127c.177.287.43.52.732.674l.13.057c.144.051.334.09.615.112.384.032.877.032 1.588.032h7.94l-.948-.948-.085-.104a.665.665 0 0 1 .921-.922l.105.086 2.083 2.083c.26.26.26.68 0 .94l-2.083 2.083a.665.665 0 1 1-.94-.94l.948-.948h-7.94c-.69 0-1.247 0-1.697-.036-.4-.033-.762-.098-1.099-.243l-.142-.066a3.17 3.17 0 0 1-1.26-1.165l-.123-.218c-.192-.377-.271-.783-.309-1.241-.036-.45-.036-1.007-.036-1.696M10 11.002a.665.665 0 0 1 0 1.33H7.5a.665.665 0 0 1 0-1.33zM16 10V7.75c0-.711-.002-1.205-.033-1.588a2.4 2.4 0 0 0-.111-.614l-.057-.131a1.84 1.84 0 0 0-.675-.73l-.127-.072c-.158-.08-.37-.137-.745-.168-.383-.031-.877-.032-1.588-.032h-7.93l.948.948.085.104a.665.665 0 0 1-.921.921l-.105-.085L2.657 4.22l-.47-.47 2.554-2.554.105-.085a.666.666 0 0 1 .836 1.026l-.947.948h7.93c.688 0 1.245 0 1.696.037.457.037.863.116 1.24.308l.219.122c.495.304.9.74 1.165 1.261l.066.143c.144.336.21.698.242 1.098.037.45.036 1.007.036 1.696V10A.665.665 0 1 1 16 10m-3.5-2.331.134.013a.666.666 0 0 1 0 1.303l-.134.014h-5a.665.665 0 0 1 0-1.33z" xmlns="http://www.w3.org/2000/svg" /></svg>