<svg xmlns="http://www.w3.org/2000/svg" viewBox="0 0 20 20"><path d="M10.625 7.917c0-.346.28-.625.625-.625h.833c.345 0 .625.28.625.625v4.166c0 .345-.28.625-.625.625h-.833a.625.625 0 0 1-.625-.625zM7.917 7.292a.625.625 0 0 0-.625.625v4.166c0 .345.28.625.625.625h.833c.345 0 .625-.28.625-.625V7.917a.625.625 0 0 0-.625-.625z" xmlns="http://www.w3.org/2000/svg" /><path fill-rule="evenodd" d="M10 2.085a7.915 7.915 0 1 1 0 15.83 7.915 7.915 0 0 1 0-15.83m0 1.33a6.585 6.585 0 1 0 0 13.17 6.585 6.585 0 0 0 0-13.17" clip-rule="evenodd" xmlns="http://www.w3.org/2000/svg" /></svg>