<svg xmlns="http://www.w3.org/2000/svg" viewBox="0 0 24 24" fill="none"><path fill="var(--jpg-icon-c0, #608dff)" d="M13 2.594q.4 0 .813.225t.925.726l4.95 4.899q.813.813.813 1.65v7.45q0 1.089-.537 2.013a4 4 0 0 1-1.463 1.45 3.87 3.87 0 0 1-2 .538H7.5q-1.088 0-2.013-.539a4.03 4.03 0 0 1-1.45-1.449 3.94 3.94 0 0 1-.538-2.012V6.595q0-1.088.537-2a4 4 0 0 1 1.45-1.463A3.94 3.94 0 0 1 7.5 2.594z" xmlns="http://www.w3.org/2000/svg" /><path fill="var(--jpg-icon-c1, #83a6ff)" d="M13 2.594q.4 0 .813.225t.925.725l4.95 4.9q.813.813.813 1.65h-4.788q-1.25 0-1.987-.725Q13 8.632 13 7.382z" xmlns="http://www.w3.org/2000/svg" /><path fill="var(--jpg-icon-c2, #fefefe)" d="M14.734 18.007c-1.06 0-1.685-.793-1.685-1.88 0-1.092.709-1.895 1.775-1.895.887 0 1.506.494 1.611 1.229h-.73c-.104-.4-.44-.599-.855-.599h-.047c-.599 0-1.04.483-1.04 1.265 0 .778.452 1.255 1.06 1.255h.043c.504 0 .882-.33.945-.798h-.93v-.588H16c.304 0 .467.168.467.467v1.497h-.61v-.478c-.183.278-.598.525-1.123.525" xmlns="http://www.w3.org/2000/svg" /><path fill="var(--jpg-icon-c3, #fefefe)" d="M9.834 17.96v-3.675h1.654c.708 0 1.181.42 1.181 1.155s-.473 1.16-1.181 1.16h-.945v1.36zm1.575-1.99c.367 0 .551-.215.551-.53s-.184-.525-.551-.525h-.866v1.055z" xmlns="http://www.w3.org/2000/svg" /><path fill="var(--jpg-icon-c4, #fefefe)" d="M7.298 17.96v-.683h.578c.3 0 .41-.11.41-.41v-2.582h.708v2.75c0 .594-.33.925-.95.925z" xmlns="http://www.w3.org/2000/svg" /></svg>