<svg xmlns="http://www.w3.org/2000/svg" viewBox="0 0 16 16"><path d="M8.001 9.677A.767.767 0 1 1 8 11.212.767.767 0 0 1 8 9.677M8.001 4.544c.368 0 .667.299.667.667v2.667a.667.667 0 0 1-1.334 0V5.21c0-.368.299-.667.667-.667" xmlns="http://www.w3.org/2000/svg" /><path fill-rule="evenodd" d="M7.198 1.168a2 2 0 0 1 1.604 0l4 1.75A2 2 0 0 1 14 4.75v3.795a6 6 0 0 1-12 0V4.75a2 2 0 0 1 1.198-1.832zm1.07 1.221a.67.67 0 0 0-.535 0l-4 1.75a.67.67 0 0 0-.399.61v3.796a4.667 4.667 0 1 0 9.333 0V4.75a.67.67 0 0 0-.4-.61z" clip-rule="evenodd" xmlns="http://www.w3.org/2000/svg" /></svg>