<svg xmlns="http://www.w3.org/2000/svg" viewBox="0 0 20 20"><path d="M5.5 2.668a.665.665 0 0 1 0 1.33c-.63 0-1.085.48-1.085 1.002v2.5c0 .861-.482 1.599-1.174 2l-.141.076c-.15.074-.274.165-.351.254-.074.085-.084.14-.084.17s.01.084.084.169c.077.089.2.18.35.255l.142.075A2.32 2.32 0 0 1 4.415 12.5V15c0 .49.4.941.969.996l.116.005.134.014a.666.666 0 0 1 0 1.302l-.134.014-.242-.012C4.063 17.203 3.085 16.235 3.085 15v-2.5a.98.98 0 0 0-.448-.81l-.127-.075c-.47-.232-1.175-.757-1.175-1.615s.704-1.383 1.175-1.616l.127-.073a.98.98 0 0 0 .448-.811V5c0-1.317 1.113-2.332 2.415-2.332M14.742 2.68c1.195.116 2.173 1.085 2.173 2.32v2.5c0 .368.22.708.575.884l.186.1c.45.268.989.765.989 1.516 0 .75-.54 1.247-.99 1.515l-.185.1a1 1 0 0 0-.575.885V15c0 1.317-1.113 2.331-2.415 2.331a.665.665 0 0 1 0-1.33c.63 0 1.085-.479 1.085-1.001v-2.5c0-.919.548-1.697 1.315-2.076l.108-.059a1 1 0 0 0 .243-.196c.074-.085.084-.14.084-.169 0-.03-.01-.085-.084-.17a1 1 0 0 0-.243-.195l-.108-.059c-.767-.38-1.315-1.157-1.315-2.076V5c0-.49-.4-.941-.969-.996l-.116-.006-.134-.014a.665.665 0 0 1 .134-1.316zM12.634 12.682a.665.665 0 0 1 0 1.302l-.134.014h-5a.665.665 0 1 1 0-1.33h5zM12.634 9.349a.665.665 0 0 1 0 1.302l-.134.014h-5a.665.665 0 1 1 0-1.33h5zM12.634 6.016a.665.665 0 0 1 0 1.302l-.134.014h-5a.665.665 0 0 1 0-1.33h5z" xmlns="http://www.w3.org/2000/svg" /></svg>