<svg xmlns="http://www.w3.org/2000/svg" viewBox="0 0 20 20"><path d="M16.335 10c0-.037-.032-.092-.104-.103-1.844-.266-3.268-.797-4.293-1.816-.96-.956-1.49-2.262-1.776-3.936l-.054-.34c-.013-.093-.086-.14-.143-.14a.14.14 0 0 0-.113.065l-.02.05c-.423 1.822-.947 3.241-1.903 4.263-.914.976-2.147 1.514-3.819 1.8l-.34.053c-.073.011-.105.068-.105.104s.032.093.106.104l.34.053c1.671.286 2.904.824 3.818 1.8.956 1.022 1.48 2.44 1.903 4.264a.14.14 0 0 0 .133.114c.057 0 .13-.047.143-.14.27-1.838.805-3.256 1.83-4.276s2.45-1.55 4.293-1.817l.046-.014a.11.11 0 0 0 .058-.088m1.33 0a1.44 1.44 0 0 1-1.116 1.395l-.127.024c-1.712.247-2.81.711-3.545 1.443-.736.732-1.203 1.822-1.453 3.527a1.484 1.484 0 0 1-1.46 1.276 1.47 1.47 0 0 1-1.428-1.143c-.412-1.776-.874-2.903-1.579-3.657-.644-.688-1.563-1.138-3.07-1.396l-.31-.05A1.444 1.444 0 0 1 2.335 10c0-.734.554-1.319 1.242-1.42l.31-.049c1.507-.258 2.426-.708 3.07-1.396.705-.754 1.167-1.88 1.58-3.656l.032-.122a1.47 1.47 0 0 1 1.396-1.022c.753 0 1.355.568 1.459 1.276l.104.612c.267 1.36.705 2.275 1.349 2.915.736.732 1.833 1.196 3.545 1.443.69.1 1.243.686 1.243 1.419" xmlns="http://www.w3.org/2000/svg" /></svg>