<svg xmlns="http://www.w3.org/2000/svg" viewBox="0 0 24 24" fill="none"><path fill="url(#7e3389__a)" d="M13.004 2.594q.4 0 .812.224.412.226.925.726l4.95 4.9q.813.812.813 1.65v7.45q0 1.088-.538 2.013a4 4 0 0 1-1.463 1.449 3.87 3.87 0 0 1-2 .538h-9q-1.086 0-2.012-.538a4.03 4.03 0 0 1-1.45-1.45 3.94 3.94 0 0 1-.537-2.012V6.594q0-1.088.537-2A4 4 0 0 1 5.49 3.13a3.94 3.94 0 0 1 2.013-.537z" xmlns="http://www.w3.org/2000/svg" /><path fill="url(#7e3389__b)" d="M14.675 8.594H9.332c-1.01 0-1.828.818-1.828 1.828v5.344c0 1.01.818 1.828 1.828 1.828h5.343c1.01 0 1.828-.819 1.828-1.828v-5.344c0-1.01-.818-1.828-1.828-1.828" xmlns="http://www.w3.org/2000/svg" /><path fill="url(#7e3389__c)" fill-opacity=".65" d="M14.675 8.594H9.332c-1.01 0-1.828.818-1.828 1.828v5.344c0 1.01.818 1.828 1.828 1.828h5.343c1.01 0 1.828-.819 1.828-1.828v-5.344c0-1.01-.818-1.828-1.828-1.828" xmlns="http://www.w3.org/2000/svg" /><path fill="#fff" d="m15.09 10.522-1.108 5.143h-1.324l-.654-3.085-.685 3.085H9.982l-1.064-5.142h1.092l.656 3.394.653-3.394h1.339l.683 3.394.64-3.394z" xmlns="http://www.w3.org/2000/svg" /><path fill="url(#7e3389__d)" d="M13.004 2.594q.4 0 .812.225t.925.725l4.95 4.9q.813.812.813 1.65h-4.788q-1.25 0-1.987-.725-.726-.737-.725-1.988z" xmlns="http://www.w3.org/2000/svg" /><defs xmlns="http://www.w3.org/2000/svg"><radialGradient id="7e3389__b" cx="0" cy="0" r="1" gradientTransform="rotate(45 -6.622 13.354)scale(12.7279)" gradientUnits="userSpaceOnUse"><stop offset=".081" stop-color="#367af2" /><stop offset=".872" stop-color="#001a8f" /></radialGradient><radialGradient id="7e3389__c" cx="0" cy="0" r="1" gradientTransform="matrix(0 6.3 -7.18031 0 12.004 13.994)" gradientUnits="userSpaceOnUse"><stop offset=".587" stop-color="#2763e5" stop-opacity="0" /><stop offset=".974" stop-color="#58aafe" /></radialGradient><linearGradient id="7e3389__a" x1="4.504" x2="16.003" y1="20.594" y2="7.094" gradientUnits="userSpaceOnUse"><stop stop-color="#1293f1" /><stop offset="1" stop-color="#043ccc" /></linearGradient><linearGradient id="7e3389__d" x1="16.503" x2="13.504" y1="6.094" y2="9.594" gradientUnits="userSpaceOnUse"><stop offset=".067" stop-color="#59b6fb" /><stop offset=".721" stop-color="#7a7cf4" /></linearGradient></defs></svg>