<svg xmlns="http://www.w3.org/2000/svg" viewBox="0 0 24 24" fill="none"><path fill="#ffd400" d="M10.56 11.134v11.938h-.035a2.3 2.3 0 0 1-1.288-.412l-4.174-2.85a2.56 2.56 0 0 1-.788-.876A2.4 2.4 0 0 1 4 17.81V7.96q0-.561.242-1.052z" xmlns="http://www.w3.org/2000/svg" /><path fill="#f75858" d="M19.725 5.447q.275.5.275 1.075v9.862q0 .613-.312 1.163-.3.55-.838.875l-7 4.3q-.598.365-1.29.35V11.121l9.144-5.711z" xmlns="http://www.w3.org/2000/svg" /><path fill="#8166e1" d="M20 16.385q0 .612-.312 1.162-.3.55-.838.875l-7 4.3q-.598.365-1.29.35v-5.75l9.144-5.71c.01.01.296-.175.296-.175z" xmlns="http://www.w3.org/2000/svg" /><path fill="#bdaaff" d="M10.56 17.335v5.737h-.035a2.3 2.3 0 0 1-1.288-.412l-4.174-2.85a2.56 2.56 0 0 1-.788-.876A2.4 2.4 0 0 1 4 17.81v-4.84z" xmlns="http://www.w3.org/2000/svg" /><path fill="#ffa43d" d="M4.242 6.907q.027-.056.058-.11.3-.551.838-.876L12.1 1.647q.6-.375 1.3-.362.7 0 1.287.399l4.288 2.925q.467.325.728.8l-9.142 5.712v.012z" xmlns="http://www.w3.org/2000/svg" /></svg>