<svg xmlns="http://www.w3.org/2000/svg" viewBox="0 0 20 20"><path d="M11.835 4.583a1.835 1.835 0 0 0-3.67 0c0 .093.075.168.168.168h3.333a.17.17 0 0 0 .17-.168m4.871 8.5c0 .69.001 1.246-.036 1.697-.033.4-.097.761-.241 1.097l-.067.143c-.266.521-.67.957-1.165 1.262l-.218.122c-.377.192-.783.27-1.241.308-.45.037-1.008.036-1.697.036H7.958c-.689 0-1.246.001-1.696-.036-.4-.032-.761-.098-1.098-.242l-.142-.066a3.17 3.17 0 0 1-1.262-1.165l-.122-.22c-.192-.376-.271-.782-.309-1.24-.036-.45-.036-1.007-.036-1.696v-5.65c0-.542 0-.981.023-1.338.023-.362.073-.686.194-.995A3.17 3.17 0 0 1 5.308 3.3l.235-.077c.239-.066.49-.099.761-.116.257-.017.557-.02.907-.022a3.164 3.164 0 0 1 5.577 0c.351.001.651.005.909.022.362.023.686.073.995.193l.152.065c.752.34 1.345.96 1.647 1.734l.078.235c.065.239.097.489.115.76.023.357.022.796.022 1.339zm-3.54-8.5c0 .828-.672 1.498-1.5 1.498H8.333c-.827 0-1.498-.67-1.498-1.498q0-.083.004-.164-.253.003-.45.016a2.5 2.5 0 0 0-.492.07l-.106.035a1.84 1.84 0 0 0-1.043 1.043c-.05.129-.086.3-.105.598-.02.304-.02.693-.02 1.253v5.65c0 .71.001 1.204.033 1.587.03.376.087.587.167.745l.07.126c.177.288.43.522.732.676l.13.057c.144.051.334.088.615.111.384.031.877.032 1.588.032h4.083c.711 0 1.205 0 1.588-.032.376-.03.587-.087.745-.168l.127-.07c.288-.176.522-.43.676-.732l.056-.13c.051-.143.089-.333.112-.615.031-.383.031-.877.031-1.588v-5.65c0-.56 0-.948-.02-1.252a2.5 2.5 0 0 0-.07-.492l-.035-.106a1.84 1.84 0 0 0-.868-.964l-.175-.079c-.129-.05-.3-.086-.597-.105a10 10 0 0 0-.45-.016q.003.083.004.164" xmlns="http://www.w3.org/2000/svg" /></svg>