<svg xmlns="http://www.w3.org/2000/svg" viewBox="0 0 20 20"><path d="M10.334 3.14a.83.83 0 0 0-.668 0l-5 2.187a.83.83 0 0 0-.5.763v4.743a5.8 5.8 0 0 0 1.366 3.75A5.82 5.82 0 0 1 10 12.5a5.82 5.82 0 0 1 4.468 2.084 5.8 5.8 0 0 0 1.365-3.75V6.09a.83.83 0 0 0-.499-.763zm2.891 12.555A4.16 4.16 0 0 0 10 14.167c-1.3 0-2.46.594-3.225 1.528a5.8 5.8 0 0 0 3.225.972 5.8 5.8 0 0 0 3.225-.972M8.998 1.612a2.5 2.5 0 0 1 2.004 0l5 2.188A2.5 2.5 0 0 1 17.5 6.09v4.743a7.5 7.5 0 1 1-15 0V6.09A2.5 2.5 0 0 1 3.998 3.8zM10 7.083A1.458 1.458 0 1 0 10 10a1.458 1.458 0 0 0 0-2.917M6.875 8.542a3.125 3.125 0 1 1 6.25 0 3.125 3.125 0 0 1-6.25 0" xmlns="http://www.w3.org/2000/svg" /></svg>