<svg xmlns="http://www.w3.org/2000/svg" viewBox="0 0 21 21"><path d="M11.145 7.597a.665.665 0 0 1 .687.643l.101 3.06a.665.665 0 1 1-1.329.044l-.102-3.06a.665.665 0 0 1 .643-.687M14.145 7.458a.665.665 0 0 1 .687.642l.101 3.06a.665.665 0 1 1-1.329.045l-.102-3.06a.665.665 0 0 1 .643-.687" xmlns="http://www.w3.org/2000/svg" /><path d="M10.667 2.585a7.915 7.915 0 1 1 0 15.83 7.915 7.915 0 0 1 0-15.83m0 1.33a6.585 6.585 0 1 0 0 13.17 6.585 6.585 0 0 0 0-13.17" xmlns="http://www.w3.org/2000/svg" /></svg>