<svg xmlns="http://www.w3.org/2000/svg" viewBox="0 0 20 20"><path d="M9.516 13.525a1.33 1.33 0 0 1 1.12.072l4.468 2.436.016.007h.004a.1.1 0 0 0 .024-.008.1.1 0 0 0 .019-.017l.001-.003q.001-.003.002-.019V5.62a1.67 1.67 0 0 0-1.67-1.67h-7a1.67 1.67 0 0 0-1.67 1.67v10.373q.001.016.002.019l.001.003q.003.006.019.017.016.01.024.008h.004l.016-.007 4.467-2.436zm6.984 2.468c0 .978-.982 1.623-1.86 1.288l-.173-.08L10 14.763 5.533 17.2A1.375 1.375 0 0 1 3.5 15.993V5.62a3 3 0 0 1 3-3h7a3 3 0 0 1 3 3z" xmlns="http://www.w3.org/2000/svg" /></svg>