<svg xmlns="http://www.w3.org/2000/svg" viewBox="0 0 20 20" fill-rule="evenodd" clip-rule="evenodd"><path d="M12.828 6.424a.666.666 0 0 1 .747.747l-.017.087-1.25 4.584a.67.67 0 0 1-.466.466l-4.584 1.25a.666.666 0 0 1-.817-.817l1.25-4.583.029-.083a.67.67 0 0 1 .438-.384l4.583-1.25zm-3.954 2.45-.844 3.094 3.094-.844.844-3.094z" xmlns="http://www.w3.org/2000/svg" /><path d="M10 2.085a7.915 7.915 0 1 1 0 15.83 7.915 7.915 0 0 1 0-15.83m0 1.33a6.585 6.585 0 1 0 0 13.17 6.585 6.585 0 0 0 0-13.17" xmlns="http://www.w3.org/2000/svg" /></svg>