<svg xmlns="http://www.w3.org/2000/svg" viewBox="0 0 24 24" fill="none"><circle cx="12" cy="12" r="10" fill="#36dec3" fill-opacity=".25" xmlns="http://www.w3.org/2000/svg" /><circle cx="12" cy="12" r="6" fill="#36dec3" fill-opacity=".25" xmlns="http://www.w3.org/2000/svg" /><path fill="#36dec3" d="M12 22q-2.713 0-5.012-1.337a10.1 10.1 0 0 1-3.65-3.65Q2 14.712 2 12q0-2.713 1.338-5.012a10 10 0 0 1 3.65-3.638A9.73 9.73 0 0 1 12 2q.412 0 .7.3.3.288.3.7 0 .413-.3.712A.95.95 0 0 1 12 4Q9.825 4 7.988 5.075a8 8 0 0 0-2.913 2.912A7.8 7.8 0 0 0 4 12q0 2.175 1.075 4.012a8 8 0 0 0 2.912 2.913A7.8 7.8 0 0 0 12 20q2.175 0 4.012-1.075a8 8 0 0 0 2.913-2.913A7.8 7.8 0 0 0 20 12q0-1.375-.45-2.637a7.7 7.7 0 0 0-1.262-2.3q-.438-.563-.226-1.088.225-.525.763-.637.55-.126.938.35a9.8 9.8 0 0 1 1.65 2.925A9.8 9.8 0 0 1 22 12q0 2.713-1.35 5.012a10 10 0 0 1-3.637 3.65Q14.712 22 12 22" xmlns="http://www.w3.org/2000/svg" /><path fill="#2ec9b0" d="M8.988 17.2q1.374.8 3.012.8a5.9 5.9 0 0 0 3.012-.8 6 6 0 0 0 2.175-2.187Q18 13.638 18 12q0-.95-.288-1.825a5.7 5.7 0 0 0-.8-1.625q-.3-.425-.862-.363a.97.97 0 0 0-.8.55q-.25.476.162 1.163.588.963.588 2.1 0 1.1-.537 2.012a4.03 4.03 0 0 1-1.45 1.45A3.9 3.9 0 0 1 12 16q-1.1 0-2.012-.537a4.03 4.03 0 0 1-1.45-1.45A3.9 3.9 0 0 1 8 12q0-1.1.537-2.012a4.03 4.03 0 0 1 1.45-1.45A3.9 3.9 0 0 1 12 8a.95.95 0 0 0 .7-.287q.3-.3.3-.713 0-.412-.3-.7A.93.93 0 0 0 12 6q-1.638 0-3.012.813A6 6 0 0 0 6.8 8.988Q6 10.362 6 12t.8 3.012A6.1 6.1 0 0 0 8.988 17.2" xmlns="http://www.w3.org/2000/svg" /><path fill="#00b194" d="M12 .925q.412 0 .7.3.3.287.3.7v8.35l.112.069q.383.25.613.656.275.45.275 1t-.275 1.013q-.263.45-.725.724-.45.263-1 .263t-1.013-.263a2.15 2.15 0 0 1-.724-.724A2 2 0 0 1 10 12q0-.55.263-1 .275-.462.724-.725l.013-.007V1.925q0-.413.287-.7.3-.3.713-.3" xmlns="http://www.w3.org/2000/svg" /></svg>