<svg xmlns="http://www.w3.org/2000/svg" viewBox="0 0 20 20"><path d="M9.335 10.654a1.42 1.42 0 0 1 1.218-1.405l1.717-.246.917-4.886.011-.093a.804.804 0 0 0-1.537-.38l-.044.13-.972 3.887-.003.006a.7.7 0 0 1-.103.218l-.017.024a1 1 0 0 1-.065.07l-.026.025a.7.7 0 0 1-.229.127q-.019.007-.039.015-.016.002-.034.003a.7.7 0 0 1-.192.01l-.065-.01c-.01-.002-.022 0-.033-.003q-.02-.007-.04-.015a.7.7 0 0 1-.123-.053l-.032-.02A1 1 0 0 1 9.566 8l-.017-.016a1 1 0 0 1-.072-.079l-.013-.016A1 1 0 0 1 9.41 7.8l-.014-.03a1 1 0 0 1-.034-.095l-.005-.015-.973-3.891a.798.798 0 0 0-1.557.345l.886 4.55.013.134q-.001.015-.004.031.053.189.07.39l.063.747.008.236a2.183 2.183 0 0 1-3.01 1.965 5.17 5.17 0 0 0 10.313-.501l.002-.02v-.558c0-.572-.474-1.02-1.031-1.002l-.112.01-3.283.468a.09.09 0 0 0-.077.09c0 .882.716 1.597 1.598 1.597h.237a.665.665 0 0 1 0 1.33h-.237a2.93 2.93 0 0 1-2.928-2.928m7.16 1.038A6.498 6.498 0 0 1 3.5 11.667v-1.25q.002-.046.01-.09-.009-.088-.01-.177v-.749A2.15 2.15 0 0 1 6.092 7.3l-.57-2.93a2.128 2.128 0 0 1 4.152-.923L10 4.753l.326-1.302.052-.175a2.134 2.134 0 0 1 4.148.841l-.032.245-.834 4.443.177-.025.26-.022c1.297-.04 2.401 1 2.401 2.33v.579zM4.83 10.15a.852.852 0 0 0 1.703.02l-.002-.092-.064-.745a.82.82 0 0 0-1.637.068z" xmlns="http://www.w3.org/2000/svg" /></svg>