<svg xmlns="http://www.w3.org/2000/svg" viewBox="0 0 20 20"><path d="M16.001 8.166a.835.835 0 0 0-.835-.835h-1.441a.835.835 0 0 0-.835.835v7.835h2.026c.6 0 1.085-.485 1.085-1.085zm-12.003 6.75c0 .6.486 1.085 1.085 1.085H7.11v-4.5l-.004-.087a.835.835 0 0 0-.831-.749H4.833a.835.835 0 0 0-.835.835zM11.56 4.833a.835.835 0 0 0-.835-.835h-1.45a.835.835 0 0 0-.835.835v11.168h3.12zm1.33 1.336c.257-.107.539-.168.835-.168h1.441c1.196 0 2.165.97 2.165 2.165v6.75a2.415 2.415 0 0 1-2.415 2.415H5.083a2.415 2.415 0 0 1-2.415-2.415V11.5c0-1.195.97-2.165 2.165-2.165h1.442c.296 0 .578.06.835.167V4.833c0-1.195.97-2.165 2.165-2.165h1.45c1.196 0 2.165.97 2.165 2.165z" xmlns="http://www.w3.org/2000/svg" /></svg>