<svg xmlns="http://www.w3.org/2000/svg" viewBox="0 0 20 20"><path d="m14.751 10.96-3.744 1.794c-.557.267-1.194.301-1.771.1l-.243-.1-3.745-1.794v2.28c0 .621.314 1.2.833 1.538l.643.419.188.117a6 6 0 0 0 6.365-.117l.641-.42.186-.137c.408-.346.647-.857.647-1.4zm2.917 1.54V9.563l-1.587.76v2.918a3.17 3.17 0 0 1-1.273 2.537l-.163.114-.643.419a7.33 7.33 0 0 1-7.774.143l-.23-.143-.642-.419a3.17 3.17 0 0 1-1.438-2.651v-2.918L1.281 9.06C.146 8.516.146 6.9 1.28 6.357l7.712-3.695.243-.1a2.33 2.33 0 0 1 1.771.1l7.712 3.695.103.055c.934.534.993 1.843.176 2.475V12.5a.665.665 0 0 1-1.33 0m-7.235-8.638a1 1 0 0 0-.762-.043l-.104.043-7.711 3.694a.168.168 0 0 0 0 .304l7.71 3.695.105.043c.248.086.522.072.762-.043l7.711-3.695.042-.028a.17.17 0 0 0 0-.248l-.042-.028z" xmlns="http://www.w3.org/2000/svg" /></svg>