<svg xmlns="http://www.w3.org/2000/svg" viewBox="0 0 20 20"><path d="m16.834 7.239-5.49 3.876a2.33 2.33 0 0 1-2.534.1l-.155-.1-5.49-3.876v5.47c0 .594 0 1 .026 1.314.025.306.07.466.128.579l.055.098c.136.222.332.403.565.522l.096.041c.107.038.255.07.485.088.313.025.72.025 1.313.025h8.334c.594 0 1 0 1.313-.025.307-.025.467-.071.58-.129l.098-.055a1.4 1.4 0 0 0 .523-.565l.04-.095c.04-.107.069-.255.088-.484.025-.314.026-.72.026-1.315V7.291zM5.833 4.623c-.594 0-1 .001-1.313.027-.23.018-.378.048-.485.087l-.096.04c-.233.12-.429.3-.565.523l-.055.098c-.034.067-.063.15-.087.27q.035.018.068.038l6.122 4.323.136.08c.325.16.717.133 1.02-.08L16.7 5.706l.067-.038a1 1 0 0 0-.045-.175l-.041-.095c-.12-.234-.3-.43-.523-.566l-.098-.054c-.113-.058-.273-.103-.58-.128-.314-.026-.719-.027-1.313-.027zm12.332 8.085c0 .573 0 1.042-.03 1.423-.028.34-.084.654-.211.95l-.059.125c-.23.453-.581.831-1.011 1.095l-.19.107c-.332.169-.687.236-1.075.268-.38.031-.85.03-1.422.03H5.833c-.572 0-1.041.001-1.422-.03-.34-.028-.654-.083-.95-.21l-.125-.059a2.75 2.75 0 0 1-1.096-1.012l-.105-.189c-.17-.332-.238-.686-.27-1.075-.03-.38-.03-.85-.03-1.423V7.291c0-.572 0-1.04.03-1.422.032-.388.1-.743.27-1.075l.105-.19c.264-.43.643-.78 1.096-1.01l.125-.06c.296-.126.61-.183.95-.21.38-.032.85-.03 1.422-.03h8.334c.572 0 1.041-.002 1.422.03.388.031.743.1 1.075.27l.19.105c.43.264.78.643 1.011 1.095l.059.125c.127.296.183.61.21.95.032.381.031.85.031 1.422z" xmlns="http://www.w3.org/2000/svg" /></svg>