<svg xmlns="http://www.w3.org/2000/svg" viewBox="0 0 20 20"><path d="M2.68 4.949a2.54 2.54 0 0 1 2.528-2.28h7.458c.69 0 1.246-.001 1.697.035.458.038.864.117 1.24.309l.219.122c.495.304.899.74 1.165 1.262l.066.142c.144.337.21.697.242 1.098.037.45.036 1.007.036 1.696v5.375a2.957 2.957 0 0 1-2.956 2.957h-1.64a2.748 2.748 0 0 1-5.471 0H5.208a2.54 2.54 0 0 1-2.54-2.54v-1.459l.006-.11c.056-.545.516-.97 1.076-.97l.145-.008a1.419 1.419 0 0 0-.145-2.83 1.08 1.08 0 0 1-1.082-1.08v-1.46zM3.999 6.43a2.747 2.747 0 0 1 0 5.47v1.224c0 .668.542 1.21 1.21 1.21H7.5l.11.005c.546.056.971.517.971 1.076a1.42 1.42 0 0 0 2.837 0c0-.597.485-1.08 1.082-1.08h1.875c.899 0 1.626-.73 1.626-1.628V7.333c0-.71 0-1.204-.031-1.588a2.4 2.4 0 0 0-.112-.615L15.802 5a1.84 1.84 0 0 0-.676-.731L15 4.199c-.158-.08-.37-.138-.745-.168-.383-.032-.877-.033-1.588-.033H5.208a1.21 1.21 0 0 0-1.21 1.21z" xmlns="http://www.w3.org/2000/svg" /></svg>