<svg xmlns="http://www.w3.org/2000/svg" viewBox="0 0 20 20"><path d="M10 12.083c.69 0 1.25.746 1.25 1.667 0 .92-.56 1.667-1.25 1.667s-1.25-.746-1.25-1.667c0-.92.56-1.667 1.25-1.667M7.917 9.167c.69 0 1.25.466 1.25 1.041s-.56 1.042-1.25 1.042-1.25-.467-1.25-1.042.56-1.041 1.25-1.041M12.083 9.167c.69 0 1.25.466 1.25 1.041s-.56 1.042-1.25 1.042-1.25-.467-1.25-1.042.56-1.04 1.25-1.041" xmlns="http://www.w3.org/2000/svg" /><path fill-rule="evenodd" d="M14.936 1.835c.954 0 1.564.53 1.908 1.004a3.2 3.2 0 0 1 .434.849q.015.04.022.066l.006.021.002.008v.003l.002.002-.644.17-.249.065.893-.235a.666.666 0 0 1-1.287.34v.002h.001v.003-.003l-.008-.026a1.851 1.851 0 0 0-.248-.484c-.186-.256-.44-.455-.832-.455-.739 0-1.278.416-1.715 1.138q-.17.283-.31.601c2.586 1.057 4.42 3.48 4.42 6.346 0 3.859-3.323 6.915-7.331 6.915s-7.332-3.056-7.332-6.915c0-2.866 1.834-5.288 4.419-6.346a5 5 0 0 0-.309-.601c-.437-.722-.976-1.138-1.715-1.138-.391 0-.646.199-.832.454a1.9 1.9 0 0 0-.248.485l-.007.025-.001-.001a.664.664 0 1 1-1.285-.339l.857.226-.214-.057-.643-.169v-.003l.001-.003.002-.008.007-.021.02-.066q.027-.082.08-.213c.072-.17.185-.402.355-.636.344-.474.955-1.004 1.908-1.004 1.378 0 2.28.835 2.853 1.78.172.283.318.587.446.895a7.8 7.8 0 0 1 3.274 0c.128-.308.275-.612.447-.896.572-.944 1.476-1.779 2.852-1.779M10 5.665q-.622.001-1.206.112l.018.062.17.679.016.132a.665.665 0 0 1-1.27.293l-.043-.127-.16-.637-.004-.017c-2.092.884-3.523 2.85-3.523 5.088 0 3.045 2.646 5.585 6.002 5.585s6.001-2.54 6.001-5.585c0-2.24-1.431-4.204-3.524-5.088q-.09.336-.162.654l-.043.127a.666.666 0 0 1-1.253-.425l.168-.68.017-.06A6.5 6.5 0 0 0 10 5.664" clip-rule="evenodd" xmlns="http://www.w3.org/2000/svg" /></svg>