<svg xmlns="http://www.w3.org/2000/svg" viewBox="0 0 20 20"><path d="M3.582 10A6.42 6.42 0 0 1 10 3.582c2.031 0 3.84.945 5.017 2.42H12.5l-.134.013a.665.665 0 0 0 0 1.303l.134.014h3.75c.02 0 .039-.005.058-.007h.008a1 1 0 0 0 .118-.024l.012-.003a.7.7 0 0 0 .115-.047l.003-.001.004-.003a.7.7 0 0 0 .193-.16l.011-.012a.67.67 0 0 0 .14-.383l.003-.025v-3.75a.665.665 0 0 0-1.33 0V4.63a7.748 7.748 0 1 0 2.11 6.281l-.66-.077-.66-.079A6.419 6.419 0 0 1 3.582 10m13.53.172a.665.665 0 0 0-.737.583l1.32.156a.665.665 0 0 0-.583-.739" xmlns="http://www.w3.org/2000/svg" /></svg>