<svg xmlns="http://www.w3.org/2000/svg" viewBox="0 0 20 20"><circle cx="16" cy="4" r="4" fill="#0285ff" xmlns="http://www.w3.org/2000/svg" /><path fill-rule="evenodd" d="M10 2.043q.342 0 .675.034-.227.626-.302 1.31A5.376 5.376 0 0 0 4.691 7.91l-.034.254-.561 5.15c-.011.099.067.186.167.186h11.475a.17.17 0 0 0 .167-.15v-.037l-.401-3.677q.245.022.496.023.427-.001.838-.062l.39 3.573.008.164c0 .815-.662 1.496-1.498 1.496h-1.836a4 4 0 0 1-7.803 0H4.263a1.5 1.5 0 0 1-1.49-1.66l.562-5.15.043-.317A6.705 6.705 0 0 1 10 2.043M7.482 14.831a2.67 2.67 0 0 0 2.52 1.795c1.167 0 2.157-.75 2.519-1.795z" clip-rule="evenodd" xmlns="http://www.w3.org/2000/svg" /></svg>