<svg xmlns="http://www.w3.org/2000/svg" viewBox="0 0 24 24" fill="none"><path fill="url(#93deaf__a)" d="M13.004 2.594q.4 0 .812.224.412.226.925.726l4.95 4.9q.813.812.813 1.65v7.45q0 1.088-.538 2.013a4 4 0 0 1-1.463 1.449 3.87 3.87 0 0 1-2 .538h-9q-1.086 0-2.012-.538a4.03 4.03 0 0 1-1.45-1.45 3.94 3.94 0 0 1-.537-2.012V6.594q0-1.088.537-2A4 4 0 0 1 5.49 3.13a3.94 3.94 0 0 1 2.013-.537z" xmlns="http://www.w3.org/2000/svg" /><path fill="url(#93deaf__b)" d="M14.675 8.594H9.332c-1.01 0-1.828.818-1.828 1.828v5.344c0 1.01.818 1.828 1.828 1.828h5.343c1.01 0 1.828-.819 1.828-1.828v-5.344c0-1.01-.818-1.828-1.828-1.828" xmlns="http://www.w3.org/2000/svg" /><path fill="url(#93deaf__c)" fill-opacity=".3" d="M14.675 8.594H9.332c-1.01 0-1.828.818-1.828 1.828v5.344c0 1.01.818 1.828 1.828 1.828h5.343c1.01 0 1.828-.819 1.828-1.828v-5.344c0-1.01-.818-1.828-1.828-1.828" xmlns="http://www.w3.org/2000/svg" /><path fill="#fff" d="M11.565 13.99v1.675h-1.158v-5.143h1.789q.96 0 1.462.42.506.42.506 1.244 0 .851-.567 1.327-.563.477-1.512.477zm0-2.578V13.1h.484q.43 0 .663-.226.233-.225.233-.65 0-.39-.23-.602-.225-.21-.648-.211z" xmlns="http://www.w3.org/2000/svg" /><path fill="url(#93deaf__d)" d="M13.004 2.594q.4 0 .812.225t.925.725l4.95 4.9q.813.812.813 1.65h-4.788q-1.25 0-1.987-.725-.726-.737-.725-1.988z" xmlns="http://www.w3.org/2000/svg" /><defs xmlns="http://www.w3.org/2000/svg"><radialGradient id="93deaf__b" cx="0" cy="0" r="1" gradientTransform="rotate(45 -6.622 13.353)scale(12.7279)" gradientUnits="userSpaceOnUse"><stop stop-color="#f8193e" /><stop offset=".939" stop-color="#920616" /></radialGradient><radialGradient id="93deaf__c" cx="0" cy="0" r="1" gradientTransform="matrix(0 6.3 -7.17187 0 12.002 13.994)" gradientUnits="userSpaceOnUse"><stop offset=".576" stop-color="#ffb055" stop-opacity="0" /><stop offset=".974" stop-color="#fff2be" /></radialGradient><linearGradient id="93deaf__a" x1="4.504" x2="16.003" y1="20.594" y2="7.094" gradientUnits="userSpaceOnUse"><stop offset=".024" stop-color="#f35aaa" /><stop offset=".529" stop-color="#e1473d" /><stop offset="1" stop-color="#b0212c" /></linearGradient><linearGradient id="93deaf__d" x1="16.503" x2="13.504" y1="6.094" y2="9.594" gradientUnits="userSpaceOnUse"><stop stop-color="#ff8f29" /><stop offset=".851" stop-color="#fe80ad" /></linearGradient></defs></svg>