<svg xmlns="http://www.w3.org/2000/svg" viewBox="0 0 20 20"><path d="M6.268 11.969a.665.665 0 0 1 .84.033l.09.099.134.166c1.42 1.663 4.137 1.608 5.47-.166l.092-.099a.666.666 0 0 1 .971.897l-.184.23c-1.903 2.233-5.458 2.233-7.36 0l-.185-.23-.07-.115a.665.665 0 0 1 .202-.815M5.872 7.786a.666.666 0 0 1 .838.067l.087.102.072.095c.166.197.324.243.423.243.113 0 .302-.06.494-.338l.087-.102a.666.666 0 0 1 1.008.858l-.152.198c-.374.44-.876.714-1.437.714s-1.064-.273-1.438-.714l-.15-.198-.066-.118a.665.665 0 0 1 .234-.807M11.29 7.786a.666.666 0 0 1 .837.067l.087.102.072.095c.167.197.324.243.423.243.113 0 .303-.06.494-.338l.087-.102a.666.666 0 0 1 1.008.858l-.152.198c-.374.44-.876.714-1.437.714s-1.064-.273-1.437-.714l-.152-.198-.065-.118a.665.665 0 0 1 .234-.807" xmlns="http://www.w3.org/2000/svg" /><path fill-rule="evenodd" d="M10 2.085a7.915 7.915 0 1 1 0 15.83 7.915 7.915 0 0 1 0-15.83m0 1.33a6.585 6.585 0 1 0 0 13.17 6.585 6.585 0 0 0 0-13.17" clip-rule="evenodd" xmlns="http://www.w3.org/2000/svg" /></svg>