<svg xmlns="http://www.w3.org/2000/svg" viewBox="0 0 20 20"><path d="M14.3 8.099a.665.665 0 0 1 0 1.302l-.134.014h-.833a.665.665 0 0 1 0-1.33h.833z" xmlns="http://www.w3.org/2000/svg" /><path fill-rule="evenodd" d="M13.333 1.835c.827 0 1.498.67 1.498 1.498V5q-.002.087-.024.168H15a3.165 3.165 0 0 1 3.165 3.165v5a2.33 2.33 0 0 1-2.332 2.332h-1.001v1.002c0 .827-.672 1.498-1.499 1.498H6.667c-.827 0-1.499-.67-1.499-1.498v-1.002H4.167a2.33 2.33 0 0 1-2.332-2.332v-5A3.165 3.165 0 0 1 5 5.168h.192A.7.7 0 0 1 5.168 5V3.333c0-.827.67-1.498 1.498-1.498zM6.498 16.667c0 .093.076.168.169.168h6.666a.17.17 0 0 0 .169-.168v-4.335H6.498zM5 6.498a1.835 1.835 0 0 0-1.835 1.835v5c0 .553.449 1.002 1.002 1.002h1.001v-2.003H5a.665.665 0 0 1 0-1.33h10l.134.014a.665.665 0 0 1 0 1.302l-.134.014h-.168v2.003h1.001c.553 0 1.002-.449 1.002-1.002v-5A1.835 1.835 0 0 0 15 6.498zm1.666-3.333a.17.17 0 0 0-.168.168V5q-.001.087-.024.168h7.051A.7.7 0 0 1 13.501 5V3.333a.17.17 0 0 0-.168-.168z" clip-rule="evenodd" xmlns="http://www.w3.org/2000/svg" /></svg>