<svg xmlns="http://www.w3.org/2000/svg" viewBox="0 0 24 24" fill="none"><path fill="var(--png-icon-c0, #36dec3)" d="M13 2.594q.4 0 .813.225t.925.726l4.95 4.899q.813.813.813 1.65v7.45q0 1.089-.537 2.013a4 4 0 0 1-1.463 1.45 3.87 3.87 0 0 1-2 .538H7.5q-1.088 0-2.013-.539a4.03 4.03 0 0 1-1.45-1.449 3.94 3.94 0 0 1-.538-2.012V6.595q0-1.088.537-2a4 4 0 0 1 1.45-1.463A3.94 3.94 0 0 1 7.5 2.594z" xmlns="http://www.w3.org/2000/svg" /><path fill="var(--png-icon-c1, #9ce7db)" d="M13 2.594q.4 0 .813.225t.925.725l4.95 4.9q.813.813.813 1.65h-4.788q-1.25 0-1.987-.725Q13 8.632 13 7.382z" xmlns="http://www.w3.org/2000/svg" /><path fill="var(--png-icon-c2, white)" d="M15.64 14.28c.887 0 1.506.493 1.61 1.228h-.729c-.105-.399-.44-.598-.855-.598h-.048c-.598 0-1.04.483-1.04 1.265.001.776.453 1.253 1.061 1.253h.042c.504 0 .882-.33.945-.797h-.929v-.588h1.118c.305 0 .467.168.467.468v1.495h-.608v-.477c-.184.278-.6.524-1.124.524-1.06 0-1.685-.792-1.685-1.878 0-1.092.709-1.895 1.774-1.895" xmlns="http://www.w3.org/2000/svg" /><path fill="var(--png-icon-c3, white)" fill-rule="evenodd" d="M8.37 14.333c.71 0 1.182.42 1.183 1.154 0 .734-.473 1.16-1.182 1.16h-.945v1.359h-.708v-3.673zm-.944 1.684h.866c.367 0 .552-.216.552-.53s-.185-.525-.552-.525h-.866z" clip-rule="evenodd" xmlns="http://www.w3.org/2000/svg" /><path fill="var(--png-icon-c4, white)" d="M12.494 17.025v-2.692h.709v3.673h-.919l-1.443-2.703v2.703h-.71v-3.673h.92z" xmlns="http://www.w3.org/2000/svg" /></svg>