<svg xmlns="http://www.w3.org/2000/svg" viewBox="0 0 20 20"><path d="M14.239 10.036c.366 0 .605.23.605.586 0 .357-.234.586-.605.586h-2.784l-.166 1.958h.03c.288-.454.864-.737 1.582-.737 1.347 0 2.304.947 2.304 2.29 0 1.504-1.118 2.52-2.724 2.52-1.118 0-2.095-.523-2.447-1.27a1.1 1.1 0 0 1-.117-.484c0-.376.235-.6.615-.6.293 0 .479.102.645.366.254.508.669.815 1.304.815.766 0 1.318-.551 1.318-1.313 0-.742-.547-1.27-1.313-1.27-.42 0-.772.181-1.021.42-.288.269-.435.342-.762.342-.483 0-.713-.337-.693-.732 0-.02 0-.034.005-.059l.205-2.583c.049-.596.356-.835.928-.835zM7.354 9.929c.522 0 .835.317.835.825v5.693c0 .445-.293.738-.728.738-.434 0-.732-.293-.732-.738v-5.044h-.03l-1.03.718a.6.6 0 0 1-.39.132.503.503 0 0 1-.518-.527c0-.225.088-.391.317-.552l1.397-.967c.342-.234.576-.278.879-.278M9.998 2.75a7.32 7.32 0 0 1 6.003 3.122V4.248a.666.666 0 0 1 1.33 0v3.334a.666.666 0 0 1-.665.665h-3.334a.666.666 0 0 1 0-1.33H15.1a6.005 6.005 0 0 0-10.666.914l-.063.12a.666.666 0 0 1-1.17-.619l.107-.249A7.33 7.33 0 0 1 9.998 2.75" xmlns="http://www.w3.org/2000/svg" /></svg>