<svg xmlns="http://www.w3.org/2000/svg" viewBox="0 0 20 20"><path d="M14.238 10.036c.366 0 .606.23.606.586 0 .357-.235.586-.606.586h-2.783l-.166 1.958h.03c.287-.454.864-.737 1.581-.737 1.348 0 2.305.947 2.305 2.29 0 1.504-1.118 2.52-2.725 2.52-1.118 0-2.094-.523-2.446-1.27a1.1 1.1 0 0 1-.117-.484c0-.376.234-.6.615-.6.293 0 .479.102.645.366.254.508.669.815 1.303.815.767 0 1.319-.551 1.319-1.313 0-.742-.547-1.27-1.314-1.27-.42 0-.771.181-1.02.42-.288.269-.435.342-.762.342-.483 0-.713-.337-.693-.732 0-.02 0-.034.005-.059l.205-2.583c.049-.596.356-.835.928-.835zM7.354 9.929c.522 0 .834.317.834.825v5.693c0 .445-.293.738-.727.738-.435 0-.732-.293-.732-.738v-5.044h-.03l-1.03.718a.6.6 0 0 1-.39.132.503.503 0 0 1-.518-.527c0-.225.088-.391.317-.552l1.397-.967c.341-.234.576-.278.879-.278M10 2.75a7.33 7.33 0 0 1 6.692 4.333l.107.249.037.13a.665.665 0 0 1-1.207.488l-.064-.119-.086-.204A6.004 6.004 0 0 0 4.9 6.917h1.766l.135.014a.665.665 0 0 1 0 1.302l-.135.014H3.333a.666.666 0 0 1-.665-.665V4.248a.666.666 0 0 1 1.33 0v1.623A7.32 7.32 0 0 1 10 2.75" xmlns="http://www.w3.org/2000/svg" /></svg>