<svg xmlns="http://www.w3.org/2000/svg" viewBox="0 0 24 24" fill="none"><path fill="#bebebe" d="M7 21q-1.163 0-2.075-.5A3.66 3.66 0 0 1 3.5 19.075Q3 18.163 3 17V7q0-1.163.5-2.075a3.58 3.58 0 0 1 1.425-1.412Q5.837 3 7 3h10q1.163 0 2.075.513.913.5 1.413 1.412Q21 5.837 21 7v10q0 1.163-.512 2.075a3.6 3.6 0 0 1-1.413 1.425q-.912.5-2.075.5z" xmlns="http://www.w3.org/2000/svg" /><path fill="#4d4d4d" fill-rule="evenodd" d="M7.96 9.32a.8.8 0 0 1 1.28.96L7.8 12.2l1.44 1.92a.8.8 0 0 1-1.28.96l-1.8-2.4a.8.8 0 0 1 0-.96zM12.684 9.442a.8.8 0 0 1 1.432.716l-2.4 4.8a.8.8 0 0 1-1.432-.716zM15.32 9.16a.8.8 0 0 1 1.12.16l1.8 2.4a.8.8 0 0 1 0 .96l-1.8 2.4a.8.8 0 0 1-1.28-.96l1.44-1.92-1.44-1.92a.8.8 0 0 1 .16-1.12" clip-rule="evenodd" xmlns="http://www.w3.org/2000/svg" /></svg>