<svg xmlns="http://www.w3.org/2000/svg" viewBox="0 0 20 20"><path d="M10 10.168a1.497 1.497 0 0 1 .665 2.839v1.159a.665.665 0 0 1-1.33 0v-1.16A1.497 1.497 0 0 1 10 10.169" xmlns="http://www.w3.org/2000/svg" /><path fill-rule="evenodd" d="M10 1.835a4.83 4.83 0 0 1 4.831 4.832v.266c.274.049.53.123.773.247l.217.122c.496.304.9.74 1.165 1.261l.067.143c.144.336.21.697.242 1.098.037.45.036 1.007.036 1.696v2c0 .69 0 1.246-.036 1.696-.033.401-.098.762-.242 1.098l-.067.142c-.265.522-.669.958-1.165 1.262l-.217.122c-.377.192-.784.271-1.242.309-.45.037-1.007.036-1.696.036H7.333c-.689 0-1.246 0-1.696-.036-.4-.033-.762-.098-1.098-.242l-.143-.067a3.17 3.17 0 0 1-1.261-1.165l-.122-.219c-.192-.376-.271-.782-.309-1.24-.037-.45-.036-1.007-.036-1.696v-2c0-.69 0-1.246.036-1.696.038-.458.117-.864.309-1.24l.122-.22c.304-.495.74-.899 1.261-1.164l.143-.067c.2-.085.409-.142.629-.181v-.265A4.833 4.833 0 0 1 10 1.835m-2.667 6.33c-.71 0-1.204 0-1.588.032-.282.023-.471.06-.615.112L5 8.365a1.84 1.84 0 0 0-.731.676l-.07.126c-.081.158-.138.37-.169.745-.031.384-.032.877-.032 1.588v2c0 .711 0 1.204.032 1.588.031.376.088.587.168.745l.07.126c.177.288.43.522.732.676l.13.056c.144.052.333.089.615.112.384.031.877.032 1.588.032h5.333c.71 0 1.204-.001 1.588-.032.375-.03.587-.088.745-.168l.127-.07c.287-.177.522-.43.676-.732l.055-.13c.052-.144.09-.333.113-.615C16 14.704 16 14.21 16 13.5v-2c0-.711 0-1.204-.031-1.588a2.4 2.4 0 0 0-.113-.615l-.055-.13a1.84 1.84 0 0 0-.676-.731l-.127-.07c-.158-.081-.37-.138-.745-.169-.383-.031-.877-.032-1.588-.032zm2.667-5a3.5 3.5 0 0 0-3.502 3.502v.17q.38-.002.835-.002h5.333q.454 0 .835.003v-.171A3.5 3.5 0 0 0 10 3.165" clip-rule="evenodd" xmlns="http://www.w3.org/2000/svg" /></svg>