<svg xmlns="http://www.w3.org/2000/svg" viewBox="0 0 20 20"><path d="M10.15 9.848a1.25 1.25 0 1 1-2.476.348 1.25 1.25 0 0 1 2.476-.348" xmlns="http://www.w3.org/2000/svg" /><path d="m11.9 1.423 2.88.353c.666.082 1.215.15 1.659.241.46.095.877.23 1.253.483a3.33 3.33 0 0 1 1.269 1.624c.155.426.184.863.165 1.333-.018.452-.086 1.002-.168 1.667l-.353 2.881c-.082.666-.15 1.215-.241 1.659-.095.46-.23.877-.483 1.253a3.33 3.33 0 0 1-1.83 1.334.833.833 0 1 1-.436-1.608l.073-.023c.33-.12.614-.343.811-.635.082-.12.159-.3.233-.659.076-.368.136-.85.223-1.558l.345-2.812c.087-.709.145-1.19.16-1.567.016-.366-.015-.558-.065-.695a1.67 1.67 0 0 0-.634-.812c-.122-.082-.3-.158-.66-.233-.368-.076-.85-.135-1.558-.222L11.73 3.08c-.709-.087-1.19-.145-1.567-.16-.366-.015-.558.016-.695.066-.331.12-.615.342-.812.634-.056.082-.11.192-.16.366a.833.833 0 1 1-1.599-.474c.088-.295.205-.569.377-.824A3.33 3.33 0 0 1 8.9 1.42c.426-.155.863-.184 1.333-.165.452.019 1.002.086 1.668.168m-2.1 5.91c-.376.016-.858.074-1.566.161l-2.812.346c-.709.087-1.19.146-1.559.223-.359.074-.538.15-.659.232a1.67 1.67 0 0 0-.634.812c-.05.137-.081.33-.066.695.015.376.074.858.16 1.567l.232 1.883q.26-.284.487-.502c.326-.312.658-.57 1.063-.735a3.33 3.33 0 0 1 1.986-.168c.427.095.798.293 1.172.546.359.243.771.573 1.27.973l3.054 2.443q.177-.218.275-.483c.05-.138.08-.33.066-.696-.015-.376-.074-.858-.16-1.566l-.346-2.812c-.087-.709-.147-1.19-.223-1.56-.074-.358-.15-.537-.232-.658a1.67 1.67 0 0 0-.812-.634c-.138-.05-.33-.081-.696-.066m.32 9.163-2.26-1.808c-.532-.425-.893-.713-1.19-.915-.29-.195-.462-.268-.6-.3a1.67 1.67 0 0 0-.993.085c-.132.053-.29.155-.542.396-.259.248-.566.593-1.02 1.101l-.338.38q.027.165.056.304c.074.36.15.538.232.66.197.291.481.513.812.634.137.05.33.08.696.066.376-.015.857-.074 1.566-.161l2.812-.345c.292-.036.545-.067.768-.097M9.731 5.668c.47-.019.907.01 1.334.165.661.241 1.23.685 1.623 1.269.254.376.388.793.483 1.254.092.443.16.992.241 1.658l.354 2.88c.082.666.149 1.216.167 1.668.02.47-.01.907-.165 1.334a3.33 3.33 0 0 1-1.268 1.623c-.377.254-.794.388-1.254.483-.443.091-.993.159-1.659.24l-2.88.354c-.666.082-1.215.15-1.668.168-.47.02-.907-.01-1.333-.165a3.33 3.33 0 0 1-1.623-1.268c-.254-.377-.388-.794-.483-1.254-.092-.444-.16-.993-.241-1.659l-.354-2.88C.924 10.872.856 10.322.84 9.87c-.02-.47.01-.907.165-1.333.24-.662.685-1.23 1.268-1.624.376-.254.794-.388 1.254-.483.443-.091.993-.159 1.658-.24l2.881-.354c.666-.082 1.215-.15 1.667-.168" xmlns="http://www.w3.org/2000/svg" /></svg>