<svg xmlns="http://www.w3.org/2000/svg" viewBox="0 0 20 20"><path fill-rule="evenodd" d="M10 7.835a2.665 2.665 0 1 1 0 5.33 2.665 2.665 0 0 1 0-5.33m0 1.33a1.335 1.335 0 1 0 0 2.67 1.335 1.335 0 0 0 0-2.67" clip-rule="evenodd" xmlns="http://www.w3.org/2000/svg" /><path d="M11.802 4.679a.665.665 0 0 1 0 1.302l-.135.014H8.334a.665.665 0 0 1 0-1.33h3.333z" xmlns="http://www.w3.org/2000/svg" /><path fill-rule="evenodd" d="M12 1.835c.69 0 1.246 0 1.696.036.458.038.864.117 1.24.309l.22.122c.495.304.899.74 1.164 1.261l.067.143c.144.336.21.697.242 1.098.037.45.036 1.007.036 1.696v7c0 .69 0 1.246-.036 1.696-.033.4-.098.762-.242 1.098l-.067.142c-.265.522-.669.958-1.165 1.262l-.218.122c-.377.192-.783.271-1.24.309-.451.037-1.008.036-1.697.036H8c-.69 0-1.246 0-1.696-.036-.4-.033-.762-.098-1.098-.242l-.143-.067a3.17 3.17 0 0 1-1.261-1.165l-.122-.219c-.192-.376-.271-.782-.309-1.24-.037-.45-.036-1.007-.036-1.696v-7c0-.69 0-1.246.036-1.696.038-.458.117-.864.309-1.24A3.17 3.17 0 0 1 5.063 2.18c.377-.192.783-.271 1.24-.309.45-.037 1.008-.036 1.697-.036zm-2 13.33c-.853 0-1.505.253-2.032.68a4.1 4.1 0 0 0-.859.986c.255.004.547.004.891.004h4c.343 0 .636 0 .89-.004a4.1 4.1 0 0 0-.858-.986c-.527-.427-1.179-.68-2.032-.68m-2-12c-.711 0-1.204 0-1.588.032-.376.031-.587.088-.745.168a1.84 1.84 0 0 0-.802.802c-.08.158-.137.37-.168.745-.031.384-.032.877-.032 1.588v7c0 .711 0 1.204.032 1.588.031.376.088.587.168.745l.07.126c.177.288.43.522.732.676l.014.006c.38-.713.85-1.346 1.45-1.83.773-.625 1.722-.976 2.869-.976s2.096.35 2.87.975c.598.485 1.068 1.118 1.448 1.83l.015-.005.126-.07c.288-.177.522-.43.676-.732l.056-.13a2.4 2.4 0 0 0 .112-.615c.031-.384.032-.877.032-1.588v-7c0-.711 0-1.204-.032-1.588a2.4 2.4 0 0 0-.112-.615l-.056-.13a1.84 1.84 0 0 0-.676-.731l-.126-.07c-.158-.081-.37-.138-.745-.169-.384-.031-.877-.032-1.588-.032z" clip-rule="evenodd" xmlns="http://www.w3.org/2000/svg" /></svg>