<svg xmlns="http://www.w3.org/2000/svg" viewBox="0 0 20 20"><path d="M14.166 11.941c.625-.444 1.323-.602 1.983-.485.822.146 1.51.71 1.827 1.503.662 1.656-.33 3.84-3.495 5.543a.67.67 0 0 1-.63 0c-3.164-1.703-4.155-3.887-3.493-5.543a2.43 2.43 0 0 1 1.826-1.503c.66-.117 1.358.041 1.982.485M3.085 17.5c0-2.693 1.736-4.973 4.164-5.964a.666.666 0 0 1 .502 1.232c-1.986.81-3.336 2.64-3.336 4.732a.665.665 0 0 1-1.33 0m12.832-4.735c-.303-.054-.697.015-1.1.352l-.172.161a.665.665 0 0 1-.957 0c-.46-.476-.925-.575-1.271-.513-.36.064-.673.311-.824.688-.264.66-.088 2.166 2.573 3.701 2.662-1.535 2.838-3.04 2.574-3.7a1.1 1.1 0 0 0-.823-.69m-3.249-6.932a2.668 2.668 0 1 0-5.336 0 2.668 2.668 0 0 0 5.336 0m1.33 0a3.999 3.999 0 1 1-7.997 0 3.999 3.999 0 0 1 7.997 0" xmlns="http://www.w3.org/2000/svg" /></svg>