<svg xmlns="http://www.w3.org/2000/svg" viewBox="0 0 20 20"><path d="M3.335 13.195v1.11c0 1.075.87 1.945 1.944 1.945a.556.556 0 0 0 .556-.556v-3.888a.556.556 0 0 0-.556-.556c-1.074 0-1.944.87-1.944 1.944m-1.667-2.778a8.333 8.333 0 1 1 16.667 0v3.889a3.61 3.61 0 0 1-3.612 3.61 2.22 2.22 0 0 1-2.222-2.222v-3.888c0-1.228.995-2.223 2.223-2.223.713 0 1.378.207 1.939.565a6.667 6.667 0 0 0-13.323 0 3.6 3.6 0 0 1 1.94-.565c1.226 0 2.221.995 2.221 2.223v3.889a2.22 2.22 0 0 1-2.222 2.222 3.61 3.61 0 0 1-3.611-3.611zm15 2.778c0-1.074-.87-1.945-1.944-1.945a.556.556 0 0 0-.556.556v3.889c0 .306.249.555.556.555 1.073 0 1.944-.87 1.944-1.944z" xmlns="http://www.w3.org/2000/svg" /></svg>