<svg xmlns="http://www.w3.org/2000/svg" viewBox="0 0 20 20"><path d="M4.477 11.13a.6.6 0 0 1 1.046 0l.549.975a.1.1 0 0 0 .058.042l1.097.222a.6.6 0 0 1 .322.994l-.756.824a.09.09 0 0 0-.023.067l.129 1.112a.6.6 0 0 1-.846.614l-1.017-.465a.09.09 0 0 0-.072 0l-1.017.465a.6.6 0 0 1-.846-.614l.129-1.112a.09.09 0 0 0-.022-.067l-.757-.824a.6.6 0 0 1 .323-.994l1.097-.222a.09.09 0 0 0 .057-.042zM17.135 13.1a.665.665 0 0 1 0 1.302l-.135.014h-6.166a.665.665 0 0 1 0-1.33H17zM5 4.515c.405-.314.867-.406 1.29-.314.48.104.89.443 1.086.92.404.984-.13 2.375-2.255 3.538a.25.25 0 0 1-.242 0C2.753 7.496 2.221 6.105 2.626 5.12A1.53 1.53 0 0 1 3.71 4.2c.422-.092.885 0 1.29.314M17.135 5.6a.665.665 0 0 1 0 1.302L17 6.916h-6.166a.665.665 0 0 1 0-1.33H17z" xmlns="http://www.w3.org/2000/svg" /></svg>