<svg xmlns="http://www.w3.org/2000/svg" viewBox="0 0 20 20"><path d="M10.001 1.836c3.947 0 7.165 3.068 7.165 7.151 0 2.85-1.796 5.145-3.466 6.672a18.2 18.2 0 0 1-3.307 2.386l-.061.033-.017.009-.005.003h-.001L10 17.502l.307.59c-.194.1-.424.1-.617-.001l.31-.589-.31.588-.003-.001-.004-.003-.017-.009-.06-.033q-.08-.043-.22-.124A18.456 18.456 0 0 1 6.3 15.644c-1.668-1.531-3.465-3.826-3.465-6.657 0-4.083 3.218-7.151 7.165-7.151m0 1.33c-3.232 0-5.835 2.492-5.835 5.821 0 2.262 1.453 4.224 3.035 5.677a17 17 0 0 0 2.801 2.072 16.892 16.892 0 0 0 2.8-2.059c1.58-1.446 3.034-3.408 3.034-5.69 0-3.329-2.603-5.821-5.835-5.821m0 2.908a2.915 2.915 0 1 1 0 5.83 2.915 2.915 0 0 1 0-5.83m0 1.33a1.585 1.585 0 1 0 0 3.17 1.585 1.585 0 0 0 0-3.17" xmlns="http://www.w3.org/2000/svg" /></svg>