<svg xmlns="http://www.w3.org/2000/svg" viewBox="0 0 24 24" fill="none"><g clip-path="url(#a02f63__a)" xmlns="http://www.w3.org/2000/svg"><path fill="url(#a02f63__b)" d="M24 12c0-6.627-5.373-12-12-12S0 5.373 0 12s5.373 12 12 12 12-5.373 12-12" /><path fill="#fff" fill-rule="evenodd" d="M8.683 8.919h-1.35c-.736 0-1.333.58-1.333 1.297v5.19C6 16.837 7.194 18 8.667 18h6.666C16.806 18 18 16.838 18 15.405v-5.189c0-.716-.597-1.297-1.333-1.297h-1.35C15.15 7.28 13.728 6 12 6S8.85 7.28 8.683 8.919m1.345 0h3.944c-.158-.92-.981-1.622-1.972-1.622S10.186 8 10.028 8.92m-2.695 1.297v5.19c0 .716.597 1.297 1.334 1.297h6.666c.737 0 1.334-.581 1.334-1.298v-5.189z" clip-rule="evenodd" /></g><defs xmlns="http://www.w3.org/2000/svg"><linearGradient id="a02f63__b" x1="9" x2="17.5" y1="24" y2="0" gradientUnits="userSpaceOnUse"><stop stop-color="#0285ff" /><stop offset="1" stop-color="#a7d5ff" /></linearGradient><clipPath id="a02f63__a"><path fill="#fff" d="M0 0h24v24H0z" /></clipPath></defs></svg>