<svg xmlns="http://www.w3.org/2000/svg" viewBox="0 0 20 20" fill="none"><path fill="currentColor" d="M15.82 1.36a.407.407 0 0 0-.807 0c-.148 1.282-.871 2.005-2.153 2.153a.406.406 0 0 0 0 .808c1.264.143 2.038.86 2.152 2.142a.406.406 0 0 0 .81-.001c.11-1.265.875-2.03 2.14-2.14a.406.406 0 0 0 0-.81c-1.282-.114-1.998-.888-2.141-2.151M13.846 13.81a.348.348 0 0 0-.692-.002c-.127 1.1-.747 1.72-1.845 1.846a.348.348 0 0 0 0 .692c1.083.123 1.746.737 1.844 1.836a.349.349 0 0 0 .694 0c.094-1.084.75-1.741 1.835-1.835a.348.348 0 0 0 0-.694c-1.099-.098-1.713-.76-1.836-1.844" xmlns="http://www.w3.org/2000/svg" /><path stroke="currentColor" stroke-linejoin="round" stroke-width="1.33" d="M7.5 4c.024 3.243 2.757 5.983 6 6-3.243 0-5.976 2.757-6 6-.024-3.243-2.757-6-6-6 3.243 0 5.976-2.757 6-6Z" xmlns="http://www.w3.org/2000/svg" /></svg>