<svg xmlns="http://www.w3.org/2000/svg" viewBox="0 0 20 21"><path d="M11.418 4.292c0-.553-.448-1.002-1-1.002h-.835c-.552 0-1 .449-1 1.002v2.225a.666.666 0 0 1-.998.576L5.658 5.98h-.001a1 1 0 0 0-1.368.367l-.417.72a1.003 1.003 0 0 0 .367 1.37l1.925 1.11a.666.666 0 0 1 .001 1.153L4.24 11.814h-.001a1 1 0 0 0-.367 1.367l.416.721.001.001c.277.479.889.643 1.368.367l1.927-1.114a.666.666 0 0 1 .998.576v2.226c0 .554.449 1.002 1.001 1.002h.834c.553 0 1.001-.449 1.001-1.002v-2.226a.665.665 0 0 1 .998-.576l1.927 1.114a1 1 0 0 0 1.368-.367l.416-.721.047-.092a1 1 0 0 0-.414-1.277l-1.927-1.112a.665.665 0 0 1 .001-1.152l1.927-1.112c.449-.26.622-.814.413-1.278l-.047-.092-.416-.721a1.003 1.003 0 0 0-1.369-.366l-1.927 1.113a.666.666 0 0 1-.997-.576zm1.33 1.072.93-.536a2.334 2.334 0 0 1 3.056.652l.13.2v.002l.416.721a2.333 2.333 0 0 1-.854 3.186l-.93.536.93.536a2.33 2.33 0 0 1 .854 3.185l-.416.721a2.334 2.334 0 0 1-3.187.855l-.929-.537v1.073a2.33 2.33 0 0 1-2.33 2.332h-.835a2.33 2.33 0 0 1-2.33-2.332v-1.074l-.931.538a2.33 2.33 0 0 1-3.185-.855v.001l-.417-.721v-.001a2.33 2.33 0 0 1 .854-3.185l.927-.537-.927-.535a2.333 2.333 0 0 1-.854-3.187l.417-.721a2.33 2.33 0 0 1 3.185-.853l.93.536V4.292A2.33 2.33 0 0 1 9.583 1.96h.834a2.33 2.33 0 0 1 2.331 2.332z" xmlns="http://www.w3.org/2000/svg" /></svg>