<svg xmlns="http://www.w3.org/2000/svg" viewBox="0 0 20 20"><path d="M7.946 14.028a1.974 1.974 0 1 0-3.948 0 1.974 1.974 0 0 0 3.948 0m5.417 2.638v-1.973h-1.974a.665.665 0 0 1 0-1.33h1.974v-1.974a.665.665 0 0 1 1.33 0v1.974h1.973l.135.013a.665.665 0 0 1 0 1.303l-.135.014h-1.973v1.973a.665.665 0 1 1-1.33 0M7.946 5.972a1.974 1.974 0 1 0-3.948 0 1.974 1.974 0 0 0 3.948 0m8.055 0a1.974 1.974 0 1 0-3.947 0 1.974 1.974 0 0 0 3.947 0m-6.725 8.056a3.304 3.304 0 1 1-6.608 0 3.304 3.304 0 0 1 6.608 0m0-8.056a3.304 3.304 0 1 1-6.608 0 3.304 3.304 0 0 1 6.608 0m8.055 0a3.304 3.304 0 1 1-6.607 0 3.304 3.304 0 0 1 6.607 0" xmlns="http://www.w3.org/2000/svg" /></svg>