<svg xmlns="http://www.w3.org/2000/svg" viewBox="0 0 20 20"><path d="M8.76 11.118a.665.665 0 0 1 .243 1.28l-.129.039c-2.577.488-4.459 2.598-4.459 5.063a.665.665 0 0 1-1.33 0c0-3.179 2.412-5.777 5.541-6.37zM13.02 15.417a1.354 1.354 0 1 1 .001 2.708 1.354 1.354 0 0 1 0-2.708M16.77 15.417a1.354 1.354 0 1 1 .001 2.708 1.354 1.354 0 0 1 0-2.708M13.02 11.667a1.354 1.354 0 1 1 .001 2.708 1.354 1.354 0 0 1 0-2.708M16.77 11.667a1.354 1.354 0 1 1 .001 2.708 1.354 1.354 0 0 1 0-2.708" xmlns="http://www.w3.org/2000/svg" /><path fill-rule="evenodd" d="M10 1.835a4 4 0 1 1 0 7.998 4 4 0 0 1 0-7.998m0 1.33a2.668 2.668 0 1 0 0 5.337 2.668 2.668 0 0 0 0-5.337" clip-rule="evenodd" xmlns="http://www.w3.org/2000/svg" /></svg>