<svg xmlns="http://www.w3.org/2000/svg" viewBox="0 0 21 20"><path d="M10.125 3.805c1.378-1.137 2.965-1.473 4.406-1.157 1.592.35 2.951 1.485 3.6 3.08 1.332 3.272-.379 8.019-7.685 12.054-.2.11-.442.11-.642 0C2.498 13.747.787 9 2.118 5.728c.65-1.595 2.009-2.73 3.6-3.08 1.442-.316 3.029.02 4.407 1.157m4.121.142c-1.14-.25-2.476.05-3.651 1.224-.26.259-.68.259-.94 0-1.175-1.175-2.51-1.475-3.651-1.224-1.156.254-2.166 1.084-2.653 2.282-.928 2.28-.028 6.34 6.774 10.205 6.802-3.865 7.702-7.925 6.774-10.205-.487-1.198-1.497-2.028-2.653-2.282" xmlns="http://www.w3.org/2000/svg" /></svg>