<svg xmlns="http://www.w3.org/2000/svg" viewBox="0 0 20 20"><path d="M16.635 5.833a1.835 1.835 0 1 0-3.67 0 1.835 1.835 0 0 0 3.67 0m-13.27 8.333a1.835 1.835 0 1 0 3.67 0 1.835 1.835 0 0 0-3.67 0m14.6-8.333a3.165 3.165 0 0 1-6.261.661l-.037.004h-.332c-.799 0-1.37 0-1.79.023-.334.017-.504.048-.584.07l-.053.019c-.49.253-.683.855-.432 1.346l.032.047c.052.065.173.188.435.398.328.261.793.594 1.444 1.058l.852.613q.375.273.646.488c.34.27.658.554.823.877l.097.217a2.33 2.33 0 0 1-.896 2.797l-.206.12c-.322.167-.745.214-1.179.237-.462.024-1.076.023-1.86.023h-.331q-.02-.002-.038-.003a3.165 3.165 0 1 1 0-1.324q.018-.001.038-.003h.332c.799 0 1.371 0 1.79-.021.446-.024.6-.07.637-.09l.088-.052c.397-.258.559-.761.386-1.202l-.042-.093c-.02-.038-.118-.164-.468-.443a18 18 0 0 0-.6-.453l-.843-.606c-.637-.455-1.137-.812-1.499-1.1-.297-.237-.577-.484-.753-.758l-.068-.12A2.33 2.33 0 0 1 8.297 5.43l.125-.058c.302-.12.673-.158 1.053-.178a40 40 0 0 1 1.86-.025h.332l.037.003a3.167 3.167 0 0 1 6.26.662" xmlns="http://www.w3.org/2000/svg" /></svg>