<svg xmlns="http://www.w3.org/2000/svg" viewBox="0 0 20 20"><path d="M16.385 6.434c0-.353-.006-.482-.03-.586a1.2 1.2 0 0 0-.15-.364c-.056-.09-.144-.186-.394-.435l-.272-.272c-.382-.382-.542-.534-.71-.64a2 2 0 0 0-.622-.257 2 2 0 0 0-.346-.041l-.608-.009H11.76c-.54 0-.76.006-.953.05-.22.05-.43.137-.622.258-.168.105-.328.256-.71.638L5.402 8.85c-.464.463-.794.794-1.033 1.073-.239.28-.36.477-.425.664-.151.43-.151.898 0 1.328.065.187.186.385.425.664.24.279.57.61 1.033 1.073l1.162 1.162c.463.464.794.793 1.073 1.032.28.24.478.361.664.426.43.151.898.151 1.327 0 .187-.065.384-.187.664-.426s.61-.568 1.074-1.032l4.072-4.072.424-.435a2 2 0 0 0 .215-.275q.182-.289.258-.622c.022-.096.034-.2.041-.347l.009-.607zm1.33 2.021c0 .503 0 .882-.084 1.25a3.3 3.3 0 0 1-.429 1.034c-.2.319-.468.587-.824.943l-4.072 4.072-.62.614q-.284.277-.528.488l-.256.206a3 3 0 0 1-.832.464l-.272.082a3.33 3.33 0 0 1-1.667 0l-.27-.082c-.407-.142-.75-.38-1.09-.67a12 12 0 0 1-.527-.488l-.62-.614-1.163-1.162a34 34 0 0 1-.875-.896l-.226-.254c-.254-.296-.469-.596-.614-.938l-.057-.15a3.33 3.33 0 0 1-.083-1.938l.083-.27c.107-.305.267-.574.463-.833l.208-.255q.21-.245.486-.529l.615-.62 4.071-4.072c.356-.356.624-.625.943-.825s.668-.345 1.035-.429a4.2 4.2 0 0 1 .895-.082l.355-.001h1.493l.356.001c.336.004.618.02.893.082.367.083.717.228 1.035.429.32.2.588.47.943.825l.271.27c.228.228.428.429.58.668.15.24.259.502.322.777.063.276.062.56.062.883z" xmlns="http://www.w3.org/2000/svg" /><path d="M14.38 7.083a1.25 1.25 0 1 1-2.5 0 1.25 1.25 0 0 1 2.5 0" xmlns="http://www.w3.org/2000/svg" /></svg>