<svg xmlns="http://www.w3.org/2000/svg" viewBox="0 0 20 20"><path d="M13.483 10.883c-1.302 0-2.626.433-3.633 1.328-1.02.906-1.675 2.251-1.675 3.98 0 .367.298.664.665.665h9.286a.665.665 0 0 0 .665-.666c0-1.728-.654-3.073-1.674-3.98-1.007-.894-2.331-1.327-3.634-1.327M5.855 10.773c-1.139 0-2.298.379-3.18 1.162-.891.793-1.465 1.97-1.465 3.483 0 .321.26.582.582.582h5.057c.042-1.796.685-3.302 1.738-4.413-.808-.547-1.776-.814-2.732-.814M5.855 4a2.953 2.953 0 1 0 0 5.906 2.953 2.953 0 0 0 0-5.906M13.483 3.145a3.374 3.374 0 1 0 0 6.747 3.374 3.374 0 0 0 0-6.747" xmlns="http://www.w3.org/2000/svg" /></svg>