<svg xmlns="http://www.w3.org/2000/svg" viewBox="0 0 20 20"><path d="M3.085 13.084V6.917c0-.69 0-1.246.036-1.697.038-.457.117-.863.309-1.24l.122-.219c.304-.495.74-.9 1.261-1.165l.143-.066c.336-.144.697-.21 1.098-.242.45-.037 1.007-.036 1.696-.036h3.51c.58 0 .978-.004 1.36.088l.24.067q.355.116.675.311l.123.08c.284.198.542.461.9.82l.99.99.285.286c.263.267.461.486.615.737l.122.218q.17.334.257.698l.03.144c.061.34.058.709.058 1.216v5.177c0 .689 0 1.246-.036 1.696-.033.4-.098.761-.242 1.098l-.067.142c-.265.521-.67.957-1.165 1.26l-.218.123c-.377.192-.783.271-1.24.309-.451.036-1.008.037-1.697.037h-4.5c-.69 0-1.246 0-1.696-.037-.4-.033-.762-.097-1.098-.242l-.143-.067a3.17 3.17 0 0 1-1.261-1.165l-.122-.218c-.192-.376-.271-.782-.309-1.24-.037-.45-.036-1.007-.036-1.696m7.748-2.082.135.013a.665.665 0 0 1 0 1.303l-.135.014H7.5a.665.665 0 0 1 0-1.33zM12.5 7.669l.134.013a.665.665 0 0 1 0 1.303l-.134.014h-5a.665.665 0 0 1 0-1.33zm-8.085 5.415c0 .71 0 1.204.032 1.588.031.375.088.587.168.745l.07.126c.177.287.43.521.732.675l.13.056c.144.052.333.09.615.112.384.032.877.033 1.588.033h4.5c.711 0 1.204-.001 1.588-.033.376-.03.587-.087.745-.168l.126-.07c.287-.177.522-.43.676-.731l.056-.131c.052-.144.089-.333.112-.614.031-.384.032-.878.032-1.588V7.907c0-.482-.003-.723-.024-.895l-.027-.155a1.8 1.8 0 0 0-.15-.404l-.07-.126a2 2 0 0 0-.221-.282l-.485-.497-.99-.99c-.341-.341-.513-.51-.65-.616l-.128-.09a1.8 1.8 0 0 0-.392-.18l-.138-.04c-.194-.046-.407-.05-1.05-.05H7.75c-.711 0-1.204 0-1.588.032a2.4 2.4 0 0 0-.615.111l-.13.057a1.84 1.84 0 0 0-.731.676l-.07.126c-.081.158-.138.37-.169.745-.031.383-.032.877-.032 1.588z" xmlns="http://www.w3.org/2000/svg" /></svg>