<svg xmlns="http://www.w3.org/2000/svg" viewBox="0 0 20 20"><path d="M5.938 14.555a.7.7 0 0 1-.524-.22.73.73 0 0 1-.21-.523q0-.304.21-.523a.7.7 0 0 1 .524-.219h8.171q.313 0 .524.22.219.218.219.523a.72.72 0 0 1-.22.53.7.7 0 0 1-.523.212zm-1.586-4.032a.71.71 0 0 1-.524-.218.73.73 0 0 1-.21-.524.7.7 0 0 1 .21-.523.7.7 0 0 1 .524-.219h11.351a.68.68 0 0 1 .508.219q.219.21.219.523a.71.71 0 0 1-.22.524.68.68 0 0 1-.507.218zM2.734 6.484a.71.71 0 0 1-.523-.218A.72.72 0 0 1 2 5.75.737.737 0 0 1 2.734 5h14.547q.313 0 .524.219.21.219.21.531 0 .305-.21.523a.7.7 0 0 1-.524.211z" xmlns="http://www.w3.org/2000/svg" /></svg>