<svg xmlns="http://www.w3.org/2000/svg" viewBox="0 0 20 20"><path d="M12.917 11.667a1.25 1.25 0 1 1 0 2.5 1.25 1.25 0 0 1 0-2.5M10 8.75a1.25 1.25 0 1 1 0 2.5 1.25 1.25 0 0 1 0-2.5M7.083 5.833a1.25 1.25 0 1 1 0 2.5 1.25 1.25 0 0 1 0-2.5" xmlns="http://www.w3.org/2000/svg" /><path fill-rule="evenodd" d="M12.66 2.665c.69 0 1.246 0 1.696.036.458.038.864.117 1.24.309l.219.122c.495.304.9.74 1.165 1.262l.067.142c.144.336.21.697.242 1.098.037.45.036 1.007.036 1.696v5.33c0 .69 0 1.246-.036 1.696-.033.401-.098.762-.242 1.098l-.067.143c-.265.52-.67.957-1.165 1.261l-.218.122c-.377.192-.783.272-1.24.31-.45.036-1.008.035-1.697.035H7.33c-.689 0-1.246 0-1.696-.036-.4-.033-.762-.098-1.098-.242l-.142-.067a3.17 3.17 0 0 1-1.262-1.165l-.122-.218c-.192-.377-.271-.783-.309-1.24-.037-.45-.036-1.008-.036-1.697V7.33c0-.689 0-1.246.036-1.696.038-.458.117-.864.309-1.24A3.17 3.17 0 0 1 4.394 3.01c.376-.192.782-.271 1.24-.309.45-.037 1.007-.036 1.696-.036zm-5.33 1.33c-.71 0-1.204.001-1.588.032-.375.031-.587.088-.745.168a1.84 1.84 0 0 0-.802.802c-.08.158-.137.37-.168.745-.031.384-.032.877-.032 1.588v5.33c0 .711.001 1.205.032 1.588.031.376.088.587.168.745l.07.126c.177.288.43.522.732.676l.13.056c.144.051.333.089.615.112.384.031.877.032 1.588.032h5.33c.711 0 1.205 0 1.588-.032.376-.03.587-.088.745-.168l.126-.07c.288-.177.522-.43.676-.732l.056-.13a2.4 2.4 0 0 0 .112-.615c.031-.383.032-.877.032-1.588V7.33c0-.71 0-1.204-.032-1.588a2.4 2.4 0 0 0-.112-.615l-.056-.13a1.84 1.84 0 0 0-.676-.731l-.126-.07c-.158-.081-.37-.138-.745-.169-.383-.031-.877-.032-1.588-.032z" clip-rule="evenodd" xmlns="http://www.w3.org/2000/svg" /><path d="M14.167 7.083a1.25 1.25 0 1 1-2.5 0 1.25 1.25 0 0 1 2.5 0M8.333 12.917a1.25 1.25 0 1 1-2.5 0 1.25 1.25 0 0 1 2.5 0" xmlns="http://www.w3.org/2000/svg" /></svg>