<svg xmlns="http://www.w3.org/2000/svg" viewBox="0 0 20 20"><path d="M15.168 12.666V7.333c0-.71 0-1.204-.032-1.588a2.4 2.4 0 0 0-.111-.615L14.968 5a1.83 1.83 0 0 0-.676-.731l-.126-.07c-.158-.08-.37-.138-.745-.168-.383-.032-.877-.033-1.588-.033h-1a.665.665 0 1 1 0-1.33h1c.69 0 1.246 0 1.697.036.457.038.863.117 1.24.309l.219.122c.495.304.9.74 1.165 1.262l.066.142c.144.337.21.697.242 1.098.037.45.036 1.007.036 1.696v5.333c0 .69 0 1.246-.036 1.697-.033.4-.098.762-.242 1.098l-.066.143c-.266.52-.67.957-1.165 1.26l-.22.123c-.376.192-.782.27-1.24.308-.45.037-1.007.036-1.696.036h-1a.665.665 0 0 1 0-1.33h1c.711 0 1.205 0 1.588-.03.376-.032.587-.088.745-.169l.126-.071c.288-.176.522-.43.676-.732l.057-.13c.051-.143.088-.333.111-.615.031-.383.032-.877.032-1.588M7.97 13.804a.665.665 0 0 1-.94-.941zm-.94-7.607a.665.665 0 0 1 .835-.085l.105.085 3.334 3.333a.666.666 0 0 1 0 .94L7.97 13.804l-.47-.47-.47-.471 2.197-2.198H3.333a.665.665 0 0 1 0-1.33h5.895L7.03 7.137l-.085-.104a.665.665 0 0 1 .085-.836" xmlns="http://www.w3.org/2000/svg" /></svg>