<svg xmlns="http://www.w3.org/2000/svg" viewBox="0 0 20 20"><path d="M3.75 5.625a1.875 1.875 0 1 1 3.75 0 1.875 1.875 0 0 1-3.75 0m12.5 8.75a1.875 1.875 0 1 1-3.75 0 1.875 1.875 0 0 1 3.75 0M2.083 5.625a3.542 3.542 0 0 0 6.984.835c.67 0 1.173.005 1.56.03.238.015.405.036.522.062q.088.02.117.032l.02.007a.834.834 0 0 1 .329.99l-.01.016a1 1 0 0 1-.075.097c-.079.09-.2.208-.38.363-.368.314-.898.713-1.65 1.276l-.984.743q-.435.333-.748.6c-.388.332-.778.71-.946 1.164l-.067.207a2.5 2.5 0 0 0 .88 2.636l.178.126c.407.263.944.331 1.454.364.439.028.993.031 1.666.033a3.542 3.542 0 1 0 0-1.667 27 27 0 0 1-1.56-.03 4 4 0 0 1-.522-.061c-.12-.026-.148-.047-.136-.04l-.114-.088a.83.83 0 0 1-.254-.763l.039-.139c-.006.014.004-.02.084-.113.079-.09.2-.207.381-.363.183-.157.408-.335.68-.544l.969-.732c.732-.549 1.315-.985 1.732-1.343.34-.29.68-.615.873-.997l.073-.166a2.5 2.5 0 0 0-.99-2.97l-.16-.09c-.382-.189-.849-.245-1.295-.274a29 29 0 0 0-1.665-.033 3.543 3.543 0 0 0-6.985.832" xmlns="http://www.w3.org/2000/svg" /></svg>