<svg xmlns="http://www.w3.org/2000/svg" viewBox="0 0 20 20"><path d="m13.802 17.942-1.794-1.726c-.823-.794.275-2.069 1.157-1.216l1.382 1.343 3.06-4.02c.685-.901 2.087.04 1.352 1l-3.412 4.462c-.52.676-1.147.725-1.745.157" xmlns="http://www.w3.org/2000/svg" /><path d="M18.297 7.29c.036.451.036 1.005.036 1.676v.2c0 .46-.373.834-.833.834H3.333v2.667c0 .713.001 1.199.032 1.574.03.365.084.552.15.682.16.314.415.569.728.729.13.066.317.12.683.15.375.03.86.031 1.574.031h2.714a.833.833 0 1 1 0 1.667H6.466c-.671 0-1.225 0-1.676-.037-.468-.038-.899-.12-1.303-.326A3.33 3.33 0 0 1 2.03 15.68c-.206-.405-.288-.835-.326-1.303-.037-.452-.037-1.005-.037-1.676V7.3c0-.67 0-1.225.036-1.676.039-.468.12-.899.327-1.303.32-.627.83-1.137 1.457-1.457.404-.206.835-.288 1.303-.326C5.241 2.5 5.795 2.5 6.466 2.5h.708c.122 0 .214 0 .305.005.758.041 1.48.34 2.045.847.067.06.132.126.218.212l.014.013a5 5 0 0 0 .167.164c.282.253.643.403 1.022.423.04.002.084.003.233.003h2.356c.671 0 1.225 0 1.676.037.468.038.899.12 1.303.326.627.32 1.137.83 1.457 1.457.206.404.288.835.327 1.303M8.41 4.593a1.67 1.67 0 0 0-1.023-.424 5 5 0 0 0-.233-.002H6.5c-.714 0-1.2 0-1.574.031-.365.03-.552.084-.683.15-.313.16-.568.415-.728.729-.066.13-.12.317-.15.682-.031.375-.032.86-.032 1.574v1h13.332a13 13 0 0 0-.03-.907c-.03-.365-.084-.552-.15-.683a1.67 1.67 0 0 0-.728-.728c-.13-.066-.317-.12-.683-.15-.375-.031-.86-.032-1.574-.032h-2.341c-.122 0-.213 0-.304-.005A3.33 3.33 0 0 1 8.59 4.77l-.014-.014a5 5 0 0 0-.166-.163" xmlns="http://www.w3.org/2000/svg" /></svg>