<svg xmlns="http://www.w3.org/2000/svg" viewBox="0 0 21 20"><path d="M10.244 10.776c2.516.12 4.64 2.089 4.64 4.284a.665.665 0 0 1-.665.665H5.78a.665.665 0 0 1-.665-.665c0-2.264 2.263-4.29 4.884-4.29zM0 14.436c0-2.874 3.13-3.87 5.3-2.988-.928.97-1.514 2.226-1.514 3.612l.002.041H.665A.666.666 0 0 1 0 14.436M14.799 11.553c2.17-1.056 5.531-.097 5.531 2.883a.666.666 0 0 1-.665.665h-3.453l.002-.04c0-1.339-.545-2.553-1.415-3.508M3.425 5.001a2.59 2.59 0 1 1 0 5.18 2.59 2.59 0 0 1 0-5.18M16.57 5.001a2.59 2.59 0 1 1 0 5.18 2.59 2.59 0 0 1 0-5.18M10 4.27a2.915 2.915 0 1 1 0 5.83 2.915 2.915 0 0 1 0-5.83" xmlns="http://www.w3.org/2000/svg" /></svg>