<svg xmlns="http://www.w3.org/2000/svg" viewBox="0 0 20 20"><path d="M11.335 12.083c0-2.11-1.885-3.918-4.335-3.918s-4.335 1.807-4.335 3.918c0 .768.244 1.487.672 2.097a.67.67 0 0 1 .117.456c-.049.432-.14.848-.255 1.252a8.6 8.6 0 0 0 1.344-.337l.124-.03a.67.67 0 0 1 .368.056c.588.271 1.255.425 1.965.425 2.45 0 4.335-1.808 4.335-3.92m6-4.17c0-2.11-1.885-3.918-4.335-3.918-1.44 0-2.702.634-3.485 1.59a.666.666 0 0 1-1.03-.844C9.526 3.471 11.17 2.665 13 2.665c3.073 0 5.665 2.296 5.665 5.248 0 .962-.283 1.861-.767 2.633.089.57.262 1.13.487 1.71a.666.666 0 0 1-.66.904 10.3 10.3 0 0 1-2.452-.442 6 6 0 0 1-.514.186.666.666 0 0 1-.385-1.273 5 5 0 0 0 .59-.224l.12-.042a.67.67 0 0 1 .373.016c.436.148.881.259 1.343.337a8 8 0 0 1-.254-1.252.66.66 0 0 1 .117-.456c.428-.61.672-1.329.672-2.097m-4.67 4.17c0 2.952-2.592 5.249-5.665 5.249a6 6 0 0 1-2.277-.443c-.676.21-1.368.348-2.095.415l-.353.026a.665.665 0 0 1-.66-.903l.178-.49c.138-.41.244-.813.308-1.221a4.94 4.94 0 0 1-.766-2.633C1.335 9.13 3.927 6.835 7 6.835s5.665 2.296 5.665 5.248" xmlns="http://www.w3.org/2000/svg" /></svg>