<svg xmlns="http://www.w3.org/2000/svg" viewBox="0 0 20 20"><path d="M9.656 6.751a.417.417 0 0 1 .688 0l.894 1.307c.055.079.135.137.227.164l1.518.447c.281.083.39.422.212.654l-.964 1.255a.42.42 0 0 0-.087.266l.044 1.582a.417.417 0 0 1-.557.404l-1.491-.53a.42.42 0 0 0-.28 0l-1.492.53a.417.417 0 0 1-.555-.404l.043-1.582a.42.42 0 0 0-.086-.266l-.966-1.255a.417.417 0 0 1 .213-.654l1.518-.447a.42.42 0 0 0 .226-.164z" xmlns="http://www.w3.org/2000/svg" /><path fill-rule="evenodd" d="M9.263 1.785a1.46 1.46 0 0 1 1.57.062l1.951 1.36.051.02 2.342.419.11.024c.547.142.967.59 1.068 1.153l.418 2.342.021.05 1.36 1.952.06.096c.268.455.268 1.02 0 1.474l-.06.096-1.36 1.951-.02.051-.42 2.342c-.1.563-.52 1.01-1.067 1.153l-.11.025-2.342.418a.1.1 0 0 0-.05.021l-1.952 1.36a1.46 1.46 0 0 1-1.57.06l-.096-.06-1.951-1.36-.05-.02-2.343-.42a1.46 1.46 0 0 1-1.153-1.067l-.024-.11-.42-2.342-.02-.05-1.36-1.952a1.46 1.46 0 0 1 0-1.666l1.36-1.951.02-.05.42-2.343.024-.11c.142-.547.59-.967 1.153-1.067l2.342-.42.05-.02 1.952-1.36zm.699 1.136-.035.017-1.951 1.36q-.197.136-.423.202l-.153.036-2.342.42a.13.13 0 0 0-.09.065l-.013.037-.419 2.341q-.042.235-.156.443l-.082.134-1.36 1.95a.13.13 0 0 0 0 .147l1.36 1.951.082.134q.113.208.156.443l.42 2.341.012.037c.018.034.05.059.09.066l2.342.419.153.036q.227.067.422.202l1.952 1.36.035.017a.13.13 0 0 0 .111-.017l1.951-1.36c.173-.12.37-.201.577-.238l2.342-.419.037-.013a.13.13 0 0 0 .065-.09l.419-2.341.036-.154q.067-.227.202-.422l1.36-1.952.017-.035a.13.13 0 0 0 0-.076l-.016-.035-1.36-1.951a1.5 1.5 0 0 1-.203-.423l-.036-.154-.419-2.341a.13.13 0 0 0-.065-.09l-.037-.013-2.342-.419a1.5 1.5 0 0 1-.443-.156l-.133-.082-1.952-1.36a.13.13 0 0 0-.111-.017" clip-rule="evenodd" xmlns="http://www.w3.org/2000/svg" /></svg>