<svg xmlns="http://www.w3.org/2000/svg" viewBox="0 0 20 20"><path d="M16.835 7.917q0-.232-.023-.457L15.47 8.804a3.023 3.023 0 0 1-4.274-4.275l1.342-1.342q-.225-.022-.454-.022a4.752 4.752 0 0 0-4.388 6.58.67.67 0 0 1-.143.727l-3.958 3.957a1.397 1.397 0 0 0 0 1.975l.107.097a1.397 1.397 0 0 0 1.869-.097l3.958-3.957.075-.064a.67.67 0 0 1 .65-.08 4.751 4.751 0 0 0 6.58-4.387m1.33 0a6.08 6.08 0 0 1-7.997 5.772l-3.656 3.657a2.73 2.73 0 0 1-3.65.186l-.207-.186a2.73 2.73 0 0 1 0-3.858L6.31 9.832a6.082 6.082 0 0 1 7.775-7.66l.079.033a.666.666 0 0 1 .173 1.066l-2.2 2.2a1.692 1.692 0 1 0 2.393 2.392l2.2-2.2.064-.056a.665.665 0 0 1 1.034.308c.219.628.337 1.302.337 2.002" xmlns="http://www.w3.org/2000/svg" /></svg>