<svg xmlns="http://www.w3.org/2000/svg" viewBox="0 0 20 20" fill="none"><path fill="currentColor" d="M16.32 1.36a.407.407 0 0 0-.807 0c-.148 1.282-.871 2.005-2.153 2.153a.406.406 0 0 0 0 .808c1.264.143 2.038.86 2.152 2.142a.406.406 0 0 0 .81-.001c.11-1.265.875-2.03 2.14-2.14a.406.406 0 0 0 0-.81c-1.282-.114-1.998-.888-2.141-2.151" xmlns="http://www.w3.org/2000/svg" /><path stroke="currentColor" stroke-linejoin="round" stroke-width="1.33" d="M9.5 3c.03 4.054 3.446 7.479 7.5 7.5-4.054 0-7.47 3.446-7.5 7.5-.03-4.054-3.446-7.5-7.5-7.5 4.054 0 7.47-3.446 7.5-7.5Z" xmlns="http://www.w3.org/2000/svg" /></svg>