<svg xmlns="http://www.w3.org/2000/svg" viewBox="0 0 20 20" fill-rule="evenodd" clip-rule="evenodd"><path d="M13.5 2.668h.035c.673 0 1.219 0 1.661.036.458.038.864.117 1.24.309l.22.122c.495.304.899.74 1.164 1.261l.067.143c.144.336.21.697.242 1.098.036.442.036.988.036 1.66V12.7c0 .674 0 1.22-.036 1.663-.033.401-.098.762-.242 1.099l-.067.143c-.265.52-.67.956-1.165 1.26l-.219.122c-.376.192-.782.271-1.24.309-.442.036-.988.036-1.66.036H6.465c-.673 0-1.219 0-1.661-.036-.401-.033-.762-.098-1.098-.242l-.143-.067a3.17 3.17 0 0 1-1.261-1.165l-.122-.217c-.192-.377-.271-.784-.309-1.242-.036-.443-.036-.99-.036-1.663V7.298c0-.673 0-1.219.036-1.661.038-.458.117-.864.309-1.24a3.17 3.17 0 0 1 1.383-1.384c.377-.192.783-.271 1.24-.309.443-.036.989-.036 1.662-.036H13.5M9.251 7.926c-.462-.53-1.122-.883-1.873-.883-1.544 0-2.626 1.425-2.626 2.957s1.082 2.956 2.626 2.956c.751 0 1.41-.353 1.873-.882a.666.666 0 0 0-1.002-.875c-.245.28-.554.427-.871.427-.622 0-1.296-.627-1.296-1.626 0-1 .674-1.627 1.296-1.627.317 0 .626.147.871.427a.665.665 0 0 0 1.002-.874m3.752-.883c.751 0 1.41.353 1.873.883a.665.665 0 1 1-1.002.874c-.245-.28-.554-.427-.871-.427-.622 0-1.296.628-1.296 1.627 0 1 .674 1.626 1.296 1.626.317 0 .626-.146.871-.427a.666.666 0 0 1 1.002.875c-.462.53-1.122.882-1.873.882-1.544 0-2.626-1.424-2.626-2.956s1.082-2.957 2.626-2.957" xmlns="http://www.w3.org/2000/svg" /></svg>