<svg xmlns="http://www.w3.org/2000/svg" viewBox="0 0 20 20"><path d="M16.835 14.167c0-.397 0-.662-.015-.867a2 2 0 0 0-.026-.227l-.035-.123a1 1 0 0 0-.452-.5l-.09-.042a1.1 1.1 0 0 0-.35-.062c-.205-.014-.47-.014-.867-.014h-1.667c-.397 0-.662 0-.866.014-.1.007-.172.016-.228.027l-.123.035c-.214.089-.39.25-.499.452l-.043.09a1.1 1.1 0 0 0-.061.35c-.014.205-.015.47-.015.867s0 .661.015.866c.013.198.037.292.061.35l.043.09c.109.203.285.363.5.452l.122.036c.056.01.129.02.228.026.204.014.469.015.866.015H15c.397 0 .662-.001.866-.015.199-.014.292-.037.35-.062l.09-.042c.204-.108.364-.285.453-.5l.035-.123q.016-.08.026-.227c.014-.205.015-.47.015-.866m-1.667-5.833v-.167c0-.711 0-1.205-.031-1.588a2.4 2.4 0 0 0-.113-.615l-.055-.13a1.84 1.84 0 0 0-.676-.732l-.127-.07c-.158-.08-.37-.137-.745-.168-.384-.031-.877-.032-1.588-.032H6.5c-.711 0-1.204 0-1.588.032-.282.023-.471.06-.615.111l-.13.057a1.84 1.84 0 0 0-.731.676l-.07.126c-.081.158-.138.37-.169.745-.031.383-.032.877-.032 1.588V11c0 .71.001 1.204.032 1.588.03.375.088.587.168.745l.07.127c.177.287.43.521.732.675l.13.056c.144.051.333.09.615.112.384.032.877.032 1.588.032h1l.134.013a.665.665 0 0 1 0 1.303l-.134.014h-1c-.69 0-1.246 0-1.696-.036-.401-.033-.762-.098-1.098-.243l-.143-.066a3.17 3.17 0 0 1-1.261-1.165l-.122-.218c-.192-.377-.271-.783-.309-1.241-.037-.45-.036-1.007-.036-1.696V8.167c0-.69 0-1.246.036-1.697.038-.457.117-.863.309-1.24l.122-.219c.304-.495.74-.9 1.261-1.165l.143-.066c.336-.144.697-.21 1.098-.242.45-.037 1.007-.036 1.696-.036h5.333c.689 0 1.246-.001 1.696.036.458.037.865.116 1.242.308l.217.122c.496.305.9.741 1.165 1.262l.067.143c.144.336.21.697.242 1.097.037.45.036 1.008.036 1.697v.167a.665.665 0 0 1-1.33 0m2.997 5.833c0 .379 0 .696-.017.957-.014.2-.04.392-.094.58l-.067.188c-.207.5-.58.91-1.052 1.163l-.21.099a2.4 2.4 0 0 1-.768.16c-.26.018-.578.018-.957.018h-1.667c-.379 0-.697 0-.957-.018a2.7 2.7 0 0 1-.581-.094l-.188-.066c-.5-.207-.91-.58-1.163-1.053l-.098-.209a2.4 2.4 0 0 1-.16-.768c-.018-.26-.018-.578-.018-.957 0-.38 0-.697.018-.957.018-.267.057-.521.16-.769l.098-.209a2.33 2.33 0 0 1 1.163-1.053l.188-.066c.188-.055.381-.08.581-.094.26-.018.578-.017.957-.017H15c.38 0 .697 0 .957.017.266.018.52.058.769.16l.209.099c.472.253.845.663 1.052 1.163l.067.188c.055.188.08.381.094.58.017.26.017.579.017.958" xmlns="http://www.w3.org/2000/svg" /></svg>