<svg xmlns="http://www.w3.org/2000/svg" viewBox="0 0 20 21"><path fill-rule="evenodd" d="M5.5 12.044a2.665 2.665 0 1 1 0 5.33 2.665 2.665 0 0 1 0-5.33m0 1.33a1.335 1.335 0 1 0 0 2.67 1.335 1.335 0 0 0 0-2.67" clip-rule="evenodd" xmlns="http://www.w3.org/2000/svg" /><path d="M17.134 14.057a.665.665 0 0 1 0 1.303l-.134.014h-6a.665.665 0 0 1 0-1.33h6zM7.298 4.51a.666.666 0 0 1 1.064.798l-3 4a.666.666 0 0 1-1.003.071l-1.5-1.5-.085-.104a.667.667 0 0 1 .922-.922l.104.085.958.957zM17.134 6.457a.665.665 0 0 1 0 1.303L17 7.774h-6a.665.665 0 0 1 0-1.33h6z" xmlns="http://www.w3.org/2000/svg" /></svg>