<svg xmlns="http://www.w3.org/2000/svg" viewBox="0 0 20 20"><path d="M16.835 8.167c0-.711 0-1.205-.032-1.588a2.4 2.4 0 0 0-.112-.615l-.056-.13a1.84 1.84 0 0 0-.676-.732l-.126-.07c-.158-.08-.37-.137-.745-.168-.384-.031-.877-.032-1.588-.032h-7c-.711 0-1.204 0-1.588.032-.376.03-.587.087-.745.168a1.84 1.84 0 0 0-.802.802c-.08.158-.137.37-.168.745-.031.383-.032.877-.032 1.588v3.667c0 .71 0 1.204.032 1.588.031.375.088.587.168.745l.07.126c.177.287.43.521.732.675l.13.056c.144.052.333.09.615.112.384.032.877.033 1.588.033h7c.711 0 1.204-.001 1.588-.033.376-.03.587-.087.745-.168l.126-.07c.287-.177.522-.43.676-.731l.056-.131c.052-.144.089-.333.112-.614.031-.384.032-.878.032-1.588zm1.33 3.667c0 .689 0 1.246-.036 1.696-.033.4-.098.761-.242 1.098l-.067.142c-.265.521-.67.957-1.165 1.26l-.219.123c-.376.192-.782.271-1.24.309-.45.036-1.007.037-1.696.037h-7c-.69 0-1.246 0-1.696-.037-.4-.033-.762-.097-1.098-.242l-.143-.067a3.17 3.17 0 0 1-1.261-1.165l-.122-.218c-.192-.376-.271-.782-.309-1.24-.037-.45-.036-1.007-.036-1.696V8.167c0-.69 0-1.246.036-1.697.038-.457.117-.863.309-1.24a3.17 3.17 0 0 1 1.383-1.384c.377-.191.783-.27 1.24-.308.45-.037 1.008-.036 1.697-.036h7c.69 0 1.246-.001 1.696.036.458.037.864.117 1.24.308l.22.122c.495.305.899.741 1.164 1.262l.067.143c.144.336.21.697.242 1.097.037.45.036 1.008.036 1.697z" xmlns="http://www.w3.org/2000/svg" /></svg>