<svg xmlns="http://www.w3.org/2000/svg" viewBox="0 0 20 20"><path d="M8.112 2.795a.67.67 0 0 1 .782 0l1.333.966 1.333-.966.09-.056a.67.67 0 0 1 .69.056l1.723 1.25a.67.67 0 0 1 .275.538v5.585h2.33c.367 0 .664.298.664.665v4.335a2.163 2.163 0 0 1-2.163 2.163q-.173-.002-.338-.03v.03H5A2.33 2.33 0 0 1 2.668 15V4.583c0-.213.102-.413.274-.538l1.724-1.25.09-.056a.67.67 0 0 1 .691.056l1.332.967zm2.505 2.326a.67.67 0 0 1-.781 0l-1.333-.967-1.333.967a.665.665 0 0 1-.78 0l-1.333-.967-1.059.768V15c0 .553.449 1.002 1.002 1.002h8.173a2.2 2.2 0 0 1-.167-.834v-4.335l.002-.02V4.922l-1.059-.769zm3.72 8.877h-.001v1.17a.833.833 0 0 0 1.667 0v-3.67h-1.665zm-4.202-2.982a.665.665 0 0 1 0 1.302l-.135.014H6.667a.665.665 0 0 1 0-1.33H10zm0-3.335a.665.665 0 0 1 0 1.303L10 8.998H6.667a.665.665 0 0 1 0-1.33H10z" xmlns="http://www.w3.org/2000/svg" /></svg>