<svg xmlns="http://www.w3.org/2000/svg" viewBox="0 0 20 20"><path d="M7.358 15.935a.79.79 0 0 0 1.493-.458l-.507-3.047H5.753zm8.608-12.329a1.1 1.1 0 0 0-1.1 1.1v9.706a1.1 1.1 0 0 0 1.1 1.1h.217V3.606zm-6.95 3.53h-1.65V11.1h1.698l4.472 2.235V5.629zm-4.043 0a1.982 1.982 0 0 0-1.955 2.307l.042.254c.135.81.835 1.402 1.655 1.403h1.32V7.136zm12.54 8.379c0 .732-.594 1.327-1.327 1.327h-.22a2.43 2.43 0 0 1-2.39-2l-3.799-1.899.387 2.315a2.118 2.118 0 0 1-4.015 1.23l-1.877-4.093A3.01 3.01 0 0 1 1.75 9.916l-.043-.254a3.313 3.313 0 0 1 3.267-3.856H8.8l4.788-1.597a2.43 2.43 0 0 1 2.379-1.933h.22c.733 0 1.327.595 1.327 1.328z" xmlns="http://www.w3.org/2000/svg" /></svg>