<svg xmlns="http://www.w3.org/2000/svg" viewBox="0 0 20 20"><path d="M6.667 5a1.25 1.25 0 1 1 0 2.5 1.25 1.25 0 0 1 0-2.5" xmlns="http://www.w3.org/2000/svg" /><path fill-rule="evenodd" d="M6.916 2.258a4.83 4.83 0 0 1 4.582 4.826l-.012.333a4.82 4.82 0 0 1-2.071 3.637v.613c0 .131-.039.26-.111.37l-.588.88.588.88c.072.11.111.239.111.37v.56c0 .618-.245 1.212-.683 1.649l-1.3 1.3a1.084 1.084 0 0 1-1.53 0l-1.301-1.3a2.33 2.33 0 0 1-.683-1.65v-3.672a4.83 4.83 0 0 1-2.071-3.637l-.012-.333a4.83 4.83 0 0 1 4.832-4.832zm-.249 1.324a3.5 3.5 0 0 0-3.502 3.502l.008.24a3.5 3.5 0 0 0 1.743 2.792.67.67 0 0 1 .332.575v4.036c0 .265.106.52.294.708l1.124 1.124 1.125-1.124c.188-.188.294-.443.294-.708v-.359l-.722-1.082a.67.67 0 0 1 0-.738l.722-1.083v-.774c0-.237.127-.456.332-.575a3.5 3.5 0 0 0 1.751-3.032l-.005-.18a3.5 3.5 0 0 0-3.316-3.317z" clip-rule="evenodd" xmlns="http://www.w3.org/2000/svg" /><path d="M12.291 2.687a4.834 4.834 0 0 1 4.93 3.083l.108.314a4.83 4.83 0 0 1-.63 4.14l.22.57a.67.67 0 0 1 .027.385l-.233 1.033.865.612.075.063q.107.102.162.242l.2.522.072.22c.122.442.11.912-.035 1.349l-.084.215-.748 1.68a1.08 1.08 0 0 1-1.324.588l-.104-.039-1.68-.749a2.33 2.33 0 0 1-1.135-1.083l-.093-.21-1.316-3.428-.136-.033-.125-.049a.666.666 0 0 1 .345-1.257l.133.023.188.047.19.035.086.02a.67.67 0 0 1 .43.399l1.446 3.766.04.09c.103.206.275.37.487.465l1.454.647.647-1.453.036-.092c.062-.188.068-.39.016-.58l-.032-.094-.128-.335-1.062-.752a.67.67 0 0 1-.264-.689l.284-1.27-.275-.72a.67.67 0 0 1 .104-.657 3.5 3.5 0 0 0 .626-3.231l-.079-.228a3.505 3.505 0 0 0-3.718-2.219l-.135.004a.666.666 0 0 1-.037-1.323z" xmlns="http://www.w3.org/2000/svg" /></svg>