<svg xmlns="http://www.w3.org/2000/svg" viewBox="0 0 21 20"><path d="M10.333 12.668c1.734 0 3.331.501 4.512 1.345 1.18.842 1.987 2.066 1.987 3.487a.666.666 0 0 1-1.33 0c0-.88-.499-1.74-1.43-2.405s-2.25-1.097-3.739-1.097-2.807.432-3.738 1.097-1.43 1.525-1.43 2.405a.666.666 0 0 1-1.33 0c0-1.42.808-2.645 1.988-3.487 1.18-.844 2.777-1.345 4.51-1.345M8.25 5a1.25 1.25 0 1 1 0 2.5 1.25 1.25 0 0 1 0-2.5M12.416 5a1.25 1.25 0 1 1 0 2.5 1.25 1.25 0 0 1 0-2.5" xmlns="http://www.w3.org/2000/svg" /><path fill-rule="evenodd" d="M10.333 1.002c.368 0 .665.298.665.665v.585h2.447c.442 0 .813 0 1.116.023.31.025.605.079.887.217.46.227.833.6 1.06 1.06.139.282.192.577.217.887.024.303.023.674.023 1.117 0 .896.001 1.608-.045 2.181-.046.58-.142 1.076-.367 1.532a4 4 0 0 1-1.817 1.817c-.456.224-.952.321-1.532.367-.573.046-1.285.046-2.181.046h-.945c-.897 0-1.608 0-2.181-.046-.58-.046-1.077-.143-1.532-.367A4 4 0 0 1 4.33 9.269c-.224-.456-.32-.951-.367-1.532-.045-.573-.045-1.285-.045-2.181 0-.443 0-.814.024-1.117.024-.31.078-.605.217-.886.227-.46.6-.834 1.06-1.06.281-.14.577-.193.887-.218.303-.024.673-.023 1.116-.023h2.446v-.585c0-.367.298-.665.665-.665m-3.111 2.58c-.464 0-.774 0-1.012.02-.23.018-.336.05-.403.084a1 1 0 0 0-.455.455c-.033.067-.066.173-.084.403-.019.238-.02.548-.02 1.012 0 .917.001 1.568.041 2.076.04.5.116.807.235 1.049.26.526.686.953 1.213 1.213.241.119.548.194 1.049.234.508.04 1.157.04 2.075.04h.945c.918 0 1.567 0 2.075-.04.5-.04.808-.115 1.05-.234a2.67 2.67 0 0 0 1.212-1.213c.119-.242.194-.549.234-1.05.04-.507.041-1.158.041-2.075 0-.464 0-.774-.02-1.012-.018-.23-.05-.336-.083-.403a1 1 0 0 0-.455-.455c-.067-.034-.173-.066-.404-.084-.237-.02-.547-.02-1.011-.02z" clip-rule="evenodd" xmlns="http://www.w3.org/2000/svg" /></svg>