<svg xmlns="http://www.w3.org/2000/svg" viewBox="0 0 19 21"><path d="M9.9 2.267a1 1 0 0 0-.8 0l-6 2.625a1 1 0 0 0-.6.916V11.5a7 7 0 1 0 14 0V5.808a1 1 0 0 0-.6-.916zM8.299.434a3 3 0 0 1 2.405 0l6 2.625A3 3 0 0 1 18.5 5.808V11.5a9 9 0 1 1-18 0V5.808a3 3 0 0 1 1.798-2.749z" xmlns="http://www.w3.org/2000/svg" /><path d="M9.5 7.5a1 1 0 0 1 1 1h-2a1 1 0 0 1 1-1m3 1.356V8.5a3 3 0 1 0-6 0v.356c-.602.392-1 1.072-1 1.844v2.1A2.2 2.2 0 0 0 7.7 15h3.6a2.2 2.2 0 0 0 2.2-2.2v-2.1c0-.772-.398-1.452-1-1.844M7.7 10.5h3.6c.11 0 .2.09.2.2v2.1a.2.2 0 0 1-.2.2H7.7a.2.2 0 0 1-.2-.2v-2.1c0-.11.09-.2.2-.2" xmlns="http://www.w3.org/2000/svg" /></svg>