<svg xmlns="http://www.w3.org/2000/svg" viewBox="0 0 20 20"><path d="M14.378 9.877a2.307 2.307 0 0 1 3.245 3.246l-.159.174-3.808 3.809c-.43.43-.968.733-1.555.878l-.254.053-1.709.285a.834.834 0 0 1-.958-.959l.283-1.708.053-.255a3.33 3.33 0 0 1 .879-1.556l3.808-3.808zm1.908 1.337a.64.64 0 0 0-.856-.044l-.05.044-3.807 3.808a1.67 1.67 0 0 0-.44.778l-.025.128-.094.558.56-.093.126-.026c.293-.073.562-.225.777-.44l3.809-3.808.044-.049a.64.64 0 0 0-.044-.856M15 7.084V4a.25.25 0 0 0-.25-.25H9.167v7.917a.833.833 0 0 1-1.667 0V3.75h-.833C5.747 3.75 5 4.496 5 5.417v9.166c0 .92.746 1.667 1.667 1.667a.833.833 0 0 1 0 1.667 3.333 3.333 0 0 1-3.334-3.334V5.417a3.333 3.333 0 0 1 3.334-3.334h8.083c1.059 0 1.917.858 1.917 1.917v3.083a.833.833 0 1 1-1.667 0" xmlns="http://www.w3.org/2000/svg" /></svg>