<svg xmlns="http://www.w3.org/2000/svg" viewBox="0 0 20 20"><path d="M3.378 9.602c.367.02.65.333.63.7a6.82 6.82 0 0 0 2.413 5.578l.324.257.1.091a.666.666 0 0 1-.782 1.043l-.115-.069-.386-.307a8.15 8.15 0 0 1-2.882-6.664.665.665 0 0 1 .698-.629M6.707 9.777c.367.02.648.332.63.699a3.5 3.5 0 0 0 1.237 2.858l.165.132.1.09a.666.666 0 0 1-.781 1.045l-.116-.07-.228-.181a4.83 4.83 0 0 1-1.706-3.944.665.665 0 0 1 .7-.629M12.405 2.908a.666.666 0 0 1 1.15.613l-.052.124-2.68 5.026a.168.168 0 0 0 .15.247h1.11c.367 0 .665.298.665.665v1.667c0 1.013.822 1.835 1.835 1.835h2.083l.135.014a.665.665 0 0 1 0 1.302l-.135.014h-2.083a3.165 3.165 0 0 1-3.165-3.165v-1.002h-.446A1.5 1.5 0 0 1 9.65 8.045l2.68-5.025z" xmlns="http://www.w3.org/2000/svg" /></svg>