<svg xmlns="http://www.w3.org/2000/svg" viewBox="0 0 20 20"><path fill-rule="evenodd" d="M3.747 9.429a.664.664 0 0 0 .839-.424 5.72 5.72 0 0 1 3.043-3.403 2.652 2.652 0 0 0 5.028-1.181 2.652 2.652 0 0 0-5.302-.147A7.05 7.05 0 0 0 3.323 8.59a.664.664 0 0 0 .424.839m7.58-5.008a1.324 1.324 0 1 0-2.648 0 1.324 1.324 0 0 0 2.648 0M14.462 7.234a5.68 5.68 0 0 1 1.217 4.088 2.654 2.654 0 1 0 1.288.432q.065-.476.066-.968c0-1.656-.573-3.18-1.531-4.38l-.196-.236-.099-.093a.665.665 0 0 0-.982.856l.078.11zm1.71 5.588a1.324 1.324 0 1 0-1.322 2.295 1.324 1.324 0 0 0 1.323-2.295" clip-rule="evenodd" xmlns="http://www.w3.org/2000/svg" /><path d="M11.32 17.693a7 7 0 0 1-1.317.124 7 7 0 0 1-2.89-.622c-.344-.155-.448-.58-.25-.9.19-.304.583-.4.912-.26a5.67 5.67 0 0 0 3.297.352.665.665 0 0 1 .248 1.306" xmlns="http://www.w3.org/2000/svg" /><path fill="#10a37f" d="M5.76 11.633a.666.666 0 0 1 1.117.671l-.056.121-2.5 4.167a.666.666 0 0 1-.85.262l-.12-.072-1.667-1.25-.099-.091a.665.665 0 0 1 .898-.973l1.076.808 2.12-3.534z" xmlns="http://www.w3.org/2000/svg" /></svg>