<svg xmlns="http://www.w3.org/2000/svg" viewBox="0 0 16 16"><path d="M8 9.934A.733.733 0 1 1 8 11.4a.733.733 0 0 1 0-1.467M8 4.667c1.01 0 1.711.67 1.911 1.459.2.792-.104 1.716-1.016 2.172a.41.41 0 0 0-.228.369.667.667 0 0 1-1.334 0c0-.661.374-1.266.965-1.562.303-.151.38-.412.32-.652C8.556 6.21 8.352 6 8 6a.67.67 0 0 0-.586.348.666.666 0 0 1-1.17-.64A2 2 0 0 1 8 4.667" xmlns="http://www.w3.org/2000/svg" /><path fill-rule="evenodd" d="M8 1.333a6.667 6.667 0 1 1 0 13.334A6.667 6.667 0 0 1 8 1.333m0 1.334a5.333 5.333 0 1 0 0 10.666A5.333 5.333 0 0 0 8 2.667" clip-rule="evenodd" xmlns="http://www.w3.org/2000/svg" /></svg>