<svg xmlns="http://www.w3.org/2000/svg" viewBox="0 0 20 20"><circle cx="15" cy="5" r="4" fill="#0285ff" xmlns="http://www.w3.org/2000/svg" /><path d="M9.657 2.665q-.276.632-.4 1.33H7.834c-.944 0-1.612 0-2.135.043-.386.032-.659.085-.876.162l-.2.086c-.44.224-.807.564-1.063.983l-.103.183c-.126.247-.206.562-.248 1.076-.043.523-.043 1.191-.043 2.135v2.664c0 .944 0 1.613.043 2.135.042.515.122.829.248 1.076l.103.184c.256.418.624.758 1.063.982l.2.086c.217.078.49.13.876.162.523.043 1.19.043 2.135.043h4.334c.944 0 1.612 0 2.135-.043.514-.042.829-.122 1.076-.248l.184-.102c.418-.257.758-.625.982-1.064l.086-.2c.077-.217.13-.49.162-.876.043-.522.043-1.19.043-2.135v-.794c.473-.157.92-.372 1.33-.638v1.432c0 .922 0 1.654-.048 2.243-.043.522-.125.977-.305 1.395l-.082.177a4 4 0 0 1-1.473 1.593l-.276.155c-.465.237-.974.339-1.57.387-.59.049-1.322.048-2.244.048H7.833c-.922 0-1.654 0-2.243-.048-.522-.042-.977-.126-1.395-.305l-.176-.082a4 4 0 0 1-1.594-1.473l-.154-.275c-.238-.466-.34-.975-.388-1.572-.048-.589-.048-1.32-.048-2.243V8.663c0-.922 0-1.654.048-2.243.049-.597.15-1.106.388-1.571l.154-.276a4 4 0 0 1 1.594-1.472l.176-.083c.418-.18.873-.262 1.395-.305.589-.048 1.32-.048 2.243-.048z" xmlns="http://www.w3.org/2000/svg" /><path d="M5.667 6.002c.367 0 .665.298.665.665v6.666a.665.665 0 0 1-1.33 0V6.667c0-.367.298-.665.665-.665" xmlns="http://www.w3.org/2000/svg" /></svg>