<svg xmlns="http://www.w3.org/2000/svg" viewBox="0 0 20 20"><path d="M17.668 13.998h-5.011l-.693.347a.7.7 0 0 1-.298.07H8.333a.7.7 0 0 1-.298-.07l-.692-.347H2.328v.585c0 .553.45 1.002 1.002 1.002h13.336c.553 0 1.002-.449 1.002-1.002zm-.833-7.581c0-.478 0-.796-.02-1.041a1.4 1.4 0 0 0-.064-.354l-.025-.06a1 1 0 0 0-.304-.356l-.134-.082c-.069-.035-.178-.07-.415-.088-.244-.02-.562-.021-1.04-.021H5.166c-.477 0-.795 0-1.04.02a1.4 1.4 0 0 0-.353.063l-.06.026a1 1 0 0 0-.356.303l-.083.135c-.035.069-.069.177-.088.414a14 14 0 0 0-.02 1.041v6.251H7.5l.076.005q.117.013.221.065l.692.347h3.021l.692-.347.072-.03a.7.7 0 0 1 .226-.04h4.335zm1.33 6.251h.168c.367 0 .665.298.665.665v1.25a2.33 2.33 0 0 1-2.332 2.332H3.33a2.33 2.33 0 0 1-2.332-2.332v-1.25l.014-.134a.665.665 0 0 1 .651-.531h.172V6.417c0-.456 0-.838.025-1.15.026-.318.083-.621.23-.909l.089-.16c.224-.366.545-.664.929-.86l.108-.05a2.5 2.5 0 0 1 .802-.178c.311-.025.693-.025 1.148-.025h9.667c.456 0 .838 0 1.149.025.319.026.622.082.91.229l.16.09c.365.224.663.545.858.93l.051.108c.11.255.156.522.179.8.025.312.025.694.025 1.15z" xmlns="http://www.w3.org/2000/svg" /></svg>