<svg xmlns="http://www.w3.org/2000/svg" viewBox="0 0 20 20"><path d="M16.26 7.438 10.666 10.4v6.446l5.129-2.961.104-.07a.93.93 0 0 0 .363-.74zM10.469 3.04a.94.94 0 0 0-.823-.055l-.112.055-5.207 3.005 5.684 3.197 5.838-3.09-.054-.037zM3.739 13.075c0 .334.178.643.467.81l5.129 2.96v-6.456L3.739 7.24zm13.852 0c0 .759-.38 1.464-1.004 1.882l-.128.08-5.326 3.074A2.27 2.27 0 0 1 9 18.183l-.133-.072-5.327-3.075a2.26 2.26 0 0 1-1.132-1.96V6.924c0-.809.432-1.557 1.132-1.961l5.327-3.075.133-.072a2.27 2.27 0 0 1 2.132.072l5.326 3.075.128.079a2.26 2.26 0 0 1 1.004 1.882z" xmlns="http://www.w3.org/2000/svg" /></svg>