<svg xmlns="http://www.w3.org/2000/svg" viewBox="0 0 20 20"><path d="M16.033 8.5H4.031l-.033 4.167c0 .71.001 1.204.033 1.588.03.375.087.587.167.745l.07.126c.177.288.43.522.732.676l.13.055c.144.052.333.09.615.113.384.031.877.032 1.588.032h5.333c.711 0 1.205-.001 1.588-.032.376-.031.587-.088.745-.168l.127-.072c.288-.176.522-.428.676-.73l.056-.13a2.4 2.4 0 0 0 .112-.615c.031-.384.031-.877.031-1.588zm-3.365-3.917v-.585H7.331v.585a.665.665 0 0 1-1.33 0v-.568c-.438.02-.697.06-.89.134L5 4.2a1.84 1.84 0 0 0-.732.675L4.199 5c-.081.158-.138.37-.168.745-.024.287.003.97.001 1.425h12a23 23 0 0 0-.062-1.425 2.4 2.4 0 0 0-.112-.614L15.802 5a1.84 1.84 0 0 0-.676-.73L15 4.198c-.206-.105-.473-.16-1-.183v.568a.665.665 0 0 1-1.33 0m4.663 8.084c0 .689 0 1.246-.036 1.696-.033.4-.098.762-.242 1.098l-.066.143c-.266.52-.67.956-1.165 1.26l-.218.122c-.377.192-.783.271-1.241.309-.45.037-1.008.037-1.697.037H7.333c-.689 0-1.246 0-1.696-.037-.4-.033-.761-.097-1.098-.241l-.142-.068a3.17 3.17 0 0 1-1.262-1.165l-.122-.217c-.192-.377-.271-.783-.309-1.24-.036-.45-.036-1.008-.036-1.697V7.333c0-.689 0-1.246.036-1.696.038-.458.117-.864.309-1.24l.122-.218c.304-.496.74-.9 1.262-1.165l.232-.104c.399-.152.847-.208 1.372-.228V2.5a.665.665 0 0 1 1.33 0v.168h5.337V2.5a.665.665 0 0 1 1.33 0v.182c.63.025 1.15.1 1.606.332l.218.122c.495.304.9.74 1.165 1.26l.066.143c.144.336.21.697.242 1.098.037.45.036 1.007.036 1.696z" xmlns="http://www.w3.org/2000/svg" /></svg>