<svg xmlns="http://www.w3.org/2000/svg" viewBox="0 0 20 20"><path d="M14.338 3.085c.703.005 1.377.202 1.876.701s.697 1.173.701 1.876c.005.699-.18 1.473-.496 2.265A12.2 12.2 0 0 1 15.324 10c.46.709.829 1.408 1.095 2.073.317.792.5 1.566.496 2.265-.005.702-.202 1.377-.701 1.876s-1.173.696-1.876.701c-.698.005-1.473-.18-2.265-.496A12.2 12.2 0 0 1 10 15.324a12.2 12.2 0 0 1-2.073 1.095c-.792.317-1.566.5-2.265.496-.702-.005-1.377-.202-1.876-.701s-.696-1.174-.701-1.876c-.005-.699.18-1.473.496-2.265.266-.665.635-1.364 1.094-2.073A12.2 12.2 0 0 1 3.58 7.927c-.317-.792-.5-1.566-.496-2.265.005-.703.202-1.377.701-1.876.5-.499 1.174-.696 1.876-.701.699-.005 1.473.18 2.265.496.665.266 1.364.635 2.073 1.094a12.2 12.2 0 0 1 2.073-1.094c.792-.317 1.566-.5 2.265-.496m-8.826 8.088c-.286.483-.518.952-.696 1.394-.276.693-.404 1.29-.4 1.762.002.468.13.764.31.944.181.181.477.309.945.312.472.003 1.07-.125 1.762-.401.442-.177.91-.411 1.393-.697a19 19 0 0 1-1.758-1.555 19 19 0 0 1-1.556-1.76m8.975 0a19 19 0 0 1-3.314 3.314c.483.286.952.52 1.395.697.692.277 1.29.404 1.761.4.468-.002.764-.13.944-.31.181-.181.309-.477.312-.945.003-.472-.124-1.07-.401-1.762a10 10 0 0 0-.697-1.394M10 6.29A17.5 17.5 0 0 0 8.01 8.009 17.5 17.5 0 0 0 6.29 10a17.5 17.5 0 0 0 1.719 1.991c.654.655 1.328 1.23 1.991 1.718a17.5 17.5 0 0 0 1.991-1.718A17.5 17.5 0 0 0 13.71 10a17.5 17.5 0 0 0-1.718-1.991 17.5 17.5 0 0 0-1.99-1.719M5.671 4.415c-.468.003-.764.13-.944.312-.181.18-.309.476-.312.944-.003.471.125 1.07.401 1.762.177.442.41.91.696 1.393.463-.594.984-1.185 1.556-1.758a19 19 0 0 1 1.758-1.556 10 10 0 0 0-1.393-.696c-.693-.277-1.29-.404-1.762-.401m8.658 0c-.471-.003-1.07.124-1.761.401-.443.177-.912.41-1.395.696a19.093 19.093 0 0 1 3.314 3.314c.286-.483.52-.951.697-1.393.277-.693.404-1.29.401-1.762-.003-.468-.13-.764-.312-.944-.18-.181-.476-.309-.944-.312" xmlns="http://www.w3.org/2000/svg" /></svg>