<svg xmlns="http://www.w3.org/2000/svg" viewBox="0 0 20 20"><path d="M4.13 6.716a15 15 0 0 0-1.81 2.62l-.18.34a.7.7 0 0 0 0 .647l.18.34c.47.864 1.294 2.173 2.463 3.318 1.335 1.306 3.072 2.354 5.217 2.354a6.6 6.6 0 0 0 3.01-.738l.98.98c-1.139.65-2.469 1.088-3.99 1.088-2.612 0-4.664-1.282-6.147-2.734-1.296-1.268-2.194-2.7-2.703-3.634l-.195-.369c-.299-.585-.299-1.271 0-1.857l.195-.368a16.3 16.3 0 0 1 2.035-2.93zM2.53 2.529a.67.67 0 0 1 .836-.085l.105.085 14 14 .085.105a.666.666 0 0 1-.922.921l-.104-.085-14-14-.085-.104a.666.666 0 0 1 .085-.837M10 2.335c2.612 0 4.664 1.282 6.147 2.733 1.48 1.45 2.443 3.113 2.898 4.003l.098.225c.168.455.168.952 0 1.408l-.098.224a16.4 16.4 0 0 1-2.231 3.297l-.943-.942a15 15 0 0 0 1.99-2.96l.034-.078a.7.7 0 0 0 0-.49l-.034-.079c-.423-.826-1.308-2.35-2.644-3.658C13.882 4.712 12.146 3.665 10 3.665a6.6 6.6 0 0 0-3.01.736l-.981-.98C7.149 2.77 8.48 2.335 10 2.335" xmlns="http://www.w3.org/2000/svg" /><path d="M7.78 10.368a2.25 2.25 0 0 0 1.851 1.85l1.252 1.252a3.582 3.582 0 0 1-4.356-4.355zM10 6.418a3.582 3.582 0 0 1 3.47 4.464L12.219 9.63a2.25 2.25 0 0 0-1.85-1.851L9.114 6.527q.426-.109.885-.11" xmlns="http://www.w3.org/2000/svg" /></svg>