<svg xmlns="http://www.w3.org/2000/svg" viewBox="0 0 20 20"><path d="M18.296 7.29c.037.451.037 1.005.037 1.676v.2c0 .46-.373.834-.833.834H3.333v2.667c0 .713 0 1.199.031 1.574.03.365.084.552.15.682.16.314.416.569.73.729.13.066.316.12.682.15.375.03.86.031 1.574.031h2.714a.833.833 0 0 1 0 1.667H6.465c-.67 0-1.224 0-1.675-.037-.468-.038-.899-.12-1.303-.326A3.33 3.33 0 0 1 2.03 15.68c-.206-.405-.288-.835-.327-1.303-.037-.452-.037-1.005-.036-1.676V7.3c0-.67 0-1.225.036-1.676.039-.468.12-.899.327-1.303.32-.627.83-1.137 1.457-1.457.404-.206.835-.288 1.303-.326C5.241 2.5 5.795 2.5 6.465 2.5h.71a3.333 3.333 0 0 1 2.35.852c.066.06.13.126.217.212l.014.013c.105.106.137.137.166.164.283.253.644.403 1.023.423.04.002.084.003.233.003h2.356c.671 0 1.225 0 1.676.037.468.038.899.12 1.303.326.627.32 1.137.83 1.457 1.457.206.404.288.835.326 1.303M8.411 4.593a1.67 1.67 0 0 0-1.023-.424 5 5 0 0 0-.233-.002H6.5c-.714 0-1.2 0-1.574.031-.366.03-.552.084-.683.15-.313.16-.568.415-.728.729-.067.13-.12.317-.15.682-.031.375-.032.86-.032 1.574v1h13.332a13 13 0 0 0-.03-.907c-.03-.365-.084-.552-.15-.683a1.67 1.67 0 0 0-.728-.728c-.13-.066-.318-.12-.683-.15-.375-.031-.86-.032-1.574-.032h-2.341c-.122 0-.214 0-.304-.005A3.33 3.33 0 0 1 8.59 4.77l-.014-.014a5 5 0 0 0-.166-.163" xmlns="http://www.w3.org/2000/svg" /><path d="M11.91 15.345a.833.833 0 0 1 0-1.178l2.5-2.5a.833.833 0 0 1 1.179 0l2.5 2.5a.833.833 0 0 1-1.178 1.178l-1.078-1.077v4.067a.833.833 0 1 1-1.667 0v-4.067l-1.077 1.077a.833.833 0 0 1-1.178 0" xmlns="http://www.w3.org/2000/svg" /></svg>