<svg xmlns="http://www.w3.org/2000/svg" viewBox="0 0 20 20"><path d="M9.634 6.111a.666.666 0 0 1 .836.085l2.917 2.917.085.105a.665.665 0 0 1-.921.92l-.105-.084-1.781-1.782v5.062a.666.666 0 0 1-1.33 0V8.272l-1.781 1.782-.105.085a.666.666 0 0 1-.837-1.026L9.53 6.196z" xmlns="http://www.w3.org/2000/svg" /><path fill-rule="evenodd" d="M10 2.085a7.915 7.915 0 1 1 0 15.83 7.915 7.915 0 0 1 0-15.83m0 1.33a6.585 6.585 0 1 0 0 13.17 6.585 6.585 0 0 0 0-13.17" clip-rule="evenodd" xmlns="http://www.w3.org/2000/svg" /></svg>