<svg xmlns="http://www.w3.org/2000/svg" viewBox="0 0 20 20"><path d="M9.663 3.502c.456 0 .838 0 1.15.025.318.026.621.083.909.229.438.223.796.58 1.02 1.02q.094.191.145.393h1.287c.345.003.641.022.92.111.307.1.591.26.833.475.292.258.49.608.75 1.047L18 9.032c.128.216.23.387.304.572q.09.234.132.481c.031.197.029.395.029.646v.966c0 .366 0 .672-.016.923a2.4 2.4 0 0 1-.15.742 2.33 2.33 0 0 1-1.304 1.305c-.24.095-.485.132-.742.148-.19.013-.411.014-.666.015a2.537 2.537 0 0 1-4.765.002H8.216a2.539 2.539 0 0 1-4.775-.024 2.21 2.21 0 0 1-1.906-2.19V6.833c0-.456 0-.838.026-1.15.026-.318.082-.621.228-.909.224-.438.58-.796 1.02-1.02.287-.146.59-.202.909-.228.311-.025.693-.025 1.15-.025zm-3.83 9.246a1.21 1.21 0 1 0 0 2.42 1.21 1.21 0 0 0 0-2.42m7.372 0a1.21 1.21 0 1 0 0 2.42 1.21 1.21 0 0 0 0-2.42M4.867 4.832c-.478 0-.796 0-1.04.02-.237.02-.346.054-.415.09-.188.095-.341.249-.437.437-.035.069-.07.177-.09.414a14 14 0 0 0-.02 1.041v5.783c0 .346.2.645.49.79a2.54 2.54 0 0 1 4.975.095h2.378a2.54 2.54 0 0 1 .957-1.56V6.833c0-.478 0-.796-.02-1.041-.02-.237-.054-.345-.09-.414a1 1 0 0 0-.437-.438c-.069-.035-.177-.07-.414-.088a14 14 0 0 0-1.04-.021zm8.128 2.002v4.594q.105-.01.21-.01c1.246 0 2.28.898 2.496 2.082.19-.001.34-.004.465-.012.191-.012.281-.035.338-.057.256-.102.459-.305.56-.56.023-.058.046-.148.058-.339.013-.197.013-.452.013-.835v-.966c0-.292-.002-.367-.013-.434a1 1 0 0 0-.057-.206c-.025-.064-.06-.128-.21-.38l-1.322-2.232c-.305-.514-.39-.64-.488-.728a1 1 0 0 0-.358-.204c-.126-.04-.278-.048-.875-.048h-.819z" xmlns="http://www.w3.org/2000/svg" /></svg>