<svg xmlns="http://www.w3.org/2000/svg" viewBox="0 0 20 20"><path d="M8.9 18c.98.127 1.236-.971.48-1.334-1.097-.51-1.842-2.696-1.92-6h9.91a.634.634 0 0 0 .638-.627c0-4.441-3.608-8.04-8.04-8.04a8.04 8.04 0 0 0-8.038 8.04c0 4.108 3.088 7.46 6.97 7.96M6.194 9.4h-2.96A6.66 6.66 0 0 1 7.43 3.794C6.694 5.019 6.253 6.96 6.194 9.4m6.275 0h-5.01c.088-3.784 1.04-6.137 2.51-6.137 1.46 0 2.402 2.334 2.5 6.137m4.235 0h-2.97c-.069-2.46-.5-4.382-1.236-5.617A6.67 6.67 0 0 1 16.704 9.4m-13.47 1.265h2.96c.06 2.451.51 4.392 1.236 5.608a6.66 6.66 0 0 1-4.196-5.608m7.745 5.422 1.843 1.774c.46.441.98.422 1.392-.117l3.431-4.48c.589-.766-.529-1.54-1.078-.805l-3.137 4.128-1.52-1.47c-.706-.677-1.578.342-.931.97" xmlns="http://www.w3.org/2000/svg" /></svg>