<svg xmlns="http://www.w3.org/2000/svg" viewBox="0 0 20 20"><path d="M15.585 6.5c0-.711 0-1.204-.032-1.588a2.4 2.4 0 0 0-.112-.615l-.056-.13a1.84 1.84 0 0 0-.676-.731l-.126-.07c-.158-.081-.37-.138-.745-.169-.384-.031-.877-.032-1.588-.032h-4.5c-.711 0-1.204 0-1.588.032a2.4 2.4 0 0 0-.615.112l-.13.056a1.84 1.84 0 0 0-.731.676l-.07.126c-.081.158-.138.37-.169.745-.031.384-.032.877-.032 1.588v9.635q.044-.034.086-.064c.221-.152.448-.277.71-.35l.154-.037a2.3 2.3 0 0 1 1.09.037l.19.063c.186.073.354.173.52.287.215.148.46.344.75.575l.001.002.003-.002.402-.319a8 8 0 0 1 .347-.256c.221-.152.447-.277.71-.35l.154-.037c.36-.074.734-.062 1.09.037l.19.063c.186.073.354.173.52.287.214.147.46.344.75.575l.001.002.002-.002c.29-.231.535-.427.75-.575.221-.152.447-.278.71-.35l.153-.037c.36-.074.734-.062 1.09.037l.191.063c.185.073.354.173.52.287q.042.03.086.064zm-5.168 3.668.134.014a.666.666 0 0 1 0 1.302l-.134.014h-2.5a.665.665 0 1 1 0-1.33zm1.666-3.333.135.014a.665.665 0 0 1 0 1.302l-.135.014H7.917a.665.665 0 0 1 0-1.33zM16.915 17.5a.665.665 0 0 1-1.08.52l-.418-.334a13 13 0 0 0-.67-.518 2 2 0 0 0-.191-.117l-.122-.049a1 1 0 0 0-.402-.026l-.133.026a1.1 1.1 0 0 0-.312.166 13 13 0 0 0-.671.518l-.417.334a.67.67 0 0 1-.735.063l-.096-.063-.418-.334a13 13 0 0 0-.67-.518 2 2 0 0 0-.191-.117l-.122-.049a1 1 0 0 0-.402-.026l-.132.026a1.1 1.1 0 0 0-.312.166 6 6 0 0 0-.283.21l-.388.308-.418.334a.665.665 0 0 1-.831 0l-.417-.334a13 13 0 0 0-.67-.518 2 2 0 0 0-.192-.117l-.121-.049a1 1 0 0 0-.402-.026l-.133.026a1.1 1.1 0 0 0-.312.166 6 6 0 0 0-.283.21l-.388.308-.418.334a.665.665 0 0 1-1.08-.52v-11c0-.69 0-1.246.036-1.696.038-.458.117-.864.309-1.24l.122-.22c.304-.495.74-.899 1.261-1.164l.143-.067c.336-.144.697-.21 1.098-.242.45-.037 1.007-.036 1.696-.036h4.5c.69 0 1.246 0 1.696.036.458.038.864.117 1.24.309l.22.122c.495.304.899.74 1.164 1.261l.067.143c.144.336.21.697.242 1.098.037.45.036 1.007.036 1.696z" xmlns="http://www.w3.org/2000/svg" /></svg>