<svg xmlns="http://www.w3.org/2000/svg" viewBox="0 0 20 20"><path d="M10 12.189a1 1 0 1 1 0 2 1 1 0 0 1 0-2M10 7.024c.367 0 .665.298.665.665v2.667a.665.665 0 0 1-1.33 0V7.689c0-.367.298-.665.665-.665" xmlns="http://www.w3.org/2000/svg" /><path d="M7.765 3.149c1.125-1.583 3.537-1.53 4.576.16l6.272 10.19c1.126 1.832-.192 4.189-2.341 4.189H3.729c-2.15 0-3.468-2.357-2.341-4.188L7.659 3.307zm3.443.855a1.42 1.42 0 0 0-2.304-.158l-.112.158-6.271 10.192a1.419 1.419 0 0 0 1.208 2.162h12.543c1.109 0 1.789-1.217 1.208-2.162z" xmlns="http://www.w3.org/2000/svg" /></svg>