<svg xmlns="http://www.w3.org/2000/svg" viewBox="0 0 20 20"><path d="M11.915 16.666a.666.666 0 0 0-.665-.665h-2.5a.665.665 0 0 0 0 1.33h2.5a.665.665 0 0 0 .665-.665M4.149 14.235a.665.665 0 0 0-1.225.446l.033.13.069.172q.036.084.078.166l.154.275a4 4 0 0 0 1.593 1.472l.168.079.172.068.13.034a.666.666 0 0 0 .446-1.225l-.121-.059-.19-.082a2.67 2.67 0 0 1-1.064-.982l-.103-.185-.082-.188zM16.645 13.958a.666.666 0 0 0-.853.398l-.082.188c-.224.44-.563.807-.981 1.064l-.185.103a2 2 0 0 1-.187.081.665.665 0 0 0 .456 1.25q.173-.063.336-.146l.275-.155a4 4 0 0 0 1.472-1.592l.078-.166q.036-.085.068-.172a.665.665 0 0 0-.397-.853M2.668 8.75v2.5a.665.665 0 0 0 1.33 0v-2.5a.665.665 0 0 0-1.33 0M16.002 10v1.25a.665.665 0 0 0 1.33 0V10a.665.665 0 1 0-1.33 0M3.355 6.041a.665.665 0 0 0 .852-.396q.037-.1.082-.19l.103-.183a2.67 2.67 0 0 1 1.063-.983l.19-.083a.665.665 0 0 0-.322-1.283l-.131.033a3 3 0 0 0-.173.069l-.168.079a4 4 0 0 0-1.593 1.472l-.154.276q-.084.162-.147.337a.665.665 0 0 0 .398.852M10.134 2.682 10 2.668H8.75a.665.665 0 0 0 0 1.33H10l.134-.013a.665.665 0 0 0 0-1.303M13.465 3.113a2.43 2.43 0 0 1 3.255.167l.167.185c.727.892.727 2.18 0 3.071l-.168.185-5.046 5.048a4 4 0 0 1-1.945 1.072l-.317.058-1.817.26a.665.665 0 0 1-.752-.753l.26-1.816.058-.319a4 4 0 0 1 1.072-1.944L13.28 3.28zm2.314 1.108a1.103 1.103 0 0 0-1.476-.076l-.084.076-5.046 5.048a2.67 2.67 0 0 0-.716 1.296l-.04.212-.134.939.94-.134.211-.039a2.67 2.67 0 0 0 1.298-.716L15.78 5.78l.076-.084c.33-.404.33-.988 0-1.392z" xmlns="http://www.w3.org/2000/svg" /></svg>