<svg xmlns="http://www.w3.org/2000/svg" viewBox="0 0 20 20"><path d="M15.169 8.086c0-2.875-2.318-5.199-5.17-5.199-2.85 0-5.167 2.324-5.167 5.198 0 1.829.94 3.434 2.358 4.36h5.62a5.2 5.2 0 0 0 2.359-4.36M8.47 16.11a1.668 1.668 0 0 0 3.06 0zm-.811-1.33h4.683v-1.004H7.659zm8.84-6.694a6.53 6.53 0 0 1-2.827 5.384v1.975a.666.666 0 0 1-.665.665h-.085a2.998 2.998 0 0 1-5.844 0h-.084a.665.665 0 0 1-.665-.665V13.47a6.53 6.53 0 0 1-2.827-5.385c0-3.602 2.906-6.528 6.498-6.528s6.499 2.926 6.499 6.528" xmlns="http://www.w3.org/2000/svg" /></svg>