<svg xmlns="http://www.w3.org/2000/svg" viewBox="0 0 20 20" fill-rule="evenodd" clip-rule="evenodd"><path d="M7.715 1.667h4.569c.67 0 1.224 0 1.675.036.469.039.9.12 1.304.327.627.32 1.137.83 1.456 1.457.206.404.289.835.327 1.303.037.451.037 1.005.037 1.676V17.5a.833.833 0 0 1-1.354.65l-1.563-1.25-1.563 1.25a.83.83 0 0 1-1.04 0L9.998 16.9l-1.562 1.25a.83.83 0 0 1-1.042 0L5.833 16.9 4.27 18.15a.833.833 0 0 1-1.354-.65V6.466c0-.671 0-1.225.037-1.676.038-.468.12-.899.326-1.303.32-.628.83-1.137 1.457-1.457.404-.206.835-.288 1.304-.327.45-.036 1.004-.036 1.675-.036m-1.54 1.698c-.365.03-.552.084-.682.15-.314.16-.569.415-.729.728-.066.13-.12.318-.15.683-.03.375-.031.86-.031 1.574v9.266l.73-.583a.83.83 0 0 1 1.04 0l1.563 1.25 1.563-1.25a.83.83 0 0 1 1.04 0l1.564 1.25 1.562-1.25a.83.83 0 0 1 1.042 0l.729.583V6.5c0-.714 0-1.2-.031-1.574-.03-.365-.084-.552-.15-.683a1.67 1.67 0 0 0-.729-.728c-.13-.066-.317-.12-.683-.15-.375-.031-.86-.032-1.574-.032h-4.5c-.713 0-1.199.001-1.574.032M7.083 7.5c0-.46.373-.833.833-.833h4.167a.833.833 0 0 1 0 1.666H7.916a.833.833 0 0 1-.833-.833m0 3.333c0-.46.373-.833.833-.833h2.5a.833.833 0 1 1 0 1.667h-2.5a.833.833 0 0 1-.833-.834" xmlns="http://www.w3.org/2000/svg" /></svg>