<svg xmlns="http://www.w3.org/2000/svg" viewBox="0 0 32 32"><path d="M18.394 31.857q-1.585 0-3.012-.602a8.2 8.2 0 0 1-2.538-1.681 7.7 7.7 0 0 1-2.505.412 7.7 7.7 0 0 1-3.933-1.047 8.2 8.2 0 0 1-2.917-2.854q-1.08-1.808-1.079-4.028 0-.92.254-1.998a8.4 8.4 0 0 1-1.966-2.695A7.8 7.8 0 0 1 0 14.129q0-1.713.73-3.299a8.1 8.1 0 0 1 2.03-2.727 7.3 7.3 0 0 1 3.075-1.618 7.5 7.5 0 0 1 1.46-3.234 8.1 8.1 0 0 1 2.79-2.284 7.8 7.8 0 0 1 3.52-.824q1.587 0 3.013.602a8.2 8.2 0 0 1 2.538 1.681 7.7 7.7 0 0 1 2.505-.412q2.125 0 3.933 1.046a7.95 7.95 0 0 1 2.886 2.855q1.11 1.807 1.11 4.027 0 .921-.254 1.998a8.3 8.3 0 0 1 1.966 2.728A7.6 7.6 0 0 1 32 17.87a7.8 7.8 0 0 1-.73 3.298 8.2 8.2 0 0 1-2.06 2.76 7.25 7.25 0 0 1-3.046 1.585 7.3 7.3 0 0 1-1.49 3.235 7.8 7.8 0 0 1-2.76 2.284q-1.648.825-3.52.824m-7.77-4.313q1.49 0 2.633-.666l5.74-3.298q.35-.223.349-.603v-2.22l-7.072 4.06q-.983.57-1.967 0l-5.455-3.14v.254q0 1.553.73 2.854a5.44 5.44 0 0 0 2.093 1.998q1.332.76 2.95.761m.286-5.17a.64.64 0 0 0 .349.127 1.4 1.4 0 0 0 .348-.127l1.935-1.078-7.04-4.123q-.984-.54-.984-1.712V9.213a5.63 5.63 0 0 0-2.22 2.061 5.44 5.44 0 0 0-.793 2.886q0 1.491.73 2.855.761 1.332 1.966 2.03zm7.453 7.01q1.617 0 2.918-.73a5.27 5.27 0 0 0 2.03-1.998q.76-1.269.76-2.823v-6.596a.64.64 0 0 0-.349-.603l-1.934-1.173v8.182q0 1.173-.983 1.713l-5.423 3.14q1.396.887 2.98.887m.983-11.386v-3.996l-3.33-1.903-3.362 1.903v3.996l3.362 1.903zm-9.134-9.641q0-1.174.983-1.713l5.423-3.14q-1.395-.888-2.98-.888-1.587 0-2.887.73A5.5 5.5 0 0 0 8.69 5.344q-.73 1.268-.73 2.822v6.565q0 .38.35.635l1.902 1.173zm16.301 14.43a5.25 5.25 0 0 0 2.157-2.03q.825-1.332.824-2.918 0-1.49-.76-2.822-.73-1.365-1.935-2.062L21.09 9.657q-.19-.127-.349-.095a.8.8 0 0 0-.349.095l-1.934 1.047 7.072 4.154q.508.285.73.698.253.38.253.983zM19.727 7.12q.982-.603 1.966 0l5.455 3.203v-.19q0-1.46-.73-2.76a5.3 5.3 0 0 0-2.03-2.124q-1.299-.793-3.012-.793-1.491 0-2.633.666l-5.74 3.298q-.35.222-.349.603v2.22z" xmlns="http://www.w3.org/2000/svg" /></svg>