<svg xmlns="http://www.w3.org/2000/svg" viewBox="0 0 20 20"><path d="M12.082 6.907a.665.665 0 0 1 1.084.77l-3.548 5a.666.666 0 0 1-1.034.065l-1.867-2.038-.08-.108a.665.665 0 0 1 .96-.88l.1.089 1.311 1.43zM16.002 10V7.333c0-.71 0-1.204-.032-1.588a2.4 2.4 0 0 0-.112-.615L15.802 5a1.84 1.84 0 0 0-.675-.731l-.128-.07c-.158-.08-.369-.138-.745-.168-.383-.032-.877-.033-1.588-.033H7.333c-.71 0-1.204.001-1.587.033-.282.023-.472.06-.616.11L5 4.2a1.84 1.84 0 0 0-.731.675L4.199 5c-.08.158-.138.37-.168.745-.032.384-.032.877-.032 1.588v4.917c0 .711 0 1.205.032 1.588.03.376.087.587.168.745l.07.126c.176.288.43.522.731.676l.13.056c.144.051.334.089.616.112.383.031.876.032 1.587.032h7.728l-.948-.948-.085-.104a.666.666 0 0 1 .922-.921l.104.085 2.083 2.083a.666.666 0 0 1 0 .94l-2.083 2.084a.666.666 0 0 1-.941-.941l.947-.948H7.333c-.689 0-1.246 0-1.696-.037-.4-.032-.761-.097-1.097-.241l-.143-.067a3.17 3.17 0 0 1-1.262-1.165l-.122-.218c-.192-.377-.271-.783-.308-1.24-.037-.45-.037-1.008-.037-1.697V7.333c0-.689 0-1.246.037-1.696.037-.458.116-.864.308-1.24l.122-.219c.304-.496.74-.9 1.262-1.165l.143-.066c.336-.145.697-.21 1.097-.243.45-.036 1.007-.036 1.697-.036h5.333c.688 0 1.246 0 1.696.036.458.038.864.117 1.241.309l.218.122c.496.304.9.74 1.165 1.262l.066.142c.145.337.21.697.242 1.098.037.45.036 1.007.036 1.696V10a.665.665 0 0 1-1.33 0" xmlns="http://www.w3.org/2000/svg" /></svg>