<svg xmlns="http://www.w3.org/2000/svg" viewBox="0 0 20 20"><path d="M15.37 10.324c0-.452-.003-.661-.018-.79l-.02-.107a1.14 1.14 0 0 0-.664-.758l-.143-.049c-.119-.032-.12-.03-.147-.033l-.46-.005-.136-.014a.665.665 0 0 1 .135-1.316h1.637c.494 0 .906-.001 1.24.026.342.028.662.088.965.243l.17.095c.387.238.703.578.91.985l.053.114c.115.268.165.551.19.85.026.335.026.746.026 1.24v1.69c-.003.285-.013.528-.055.747l-.03.13a2.47 2.47 0 0 1-1.588 1.698l-.159.048c-.335.09-.724.084-1.24.084-.1 0-.195.04-.264.11l-.06.078-2.108 3.69a.67.67 0 0 1-.66.33l-.273-.034a2.472 2.472 0 0 1-2.056-3.179l.307-.995H10a.665.665 0 0 1 0-1.33h1.822a.666.666 0 0 1 .636.86l-.571 1.857a1.14 1.14 0 0 0 .789 1.434l1.882-3.293.06-.097c.186-.281.45-.496.752-.625zM7.075.59l.274.034.14.022a2.47 2.47 0 0 1 1.952 3.019l-.038.138-.31 1.002q.26.005.475.021c.367.029.712.09 1.027.256l.232.14c.52.352.89.891 1.028 1.511l.025.13c.045.305.013.611-.047.928q-.051.27-.138.6l-.196.731-.274 1.008c-.168.616-.293 1.107-.535 1.497l-.112.161c-.23.3-.527.541-.865.707l-.147.067c-.483.199-1.04.186-1.77.186H4.465c-.495 0-.906.001-1.24-.026a2.7 2.7 0 0 1-.85-.19l-.115-.053a2.47 2.47 0 0 1-.985-.91l-.094-.17c-.154-.302-.215-.622-.243-.964C.91 10.1.91 9.689.91 9.195V7.87c0-.517-.006-.906.084-1.241l.048-.157c.265-.777.9-1.376 1.7-1.59l.128-.03c.306-.059.66-.054 1.112-.054a.37.37 0 0 0 .324-.188L6.415.92l.056-.082A.67.67 0 0 1 7.075.59M16.7 13.862c.111-.005.177-.014.233-.029l.143-.049c.324-.135.571-.413.663-.758l.02-.107c.015-.129.018-.338.018-.79v-1.323c0-.517 0-.864-.021-1.132a1.6 1.6 0 0 0-.071-.398l-.032-.072c-.082-.16-.2-.299-.345-.404l-.153-.094c-.083-.043-.21-.08-.47-.102a6 6 0 0 0-.26-.014q.121.233.191.493l.03.128c.042.219.052.462.054.748zM4.65 9.676c0 .602.005.774.039.897l.048.143c.135.324.414.572.758.664l.108.02c.128.015.337.018.789.018h1.405c.85 0 1.082-.012 1.262-.086l.133-.065a1.1 1.1 0 0 0 .334-.292l.043-.062c.097-.156.178-.416.373-1.134l.275-1.008.191-.711c.052-.201.091-.37.12-.517.041-.219.049-.353.041-.443l-.01-.079a1.14 1.14 0 0 0-.476-.698l-.107-.064c-.08-.042-.216-.084-.511-.107a18 18 0 0 0-1.268-.024.665.665 0 0 1-.635-.86l.57-1.857.032-.127a1.14 1.14 0 0 0-.82-1.307L5.46 5.27a1.7 1.7 0 0 1-.812.72zM2.24 9.194c0 .517 0 .864.023 1.132.021.26.059.386.101.47l.094.152c.105.145.244.264.405.346l.073.031c.082.03.202.055.396.07q.12.01.26.014a2.5 2.5 0 0 1-.143-.334l-.048-.158c-.09-.335-.084-.724-.084-1.241v-3.54q-.073.004-.124.01l-.107.021a1.14 1.14 0 0 0-.758.663l-.049.144c-.033.123-.039.294-.039.896z" xmlns="http://www.w3.org/2000/svg" /></svg>