<svg xmlns="http://www.w3.org/2000/svg" viewBox="0 0 20 20"><path d="m3.577 9.14.467.474a.665.665 0 0 0 0-.948zm1.575-4.033.094.658a.665.665 0 0 0 .57-.662zm0-.029h-.665v.004zm9.691 0 .665.004v-.004zm0 .029-.665-.004a.665.665 0 0 0 .57.662zm1.575 4.033-.467-.474a.665.665 0 0 0 0 .948zm-.978 5.49-.236-.622a.67.67 0 0 0-.416.493zm-10.886 0 .653-.129a.67.67 0 0 0-.416-.492zM3.095 8.72a.665.665 0 0 0 .931.95zm2.438.334a.665.665 0 1 0 0-1.33zm12.382 2.96a.665.665 0 1 0-1.33 0zm-4.406 1.948a.665.665 0 0 0-.57 1.2zm1.986-8.795a.665.665 0 1 0-1.33 0zm-2.31 1.573a.665.665 0 1 0 .586 1.194zM5.152 5.078l-.665.004v.029l.665-.004.665-.004v-.029zm9.69.029.666.004v-.03l-.665-.003-.665-.004v.029zm-4.845.036h-.665v9.701h1.33V5.143zM4.554 14.63l-.652.129c.353 1.784 1.737 2.973 3.223 3.137a2.99 2.99 0 0 0 2.172-.599c.648-.5 1.121-1.279 1.35-2.31l-.65-.143-.649-.144c-.175.789-.508 1.27-.863 1.544a1.66 1.66 0 0 1-1.214.33c-.885-.098-1.82-.835-2.064-2.073zm5.443.214-.649.144c.228 1.03.701 1.81 1.35 2.31.648.5 1.422.68 2.172.598 1.485-.164 2.87-1.353 3.223-3.137l-.653-.129-.652-.129c-.245 1.238-1.179 1.975-2.064 2.073a1.66 1.66 0 0 1-1.214-.33c-.355-.274-.689-.755-.863-1.544zM3.577 9.14l-.466-.474c-.928.913-1.163 2.355-.955 3.59.207 1.231.905 2.517 2.162 2.996l.236-.622.237-.622c-.647-.246-1.159-.996-1.324-1.974-.164-.975.064-1.915.577-2.42zm1.575-4.033-.095-.659c-1.325.19-2.358.918-2.775 1.951-.427 1.057-.141 2.26.829 3.215l.466-.474.467-.474c-.651-.64-.722-1.289-.529-1.768.203-.503.768-.995 1.731-1.133zM16.418 9.14l.466.474c.97-.955 1.255-2.158.829-3.215-.418-1.033-1.45-1.76-2.776-1.95l-.094.658-.095.658c.964.138 1.529.63 1.731 1.133.194.479.123 1.128-.528 1.768zm-.978 5.49.237.622c1.257-.479 1.954-1.765 2.162-2.997.208-1.234-.028-2.676-.955-3.589l-.466.474-.467.474c.513.505.74 1.445.576 2.42-.165.978-.676 1.728-1.323 1.974zm-.597-9.552h.665c0-.971-.383-1.744-.99-2.262-.594-.507-1.362-.739-2.105-.73-.743.007-1.508.255-2.097.773-.603.53-.984 1.308-.984 2.284h1.33c0-.605.225-1.016.531-1.285.32-.28.766-.438 1.234-.443.469-.005.912.144 1.227.413.301.257.524.654.524 1.25zm-4.846.065h.665c0-.976-.38-1.755-.983-2.284-.59-.518-1.355-.766-2.098-.774s-1.51.224-2.104.731c-.607.518-.99 1.29-.99 2.262h1.33c0-.596.222-.993.523-1.25.316-.27.759-.418 1.227-.413s.915.163 1.234.443c.307.27.531.68.531 1.285zM3.561 9.194l.465.475c.39-.381.92-.615 1.507-.615v-1.33c-.949 0-1.81.38-2.438.996zm13.689 2.82h-.665c0 1.19-.964 2.155-2.153 2.155v1.33a3.484 3.484 0 0 0 3.483-3.485zm-2.818 2.82v-.665c-.332 0-.644-.075-.923-.207l-.285.6-.286.6c.454.216.96.337 1.494.337zm.398-9.667h-.665c0 .69-.398 1.287-.98 1.573l.293.597.293.597a3.08 3.08 0 0 0 1.724-2.767z" xmlns="http://www.w3.org/2000/svg" /></svg>