<svg xmlns="http://www.w3.org/2000/svg" viewBox="0 0 20 20"><path d="M12.97 17.97a.667.667 0 0 1-.94-.94zM17.554 17.03a.665.665 0 0 1-.94.94z" xmlns="http://www.w3.org/2000/svg" /><path d="M16.613 12.446a.666.666 0 0 1 .94.942l-1.82 1.82 1.82 1.822-.47.47-.47.47-1.822-1.82-1.82 1.82-.471-.47-.47-.47 1.82-1.822-1.82-1.82-.086-.105a.666.666 0 0 1 .922-.922l.105.085 1.82 1.822z" xmlns="http://www.w3.org/2000/svg" /><path d="M14.75 2.252A1.75 1.75 0 0 1 16.499 4v5.584a.666.666 0 0 1-1.33 0V4a.42.42 0 0 0-.419-.418H8.998v9.334a.665.665 0 1 1-1.33 0V3.582H6.667a1.835 1.835 0 0 0-1.835 1.835v9.167l.01.188a1.836 1.836 0 0 0 1.825 1.647H8.75l.135.014a.665.665 0 0 1 0 1.302l-.135.014H6.667a3.166 3.166 0 0 1-3.161-3.003l-.004-.162V5.417a3.165 3.165 0 0 1 3.165-3.165z" xmlns="http://www.w3.org/2000/svg" /></svg>