<svg xmlns="http://www.w3.org/2000/svg" viewBox="0 0 20 20" fill-rule="evenodd" clip-rule="evenodd"><path d="M13.5 2.668c.69 0 1.246 0 1.696.036.458.038.864.117 1.24.309l.22.122c.495.304.899.74 1.164 1.261l.067.143c.144.336.21.697.242 1.098.037.45.036 1.007.036 1.696v5.333c0 .689 0 1.246-.036 1.696-.033.401-.098.762-.242 1.099l-.067.143c-.265.52-.67.956-1.165 1.26l-.219.122c-.376.192-.782.271-1.24.309-.45.037-1.007.036-1.696.036h-7c-.69 0-1.246 0-1.696-.036-.401-.033-.762-.098-1.098-.242l-.143-.067a3.17 3.17 0 0 1-1.261-1.165l-.122-.217c-.192-.377-.271-.784-.309-1.242-.037-.45-.036-1.007-.036-1.696V7.333c0-.689 0-1.246.036-1.696.038-.458.117-.864.309-1.24a3.17 3.17 0 0 1 1.383-1.384c.377-.192.783-.271 1.24-.309.45-.037 1.008-.036 1.697-.036zm-8.083 8.75a.665.665 0 0 0-.134 1.316l.134.014.103.005c.504.051.899.479.899.997a.665.665 0 0 0 1.33 0c0-1.207-.918-2.2-2.094-2.32zm0-3.333a.665.665 0 0 0-.134 1.316l.134.014.223.006a4.335 4.335 0 0 1 4.112 4.329.665.665 0 0 0 1.33 0c0-3.03-2.38-5.505-5.373-5.657z" xmlns="http://www.w3.org/2000/svg" /></svg>