<svg xmlns="http://www.w3.org/2000/svg" viewBox="0 0 20 20"><path d="M16.417 7.334c0-.712 0-1.205-.032-1.588a2.4 2.4 0 0 0-.113-.616L16.218 5a1.84 1.84 0 0 0-.676-.731l-.126-.07c-.158-.08-.37-.138-.745-.168-.383-.032-.877-.032-1.588-.032H6.915c-.711 0-1.204 0-1.588.032a2.4 2.4 0 0 0-.615.111l-.13.057a1.84 1.84 0 0 0-.731.676L3.78 5c-.081.159-.138.37-.169.746-.031.383-.032.876-.032 1.587v4.928c0 .643.004.863.04 1.032l.031.131c.187.65.72 1.15 1.39 1.29l.14.02c.164.016.407.018.89.018.197 0 .333 0 .467.01l.18.02c.419.058.823.2 1.187.419l.176.114.21.148 1.32.943.293.203c.058.035.067.034.053.03l.041.005a.2.2 0 0 0 .042-.005l.052-.03c.065-.04.148-.099.295-.203l1.32-.943.208-.148q.091-.064.177-.114l.158-.09a3.2 3.2 0 0 1 1.209-.349l.21-.009.257-.002c.642 0 .862-.002 1.031-.038l.132-.033a1.84 1.84 0 0 0 1.289-1.387l.02-.143a11 11 0 0 0 .019-.889zm1.33 4.927c0 .432.002.76-.027 1.038l-.04.265a3.17 3.17 0 0 1-2.224 2.395l-.227.056c-.337.07-.728.066-1.303.066l-.359.007c-.21.017-.415.07-.606.157l-.187.097-.295.203-1.319.943c-.204.146-.427.315-.682.406l-.112.034a1.5 1.5 0 0 1-.553.035l-.182-.035c-.227-.057-.43-.183-.614-.312l-.18-.128-1.32-.943-.294-.203a1.8 1.8 0 0 0-.585-.225l-.208-.029a5 5 0 0 0-.36-.007c-.432 0-.759.003-1.038-.026l-.264-.04a3.17 3.17 0 0 1-2.395-2.224l-.056-.227c-.07-.337-.067-.727-.067-1.303V7.334c0-.69 0-1.247.036-1.697.038-.458.117-.863.309-1.24l.122-.219c.304-.495.74-.9 1.262-1.165l.142-.066c.336-.144.697-.21 1.098-.242.45-.037 1.007-.037 1.696-.037h6.167c.689 0 1.246 0 1.696.037.458.037.864.116 1.24.308l.218.122c.496.304.9.74 1.165 1.262l.068.143c.144.336.208.697.241 1.097.037.45.037 1.007.037 1.697z" xmlns="http://www.w3.org/2000/svg" /><path fill-rule="evenodd" d="M11.323 12.201a.665.665 0 0 0 .912-.227l1.25-2.084a.66.66 0 0 0 0-.684l-1.25-2.084a.665.665 0 0 0-1.14.685l1.044 1.741-1.044 1.741a.665.665 0 0 0 .228.912M8.677 12.201a.665.665 0 0 1-.912-.227L6.515 9.89a.66.66 0 0 1 0-.684l1.25-2.084a.665.665 0 0 1 1.14.685L7.861 9.548l1.044 1.741a.665.665 0 0 1-.228.912" clip-rule="evenodd" xmlns="http://www.w3.org/2000/svg" /></svg>