<svg xmlns="http://www.w3.org/2000/svg" viewBox="0 0 24 24"><path d="M15 15a1 1 0 1 1 0 2H8a1 1 0 1 1 0-2zM13 11a1 1 0 1 1 0 2H8a1 1 0 1 1 0-2zM10.75 7a1 1 0 1 1 0 2H8a1 1 0 1 1 0-2zM16 7a1 1 0 1 1 0 2h-1.75a1 1 0 1 1 0-2z" xmlns="http://www.w3.org/2000/svg" /><path d="M15.2 3c.824 0 1.502-.001 2.052.044.562.046 1.08.144 1.564.392l.276.154a4 4 0 0 1 1.473 1.594l.085.183c.186.432.266.89.306 1.381.045.55.044 1.228.044 2.052v6.4c0 .824.001 1.502-.044 2.052-.04.492-.12.95-.306 1.38l-.085.184a4 4 0 0 1-1.473 1.594l-.276.154c-.485.248-1.002.346-1.564.392-.55.045-1.228.044-2.052.044H8.8c-.824 0-1.502.001-2.052-.044-.492-.04-.95-.12-1.38-.306l-.184-.085a4 4 0 0 1-1.594-1.473l-.154-.276c-.248-.485-.346-1.002-.392-1.564C2.999 16.702 3 16.024 3 15.2V8.8c0-.824-.001-1.502.044-2.052.046-.562.144-1.08.392-1.564a4 4 0 0 1 1.748-1.748c.485-.248 1.002-.346 1.564-.392C7.298 2.999 7.976 3 8.8 3zM8.8 5c-.857 0-1.439 0-1.889.037-.438.036-.663.101-.82.18a2 2 0 0 0-.873.875c-.08.156-.145.38-.18.82C5 7.361 5 7.942 5 8.8v6.4c0 .857 0 1.439.037 1.889.036.438.101.663.18.82l.078.137a2 2 0 0 0 .797.736l.133.057c.15.053.358.097.686.124C7.361 19 7.943 19 8.8 19h6.4c.857 0 1.439 0 1.889-.037.438-.036.663-.101.82-.18l.137-.078a2 2 0 0 0 .736-.797l.057-.133c.053-.15.097-.357.124-.686.037-.45.037-1.032.037-1.889V8.8c0-.857 0-1.439-.037-1.889-.027-.328-.07-.537-.124-.686l-.057-.133a2 2 0 0 0-.736-.797l-.138-.077c-.156-.08-.38-.145-.82-.18C16.639 5 16.058 5 15.2 5z" xmlns="http://www.w3.org/2000/svg" /></svg>