<svg xmlns="http://www.w3.org/2000/svg" viewBox="0 0 20 20"><path d="M11.755 2.936a2.34 2.34 0 1 1 3.31 3.31L10.612 10.7a3.75 3.75 0 0 1-2.12 1.06l-1.636.234a.75.75 0 0 1-.848-.848L6.24 9.51a3.75 3.75 0 0 1 1.06-2.121zm2.25 1.06a.84.84 0 0 0-1.19 0L8.362 8.45a2.25 2.25 0 0 0-.636 1.273l-.092.645.645-.092a2.25 2.25 0 0 0 1.273-.636l4.453-4.453a.84.84 0 0 0 0-1.19M8.25 3a.75.75 0 0 1-.75.751c-.748 0-1.277.006-1.69.045-.405.039-.646.106-.831.2a2.25 2.25 0 0 0-.984.983c-.1.198-.17.459-.207.913-.037.462-.038 1.057-.038 1.909v2.4c0 .852 0 1.447.038 1.91.037.453.107.714.207.912.216.423.56.767.984.983.197.1.458.17.912.207.462.037 1.057.038 1.909.038h2.4c.853 0 1.447 0 1.91-.038.453-.037.714-.107.912-.207a2.25 2.25 0 0 0 .983-.983c.094-.186.161-.427.2-.832.039-.413.044-.942.045-1.69a.75.75 0 0 1 1.5 0c0 .734-.005 1.336-.052 1.832-.048.505-.144.953-.357 1.37a3.75 3.75 0 0 1-1.638 1.64c-.445.226-.925.32-1.471.365-.531.043-1.187.043-2 .043H7.768c-.813 0-1.469 0-2-.043-.546-.045-1.026-.14-1.47-.366a3.75 3.75 0 0 1-1.64-1.639c-.226-.444-.32-.924-.365-1.47-.043-.532-.043-1.187-.043-2V7.77c0-.813 0-1.469.043-2 .045-.546.14-1.026.366-1.47a3.75 3.75 0 0 1 1.639-1.64c.417-.212.865-.308 1.37-.356.496-.047 1.098-.051 1.831-.052a.75.75 0 0 1 .751.75" xmlns="http://www.w3.org/2000/svg" /></svg>