<svg xmlns="http://www.w3.org/2000/svg" viewBox="0 0 20 20"><path d="M16.001 9.042V7.337c0-.711 0-1.205-.031-1.588a2.4 2.4 0 0 0-.112-.615l-.056-.13a1.84 1.84 0 0 0-.676-.732L15 4.202c-.158-.08-.37-.137-.745-.168-.383-.031-.877-.032-1.588-.032H7.333c-.71 0-1.204 0-1.588.032a2.4 2.4 0 0 0-.615.111L5 4.202a1.84 1.84 0 0 0-.731.676l-.07.126c-.081.158-.138.37-.168.745-.032.383-.033.877-.033 1.588v5.33c0 .71.001 1.204.033 1.588.03.375.087.587.167.745l.07.126c.177.287.43.522.732.676l.13.055c.144.052.333.09.615.113.384.03.877.032 1.588.032h3.262c.55 0 .874-.008 1.1-.03a4 4 0 0 1-.278-.533l-.053-.14a3.17 3.17 0 0 1 .841-3.348l.114-.099c.277-.225.643-.427 1.152-.714l2.453-1.38.034.062c.007-.032.017-.063.022-.095l.011-.103c.01-.113.01-.269.01-.58m-1.878 3.256c-.487.274-.732.415-.885.525l-.128.102a1.84 1.84 0 0 0-.489 1.942l.065.151c.04.083.099.182.181.319.142-.185.311-.47.624-1.016l1.404-2.458zM10 9.335a.666.666 0 0 1 0 1.33H6.666a.665.665 0 0 1 0-1.33zM7.796 6.002l.134.013a.665.665 0 0 1 0 1.303l-.134.014h-1.13a.665.665 0 0 1 0-1.33zm5.537 0 .134.013a.665.665 0 0 1 0 1.303l-.134.014h-3.037a.665.665 0 0 1 0-1.33zm3.998 3.04c0 .281.002.497-.014.695l-.024.194a3 3 0 0 1-.114.479l-.054.155a3 3 0 0 1-.169.364l-.239.427-2.071 3.625c-.348.608-.595 1.053-.913 1.392l-.142.14a3.2 3.2 0 0 1-.986.607l-.158.055c-.502.164-1.052.157-1.852.157H7.333c-.689 0-1.246 0-1.696-.036-.4-.033-.761-.098-1.098-.242l-.142-.067a3.17 3.17 0 0 1-1.262-1.166l-.122-.218c-.192-.376-.271-.782-.309-1.24-.036-.45-.036-1.007-.036-1.696v-5.33c0-.69 0-1.246.036-1.697.038-.457.117-.863.309-1.24l.122-.219c.304-.495.74-.9 1.262-1.165l.142-.066c.337-.144.697-.21 1.098-.242.45-.037 1.007-.036 1.696-.036h5.333c.69 0 1.246-.001 1.697.036.458.037.864.116 1.24.308l.219.122c.495.305.9.741 1.165 1.262l.066.143c.144.336.21.697.242 1.097.037.45.036 1.008.036 1.697z" xmlns="http://www.w3.org/2000/svg" /></svg>