<svg xmlns="http://www.w3.org/2000/svg" viewBox="0 0 20 20"><path d="M10 2.085a.665.665 0 0 1 0 1.33A6.585 6.585 0 1 0 16.585 10a.665.665 0 1 1 1.33 0A7.915 7.915 0 1 1 10 2.085" xmlns="http://www.w3.org/2000/svg" /><path d="M12.516 11.259c.27-.07.54.134.497.41-.244 1.575-1.5 2.775-3.013 2.775s-2.77-1.2-3.013-2.775c-.042-.276.227-.48.497-.41.64.164 1.72.408 2.516.408.795 0 1.876-.244 2.516-.408M7.778 6.667c.614 0 1.11.622 1.11 1.389s-.496 1.388-1.11 1.388c-.613 0-1.111-.621-1.111-1.388s.498-1.389 1.111-1.389M12.223 6.667c.613 0 1.111.622 1.111 1.389s-.498 1.388-1.111 1.388c-.614 0-1.112-.621-1.112-1.388s.498-1.389 1.112-1.389M15.833 1.002c.367 0 .665.298.665.665v1.835h1.835l.134.014a.665.665 0 0 1 0 1.302l-.134.014h-1.835v1.835a.665.665 0 0 1-1.33 0V4.832h-1.835a.666.666 0 0 1 0-1.33h1.835V1.667c0-.367.298-.665.665-.665" xmlns="http://www.w3.org/2000/svg" /></svg>