<svg xmlns="http://www.w3.org/2000/svg" viewBox="0 0 20 20"><path d="M7.946 14.028a1.974 1.974 0 1 0-3.948 0 1.974 1.974 0 0 0 3.948 0m8.055 0a1.974 1.974 0 1 0-3.947 0 1.974 1.974 0 0 0 3.947 0M7.946 5.972a1.974 1.974 0 1 0-3.948 0 1.974 1.974 0 0 0 3.948 0m8.055 0a1.974 1.974 0 1 0-3.947 0 1.974 1.974 0 0 0 3.947 0m-6.725 8.056a3.304 3.304 0 1 1-6.608 0 3.304 3.304 0 0 1 6.608 0m8.055 0a3.304 3.304 0 1 1-6.607 0 3.304 3.304 0 0 1 6.607 0M9.276 5.972a3.304 3.304 0 1 1-6.608 0 3.304 3.304 0 0 1 6.608 0m8.055 0a3.304 3.304 0 1 1-6.607 0 3.304 3.304 0 0 1 6.607 0" xmlns="http://www.w3.org/2000/svg" /></svg>