<svg xmlns="http://www.w3.org/2000/svg" viewBox="0 0 20 20"><path d="M8.598 11.214c.659 0 1.344.174 1.878.55.547.387.926.987.926 1.772 0 .256-.21.464-.467.464H6.262a.466.466 0 0 1-.468-.464c0-.785.38-1.385.927-1.771.533-.377 1.218-.551 1.877-.551m3.504 0c.495 0 1.009.145 1.409.459.41.322.695.82.695 1.475 0 .214-.157.388-.35.388h-1.754c0-.902-.386-1.626-.956-2.13a2.4 2.4 0 0 1 .956-.192M8.598 7.5a1.63 1.63 0 0 1 1.635 1.625 1.63 1.63 0 0 1-1.635 1.625 1.63 1.63 0 0 1-1.635-1.625A1.63 1.63 0 0 1 8.598 7.5m3.504.929c.646 0 1.17.519 1.17 1.16s-.524 1.161-1.17 1.161-1.167-.52-1.167-1.161c0-.64.523-1.16 1.167-1.16" xmlns="http://www.w3.org/2000/svg" /><path fill-rule="evenodd" d="M7.584 2.874a3 3 0 0 1 1.816.757c.073.064.142.135.244.237.111.113.15.15.186.183.292.26.663.415 1.053.44.049.002.103.002.262.002h2.305c.655 0 1.184 0 1.612.034.435.036.82.112 1.178.294a3 3 0 0 1 1.314 1.314c.182.358.258.743.294 1.178.035.428.034.957.034 1.612V12.7c0 .655 0 1.184-.034 1.612-.036.435-.112.82-.294 1.178a3 3 0 0 1-1.314 1.314c-.358.182-.743.258-1.178.294-.428.035-.957.034-1.612.034h-6.9c-.655 0-1.184 0-1.612-.034-.435-.036-.82-.112-1.178-.294a3 3 0 0 1-1.314-1.314c-.182-.358-.258-.743-.294-1.178-.035-.428-.034-.957-.034-1.612V7.3c0-.655 0-1.184.034-1.612.036-.435.112-.82.294-1.178A3 3 0 0 1 3.76 3.196c.358-.182.743-.258 1.178-.294.428-.035.957-.034 1.612-.034h.695c.144 0 .242 0 .339.006M6.55 4.132c-.675 0-1.144 0-1.508.03-.357.03-.558.083-.708.16a1.75 1.75 0 0 0-.763.762c-.076.15-.13.351-.159.708-.03.364-.03.833-.03 1.508v5.4c0 .675 0 1.144.03 1.508.03.357.083.558.16.708.166.328.434.596.762.763.15.076.351.13.708.159.364.03.833.03 1.508.03h6.9c.675 0 1.144 0 1.508-.03.357-.03.558-.083.708-.16a1.74 1.74 0 0 0 .763-.762c.076-.15.13-.351.159-.708.03-.364.03-.833.03-1.508V8.925c0-.675 0-1.144-.03-1.508-.03-.357-.083-.558-.16-.708a1.75 1.75 0 0 0-.762-.763c-.15-.076-.351-.13-.708-.159-.364-.03-.833-.03-1.508-.03h-2.305c-.144 0-.243 0-.34-.006a3 3 0 0 1-1.816-.757 6 6 0 0 1-.243-.237 4 4 0 0 0-.186-.183 1.75 1.75 0 0 0-1.053-.44c-.05-.002-.103-.002-.262-.002z" clip-rule="evenodd" xmlns="http://www.w3.org/2000/svg" /></svg>