<svg xmlns="http://www.w3.org/2000/svg" viewBox="0 0 20 20"><path fill-rule="evenodd" d="m10.883 9.62.16.043 6.55 2.312c.913.322.975 1.59.097 2l-2.534 1.181-1.181 2.534c-.384.823-1.522.82-1.93.065l-.07-.162-2.312-6.55c-.284-.804.424-1.58 1.22-1.424m2.143 6.957.964-2.064.044-.084c.11-.191.277-.345.479-.439l2.064-.964-5.488-1.937z" clip-rule="evenodd" xmlns="http://www.w3.org/2000/svg" /><path d="M3.333 12.668c.367 0 .665.298.665.665v.833c0 1.013.822 1.835 1.835 1.835h.833l.135.014a.666.666 0 0 1 0 1.302l-.135.014h-.833a3.165 3.165 0 0 1-3.165-3.165v-.833c0-.367.298-.665.665-.665M6.8 2.682a.665.665 0 0 1 0 1.302l-.134.014h-.833a1.835 1.835 0 0 0-1.835 1.835v.833a.665.665 0 0 1-1.33 0v-.833a3.166 3.166 0 0 1 3.165-3.165h.833zM14.166 2.668a3.165 3.165 0 0 1 3.165 3.165v.833a.665.665 0 0 1-1.33 0v-.833a1.835 1.835 0 0 0-1.835-1.835h-.833a.665.665 0 0 1 0-1.33z" xmlns="http://www.w3.org/2000/svg" /></svg>