<svg xmlns="http://www.w3.org/2000/svg" viewBox="0 0 20 20"><path d="M5.67 11.5c1.183 0 1.938.597 1.938 1.48 0 .654-.336.995-1.091 1.649l-.887.766v.026h1.544c.357 0 .56.213.56.54 0 .32-.203.539-.56.539H4.47c-.465 0-.667-.26-.667-.617 0-.263.12-.466.39-.692l1.34-1.145c.545-.469.7-.682.7-.972 0-.306-.236-.518-.584-.518-.256 0-.43.118-.613.38-.189.277-.36.377-.634.377-.364 0-.586-.211-.587-.555q0-.166.065-.318c.256-.58.94-.94 1.79-.94M16.8 13.099a.665.665 0 0 1 0 1.302l-.134.014h-5.833a.665.665 0 0 1 0-1.33h5.833zM5.695 4c.513 0 .815.308.815.794V8.3c0 .425-.285.7-.71.7-.426 0-.71-.275-.71-.7v-3h-.027l-.512.354a.5.5 0 0 1-.332.11.46.46 0 0 1-.469-.478c0-.197.08-.358.268-.485l.878-.587c.28-.187.525-.214.8-.214M16.8 5.599a.665.665 0 0 1 0 1.302l-.134.014h-5.833a.665.665 0 0 1 0-1.33h5.833z" xmlns="http://www.w3.org/2000/svg" /></svg>