<svg xmlns="http://www.w3.org/2000/svg" viewBox="0 0 24 24" fill="none"><path fill="var(--photo-icon-c0, #43d0fb)" d="M7 21.005c-2.211 0-4-1.79-4-4v-10c0-2.211 1.789-4 4-4h10c2.211 0 4 1.789 4 4v10c0 2.21-1.789 4-4 4z" xmlns="http://www.w3.org/2000/svg" /><path fill="var(--photo-icon-c1, #fff6dd)" d="M17.746 9.117a2.845 2.845 0 0 1-2.856 2.845 2.836 2.836 0 0 1-2.844-2.845 2.845 2.845 0 0 1 2.844-2.855 2.855 2.855 0 0 1 2.856 2.855" xmlns="http://www.w3.org/2000/svg" /><path fill="var(--photo-icon-c2, #ffde83)" d="M5.533 12.682c1.367-1.367 3.134-1.367 4.5 0l8.154 8.144a4 4 0 0 1-1.187.179H7c-2.211 0-4-1.79-4-4v-2.072z" xmlns="http://www.w3.org/2000/svg" /></svg>