<svg xmlns="http://www.w3.org/2000/svg" viewBox="0 0 20 20"><path d="M12.03 4.113a3.612 3.612 0 0 1 5.108 5.108l-6.292 6.29c-.324.324-.56.561-.791.752l-.235.176q-.308.21-.65.36l-.229.093c-.181.066-.369.115-.586.16l-.764.134-2.394.4c-.142.024-.294.05-.423.06-.098.007-.232.01-.378-.026l-.149-.05a1.08 1.08 0 0 1-.521-.474l-.046-.093a1.1 1.1 0 0 1-.075-.527c.01-.129.035-.28.06-.422l.398-2.394c.1-.602.162-.987.295-1.35l.093-.23q.15-.342.36-.65l.176-.235c.19-.232.428-.467.751-.79zM6.68 11.345c-.35.35-.534.535-.66.688l-.11.147a2.7 2.7 0 0 0-.24.433l-.062.154c-.08.22-.124.462-.232 1.112l-.398 2.394-.001.001h.003l2.393-.399.717-.126a3 3 0 0 0 .394-.105l.154-.063q.228-.1.433-.24l.147-.11c.153-.126.339-.31.688-.66l4.988-4.988-3.227-3.226zm9.517-6.291a2.28 2.28 0 0 0-3.225 0l-.364.362 3.226 3.227.363-.364c.89-.89.89-2.334 0-3.225M4.583 1.783a.3.3 0 0 1 .294.241c.117.585.347 1.092.707 1.48.357.385.859.668 1.549.783a.3.3 0 0 1 0 .592c-.69.115-1.192.398-1.549.783-.315.34-.53.77-.657 1.265l-.05.215a.3.3 0 0 1-.588 0c-.117-.585-.347-1.092-.707-1.48-.357-.384-.859-.668-1.549-.783a.3.3 0 0 1 0-.592c.69-.115 1.192-.398 1.549-.783.36-.388.59-.895.707-1.48l.015-.05a.3.3 0 0 1 .279-.19" xmlns="http://www.w3.org/2000/svg" /></svg>