<svg xmlns="http://www.w3.org/2000/svg" viewBox="0 0 20 20"><path d="M16.835 10c0-3.51-3.024-6.418-6.835-6.418S3.165 6.49 3.165 10c0 1.454.514 2.797 1.388 3.877.122.151.172.35.136.54-.095.508-.23 1.003-.384 1.487a13 13 0 0 0 1.823-.376l.126-.023a.67.67 0 0 1 .37.077 7.14 7.14 0 0 0 3.376.837c3.811 0 6.835-2.91 6.835-6.42m1.33 0c0 4.314-3.692 7.749-8.165 7.749a8.5 8.5 0 0 1-3.766-.873c-.92.242-1.865.393-2.86.455a.665.665 0 0 1-.661-.903l.207-.565c.162-.468.3-.933.402-1.402A7.45 7.45 0 0 1 1.835 10c0-4.315 3.692-7.748 8.165-7.748S18.165 5.685 18.165 10" xmlns="http://www.w3.org/2000/svg" /><path d="M6.75 9a1 1 0 1 1 0 2 1 1 0 0 1 0-2M10 9a1 1 0 1 1 0 2 1 1 0 0 1 0-2M13.25 9a1 1 0 1 1 0 2 1 1 0 0 1 0-2" xmlns="http://www.w3.org/2000/svg" /></svg>