<svg xmlns="http://www.w3.org/2000/svg" viewBox="0 0 20 20" fill-rule="evenodd" clip-rule="evenodd"><path d="M12.122 3.17a2.023 2.023 0 0 1 2.392-1.274l2.217.552.198.06c.9.325 1.451 1.242 1.315 2.188l-.04.203a2.02 2.02 0 0 1-1.163 1.369l-.117.046-1.806.646-.938 4.01q.171.01.348.042l.15.032c.743.187 1.314.746 1.733 1.322.458.63.817 1.392 1.083 2.07l.05.14c.462 1.444-.713 2.755-2.13 2.755H4.279c-1.324 0-2.469-1.145-2.181-2.557l.141-.619c.162-.64.39-1.326.713-1.92.074-.136.16-.272.25-.405l-1.156-.95a1.396 1.396 0 0 1 .423-2.395l1.58-.557.025-.015a.1.1 0 0 0 .017-.023l.611-1.562.085-.18a1.397 1.397 0 0 1 2.324-.159L8.13 7.322l.021.018a.1.1 0 0 0 .027.008l1.673.1.199.025a1.398 1.398 0 0 1 .97 1.989l-.101.17-.952 1.382a.07.07 0 0 0-.01.054l.2.772.128.005c.532-.01 1.048-.202 1.7-.44.243-.09.506-.185.787-.264l1.054-4.497-1.298-1.425a2.02 2.02 0 0 1-.466-1.85zm-6.913 8.742c-.372.035-.741.321-1.088.96-.253.465-.446 1.035-.59 1.604l-.13.564c-.096.476.277.96.878.961h11.135c.632 0 .988-.516.871-.986l-.03-.094c-.246-.63-.556-1.273-.92-1.773-.327-.45-.64-.703-.921-.796l-.12-.03c-.58-.104-1.129.067-1.852.331-.632.232-1.426.548-2.318.52l-.18-.01c-.968-.082-1.87-.485-2.617-.782-.694-.276-1.283-.476-1.868-.48zm.75-5.127-.019.03-.612 1.56c-.13.33-.38.597-.696.749l-.14.058-1.581.557a.06.06 0 0 0-.03.019.1.1 0 0 0-.013.032.1.1 0 0 0 .002.035.1.1 0 0 0 .021.028l1.265 1.039c.272-.161.58-.272.93-.304l.19-.013c.944-.04 1.803.276 2.542.57.308.122.596.237.872.34l-.02-.082a1.4 1.4 0 0 1 .2-1.144l.954-1.38.012-.033q.001-.015-.007-.034a.1.1 0 0 0-.023-.028l-.033-.009-1.674-.1a1.4 1.4 0 0 1-.927-.43l-.099-.115-1.018-1.332a.1.1 0 0 0-.027-.023.07.07 0 0 0-.068.01m8.232-3.6a.69.69 0 0 0-.79.373l-.049.132a.69.69 0 0 0 .16.633l1.235 1.357 1.728-.618.08-.034a.7.7 0 0 0 .358-.45l.02-.139a.69.69 0 0 0-.392-.653l-.132-.047z" xmlns="http://www.w3.org/2000/svg" /></svg>