<svg xmlns="http://www.w3.org/2000/svg" viewBox="0 0 20 20"><path d="M6.268 11.969a.665.665 0 0 1 .84.033l.09.099.125.156A3.5 3.5 0 0 0 10 13.5a3.5 3.5 0 0 0 2.802-1.4l.092-.099a.666.666 0 0 1 .971.897l-.17.215A4.82 4.82 0 0 1 10 14.831a4.82 4.82 0 0 1-3.693-1.717l-.171-.215-.07-.115a.665.665 0 0 1 .202-.815" xmlns="http://www.w3.org/2000/svg" /><path fill-rule="evenodd" d="M10 2.085a7.915 7.915 0 1 1 0 15.83 7.915 7.915 0 0 1 0-15.83m0 1.33a6.585 6.585 0 1 0 0 13.17 6.585 6.585 0 0 0 0-13.17" clip-rule="evenodd" xmlns="http://www.w3.org/2000/svg" /></svg>