<svg xmlns="http://www.w3.org/2000/svg" viewBox="0 0 20 20"><path d="M16.585 10a6.585 6.585 0 1 0-10.969 4.912A5.65 5.65 0 0 1 10 12.835c1.767 0 3.345.81 4.383 2.077A6.57 6.57 0 0 0 16.585 10M10 14.165a4.32 4.32 0 0 0-3.305 1.53c.972.565 2.1.89 3.305.89a6.55 6.55 0 0 0 3.303-.89A4.32 4.32 0 0 0 10 14.165M11.835 8.5a1.835 1.835 0 1 0-3.67 0 1.835 1.835 0 0 0 3.67 0m6.08 1.5a7.915 7.915 0 1 1-15.83 0 7.915 7.915 0 0 1 15.83 0m-4.75-1.5a3.165 3.165 0 1 1-6.33 0 3.165 3.165 0 0 1 6.33 0" xmlns="http://www.w3.org/2000/svg" /></svg>