<svg xmlns="http://www.w3.org/2000/svg" viewBox="0 0 20 20"><path d="M12.417 2.085c.742-.008 1.511.224 2.105.73.497.425.844 1.02.954 1.753 2.247.69 3.136 3.496 1.812 5.376 1.196 1.699.626 4.197-1.274 5.158-.453 1.593-1.752 2.64-3.141 2.793a2.99 2.99 0 0 1-2.173-.598 3.3 3.3 0 0 1-.7-.754c-.202.296-.435.55-.7.754-.649.5-1.423.68-2.173.598-1.389-.152-2.69-1.2-3.142-2.793-1.9-.961-2.469-3.46-1.273-5.158-1.323-1.88-.435-4.685 1.811-5.376.11-.734.458-1.328.956-1.753.593-.506 1.361-.738 2.104-.73s1.51.257 2.099.774q.171.15.318.329a3 3 0 0 1 .318-.329c.59-.517 1.356-.766 2.099-.774M9.335 5.143c0-.605-.225-1.016-.531-1.285-.32-.28-.766-.438-1.235-.443s-.912.144-1.227.413c-.301.257-.525.655-.525 1.25v.025a.665.665 0 0 1-.57.662c-1.73.248-2.443 2.487-1.203 3.707l.085.101a.665.665 0 0 1-.085.847c-1.065 1.048-.723 2.917.615 3.533l.132.056.078.035c.174.093.3.26.338.457.245 1.238 1.18 1.976 2.065 2.073.436.048.861-.057 1.215-.33.346-.266.67-.73.848-1.483zm1.33 9.618c.178.752.502 1.217.848 1.483.354.273.778.378 1.214.33.886-.097 1.821-.835 2.066-2.073l.021-.082a.67.67 0 0 1 .395-.41c1.447-.55 1.846-2.507.747-3.59a.666.666 0 0 1 0-.947c1.2-1.182.57-3.32-1.044-3.678l-.16-.03a.665.665 0 0 1-.57-.661v-.025l-.01-.214c-.047-.479-.25-.81-.514-1.036-.315-.269-.758-.418-1.227-.413s-.915.163-1.235.443c-.268.236-.474.58-.521 1.067l-.01.218z" xmlns="http://www.w3.org/2000/svg" /></svg>