<svg xmlns="http://www.w3.org/2000/svg" viewBox="0 0 20 20"><path d="M16.835 9.833c0-.71 0-1.204-.032-1.588-.031-.375-.088-.587-.168-.745a1.84 1.84 0 0 0-.802-.801c-.158-.081-.37-.138-.745-.168-.384-.032-.877-.033-1.588-.033h-7c-.711 0-1.204.001-1.588.033-.376.03-.587.087-.745.168a1.83 1.83 0 0 0-.802.801c-.08.158-.137.37-.168.745-.031.384-.032.877-.032 1.588v2.417c0 .711 0 1.205.032 1.588.031.376.088.587.168.745.176.345.457.626.802.802.158.08.37.137.745.168.384.031.877.032 1.588.032h7c.711 0 1.204 0 1.588-.032.376-.03.587-.087.745-.168.345-.176.626-.457.802-.802.08-.158.137-.37.168-.745.031-.383.032-.877.032-1.588zm1.33 2.417c0 .69 0 1.246-.036 1.697-.038.457-.117.863-.309 1.24a3.17 3.17 0 0 1-1.384 1.383c-.376.192-.782.27-1.24.308-.45.037-1.007.037-1.696.037h-7c-.69 0-1.246 0-1.696-.037-.458-.037-.864-.116-1.24-.308a3.17 3.17 0 0 1-1.384-1.383c-.192-.377-.271-.783-.309-1.24-.037-.45-.036-1.008-.036-1.697V9.833c0-.689 0-1.246.036-1.696.038-.458.117-.864.309-1.24a3.17 3.17 0 0 1 1.383-1.384c.377-.192.783-.271 1.24-.309.45-.036 1.008-.036 1.697-.036h7c.69 0 1.246 0 1.696.036.458.038.864.117 1.24.309.596.303 1.08.788 1.384 1.384.192.376.271.782.309 1.24.037.45.036 1.007.036 1.696zM12.269 2.645l2.738.023.134.015a.666.666 0 0 1-.013 1.303l-.135.012-2.73-.023a392 392 0 0 0-7.256.023.665.665 0 0 1-.014-1.33c3.128-.031 4.85-.039 7.276-.023" xmlns="http://www.w3.org/2000/svg" /></svg>