<svg xmlns="http://www.w3.org/2000/svg" viewBox="0 0 20 20"><path d="M6.25 11.042c.406 0 .792-.083 1.143-.233-.342.898-1.04 2.174-2.094 2.324a.833.833 0 0 0 .235 1.65c2.128-.304 3.404-2.724 3.773-4.624.203-1.04.18-2.175-.266-3.12-.506-1.068-1.606-1.836-2.804-1.83a2.917 2.917 0 0 0 .013 5.833M13.483 11.042a2.9 2.9 0 0 0 1.144-.233c-.343.898-1.04 2.174-2.095 2.324a.833.833 0 0 0 .236 1.65c2.127-.304 3.403-2.724 3.773-4.624.202-1.04.18-2.175-.267-3.12-.506-1.068-1.605-1.836-2.803-1.83a2.917 2.917 0 0 0 .012 5.833" xmlns="http://www.w3.org/2000/svg" /></svg>