<svg xmlns="http://www.w3.org/2000/svg" viewBox="0 0 20 20"><path d="M16.001 7.333c0-.71 0-1.204-.031-1.588a2.4 2.4 0 0 0-.112-.615L15.802 5a1.84 1.84 0 0 0-.676-.731L15 4.199c-.158-.08-.37-.138-.745-.168-.383-.032-.877-.033-1.588-.033H7.333c-.71 0-1.204.001-1.588.033-.281.023-.471.06-.615.11L5 4.2a1.84 1.84 0 0 0-.731.675L4.199 5c-.081.158-.138.37-.168.745-.032.384-.033.877-.033 1.588v4.394l1.02-1.019.177-.16a2.333 2.333 0 0 1 3.12.16l5.289 5.288c.25-.004.464-.01.65-.026.376-.03.587-.088.745-.168l.127-.071c.288-.176.522-.43.676-.732l.056-.13c.051-.143.089-.333.112-.615.031-.383.031-.877.031-1.588zM7.375 11.65a1 1 0 0 0-1.34-.069l-.077.069-1.956 1.956c.004.25.013.463.029.65.03.375.087.586.167.744l.07.127c.177.288.43.522.732.676l.13.056c.144.051.333.089.615.112.384.031.877.031 1.588.031h4.394zm5.71-3.733a1.002 1.002 0 1 0-2.003.002 1.002 1.002 0 0 0 2.003-.002m1.33 0a2.332 2.332 0 1 1-4.664 0 2.332 2.332 0 0 1 4.664 0m2.916 4.75c0 .69 0 1.246-.036 1.697-.033.4-.098.762-.242 1.098l-.066.143c-.266.52-.67.957-1.165 1.26l-.218.123c-.377.192-.783.27-1.241.308-.45.037-1.008.036-1.697.036H7.333c-.689 0-1.246.001-1.696-.036-.4-.033-.761-.098-1.098-.242l-.142-.066a3.17 3.17 0 0 1-1.262-1.165l-.122-.218c-.192-.377-.271-.783-.309-1.241-.036-.45-.036-1.008-.036-1.697V7.333c0-.689 0-1.246.036-1.696.038-.458.117-.864.309-1.24l.122-.219c.304-.496.74-.9 1.262-1.165l.142-.066c.337-.145.697-.21 1.098-.243.45-.036 1.007-.036 1.696-.036h5.333c.69 0 1.246 0 1.697.036.458.038.864.117 1.24.309l.219.122c.495.304.9.74 1.165 1.262l.066.142c.144.337.21.697.242 1.098.037.45.036 1.007.036 1.696z" xmlns="http://www.w3.org/2000/svg" /></svg>