<svg xmlns="http://www.w3.org/2000/svg" viewBox="0 0 20 20"><path d="M1.418 13.667V9.25c0-.514 0-.94.028-1.285.028-.354.092-.683.25-.993l.097-.175a2.54 2.54 0 0 1 1.012-.935l.117-.055c.275-.118.566-.169.875-.194a17 17 0 0 1 1.286-.028h.988c.396 0 .696-.004.986.061l.18.047q.268.081.512.219l.189.12c.185.13.364.295.585.494l.14.126.357.314c.08.066.129.102.18.13l.16.076q.083.03.17.05l.092.016c.105.012.262.014.603.014h.941c.514 0 .94-.001 1.286.027.354.029.683.092.993.25l.174.098c.398.244.723.593.936 1.011l.055.118c.118.275.169.565.194.875.028.346.027.772.027 1.286v2.75c0 .514.001.94-.027 1.286-.025.31-.076.6-.194.875l-.055.117a2.54 2.54 0 0 1-.936 1.012l-.174.097c-.31.158-.639.222-.993.25-.346.029-.772.028-1.286.028H5.083c-.514 0-.94 0-1.286-.028a2.8 2.8 0 0 1-.875-.194l-.117-.056a2.54 2.54 0 0 1-1.012-.934l-.097-.175c-.158-.31-.222-.639-.25-.992-.029-.346-.028-.772-.028-1.286m15.833-3.333v-2.75c0-.536 0-.899-.023-1.178a1.7 1.7 0 0 0-.075-.419l-.034-.078a1.2 1.2 0 0 0-.445-.483l-.083-.045c-.091-.047-.226-.087-.497-.109-.28-.023-.642-.023-1.178-.023h-.941c-.297 0-.54.002-.765-.025l-.22-.037a2.5 2.5 0 0 1-.528-.18l-.165-.085c-.13-.073-.25-.16-.374-.263l-.4-.352-.14-.126a7 7 0 0 0-.458-.393l-.079-.051a1 1 0 0 0-.16-.075l-.17-.051c-.113-.025-.24-.03-.695-.03h-.988c-.536 0-.898.001-1.177.024-.204.017-.33.043-.42.075l-.078.034a1.2 1.2 0 0 0-.21.136l-.113.074a.666.666 0 0 1-.723-1.108l.213-.155q.111-.072.23-.132l.117-.056c.275-.118.566-.169.875-.194.346-.028.772-.027 1.286-.027h.988c.396 0 .696-.004.986.061l.18.047q.268.081.512.219l.189.12c.185.13.364.294.585.493l.14.127.357.314c.079.066.129.1.18.13l.16.075q.083.03.17.051l.092.016c.105.012.262.014.603.014h.941c.514 0 .94-.001 1.286.027.354.029.683.091.993.249l.174.099c.398.244.723.593.936 1.011l.055.118c.118.275.169.565.194.875.028.346.027.772.027 1.286v2.75c0 .514.001.939-.027 1.285-.025.31-.076.6-.194.876l-.055.116a2.54 2.54 0 0 1-.853.959.664.664 0 1 1-.738-1.106 1.2 1.2 0 0 0 .405-.457l.034-.078a1.7 1.7 0 0 0 .075-.419c.023-.279.023-.64.023-1.176M2.748 13.667c0 .536 0 .898.024 1.177.022.272.062.406.108.498l.047.082c.116.19.282.344.481.446l.079.033c.088.032.215.058.419.075.279.023.641.024 1.177.024h6.083c.536 0 .899-.001 1.178-.024.272-.022.406-.062.497-.108l.083-.047a1.2 1.2 0 0 0 .445-.482l.035-.078c.031-.089.057-.215.074-.419.023-.279.023-.641.023-1.177v-2.75c0-.536 0-.899-.023-1.178a1.7 1.7 0 0 0-.074-.419l-.035-.078a1.2 1.2 0 0 0-.445-.482l-.083-.046c-.091-.047-.225-.087-.497-.109-.28-.023-.642-.023-1.178-.023h-.941c-.297 0-.54.002-.765-.025l-.22-.037a2.5 2.5 0 0 1-.528-.18l-.165-.085a2.6 2.6 0 0 1-.374-.262l-.4-.352-.14-.127a7 7 0 0 0-.457-.392l-.08-.051a1 1 0 0 0-.16-.075l-.17-.052c-.113-.025-.24-.03-.695-.03h-.988c-.536 0-.898.001-1.177.024-.204.017-.33.043-.42.075l-.078.034a1.2 1.2 0 0 0-.481.445l-.047.084c-.046.091-.086.226-.108.497-.023.28-.024.641-.024 1.177z" xmlns="http://www.w3.org/2000/svg" /></svg>