<svg xmlns="http://www.w3.org/2000/svg" viewBox="0 0 20 20"><path d="M14 13.333a1.25 1.25 0 1 1 0 2.5 1.25 1.25 0 0 1 0-2.5" xmlns="http://www.w3.org/2000/svg" /><path fill-rule="evenodd" d="M14.626 10.195c.353.05.668.247.87.54l.09.153.253.507.567-.034c.482-.028.94.217 1.18.635l.448.774.08.162c.132.33.12.702-.033 1.022l-.088.156-.312.473.312.473.088.156c.152.32.165.692.032 1.022l-.079.162-.447.774c-.211.366-.588.6-1.001.633l-.18.002-.567-.035-.252.507c-.189.378-.55.635-.961.694l-.179.012h-.895c-.483 0-.923-.274-1.139-.705l-.255-.508-.564.035a1.27 1.27 0 0 1-1.18-.635v-.001l-.447-.773a1.28 1.28 0 0 1 .039-1.34l.312-.473-.311-.474-.001.001a1.28 1.28 0 0 1-.04-1.34l.448-.774c.241-.417.696-.663 1.179-.635l.566.034.254-.507.09-.154a1.27 1.27 0 0 1 1.049-.551h.895zM13.13 12.36a.65.65 0 0 1-.62.358l-.979-.059-.431.748.54.82a.65.65 0 0 1 0 .714l-.54.819.431.748.979-.059.096.001a.65.65 0 0 1 .524.357l.438.877h.863l.437-.876.05-.083a.65.65 0 0 1 .571-.276l.98.059.431-.746-.54-.82a.65.65 0 0 1 0-.716l.54-.82-.431-.747-.98.059a.65.65 0 0 1-.62-.359l-.438-.875h-.863z" clip-rule="evenodd" xmlns="http://www.w3.org/2000/svg" /><path fill-rule="evenodd" d="M10 1.835c1.666 0 3.204.24 4.349.65.569.203 1.078.46 1.456.78.375.316.694.76.694 1.318v3.75a.666.666 0 0 1-1.33 0V6.324c-.251.135-.528.254-.82.359-1.145.408-2.683.649-4.349.649s-3.203-.24-4.348-.65a6 6 0 0 1-.82-.358V10l.016.06a.5.5 0 0 0 .095.137c.112.123.305.267.6.415.516.26 1.254.483 2.15.628l.393.058.132.031a.666.666 0 0 1-.17 1.292l-.134-.004-.43-.062c-.987-.16-1.866-.416-2.538-.753q-.058-.03-.114-.063v3.678c0 .015.005.079.111.196.112.123.305.268.6.416.59.296 1.47.546 2.543.686a.666.666 0 0 1-.172 1.32c-1.162-.152-2.2-.432-2.968-.817-.383-.192-.728-.426-.986-.71-.262-.287-.458-.656-.458-1.091V4.583c0-.559.32-1.002.694-1.318.378-.32.887-.577 1.456-.78 1.145-.41 2.682-.65 4.348-.65m0 1.33c-1.555 0-2.934.226-3.9.571-.486.174-.833.365-1.045.544-.214.18-.223.286-.223.303 0 .016.008.121.223.303.212.179.559.371 1.045.545.966.345 2.345.57 3.9.57s2.935-.225 3.901-.57c.486-.174.833-.366 1.045-.545.215-.182.223-.287.223-.303s-.01-.122-.223-.303c-.212-.179-.559-.37-1.045-.544-.966-.345-2.346-.57-3.901-.571" clip-rule="evenodd" xmlns="http://www.w3.org/2000/svg" /></svg>