<svg xmlns="http://www.w3.org/2000/svg" viewBox="0 0 24 24" fill="none"><path fill="var(--mp4-icon-main-fill, #7dcc60)" d="M13 2.226q.4 0 .813.225t.924.726l4.95 4.899q.813.813.813 1.65v7.45q0 1.088-.537 2.013a4 4 0 0 1-1.463 1.45 3.87 3.87 0 0 1-2 .538h-9q-1.087 0-2.013-.539a4.03 4.03 0 0 1-1.45-1.449 3.94 3.94 0 0 1-.537-2.012V6.227q0-1.088.537-2a4 4 0 0 1 1.45-1.464A3.94 3.94 0 0 1 7.5 2.226z" xmlns="http://www.w3.org/2000/svg" /><path fill="var(--mp4-icon-corner-fill, #b8f6a2)" d="M13 2.226q.4 0 .813.225t.925.725l4.95 4.9q.812.813.812 1.65h-4.787q-1.25 0-1.988-.725Q13 8.264 13 7.014z" xmlns="http://www.w3.org/2000/svg" /><path fill="var(--mp4-icon-text-fill, #fff)" d="M16.338 17.363h-1.791v-.694l1.77-2.263h.694v2.347h.557v.61h-.557v.753h-.673zm0-.61V15.35l-1.102 1.404zM11.354 14.406h1.67q.36 0 .625.137a1 1 0 0 1 .419.403q.148.26.148.626 0 .365-.148.63a1 1 0 0 1-.419.403 1.34 1.34 0 0 1-.625.138h-.954v1.373h-.716zm1.59 1.7q.27 0 .414-.142a.54.54 0 0 0 .143-.392.52.52 0 0 0-.143-.387q-.144-.144-.414-.143h-.874v1.065zM6.432 14.406h1.113l.944 2.946h-.022l.912-2.946h1.108v3.71h-.7v-3l.021.005-.943 2.995H8.08l-.97-2.995.022-.005v3h-.7z" xmlns="http://www.w3.org/2000/svg" /></svg>