<svg xmlns="http://www.w3.org/2000/svg" viewBox="0 0 20 20"><path d="M5.437 7.416q0-.547.08-1.073a5.818 5.818 0 1 0 8.139 8.14q-.526.079-1.072.08a7.15 7.15 0 0 1-7.147-7.147M13.502 10a3.5 3.5 0 0 0-3.321-3.497L10 6.498l-.134-.013A.665.665 0 0 1 10 5.168l.249.006A4.833 4.833 0 0 1 14.832 10a.666.666 0 0 1-1.33 0m4.835-1.46a.666.666 0 0 1 .23 1.311l-1.16.204-.134.01a.665.665 0 0 1-.096-1.32zM15.47 5.47a.665.665 0 0 1-.94-.94zm-.107-1.773a.665.665 0 1 1 .94.94l-.833.833L15 5l-.47-.47zm-4.11-.872a.665.665 0 0 1-1.31-.232zM10.919.893a.665.665 0 0 1 .539.77l-.204 1.162-.655-.117-.655-.115.204-1.16.037-.13a.665.665 0 0 1 .734-.41M6.767 7.416a5.818 5.818 0 0 0 7.985 5.4.666.666 0 0 1 .896.771l-.03.094a7.148 7.148 0 1 1-9.299-9.298.666.666 0 0 1 .865.865 5.8 5.8 0 0 0-.417 2.168" xmlns="http://www.w3.org/2000/svg" /></svg>