<svg xmlns="http://www.w3.org/2000/svg" viewBox="0 0 20 20"><path d="M16.835 8.167c0-.711 0-1.205-.032-1.588-.031-.376-.088-.587-.168-.745a1.84 1.84 0 0 0-.802-.802c-.158-.08-.37-.137-.745-.168-.384-.031-.877-.032-1.588-.032h-7c-.711 0-1.204 0-1.588.032-.376.03-.587.087-.745.168a1.84 1.84 0 0 0-.802.802c-.08.158-.137.37-.168.745-.031.383-.032.877-.032 1.588v3.667c0 .71 0 1.204.032 1.588.031.375.088.587.168.745.176.345.457.626.802.801.158.08.37.138.745.168.384.032.877.033 1.588.033h7c.711 0 1.204-.001 1.588-.033.376-.03.587-.087.745-.168.345-.175.626-.456.802-.801.08-.158.137-.37.168-.745.031-.384.032-.878.032-1.588zm1.33 3.667c0 .689 0 1.246-.036 1.696-.038.458-.117.864-.309 1.24a3.17 3.17 0 0 1-1.384 1.383c-.376.192-.782.271-1.24.309-.45.036-1.007.037-1.696.037h-7c-.69 0-1.246 0-1.696-.037-.458-.038-.864-.117-1.24-.309A3.17 3.17 0 0 1 2.18 14.77c-.192-.376-.271-.782-.309-1.24-.037-.45-.036-1.007-.036-1.696V8.167c0-.69 0-1.246.036-1.697.038-.457.117-.863.309-1.24a3.17 3.17 0 0 1 1.383-1.384c.377-.191.783-.27 1.24-.308.45-.037 1.008-.036 1.697-.036h7c.69 0 1.246-.001 1.696.036.458.037.864.117 1.24.308.596.304 1.08.789 1.384 1.384.192.377.271.783.309 1.24.037.45.036 1.008.036 1.697z" xmlns="http://www.w3.org/2000/svg" /><path d="m17.5 7.668.134.014a.665.665 0 0 1 0 1.303l-.134.013h-15a.665.665 0 0 1 0-1.33zM14.167 11.835l.134.014a.665.665 0 0 1 0 1.302l-.134.014H12.5a.665.665 0 0 1 0-1.33z" xmlns="http://www.w3.org/2000/svg" /></svg>