<svg xmlns="http://www.w3.org/2000/svg" viewBox="0 0 20 20"><path fill-rule="evenodd" d="m10.883 9.62.16.043 6.55 2.312c.913.322.975 1.59.097 2l-2.534 1.181-1.181 2.534c-.384.823-1.522.82-1.93.065l-.07-.162-2.312-6.55c-.283-.803.424-1.58 1.22-1.424m2.143 6.957.964-2.064.044-.084c.11-.191.277-.345.479-.439l2.064-.964-5.488-1.937z" clip-rule="evenodd" xmlns="http://www.w3.org/2000/svg" /><path d="M11.877 2.668c.766 0 1.374 0 1.866.033.498.034.925.105 1.325.27a4 4 0 0 1 2.167 2.168c.166.4.237.827.27 1.325.034.492.034 1.1.034 1.866a.665.665 0 0 1-1.33 0c0-.784 0-1.34-.03-1.775-.03-.43-.085-.696-.172-.908A2.67 2.67 0 0 0 14.56 4.2c-.212-.087-.478-.142-.908-.172-.436-.03-.991-.03-1.775-.03h-3.42c-.944 0-1.612 0-2.135.043-.514.042-.829.122-1.076.248-.502.256-.91.664-1.166 1.166-.126.247-.206.562-.248 1.076-.043.523-.043 1.191-.043 2.135v2.795c0 .883 0 1.508.038 1.998.037.483.107.78.218 1.014a2.67 2.67 0 0 0 1.273 1.273c.234.11.53.18 1.013.218.245.019.524.027.852.032l1.147.005.134.014a.666.666 0 0 1 0 1.302l-.134.014-1.167-.005a16 16 0 0 1-.934-.037c-.559-.043-1.037-.132-1.479-.34a4 4 0 0 1-1.908-1.909c-.209-.442-.298-.92-.341-1.48-.042-.552-.042-1.236-.042-2.1V8.667c0-.922 0-1.654.048-2.243.049-.597.15-1.106.388-1.571a4 4 0 0 1 1.748-1.748c.465-.238.974-.34 1.57-.388.59-.048 1.322-.048 2.244-.048z" xmlns="http://www.w3.org/2000/svg" /><path d="M7.134 10.349a.665.665 0 0 1 0 1.302L7 11.665H6a.665.665 0 1 1 0-1.33h1zM6.78 6.78a.666.666 0 0 1 .836-.086l.105.085.75.75.085.105a.666.666 0 0 1-.922.922l-.105-.085-.75-.75-.085-.105a.666.666 0 0 1 .085-.837M11 5.335c.367 0 .665.298.665.665v1a.665.665 0 1 1-1.33 0V6c0-.367.298-.665.665-.665" xmlns="http://www.w3.org/2000/svg" /></svg>