<svg xmlns="http://www.w3.org/2000/svg" viewBox="0 0 20 20"><path d="M10.334 3.139a.83.83 0 0 0-.668 0l-5 2.187a.83.83 0 0 0-.5.764v4.743a5.833 5.833 0 0 0 11.667 0V6.09a.83.83 0 0 0-.499-.764zM8.998 1.612a2.5 2.5 0 0 1 2.004 0l5 2.187A2.5 2.5 0 0 1 17.5 6.09v4.744a7.5 7.5 0 0 1-15 0V6.09A2.5 2.5 0 0 1 3.998 3.8z" xmlns="http://www.w3.org/2000/svg" /><path d="M10 7.5c.46 0 .833.373.833.833H9.167c0-.46.373-.833.833-.833m2.5 1.13v-.297a2.5 2.5 0 0 0-5 0v.297a1.83 1.83 0 0 0-.833 1.536v1.75c0 1.013.82 1.834 1.833 1.834h3c1.012 0 1.833-.821 1.833-1.834v-1.75c0-.643-.331-1.21-.833-1.536M8.5 10h3c.092 0 .167.074.167.166v1.75a.167.167 0 0 1-.167.167h-3a.167.167 0 0 1-.167-.167v-1.75c0-.092.075-.166.167-.166" xmlns="http://www.w3.org/2000/svg" /></svg>