<svg xmlns="http://www.w3.org/2000/svg" viewBox="0 0 20 20"><path d="M16.001 7.333c0-.71 0-1.204-.031-1.588a2.4 2.4 0 0 0-.112-.615L15.802 5a1.84 1.84 0 0 0-.676-.731L15 4.199c-.158-.08-.37-.138-.745-.168-.383-.032-.877-.033-1.588-.033H7.333c-.71 0-1.204.001-1.588.033-.375.03-.587.087-.745.168A1.83 1.83 0 0 0 4.198 5c-.08.158-.137.37-.167.745-.032.384-.033.877-.033 1.588v5.333c0 .711.001 1.205.033 1.588.03.376.087.587.167.745l.07.127c.177.288.43.522.732.676l.13.056c.144.051.333.089.615.112.384.031.877.031 1.588.031h5.333c.711 0 1.205 0 1.588-.031.376-.03.587-.088.745-.168a1.84 1.84 0 0 0 .803-.803l.056-.13c.051-.143.089-.333.112-.615.031-.383.031-.877.031-1.588zm1.33 5.333c0 .69 0 1.246-.036 1.697-.033.4-.098.762-.242 1.098l-.066.143a3.17 3.17 0 0 1-1.383 1.383c-.377.192-.783.27-1.241.308-.45.037-1.008.036-1.697.036H7.333c-.689 0-1.246.001-1.696-.036-.4-.033-.761-.098-1.098-.242l-.142-.066a3.17 3.17 0 0 1-1.262-1.165l-.122-.218c-.192-.377-.271-.783-.309-1.241-.036-.45-.036-1.008-.036-1.697V7.333c0-.689 0-1.246.036-1.696.038-.458.117-.864.309-1.24a3.17 3.17 0 0 1 1.384-1.384c.376-.192.782-.271 1.24-.309.45-.036 1.007-.036 1.696-.036h5.333c.69 0 1.246 0 1.697.036.458.038.864.117 1.24.309l.219.122c.495.304.9.74 1.165 1.262l.066.142c.144.337.21.697.242 1.098.037.45.036 1.007.036 1.696z" xmlns="http://www.w3.org/2000/svg" /></svg>