<svg xmlns="http://www.w3.org/2000/svg" viewBox="0 0 20 20" fill="none"><circle cx="13" cy="7.165" r="1.313" fill="currentColor" xmlns="http://www.w3.org/2000/svg" /><path stroke="currentColor" stroke-linecap="round" stroke-width="1.33" d="m3 3.165 14 14" xmlns="http://www.w3.org/2000/svg" /><path fill="currentColor" d="M7.705 10.458 4.8 13.364a.46.46 0 0 0-.135.325V15.5h1.81a.46.46 0 0 0 .325-.135l.579-.579v-1.194c0-.367.298-.665.665-.665h1.195l.467-.468.94.94-.66.663a.67.67 0 0 1-.471.195h-.806v.806c0 .176-.07.345-.194.47l-.774.774a1.8 1.8 0 0 1-1.266.523H4a.665.665 0 0 1-.665-.665V13.69c0-.474.188-.93.523-1.265l2.906-2.908zm4.645-7.451a5.077 5.077 0 0 1 2.444 9.364l-.973-.973a3.75 3.75 0 0 0 2.01-3.128l.004-.193a3.747 3.747 0 0 0-7.068-1.733l-.974-.974A5.07 5.07 0 0 1 12.088 3z" xmlns="http://www.w3.org/2000/svg" /></svg>