<svg xmlns="http://www.w3.org/2000/svg" viewBox="0 0 20 20" stroke="currentColor" fill="none"><path stroke-linecap="round" stroke-linejoin="round" stroke-width="1.33" d="m6.045 13.89-.763.08a1.667 1.667 0 0 1-1.831-1.482l-.784-7.46A1.667 1.667 0 0 1 4.15 3.198l4.973-.523a1.67 1.67 0 0 1 1.734 1.07" xmlns="http://www.w3.org/2000/svg" /><path stroke-linecap="round" stroke-linejoin="round" stroke-width="1.33" d="M15.881 6.53c.916.096 1.58.917 1.484 1.832l-.784 7.459a1.667 1.667 0 0 1-1.832 1.483l-4.973-.522a1.667 1.667 0 0 1-1.483-1.832l.784-7.46a1.667 1.667 0 0 1 1.832-1.482z" xmlns="http://www.w3.org/2000/svg" /></svg>