<svg xmlns="http://www.w3.org/2000/svg" viewBox="0 0 20 20"><path d="m10.688 9.46.154.035 6.45 1.935.172.067c.758.368.806 1.457.085 1.891l-.167.082-2.795 1.117-1.117 2.795c-.357.891-1.579.894-1.973.082l-.067-.173-1.935-6.449a1.082 1.082 0 0 1 1.193-1.382m1.81 6.769.895-2.234.046-.1c.119-.227.316-.406.556-.502l2.234-.895-5.328-1.597zm-6.594-3.254a.665.665 0 0 1 .94.94l-1.767 1.768a.665.665 0 1 1-.94-.94zM2.837 7.327l2.415.646.126.048a.666.666 0 0 1-.337 1.259l-.132-.022-2.416-.647-.125-.048a.665.665 0 0 1 .336-1.258zm12.01-3.276a.665.665 0 0 1 .836 1.026l-1.768 1.767a.665.665 0 0 1-.94-.94l1.768-1.768zm-7.05-2.028a.665.665 0 0 1 .814.47l.647 2.416.022.132a.666.666 0 0 1-1.26.337l-.047-.126-.646-2.415-.022-.133a.665.665 0 0 1 .491-.681" xmlns="http://www.w3.org/2000/svg" /></svg>