<svg xmlns="http://www.w3.org/2000/svg" viewBox="0 0 20 20"><path d="M-.002 4.166A3.667 3.667 0 0 1 3.665.5h1.333a1 1 0 0 1 0 2H3.665c-.92 0-1.667.746-1.667 1.666V5.5a1 1 0 0 1-2 0zm12-2.666a1 1 0 0 1 1-1h1.333a3.667 3.667 0 0 1 3.667 3.666V5.5a1 1 0 1 1-2 0V4.166c0-.92-.746-1.666-1.667-1.666h-1.333a1 1 0 0 1-1-1m-1.36 9.639 2.02 5.72.931-1.996a1.6 1.6 0 0 1 .774-.774l1.996-.931zm-2.164-.123c-.447-1.268.774-2.49 2.041-2.042l7.433 2.624c1.351.476 1.442 2.352.144 2.958L15.34 15.84l-1.284 2.752c-.606 1.299-2.482 1.207-2.959-.144zM.998 12.5a1 1 0 0 1 1 1v1.333c0 .92.746 1.667 1.667 1.667h1.333a1 1 0 1 1 0 2H3.665a3.667 3.667 0 0 1-3.667-3.667V13.5a1 1 0 0 1 1-1" xmlns="http://www.w3.org/2000/svg" /></svg>