<svg xmlns="http://www.w3.org/2000/svg" viewBox="0 0 20 20"><path d="M7.46 14.375a1.835 1.835 0 1 0-3.67 0 1.835 1.835 0 0 0 3.67 0m8.75 0a1.835 1.835 0 1 0-3.67 0 1.835 1.835 0 0 0 3.67 0m-8.75-8.75a1.835 1.835 0 1 0-3.67 0 1.835 1.835 0 0 0 3.67 0m8.75 0a1.835 1.835 0 1 0-3.67 0 1.835 1.835 0 0 0 3.67 0m1.33 8.75a3.165 3.165 0 1 1-6.33 0 3.165 3.165 0 0 1 6.33 0m-8.75-8.75a3.165 3.165 0 1 1-6.33 0 3.165 3.165 0 0 1 6.33 0m8.75 0a3.165 3.165 0 0 1-4.882 2.656l-4.377 4.377a3.165 3.165 0 1 1-.94-.94l4.377-4.377a3.165 3.165 0 1 1 5.822-1.716" xmlns="http://www.w3.org/2000/svg" /></svg>