<svg xmlns="http://www.w3.org/2000/svg" viewBox="0 0 20 20"><path d="M5.085 15v-2.5a.98.98 0 0 0-.448-.81l-.127-.074c-.47-.233-1.175-.758-1.175-1.616s.704-1.383 1.175-1.616l.127-.073a.98.98 0 0 0 .448-.81V5c0-1.318 1.113-2.333 2.415-2.333a.665.665 0 0 1 0 1.33c-.63 0-1.085.48-1.085 1.002v2.5c0 .862-.482 1.599-1.174 2l-.141.076c-.15.075-.274.165-.351.254-.074.086-.084.141-.084.17s.01.085.084.17c.077.088.2.18.35.254l.142.075A2.32 2.32 0 0 1 6.415 12.5V15c0 .49.4.942.969.996l.116.005.134.014a.665.665 0 0 1 0 1.303l-.134.013-.242-.011c-1.195-.117-2.173-1.085-2.173-2.32m8.5 0v-2.5c0-.919.548-1.696 1.315-2.076l.108-.058a1 1 0 0 0 .243-.197c.074-.085.084-.14.084-.169s-.01-.084-.084-.17a1 1 0 0 0-.243-.195l-.108-.059c-.767-.379-1.315-1.157-1.315-2.076V5c0-.49-.4-.941-.969-.996l-.116-.006-.134-.013a.665.665 0 0 1 .134-1.317l.242.012c1.195.116 2.173 1.085 2.173 2.32v2.5c0 .369.22.708.575.884l.186.1c.45.269.989.765.989 1.516s-.54 1.247-.99 1.515l-.185.1a1 1 0 0 0-.575.885V15c0 1.318-1.113 2.331-2.415 2.331a.665.665 0 0 1 0-1.33c.63 0 1.085-.478 1.085-1" xmlns="http://www.w3.org/2000/svg" /></svg>