<svg xmlns="http://www.w3.org/2000/svg" viewBox="0 0 20 20"><path d="M7.5 5.833c.178 0 .326.134.346.31.123 1.083.737 1.746 1.836 1.843a.348.348 0 0 1 0 .695c-1.084.094-1.74.75-1.835 1.834a.349.349 0 0 1-.694 0c-.098-1.099-.76-1.713-1.844-1.835a.349.349 0 0 1 0-.693c1.098-.126 1.718-.747 1.845-1.845a.35.35 0 0 1 .347-.309" xmlns="http://www.w3.org/2000/svg" /><path fill-rule="evenodd" d="M12.571 3.232c.738 0 1.448.278 1.99.779l3.175 2.93.16.163c.693.788.717 1.97.055 2.786l-.152.169-6.817 6.816a1.39 1.39 0 0 1-1.965 0l-6.816-6.816a2.163 2.163 0 0 1 .062-3.119l3.175-2.93.211-.177c.51-.388 1.134-.6 1.78-.6zM7.428 4.465c-.373 0-.736.124-1.03.348l-.123.104L3.1 7.847a.93.93 0 0 0-.027 1.34l6.816 6.816c.061.06.16.06.221 0l6.817-6.816.065-.073a.93.93 0 0 0-.024-1.197l-.069-.07-3.175-2.93a1.7 1.7 0 0 0-1.153-.452z" clip-rule="evenodd" xmlns="http://www.w3.org/2000/svg" /></svg>