<svg xmlns="http://www.w3.org/2000/svg" viewBox="0 0 20 20"><path d="M14.335 10.026c0-2.412-1.944-4.36-4.335-4.36s-4.335 1.948-4.335 4.36a4.36 4.36 0 0 0 1.954 3.642h4.762a4.36 4.36 0 0 0 1.954-3.642m-5.491 6.972a1.333 1.333 0 0 0 2.313 0zm-.756-1.33h3.823v-.67H8.088zM1.666 9.335l.135.014a.665.665 0 0 1 0 1.303l-.135.013H.833a.665.665 0 0 1 0-1.33zm17.5 0 .135.014a.665.665 0 0 1 0 1.303l-.135.013h-.833a.665.665 0 0 1 0-1.33zM3.048 3.048a.665.665 0 0 1 .836-.086l.105.086.588.589.085.105a.665.665 0 0 1-.92.92l-.105-.085-.589-.588-.086-.105a.665.665 0 0 1 .086-.836m12.964 0a.665.665 0 0 1 .94.94l-.59.59a.665.665 0 1 1-.94-.941zM9.335 1.666V.833a.665.665 0 0 1 1.33 0v.833a.665.665 0 0 1-1.33 0m6.33 8.36c0 1.931-.96 3.637-2.423 4.666v1.641a.664.664 0 0 1-.665.664 2.663 2.663 0 0 1-5.156 0 .664.664 0 0 1-.663-.664v-1.641a5.69 5.69 0 0 1-2.423-4.666c0-3.14 2.533-5.69 5.665-5.69s5.665 2.55 5.665 5.69" xmlns="http://www.w3.org/2000/svg" /></svg>