<svg xmlns="http://www.w3.org/2000/svg" viewBox="0 0 24 24" fill="none"><path fill="var(--file-video-icon-c0, #ebebeb)" d="M7 21q-1.163 0-2.075-.5A3.66 3.66 0 0 1 3.5 19.075Q3 18.163 3 17V7q0-1.163.5-2.075a3.58 3.58 0 0 1 1.425-1.412Q5.837 3 7 3h10q1.163 0 2.075.513.913.5 1.413 1.412Q21 5.837 21 7v10q0 1.163-.512 2.075a3.6 3.6 0 0 1-1.413 1.425q-.912.5-2.075.5z" xmlns="http://www.w3.org/2000/svg" /><path fill="var(--file-video-icon-c1, #4d4d4d)" d="M8.704 8.966h-4.47L7.017 3h4.47z" xmlns="http://www.w3.org/2000/svg" /><path fill="var(--file-video-icon-c2, #fbfbfb)" d="M4.234 8.966H3V7q0-1.163.5-2.075a3.58 3.58 0 0 1 1.425-1.412Q5.838 3 7.001 3h.016z" xmlns="http://www.w3.org/2000/svg" /><path fill="var(--file-video-icon-c3, #4d4d4d)" d="M17 3q1.162 0 2.076.513.465.255.822.616l-2.256 4.837h-4.47L15.954 3z" xmlns="http://www.w3.org/2000/svg" /><path fill="var(--file-video-icon-c4, #fbfbfb)" d="M13.172 8.966h-4.47L11.485 3h4.47z" xmlns="http://www.w3.org/2000/svg" /><path fill="var(--file-video-icon-c5, #fbfbfb)" d="M19.898 4.128q.345.349.59.796.512.912.512 2.075v1.967h-3.358z" xmlns="http://www.w3.org/2000/svg" /></svg>