<svg xmlns="http://www.w3.org/2000/svg" viewBox="0 0 20 20"><path d="M10.967 14.349a.665.665 0 0 1 0 1.303l-.133.013h-7.5a.665.665 0 0 1 0-1.33h7.5zM4.269 7.39a.6.6 0 0 1 1.045 0l.55.974a.09.09 0 0 0 .057.042l1.097.22a.6.6 0 0 1 .323.994l-.757.825a.09.09 0 0 0-.022.067l.128 1.111a.6.6 0 0 1-.846.616l-1.016-.466a.09.09 0 0 0-.072 0l-1.017.466a.6.6 0 0 1-.846-.616l.128-1.11a.09.09 0 0 0-.022-.068l-.757-.825a.6.6 0 0 1 .323-.994l1.097-.22a.09.09 0 0 0 .057-.042zM16.801 9.349a.666.666 0 0 1 0 1.303l-.133.013H10a.665.665 0 0 1 0-1.33h6.667zM10.834 3.056c.404-.314.866-.405 1.289-.313.48.104.89.443 1.086.92.404.984-.13 2.375-2.255 3.538a.25.25 0 0 1-.242 0C8.587 6.038 8.054 4.647 8.458 3.662a1.53 1.53 0 0 1 1.085-.92c.423-.091.886 0 1.29.314M5.967 4.349a.665.665 0 0 1 0 1.303l-.134.013h-2.5a.665.665 0 0 1 0-1.33h2.5zM16.801 4.349a.665.665 0 0 1 0 1.303l-.134.013h-.834a.665.665 0 0 1 0-1.33h.833z" xmlns="http://www.w3.org/2000/svg" /></svg>