<svg xmlns="http://www.w3.org/2000/svg" viewBox="0 0 20 20"><path fill-rule="evenodd" d="M4.87 7.458a5.2 5.2 0 0 0 2.32 4.988h2.668l1.33 1.33h-3.53v1.004h4.534l.74.74-.002.074c-.006.343-.034.69-.166 1.008a2.997 2.997 0 0 1-5.687-.492h-.084a.666.666 0 0 1-.665-.665v-1.974a6.53 6.53 0 0 1-2.827-5.385c0-.609.084-1.198.24-1.757zm3.6 8.652a1.67 1.67 0 0 0 3.058 0z" clip-rule="evenodd" xmlns="http://www.w3.org/2000/svg" /><path d="M2.529 2.53a.666.666 0 0 1 .836-.086l.105.085 14 14 .085.105a.666.666 0 0 1-.922.922l-.104-.085-14-14-.085-.105a.67.67 0 0 1 .085-.837M10 1.557c3.591 0 6.498 2.927 6.498 6.529a6.5 6.5 0 0 1-1.574 4.25l-.942-.941a5.2 5.2 0 0 0 1.186-3.31c0-2.873-2.318-5.197-5.169-5.197-1.26 0-2.417.454-3.314 1.21l-.944-.944A6.46 6.46 0 0 1 10 1.557" xmlns="http://www.w3.org/2000/svg" /></svg>