<svg xmlns="http://www.w3.org/2000/svg" viewBox="0 0 24 24" fill="none"><path fill="url(#e8b942__a)" d="M13 2.594q.4 0 .813.224.412.226.924.726l4.95 4.9q.813.812.813 1.65v7.45q0 1.088-.537 2.013a4 4 0 0 1-1.463 1.449 3.87 3.87 0 0 1-2 .538h-9q-1.087 0-2.013-.538a4.03 4.03 0 0 1-1.45-1.45 3.94 3.94 0 0 1-.537-2.012V6.594q0-1.088.537-2a4 4 0 0 1 1.45-1.463A3.94 3.94 0 0 1 7.5 2.594z" xmlns="http://www.w3.org/2000/svg" /><path fill="url(#e8b942__b)" d="M14.672 8.594H9.328c-1.01 0-1.828.818-1.828 1.828v5.344c0 1.01.818 1.828 1.828 1.828h5.344c1.01 0 1.828-.819 1.828-1.828v-5.344c0-1.01-.819-1.828-1.828-1.828" xmlns="http://www.w3.org/2000/svg" /><path fill="url(#e8b942__c)" fill-opacity=".3" d="M14.672 8.594H9.328c-1.01 0-1.828.818-1.828 1.828v5.344c0 1.01.818 1.828 1.828 1.828h5.344c1.01 0 1.828-.819 1.828-1.828v-5.344c0-1.01-.819-1.828-1.828-1.828" xmlns="http://www.w3.org/2000/svg" /><path fill="#fff" d="M14.366 15.665h-1.388l-.87-1.639-.073-.136-.046-.122h-.015a1 1 0 0 1-.06.14q-.03.054-.069.133l-.903 1.624H9.634l1.57-2.575-1.463-2.568h1.37l.774 1.463a5 5 0 0 1 .15.313h.015l.079-.165.086-.162.803-1.449h1.304l-1.484 2.529z" xmlns="http://www.w3.org/2000/svg" /><path fill="url(#e8b942__d)" d="M13 2.594q.4 0 .813.225t.925.725l4.95 4.9q.812.812.812 1.65h-4.787q-1.25 0-1.988-.725Q13 8.632 13 7.38z" xmlns="http://www.w3.org/2000/svg" /><defs xmlns="http://www.w3.org/2000/svg"><radialGradient id="e8b942__b" cx="0" cy="0" r="1" gradientTransform="rotate(45 -6.624 13.35)scale(12.7279 36.2329)" gradientUnits="userSpaceOnUse"><stop stop-color="#20a85e" /><stop offset=".944" stop-color="#09442a" /></radialGradient><radialGradient id="e8b942__c" cx="0" cy="0" r="1" gradientTransform="matrix(0 6.3 -7.25625 0 12 13.994)" gradientUnits="userSpaceOnUse"><stop offset=".58" stop-color="#33a662" stop-opacity="0" /><stop offset=".974" stop-color="#98f0b0" /></radialGradient><linearGradient id="e8b942__a" x1="4.5" x2="16" y1="20.594" y2="7.094" gradientUnits="userSpaceOnUse"><stop offset=".207" stop-color="var(--xls-icon-main-offset-0, #349037)" /><stop offset="1" stop-color="#13551b" /></linearGradient><linearGradient id="e8b942__d" x1="16.5" x2="13.5" y1="6.094" y2="9.594" gradientUnits="userSpaceOnUse"><stop stop-color="#b5e480" /><stop offset=".851" stop-color="#5fc34c" /></linearGradient></defs></svg>