<svg xmlns="http://www.w3.org/2000/svg" viewBox="0 0 20 20"><path d="M16.001 6.09c0-.348-.18-.667-.47-.848l-.13-.07-5-2.187a1 1 0 0 0-.705-.037l-.097.037-5 2.187c-.365.16-.6.52-.6.918v4.744c0 1.542.582 2.948 1.538 4.011A5.66 5.66 0 0 1 10 12.668c1.813 0 3.426.854 4.462 2.177a5.98 5.98 0 0 0 1.54-4.011zm-6 7.909c-1.417 0-2.676.68-3.468 1.732A5.97 5.97 0 0 0 10 16.835c1.292 0 2.487-.41 3.466-1.104A4.33 4.33 0 0 0 10 13.999m1.625-5.457a1.627 1.627 0 1 0-3.253 0 1.627 1.627 0 0 0 3.253 0m1.33 0a2.957 2.957 0 1 1-5.913 0 2.957 2.957 0 0 1 5.913 0m4.375 2.292a7.332 7.332 0 0 1-14.663 0V6.09c0-.926.549-1.765 1.398-2.136l5-2.188.226-.085a2.33 2.33 0 0 1 1.643.085l5 2.188.155.075a2.33 2.33 0 0 1 1.241 2.061z" xmlns="http://www.w3.org/2000/svg" /></svg>