<svg xmlns="http://www.w3.org/2000/svg" viewBox="0 0 20 20" fill-rule="evenodd" clip-rule="evenodd"><path d="M13.3 2.67h.054c.385.004.719.01 1.008.034.458.038.865.117 1.242.309l.217.122c.496.304.9.74 1.165 1.261l.067.143c.144.336.21.697.242 1.098.037.45.036 1.007.036 1.696v5.333c0 .689 0 1.246-.036 1.696-.033.401-.098.762-.242 1.099l-.067.143a3.17 3.17 0 0 1-1.383 1.382c-.376.192-.783.271-1.24.309-.45.037-1.008.036-1.697.036H7.333c-.689 0-1.246 0-1.696-.036-.4-.033-.762-.098-1.098-.242l-.143-.067a3.17 3.17 0 0 1-1.261-1.165l-.122-.217c-.192-.377-.271-.784-.309-1.242-.037-.45-.036-1.007-.036-1.696V7.333c0-.689 0-1.246.036-1.696.038-.458.117-.864.309-1.24a3.17 3.17 0 0 1 1.383-1.384c.377-.192.783-.271 1.24-.309.45-.037 1.008-.036 1.697-.036h5.333q.337 0 .634.003M3.998 8.166v4.501c0 .71.001 1.204.032 1.588.03.375.088.587.168.745l.07.127c.177.287.43.522.732.676l.13.055c.144.052.333.09.615.113.384.031.877.031 1.588.031h5.333c.71 0 1.204 0 1.588-.031.375-.03.587-.088.745-.168a1.84 1.84 0 0 0 .803-.803l.055-.13c.052-.144.09-.333.113-.615.031-.383.031-.877.031-1.588V8.165zm8.65-1.33H16a15 15 0 0 0-.03-1.09 2.4 2.4 0 0 0-.112-.615L15.802 5a1.84 1.84 0 0 0-.676-.731l-.127-.07c-.158-.081-.37-.138-.745-.169a9 9 0 0 0-.476-.022zM7.333 3.998c-.71 0-1.204 0-1.588.032-.375.031-.587.088-.745.168A1.84 1.84 0 0 0 4.198 5c-.08.158-.137.37-.168.745-.023.287-.027.635-.029 1.09h2.215L7.35 3.998zm.315 2.837h3.568l1.135-2.837H8.783z" xmlns="http://www.w3.org/2000/svg" /></svg>