<svg xmlns="http://www.w3.org/2000/svg" viewBox="0 0 16 16"><path d="M12.045 13.394c-1.498 0-2.553-.935-2.553-2.317 0-1.345 1.033-2.17 2.844-2.273l2.102-.124v-.592c0-.855-.575-1.367-1.535-1.367-.756 0-1.258.27-1.695.972a.72.72 0 0 1-.64.336c-.393 0-.676-.263-.676-.658 0-.16.043-.336.138-.511.4-.87 1.557-1.425 2.931-1.425 1.855 0 3.04.986 3.04 2.528v4.642c0 .497-.312.796-.756.796-.436 0-.734-.285-.749-.752v-.65h-.036c-.444.854-1.419 1.395-2.415 1.395m.429-1.25c1.098 0 1.964-.76 1.964-1.761v-.607l-1.891.117c-.939.066-1.47.482-1.47 1.14 0 .673.56 1.111 1.397 1.111M.813 13.38c-.487 0-.815-.3-.815-.746 0-.124.03-.285.102-.482l3.193-8.698c.211-.585.568-.855 1.142-.855.568 0 .917.263 1.135.847l3.2 8.706c.073.204.102.343.102.482 0 .431-.342.745-.815.745-.436 0-.676-.204-.821-.672l-.8-2.273H2.42L1.628 12.7c-.153.475-.393.68-.815.68m2.022-4.284h3.186L4.443 4.47h-.044z" xmlns="http://www.w3.org/2000/svg" /></svg>