<svg xmlns="http://www.w3.org/2000/svg" viewBox="0 0 21 20"><path d="M4.876 9.167a1.001 1.001 0 1 0-2.002 0 1.001 1.001 0 0 0 2.002 0m1.33 0a2.33 2.33 0 0 1-1.357 2.116l.51 3.57a2.225 2.225 0 0 0 4.29.445l.99-2.72a4.83 4.83 0 0 1-2.282-5.922l1.14-3.132a2.333 2.333 0 0 1 2.989-1.395l.782.286a.665.665 0 0 1-.454 1.25l-.783-.286a1 1 0 0 0-1.285.6L9.606 7.11a3.502 3.502 0 0 0 6.582 2.395l1.14-3.132a1 1 0 0 0-.6-1.285l-.782-.284a.665.665 0 0 1 .455-1.25l.783.285a2.33 2.33 0 0 1 1.393 2.989l-1.14 3.131a4.83 4.83 0 0 1-5.549 3.073l-.988 2.72a3.554 3.554 0 0 1-6.858-.713l-.51-3.57a2.33 2.33 0 0 1 .343-4.635 2.33 2.33 0 0 1 2.331 2.332" xmlns="http://www.w3.org/2000/svg" /></svg>