<svg xmlns="http://www.w3.org/2000/svg" viewBox="0 0 20 20"><path d="M16.418 17.167v-1.42H15a.665.665 0 1 1 0-1.33h1.418V13a.665.665 0 0 1 1.33 0v1.418h1.419l.134.014a.666.666 0 0 1 0 1.303l-.134.013h-1.419v1.419a.665.665 0 0 1-1.33 0m-8.244-.977c0-1.988.867-3.46 2.14-4.344 1.172-.815 2.654-1.107 4.04-.898l.277.048.129.04a.666.666 0 0 1-.257 1.277l-.134-.013-.215-.037c-1.079-.162-2.212.07-3.082.674-.906.63-1.568 1.69-1.568 3.253a.665.665 0 0 1-1.33 0m-6.964-.773c0-1.777.815-3.075 1.988-3.816 1.149-.726 2.603-.897 3.887-.535a.666.666 0 0 1-.36 1.28c-.947-.266-2.008-.132-2.817.379-.783.495-1.368 1.367-1.368 2.692a.665.665 0 0 1-1.33 0m6.577-8.512a1.657 1.657 0 1 0-3.314 0 1.657 1.657 0 0 0 3.314 0m7.738-.388a2.043 2.043 0 1 0-4.086.001 2.043 2.043 0 0 0 4.086 0m-6.408.388a2.987 2.987 0 1 1-5.973 0 2.987 2.987 0 0 1 5.973 0m7.738-.388a3.374 3.374 0 1 1-6.747 0 3.374 3.374 0 0 1 6.747 0" xmlns="http://www.w3.org/2000/svg" /></svg>