<svg xmlns="http://www.w3.org/2000/svg" viewBox="0 0 20 20"><path fill-rule="evenodd" d="M9.504 11.099c-.349-.99.604-1.944 1.595-1.595l6.55 2.312c1.055.373 1.127 1.838.113 2.312l-2.478 1.156-1.156 2.478c-.474 1.014-1.94.942-2.312-.113zm3.544 5.034.79-1.691.05-.097a1.25 1.25 0 0 1 .554-.507l1.69-.79-4.766-1.682z" clip-rule="evenodd" xmlns="http://www.w3.org/2000/svg" /><path d="M14.167 2.5A3.333 3.333 0 0 1 17.5 5.833V7.5a.833.833 0 1 1-1.667 0V5.833c0-.92-.746-1.666-1.666-1.666H5.833c-.92 0-1.666.746-1.666 1.666v8.334c0 .92.746 1.666 1.666 1.666H7.5a.833.833 0 0 1 0 1.667H5.833A3.333 3.333 0 0 1 2.5 14.167V5.833A3.333 3.333 0 0 1 5.833 2.5z" xmlns="http://www.w3.org/2000/svg" /><path d="M7.085 10.17a.834.834 0 0 1 0 1.66L7 11.833H6a.834.834 0 0 1 0-1.667h1zM6.661 6.661a.833.833 0 0 1 1.178 0l.75.75.058.063a.834.834 0 0 1-1.173 1.173l-.063-.057-.75-.75a.833.833 0 0 1 0-1.179M11 5.167c.46 0 .834.373.834.833v1a.834.834 0 0 1-1.667 0V6c0-.46.373-.833.833-.833" xmlns="http://www.w3.org/2000/svg" /></svg>