<svg xmlns="http://www.w3.org/2000/svg" viewBox="0 0 20 20"><path d="M16.418 10A6.42 6.42 0 0 0 10 3.582c-2.031 0-3.84.945-5.017 2.42H7.5l.134.013a.665.665 0 0 1 0 1.303l-.134.014H3.75q-.03-.002-.058-.007h-.008a1 1 0 0 1-.118-.024l-.012-.003a.7.7 0 0 1-.115-.047l-.003-.001-.004-.003a.7.7 0 0 1-.193-.16l-.011-.012a.66.66 0 0 1-.14-.383l-.003-.025v-3.75a.665.665 0 0 1 1.33 0V4.63a7.748 7.748 0 1 1-2.11 6.281l.66-.077.66-.079A6.419 6.419 0 0 0 16.418 10m-13.53.172a.665.665 0 0 1 .737.583l-1.32.156a.665.665 0 0 1 .583-.739" xmlns="http://www.w3.org/2000/svg" /></svg>