<svg xmlns="http://www.w3.org/2000/svg" viewBox="0 0 20 20"><path d="M4.503 8.725a.666.666 0 0 1 .994.883l-.788.888a3.397 3.397 0 0 0 .136 4.659l.122.115a3.4 3.4 0 0 0 4.538.022l.886-.79.11-.078a.665.665 0 0 1 .774 1.073l-.888.789a4.727 4.727 0 0 1-6.313-.03l-.169-.16a4.73 4.73 0 0 1-.19-6.484zM12.03 7.03a.665.665 0 1 1 .94.94l-5 5a.665.665 0 0 1-.94-.94zM9.79 3.563a4.727 4.727 0 0 1 6.305.342l.162.169a4.73 4.73 0 0 1 .18 6.136l-.151.177-.79.888-.098.09a.665.665 0 0 1-.895-.974l.789-.886.108-.128a3.4 3.4 0 0 0-.13-4.41l-.115-.122a3.397 3.397 0 0 0-4.531-.245l-.128.109-.888.788a.665.665 0 1 1-.883-.994l.887-.788z" xmlns="http://www.w3.org/2000/svg" /></svg>