<svg xmlns="http://www.w3.org/2000/svg" viewBox="0 0 20 20"><path d="M10.622 16.03c1.18-3.371 5.908-3.371 7.089 0a.666.666 0 0 1-1.255.44c-.765-2.184-3.814-2.184-4.578 0a.666.666 0 0 1-1.256-.44M9.998 3.816c1.66-1.363 3.616-1.582 5.253-.938 1.776.7 3.124 2.395 3.287 4.573a.666.666 0 0 1-1.327.098c-.125-1.665-1.144-2.92-2.447-3.432-1.288-.507-2.907-.31-4.296 1.065a.665.665 0 0 1-.936 0c-2.237-2.214-5.15-1.415-6.277.723-1.094 2.073-.636 5.858 5.111 9.654a.665.665 0 1 1-.732 1.11C1.627 12.7.517 8.242 2.078 5.283c1.446-2.741 5.078-3.8 7.92-1.468" xmlns="http://www.w3.org/2000/svg" /><path fill-rule="evenodd" d="M14.167 8.235a2.332 2.332 0 1 1-.002 4.664 2.332 2.332 0 0 1 .002-4.664m0 1.33a1.002 1.002 0 1 0 0 2.004 1.002 1.002 0 0 0 0-2.004" clip-rule="evenodd" xmlns="http://www.w3.org/2000/svg" /></svg>