<svg xmlns="http://www.w3.org/2000/svg" viewBox="0 0 20 20" fill="none"><path stroke="currentColor" stroke-width="1.33" d="m3.333 13.333 2.155-2.154c.651-.651 1.706-.651 2.357 0l5.488 5.488" xmlns="http://www.w3.org/2000/svg" /><rect width="13.333" height="13.333" x="3.333" y="3.333" stroke="currentColor" stroke-width="1.33" rx="2.5" xmlns="http://www.w3.org/2000/svg" /><path fill="currentColor" d="M12.13 5.59a.383.383 0 0 0-.76 0c-.14 1.208-.822 1.89-2.03 2.03a.383.383 0 0 0 0 .76c1.191.136 1.92.811 2.028 2.02a.383.383 0 0 0 .764 0c.103-1.192.825-1.915 2.018-2.018a.383.383 0 0 0 0-.764c-1.209-.107-1.884-.837-2.02-2.028" xmlns="http://www.w3.org/2000/svg" /></svg>