<svg xmlns="http://www.w3.org/2000/svg" viewBox="0 0 20 20" fill-rule="evenodd" clip-rule="evenodd"><path d="M13.084 3.085c.689 0 1.246 0 1.696.036.458.038.864.117 1.24.309l.218.122c.496.304.9.74 1.165 1.261l.068.143c.144.336.208.697.24 1.098.038.45.038 1.007.038 1.696v4.5c0 .69 0 1.246-.037 1.696-.033.4-.097.762-.241 1.098l-.068.143c-.265.52-.669.957-1.165 1.261l-.218.122c-.376.192-.782.271-1.24.309-.45.037-1.007.036-1.696.036H6.917c-.689 0-1.246 0-1.696-.036-.4-.033-.762-.098-1.098-.242l-.143-.067a3.17 3.17 0 0 1-1.261-1.165l-.122-.218c-.192-.377-.272-.783-.309-1.24-.037-.451-.036-1.008-.036-1.697v-4.5c0-.69 0-1.246.036-1.696.038-.458.117-.864.309-1.24A3.17 3.17 0 0 1 3.98 3.43c.377-.192.783-.272 1.24-.309.45-.037 1.008-.036 1.697-.036zM8.165 8.998v6.587h4.919c.71 0 1.205 0 1.588-.032.375-.031.587-.088.745-.168l.126-.07c.287-.177.522-.43.676-.732l.055-.13c.052-.144.09-.333.113-.615.031-.384.032-.877.032-1.588V8.998zM3.582 12.25c0 .711 0 1.204.032 1.588.031.376.088.587.168.745l.07.126c.177.288.43.522.732.676l.13.056c.144.052.333.089.615.112.369.03.839.03 1.506.031V8.998H3.582zm4.583-4.582h8.254c0-.667-.002-1.137-.032-1.506a2.4 2.4 0 0 0-.113-.615l-.055-.13a1.84 1.84 0 0 0-.676-.731l-.126-.07c-.158-.081-.37-.138-.745-.169-.383-.031-.877-.032-1.588-.032H8.165zm-1.33-3.253c-.667 0-1.137.002-1.506.032-.375.031-.587.088-.745.168a1.84 1.84 0 0 0-.802.802c-.08.158-.137.37-.168.745-.03.369-.032.839-.032 1.506h3.253z" xmlns="http://www.w3.org/2000/svg" /></svg>