<svg xmlns="http://www.w3.org/2000/svg" viewBox="0 0 20 20" fill="none"><path stroke="currentColor" stroke-linecap="round" stroke-linejoin="round" stroke-width="1.33" d="m12.917 17.083-2.084-3.333M7.083 17.083l2.084-3.333M3.846 7.948A1.667 1.667 0 0 0 2.901 10l.317.977a1.667 1.667 0 0 0 2.036 1.09l2.606-.733m4.215-6.808-2.057.855m1.89 4.814 1.84-.518m1.847.274.793-.258a1.25 1.25 0 0 0 .802-1.575l-1.545-4.755a1.25 1.25 0 0 0-1.575-.802l-.792.257a1.667 1.667 0 0 0-1.07 2.1l1.287 3.963a1.667 1.667 0 0 0 2.1 1.07" xmlns="http://www.w3.org/2000/svg" /><path stroke="currentColor" stroke-linecap="round" stroke-linejoin="round" stroke-width="1.33" d="M10 13.75a2.083 2.083 0 1 0 0-4.167 2.083 2.083 0 0 0 0 4.167" xmlns="http://www.w3.org/2000/svg" /><path fill="currentColor" d="M6.32 1.86a.407.407 0 0 0-.807 0c-.148 1.282-.871 2.005-2.153 2.153a.407.407 0 0 0 0 .808c1.264.143 2.038.86 2.152 2.142a.406.406 0 0 0 .81-.001c.11-1.265.875-2.03 2.14-2.14a.407.407 0 0 0 0-.81C7.18 3.898 6.465 3.124 6.322 1.86" xmlns="http://www.w3.org/2000/svg" /></svg>