<svg xmlns="http://www.w3.org/2000/svg" viewBox="0 0 20 20"><path d="M16.25 2.252c.367 0 .665.298.665.665v3.75l-.002.025a.7.7 0 0 1-.071.274l-.01.018a1 1 0 0 1-.06.091l-.01.013a.7.7 0 0 1-.194.16l-.004.002-.003.001a.7.7 0 0 1-.115.048l-.011.003a1 1 0 0 1-.119.023h-.007q-.03.005-.059.007h-3.585l-.134-.014a.666.666 0 0 1 0-1.302l.134-.014h2.353A6.4 6.4 0 0 0 10 3.582a6.418 6.418 0 1 0 6.375 7.174.665.665 0 1 1 1.32.155 7.75 7.75 0 1 1-2.11-6.281V2.917c0-.367.298-.665.665-.665" xmlns="http://www.w3.org/2000/svg" /><path d="M10 6.835c.367 0 .665.298.665.665v1.835l1.835.014.134.013a.665.665 0 0 1 0 1.303l-.134.014-1.835-.014V12.5a.665.665 0 0 1-1.33 0v-1.835l-1.835.027a.665.665 0 0 1 0-1.33l1.835-.027V7.5c0-.367.298-.665.665-.665" xmlns="http://www.w3.org/2000/svg" /></svg>