<svg xmlns="http://www.w3.org/2000/svg" viewBox="0 0 19 19"><path d="M11.473 9.29a1 1 0 0 1 1.601 1.18l-.056.087-2.949 4a1 1 0 0 1-1.529.095l-1.552-1.63-.066-.077a1 1 0 0 1 1.441-1.372l.075.07.729.766 2.241-3.04z" xmlns="http://www.w3.org/2000/svg" /><path fill-rule="evenodd" d="M9.963.463a5 5 0 0 1 4.976 4.5h2.024a2 2 0 0 1 2 2v8a4 4 0 0 1-4 4h-10a4 4 0 0 1-4-4v-8a2 2 0 0 1 2-2h2.024a5 5 0 0 1 4.976-4.5m-7 14.5a2 2 0 0 0 2 2h10a2 2 0 0 0 2-2v-8h-14zm7-12.5a3 3 0 0 0-2.958 2.5h5.916a3 3 0 0 0-2.958-2.5" clip-rule="evenodd" xmlns="http://www.w3.org/2000/svg" /></svg>