<svg xmlns="http://www.w3.org/2000/svg" viewBox="0 0 20 20" fill-rule="evenodd" clip-rule="evenodd"><path d="M6.971 4.17a5 5 0 0 0-.233-.003h-.655c-.713 0-1.199 0-1.574.031-.365.03-.552.084-.682.15-.314.16-.569.415-.729.729-.066.13-.12.317-.15.682-.03.375-.031.86-.031 1.574v3.778a7.46 7.46 0 0 1 2.11-2.396 2 2 0 0 1 1.185-.382H16.25c-.002-.376-.006-.66-.022-.894-.02-.306-.059-.466-.105-.577a1.67 1.67 0 0 0-.902-.902c-.111-.046-.27-.084-.576-.105a21 21 0 0 0-1.312-.022h-2.59c-.122 0-.214 0-.305-.005A3.33 3.33 0 0 1 8.175 4.77l-.014-.014a5 5 0 0 0-.167-.163 1.67 1.67 0 0 0-1.023-.424m10.945 4.163h.164c1.314 0 2.102 1.445 1.409 2.55-.967 1.544-1.472 2.432-1.74 3.556-.375 1.571-1.665 3.061-3.522 3.061H5.06q-.154 0-.307-.015a9 9 0 0 1-.38-.022c-.469-.038-.9-.12-1.304-.326a3.33 3.33 0 0 1-1.457-1.457c-.206-.405-.288-.835-.326-1.303-.037-.452-.037-1.005-.037-1.676V7.3c0-.67 0-1.225.037-1.676.038-.468.12-.899.326-1.303.32-.627.83-1.137 1.457-1.457.404-.206.835-.288 1.303-.326C4.824 2.5 5.378 2.5 6.05 2.5h.709c.121 0 .213 0 .304.005.758.041 1.48.34 2.045.847.068.06.132.126.218.212l.014.013c.106.106.137.137.167.164.283.253.643.403 1.022.423.04.002.084.003.234.003h2.6c.558 0 1.019 0 1.396.025.391.027.753.084 1.1.228a3.33 3.33 0 0 1 1.805 1.804c.144.349.201.71.228 1.101.02.286.024.62.025 1.008m-3.69 7.5c.857 0 1.646-.712 1.902-1.78.339-1.422.987-2.52 1.948-4.053H6.212a.32.32 0 0 0-.192.054c-1.39 1.03-2.119 2.43-2.455 4.22-.134.71.416 1.446 1.289 1.547.32.012.716.012 1.23.012z" xmlns="http://www.w3.org/2000/svg" /></svg>