<svg xmlns="http://www.w3.org/2000/svg" viewBox="0 0 20 20"><path d="M6.667 6.835c3.073 0 5.665 2.296 5.665 5.248s-2.592 5.249-5.665 5.249a6 6 0 0 1-2.277-.443c-.676.21-1.368.348-2.095.415l-.353.026a.665.665 0 0 1-.66-.903l.178-.49c.138-.41.244-.813.308-1.221a4.94 4.94 0 0 1-.766-2.633c0-2.952 2.592-5.248 5.665-5.248m0 1.33c-2.45 0-4.335 1.807-4.335 3.918 0 .768.244 1.487.672 2.097a.67.67 0 0 1 .117.456c-.049.432-.14.848-.255 1.252q.692-.117 1.344-.337l.124-.03a.67.67 0 0 1 .368.056c.588.271 1.255.425 1.965.425 2.45 0 4.335-1.808 4.335-3.919S9.116 8.165 6.667 8.165" xmlns="http://www.w3.org/2000/svg" /><path d="M14.423 2.668c.527 0 .963 0 1.317.028.362.03.697.094 1.012.254l.178.1c.405.248.736.605.953 1.031l.056.12c.12.28.172.575.198.892.029.354.028.79.028 1.317v3.846l-.003.6c-.003.27-.008.508-.025.717a2.8 2.8 0 0 1-.198.893l-.056.119a2.6 2.6 0 0 1-.953 1.031l-.178.1c-.15.076-.325.113-.45.135-.143.025-.31.045-.486.061-.352.032-.78.051-1.214.064l-.134-.01a.666.666 0 0 1 .097-1.32l.607-.023c.19-.01.368-.022.524-.036q.236-.021.375-.046.08-.016.095-.02l.068-.039c.197-.12.358-.294.463-.5l.035-.083c.034-.093.061-.224.079-.434q.009-.129.014-.282l-1.27-.847a1 1 0 0 0-1.069-.026.666.666 0 0 1-.681-1.142 2.33 2.33 0 0 1 2.488.061l.542.362V6.41c0-.55-.001-.923-.024-1.21a1.7 1.7 0 0 0-.079-.434l-.035-.082a1.26 1.26 0 0 0-.463-.501l-.087-.05c-.096-.048-.236-.089-.515-.112-.287-.023-.66-.024-1.21-.024h-3.845c-.55 0-.922.001-1.209.024a1.7 1.7 0 0 0-.434.078l-.082.035c-.208.105-.38.267-.501.464l-.05.086-.042.104a.664.664 0 1 1-1.264-.412l.055-.15q.03-.074.067-.146l.1-.178a2.6 2.6 0 0 1 1.031-.953l.12-.055c.28-.12.575-.173.892-.199.354-.029.79-.028 1.317-.028z" xmlns="http://www.w3.org/2000/svg" /><path d="M14.167 5.208a1.042 1.042 0 1 1-.001 2.083 1.042 1.042 0 0 1 .001-2.083" xmlns="http://www.w3.org/2000/svg" /></svg>