<svg xmlns="http://www.w3.org/2000/svg" viewBox="0 0 20 20"><path d="M14.665 12.335c.367 0 .665.298.665.665v1.83h1.835a.665.665 0 1 1 0 1.33H15.33V18A.665.665 0 0 1 14 18v-1.84h-1.835a.665.665 0 0 1 0-1.33H14V13c0-.367.298-.665.665-.665m-10.5-5.5c.367 0 .665.298.665.665v5a4.335 4.335 0 0 0 4.335 4.335.665.665 0 0 1 .134 1.316l-.134.014-.292-.008A5.665 5.665 0 0 1 3.5 12.5v-5c0-.367.298-.665.665-.665m6.667-5a4 4 0 0 1 3.998 3.998V10a.665.665 0 0 1-1.33 0V5.833a2.668 2.668 0 0 0-5.337 0V12.5c0 .519.394.945.9.996l.102.006.134.014a.665.665 0 0 1 0 1.302l-.134.014-.238-.013A2.33 2.33 0 0 1 6.833 12.5V5.833a4 4 0 0 1 3.999-3.998m0 5c.367 0 .665.298.665.665V10a.665.665 0 0 1-1.33 0V7.5c0-.367.298-.665.665-.665" xmlns="http://www.w3.org/2000/svg" /></svg>