<svg xmlns="http://www.w3.org/2000/svg" viewBox="0 0 20 20"><path d="M11.8 10.182a.665.665 0 0 1 0 1.302l-.134.014H8.333a.665.665 0 0 1 0-1.33h3.333z" xmlns="http://www.w3.org/2000/svg" /><path fill-rule="evenodd" d="M15.417 2.668A2.333 2.333 0 0 1 17.749 5v.833c0 .499-.159.96-.426 1.339q.006.038.008.078v5.417c0 .689 0 1.246-.036 1.696-.033.4-.098.762-.242 1.098l-.067.143c-.265.52-.67.956-1.165 1.26l-.217.122c-.377.192-.784.271-1.242.309-.45.037-1.007.037-1.696.037H7.333c-.689 0-1.246 0-1.696-.037-.4-.033-.762-.097-1.098-.241l-.143-.068a3.17 3.17 0 0 1-1.261-1.165l-.122-.217c-.192-.377-.271-.783-.309-1.24-.037-.45-.036-1.008-.036-1.697V7.25q.002-.04.008-.08a2.3 2.3 0 0 1-.424-1.337V5a2.333 2.333 0 0 1 2.332-2.332zm.584 5.42a2.3 2.3 0 0 1-.584.077H4.584c-.203 0-.399-.029-.586-.077v4.579c0 .71 0 1.204.032 1.588.031.375.088.587.168.745l.07.126c.177.287.43.522.732.676l.13.055c.144.052.333.09.615.113.384.031.877.032 1.588.032h5.333c.71 0 1.204-.001 1.588-.032.375-.03.587-.088.745-.168l.127-.072c.287-.176.522-.428.676-.73l.055-.13c.052-.144.09-.334.113-.615.031-.384.031-.877.031-1.588zM4.584 3.998c-.553 0-1.002.449-1.002 1.002v.833c0 .553.449 1.002 1.002 1.002h10.833c.553 0 1.002-.449 1.002-1.002V5c0-.553-.45-1.002-1.002-1.002z" clip-rule="evenodd" xmlns="http://www.w3.org/2000/svg" /></svg>