<svg xmlns="http://www.w3.org/2000/svg" viewBox="0 0 16 16"><path d="M13.665 4a.665.665 0 0 0-1.33 0c0 .708 0 1.206-.027 1.597-.027.384-.076.616-.15.797l-.1.209a2.34 2.34 0 0 1-1.165 1.054l-.146.052c-.16.047-.362.079-.65.099-.39.026-.889.027-1.597.027H4.606l1.865-1.864.085-.105a.666.666 0 0 0-.922-.922l-.105.085-3 3a.666.666 0 0 0 0 .942l3 3a.666.666 0 0 0 .942-.942L4.606 9.165H8.5c.69 0 1.24 0 1.687-.03.395-.027.746-.08 1.076-.196l.14-.053a3.67 3.67 0 0 0 1.91-1.818l.073-.166c.153-.37.218-.763.249-1.215.03-.447.03-.997.03-1.687" xmlns="http://www.w3.org/2000/svg" /></svg>