<svg xmlns="http://www.w3.org/2000/svg" viewBox="0 0 20 20" fill-rule="evenodd" clip-rule="evenodd"><path d="M7.917 3.333c.69 0 1.25.56 1.25 1.25v10.834a1.25 1.25 0 1 1-2.5 0V4.583c0-.69.56-1.25 1.25-1.25m4.166 2.5c.69 0 1.25.56 1.25 1.25v5.834a1.25 1.25 0 1 1-2.5 0V7.083c0-.69.56-1.25 1.25-1.25M3.75 7.5C4.44 7.5 5 8.06 5 8.75v2.5a1.25 1.25 0 0 1-2.5 0v-2.5c0-.69.56-1.25 1.25-1.25m12.5 0c.69 0 1.25.56 1.25 1.25v2.5a1.25 1.25 0 0 1-2.5 0v-2.5c0-.69.56-1.25 1.25-1.25" xmlns="http://www.w3.org/2000/svg" /></svg>