<svg xmlns="http://www.w3.org/2000/svg" viewBox="0 0 20 20"><path d="M12.403 9.875c1.777 0 2.87 1.392 2.87 3.667s-1.083 3.696-2.87 3.696-2.876-1.41-2.876-3.691c0-2.276 1.098-3.672 2.876-3.672m0 1.182c-.86 0-1.377.888-1.377 2.49 0 1.616.507 2.51 1.377 2.51.869 0 1.372-.894 1.372-2.51 0-1.607-.508-2.49-1.373-2.49M7.197 9.929c.523 0 .835.317.835.825v5.693c0 .445-.293.738-.727.738-.435 0-.733-.293-.733-.738v-5.044h-.029l-1.03.718a.6.6 0 0 1-.39.132.503.503 0 0 1-.518-.527c0-.225.088-.391.317-.552l1.397-.967c.341-.234.576-.278.878-.278M9.998 2.75a7.32 7.32 0 0 1 6.003 3.122V4.248a.666.666 0 0 1 1.33 0v3.334a.666.666 0 0 1-.665.665h-3.334a.666.666 0 0 1 0-1.33H15.1a6.005 6.005 0 0 0-10.666.914l-.063.12a.666.666 0 0 1-1.17-.619l.107-.249A7.33 7.33 0 0 1 9.998 2.75" xmlns="http://www.w3.org/2000/svg" /></svg>