<svg xmlns="http://www.w3.org/2000/svg" viewBox="0 0 24 24" fill="none"><path fill="#dfdfdf" d="M6 20.822q-1.163 0-2.075-.5A3.66 3.66 0 0 1 2.5 18.897q-.5-.913-.5-2.075v-10q0-1.163.5-2.075a3.58 3.58 0 0 1 1.425-1.413Q4.837 2.821 6 2.822h12q1.163 0 2.075.512.913.5 1.413 1.413.512.912.512 2.075v10q0 1.162-.512 2.075a3.6 3.6 0 0 1-1.413 1.425q-.912.5-2.075.5z" xmlns="http://www.w3.org/2000/svg" /><path fill="#2e9eff" d="M18 2.822q1.163 0 2.075.512a3.5 3.5 0 0 1 1.412 1.412Q22 5.66 22 6.822v2H2v-2q0-1.163.5-2.076a3.58 3.58 0 0 1 1.425-1.412Q4.837 2.822 6 2.822z" xmlns="http://www.w3.org/2000/svg" /><path fill="#77c0ff" d="M8.288 6.534q.3.288.712.288a.95.95 0 0 0 .7-.288q.3-.3.3-.712 0-.413-.3-.7a.93.93 0 0 0-.7-.3q-.412 0-.713.3a.95.95 0 0 0-.287.7q0 .412.287.712M11.288 6.534q.3.288.712.288a.95.95 0 0 0 .7-.288q.3-.3.3-.712 0-.413-.3-.7a.93.93 0 0 0-.7-.3q-.412 0-.713.3a.95.95 0 0 0-.287.7q0 .412.287.712M5.288 6.534q.3.288.712.288a.95.95 0 0 0 .7-.288q.3-.3.3-.712 0-.413-.3-.7a.93.93 0 0 0-.7-.3q-.413 0-.713.3a.95.95 0 0 0-.287.7q0 .412.287.712" xmlns="http://www.w3.org/2000/svg" /><path fill="#4d4d4d" d="M14.874 11.583q.498-.084.996.237l7.182 4.526q.497.32.628.842.142.51-.119.972-.26.45-.817.616l-1.517.451.785 1.231q.225.416.225.842 0 .416-.225.782a1.66 1.66 0 0 1-.627.605l-1.304.746a1.65 1.65 0 0 1-.83.262 1.4 1.4 0 0 1-.794-.214 1.77 1.77 0 0 1-.593-.652l-.785-1.209L16 22.688a1.24 1.24 0 0 1-.925.356q-.545 0-.948-.368-.39-.368-.39-.983v-8.735q0-.522.32-.9a1.3 1.3 0 0 1 .817-.474" xmlns="http://www.w3.org/2000/svg" /></svg>