<svg xmlns="http://www.w3.org/2000/svg" viewBox="0 0 20 20"><path d="M10 2.085a7.915 7.915 0 1 1 0 15.83 7.915 7.915 0 0 1 0-15.83m0 1.33c-2.58 0-4.475 1.114-5.553 2.816 2.7-2.805 8.468-1.39 8.468 3.766a.665.665 0 0 1-1.33 0A4.085 4.085 0 0 0 7.5 5.912c-2.211 0-4.085 1.861-4.085 4.088A6.585 6.585 0 0 0 10 16.585c2.173 0 4.309-.85 5.54-2.796-3.29 3.026-8.465.895-8.465-3.792a.665.665 0 0 1 1.33 0 4.085 4.085 0 1 0 8.17 0c-.042-3.6-2.965-6.582-6.575-6.582" xmlns="http://www.w3.org/2000/svg" /></svg>