<svg xmlns="http://www.w3.org/2000/svg" viewBox="0 0 18 18"><path d="M12.94 8.89a2.076 2.076 0 0 1 2.92 2.92l-.142.158-3.428 3.428a3 3 0 0 1-1.399.79l-.228.047-1.538.257a.75.75 0 0 1-.863-.863l.255-1.537.047-.23a3 3 0 0 1 .791-1.4l3.427-3.428zm1.717 1.203a.576.576 0 0 0-.77-.04l-.044.04-3.427 3.427a1.5 1.5 0 0 0-.396.7l-.023.115-.084.502.503-.083.114-.024a1.5 1.5 0 0 0 .7-.395l3.427-3.428.04-.044a.576.576 0 0 0-.04-.77M13.5 6.375V3.6c0-.124-.1-.225-.225-.225H8.25V10.5a.75.75 0 0 1-1.5 0V3.375H6a1.5 1.5 0 0 0-1.5 1.5v8.25a1.5 1.5 0 0 0 1.5 1.5.75.75 0 0 1 0 1.5 3 3 0 0 1-3-3v-8.25a3 3 0 0 1 3-3h7.275c.953 0 1.725.772 1.725 1.725v2.775a.75.75 0 0 1-1.5 0" xmlns="http://www.w3.org/2000/svg" /></svg>