<svg xmlns="http://www.w3.org/2000/svg" viewBox="0 0 31 31" fill="#608dff"><path d="M26.559 16.612c-2.584.967-4.567.05-5.517-2.55l-2.8-7.716c-.95-2.6-.034-4.584 2.566-5.534l1.534-.55c1.817-.683 3.233-.016 3.933 1.834l3.667 10.066c.666 1.833-.017 3.233-1.867 3.9zM6.624 20.796c-2.366.766-4.666-.284-5.516-2.55l-.817-2.3c-.85-2.284.2-4.55 2.583-5.517l12.25-5.05c.017.85.2 1.733.5 2.583l2.084 5.7a6.85 6.85 0 0 0-2.8-.583c-3.884 0-7.05 3.166-7.05 7.033v.284zm8.284 3.366c-.25 0-.484-.017-.75-.066l-3.384 5.416c-.433.7-1.35.917-2.066.483a1.53 1.53 0 0 1-.484-2.083l3.4-5.433a4 4 0 0 1-.767-2.367c0-2.216 1.817-4.033 4.05-4.033 2.234 0 4.05 1.816 4.05 4.033 0 .884-.283 1.7-.766 2.367l3.4 5.433a1.53 1.53 0 0 1-.483 2.084 1.504 1.504 0 0 1-2.067-.484l-3.384-5.416c-.266.05-.5.066-.75.066" xmlns="http://www.w3.org/2000/svg" /></svg>