<svg xmlns="http://www.w3.org/2000/svg" viewBox="0 0 20 20"><path d="M7.584 2.874a3 3 0 0 1 1.816.757c.073.064.142.135.244.237.111.113.15.15.186.183.292.26.663.415 1.053.44.049.002.103.002.262.002h2.305c.655 0 1.184 0 1.612.034.435.036.82.112 1.178.294a3 3 0 0 1 1.314 1.314c.182.358.258.743.294 1.178.035.428.034.957.034 1.612V12.7c0 .655 0 1.184-.034 1.612-.036.435-.112.82-.294 1.178a3 3 0 0 1-1.314 1.314c-.358.182-.743.258-1.178.294-.428.035-.957.034-1.612.034h-6.9c-.655 0-1.184 0-1.612-.034-.435-.036-.82-.112-1.178-.294a3 3 0 0 1-1.314-1.314c-.182-.358-.258-.743-.294-1.178-.035-.428-.034-.957-.034-1.612V7.3c0-.655 0-1.184.034-1.612.036-.435.112-.82.294-1.178A3 3 0 0 1 3.76 3.196c.358-.182.743-.258 1.178-.294.428-.035.957-.034 1.612-.034h.695c.144 0 .242 0 .339.006M10 14.165c-1.189 0-2.312.58-2.81 1.703h5.622c-.5-1.123-1.623-1.703-2.812-1.703M6.55 4.132c-.675 0-1.144 0-1.508.03-.357.03-.558.083-.708.16a1.75 1.75 0 0 0-.763.762c-.076.15-.13.351-.159.708-.03.364-.03.833-.03 1.508v5.4c0 .675 0 1.144.03 1.508.03.357.083.558.16.708.166.328.434.596.762.763.15.076.351.13.708.159.205.017.443.023.732.026.59-2.036 2.447-3.029 4.226-3.029s3.635.994 4.225 3.03c.29-.004.528-.01.733-.027.357-.03.558-.083.708-.16.328-.166.596-.434.763-.762.076-.15.13-.351.159-.708.03-.364.03-.833.03-1.508V8.925c0-.675 0-1.144-.03-1.508-.03-.357-.083-.558-.16-.708a1.75 1.75 0 0 0-.762-.763c-.15-.076-.351-.13-.708-.159-.364-.03-.833-.03-1.508-.03h-2.305c-.144 0-.243 0-.34-.006a3 3 0 0 1-1.816-.757c-.072-.065-.142-.135-.243-.237a4 4 0 0 0-.186-.183 1.75 1.75 0 0 0-1.053-.44c-.05-.002-.103-.002-.262-.002zM10 7.585a2.415 2.415 0 1 1 0 4.83 2.415 2.415 0 0 1 0-4.83m0 1.33a1.085 1.085 0 1 0 0 2.17 1.085 1.085 0 0 0 0-2.17" xmlns="http://www.w3.org/2000/svg" /></svg>