<svg xmlns="http://www.w3.org/2000/svg" viewBox="0 0 20 20"><path d="M10 2.085a7.915 7.915 0 0 1 7.155 11.303.666.666 0 0 1-1.202-.57A6.585 6.585 0 0 0 10 3.415a.665.665 0 0 1 0-1.33M8.701 9.25a1.5 1.5 0 0 1 2.049-.549c1.299.75 3.83 3.366 3.58 3.799s-3.781-.451-5.08-1.201a1.5 1.5 0 0 1-.549-2.049M12.084.005a.666.666 0 0 1 0 1.33H7.917a.665.665 0 0 1 0-1.33z" xmlns="http://www.w3.org/2000/svg" /><path d="M16.585 10a6.585 6.585 0 1 0-13.17 0 6.585 6.585 0 0 0 13.17 0m1.33 0a7.915 7.915 0 1 1-15.83 0 7.915 7.915 0 0 1 15.83 0" opacity=".2" xmlns="http://www.w3.org/2000/svg" /></svg>