<svg xmlns="http://www.w3.org/2000/svg" viewBox="0 0 20 20"><path d="M3.983 6.571a1.74 1.74 0 0 0-1.235 1.662v3.534c0 .957.777 1.734 1.734 1.734.767 0 1.507.288 2.072.806L8.77 16.34l.073.056a.585.585 0 0 0 .907-.488v-3.57l1.33 1.33v2.24c0 1.614-1.859 2.483-3.092 1.512l-.117-.1-2.217-2.033a1.74 1.74 0 0 0-1.173-.456 3.065 3.065 0 0 1-3.064-3.064V8.233c0-1.145.63-2.141 1.56-2.668zM2.53 2.53a.666.666 0 0 1 .836-.086l.105.085 14 14 .085.105a.666.666 0 0 1-.922.921l-.105-.084-14-14-.085-.105a.666.666 0 0 1 .085-.837M16.59 5.445a.665.665 0 0 1 .902.267A8.97 8.97 0 0 1 18.578 10a8.96 8.96 0 0 1-1.037 4.196.66.66 0 0 1-.426.331l-.805-.805q.018-.076.055-.147A7.63 7.63 0 0 0 17.248 10a7.63 7.63 0 0 0-.925-3.653.665.665 0 0 1 .268-.902M13.268 6.718c.293-.22.71-.16.93.132a5.23 5.23 0 0 1 1.05 3.15l-.015.393a5.2 5.2 0 0 1-.463 1.79l-1.026-1.027q.129-.414.163-.862l.011-.294a3.9 3.9 0 0 0-.783-2.35.666.666 0 0 1 .133-.932M7.99 2.58c1.232-.971 3.09-.102 3.091 1.512v4.401l-1.33-1.33V4.092a.586.586 0 0 0-.907-.49l-.073.058-1.317 1.206-.941-.941 1.36-1.245z" xmlns="http://www.w3.org/2000/svg" /></svg>