<svg xmlns="http://www.w3.org/2000/svg" viewBox="0 0 20 20"><path d="M9.167 6.25a1.25 1.25 0 1 1-2.5 0 1.25 1.25 0 0 1 2.5 0M12.084 7.5a1.25 1.25 0 1 0 0-2.5 1.25 1.25 0 0 0 0 2.5" xmlns="http://www.w3.org/2000/svg" /><path d="M10 .833c.46 0 .834.374.834.834v.416h2.392c.427 0 .795 0 1.099.025.32.025.64.081.948.233a2.5 2.5 0 0 1 1.136 1.137c.152.308.208.627.234.948.024.303.024.672.024 1.098v.066c0 .878 0 1.586-.046 2.16-.047.59-.146 1.11-.384 1.593a4.17 4.17 0 0 1-1.894 1.894c-.483.238-1.002.337-1.593.384-.574.046-1.282.046-2.16.046H9.41c-.878 0-1.586 0-2.16-.046-.59-.047-1.11-.146-1.593-.384a4.17 4.17 0 0 1-1.894-1.894c-.238-.483-.337-1.002-.384-1.593-.046-.574-.046-1.282-.046-2.16v-.065c0-.427 0-.796.025-1.1.025-.32.081-.639.233-.947A2.5 2.5 0 0 1 4.728 2.34c.308-.152.627-.208.948-.233.303-.025.672-.025 1.099-.025h2.392v-.416c0-.46.373-.834.833-.834M5.808 3.77c-.22.018-.303.047-.343.067a.83.83 0 0 0-.379.379c-.02.04-.05.122-.067.343-.018.23-.019.53-.019.998 0 .92 0 1.562.04 2.062.04.49.112.773.218.988a2.5 2.5 0 0 0 1.136 1.136c.215.106.497.179.988.218.5.04 1.142.04 2.063.04h1.11c.921 0 1.563 0 2.063-.04.49-.04.774-.112.988-.218a2.5 2.5 0 0 0 1.136-1.136c.106-.215.179-.497.218-.988.04-.5.04-1.142.04-2.062 0-.467 0-.769-.019-.998-.017-.22-.047-.303-.067-.343a.83.83 0 0 0-.379-.379c-.04-.02-.122-.05-.342-.067-.23-.018-.531-.019-.998-.019h-6.39c-.466 0-.768 0-.997.019M5 17.5c0-.811.46-1.625 1.36-2.268.899-.642 2.183-1.065 3.64-1.065s2.742.423 3.64 1.065c.901.643 1.36 1.457 1.36 2.268a.833.833 0 0 0 1.667 0c0-1.49-.847-2.76-2.058-3.624C13.397 13.01 11.765 12.5 10 12.5c-1.764 0-3.397.51-4.609 1.376-1.21.865-2.057 2.135-2.057 3.624A.833.833 0 0 0 5 17.5" xmlns="http://www.w3.org/2000/svg" /></svg>