<svg xmlns="http://www.w3.org/2000/svg" viewBox="0 0 24 24"><path d="M11.85 22.488q-.612.374-1.325.35a2.3 2.3 0 0 1-1.287-.413l-4.175-2.85a2.55 2.55 0 0 1-.788-.875A2.4 2.4 0 0 1 4 17.575v-9.85q0-.625.3-1.162.3-.55.838-.875L12.1 1.413q.6-.375 1.3-.363.7 0 1.287.4l4.288 2.925q.488.337.75.838.275.5.275 1.075v9.862q0 .613-.312 1.163-.3.55-.838.875zM16.925 5.4l-3.35-2.287a.4.4 0 0 0-.212-.075.3.3 0 0 0-.2.05l-6.3 3.887L10.425 9.4zm-7.363 5.788L6 8.763v3.475l3.563 2.425zm0 5.75L6 14.513v3.075q0 .1.037.187a.3.3 0 0 0 .125.138l3.4 2.325zM18 10.525V7.1l-6.437 3.95v3.425zm-.2 5.963a.5.5 0 0 0 .15-.138.4.4 0 0 0 .05-.2v-3.312L11.563 16.8v3.525z" xmlns="http://www.w3.org/2000/svg" /></svg>