<svg xmlns="http://www.w3.org/2000/svg" viewBox="0 0 20 20" fill-rule="evenodd" clip-rule="evenodd"><path d="M12.701 2.5c.67 0 1.225 0 1.676.037.468.038.898.12 1.303.326.627.32 1.137.83 1.457 1.457.206.405.288.835.326 1.303.037.451.037 1.005.037 1.676V12.7c0 .67 0 1.225-.037 1.676-.038.468-.12.898-.326 1.303a3.34 3.34 0 0 1-1.457 1.457c-.405.206-.835.288-1.303.326-.451.037-1.005.037-1.676.037H7.3c-.67 0-1.225 0-1.676-.037-.468-.038-.898-.12-1.303-.326a3.34 3.34 0 0 1-1.457-1.457c-.206-.405-.288-.835-.326-1.303-.037-.451-.037-1.005-.037-1.676V7.3c0-.67 0-1.225.037-1.676.038-.468.12-.898.326-1.303.32-.627.83-1.137 1.457-1.457.405-.206.835-.288 1.303-.326C6.074 2.5 6.628 2.5 7.3 2.5zm.724 4.248a.665.665 0 0 0-.927.161l-3.481 4.946-1.525-1.677-.1-.09a.665.665 0 0 0-.964.877l.08.107 2.083 2.292.054.053a.667.667 0 0 0 .982-.117l3.959-5.625a.666.666 0 0 0-.161-.927" xmlns="http://www.w3.org/2000/svg" /></svg>